%TF.GenerationSoftware,KiCad,Pcbnew,(5.1.6)-1*%
%TF.CreationDate,2021-06-01T12:00:34+02:00*%
%TF.ProjectId,CAN,43414e2e-6b69-4636-9164-5f7063625858,rev?*%
%TF.SameCoordinates,Original*%
%TF.FileFunction,Copper,L1,Top*%
%TF.FilePolarity,Positive*%
%FSLAX46Y46*%
G04 Gerber Fmt 4.6, Leading zero omitted, Abs format (unit mm)*
G04 Created by KiCad (PCBNEW (5.1.6)-1) date 2021-06-01 12:00:34*
%MOMM*%
%LPD*%
G01*
G04 APERTURE LIST*
%TA.AperFunction,ComponentPad*%
%ADD10C,4.000000*%
%TD*%
%TA.AperFunction,ComponentPad*%
%ADD11C,1.600000*%
%TD*%
%TA.AperFunction,ComponentPad*%
%ADD12R,1.600000X1.600000*%
%TD*%
%TA.AperFunction,ViaPad*%
%ADD13C,0.800000*%
%TD*%
%TA.AperFunction,Conductor*%
%ADD14C,0.250000*%
%TD*%
G04 APERTURE END LIST*
D10*
%TO.P,J8,0*%
%TO.N,N/C*%
X155300000Y-137040000D03*
X155300000Y-162040000D03*
D11*
%TO.P,J8,9*%
%TO.N,Net-(J8-Pad9)*%
X157840000Y-153695000D03*
%TO.P,J8,8*%
%TO.N,Net-(J8-Pad8)*%
X157840000Y-150925000D03*
%TO.P,J8,7*%
%TO.N,/CAN+*%
X157840000Y-148155000D03*
%TO.P,J8,6*%
%TO.N,Net-(J8-Pad6)*%
X157840000Y-145385000D03*
%TO.P,J8,5*%
%TO.N,Net-(J8-Pad5)*%
X155000000Y-155080000D03*
%TO.P,J8,4*%
%TO.N,Net-(J8-Pad4)*%
X155000000Y-152310000D03*
%TO.P,J8,3*%
%TO.N,Net-(J8-Pad3)*%
X155000000Y-149540000D03*
%TO.P,J8,2*%
%TO.N,/CAN-*%
X155000000Y-146770000D03*
D12*
%TO.P,J8,1*%
%TO.N,Net-(J8-Pad1)*%
X155000000Y-144000000D03*
%TD*%
D10*
%TO.P,J7,0*%
%TO.N,N/C*%
X155300000Y-101040000D03*
X155300000Y-126040000D03*
D11*
%TO.P,J7,9*%
%TO.N,Net-(J7-Pad9)*%
X157840000Y-117695000D03*
%TO.P,J7,8*%
%TO.N,Net-(J7-Pad8)*%
X157840000Y-114925000D03*
%TO.P,J7,7*%
%TO.N,/CAN+*%
X157840000Y-112155000D03*
%TO.P,J7,6*%
%TO.N,Net-(J7-Pad6)*%
X157840000Y-109385000D03*
%TO.P,J7,5*%
%TO.N,Net-(J7-Pad5)*%
X155000000Y-119080000D03*
%TO.P,J7,4*%
%TO.N,Net-(J7-Pad4)*%
X155000000Y-116310000D03*
%TO.P,J7,3*%
%TO.N,Net-(J7-Pad3)*%
X155000000Y-113540000D03*
%TO.P,J7,2*%
%TO.N,/CAN-*%
X155000000Y-110770000D03*
D12*
%TO.P,J7,1*%
%TO.N,Net-(J7-Pad1)*%
X155000000Y-108000000D03*
%TD*%
D10*
%TO.P,J6,0*%
%TO.N,N/C*%
X155460000Y-66115000D03*
X155460000Y-91115000D03*
D11*
%TO.P,J6,9*%
%TO.N,Net-(J6-Pad9)*%
X158000000Y-82770000D03*
%TO.P,J6,8*%
%TO.N,Net-(J6-Pad8)*%
X158000000Y-80000000D03*
%TO.P,J6,7*%
%TO.N,/CAN+*%
X158000000Y-77230000D03*
%TO.P,J6,6*%
%TO.N,Net-(J6-Pad6)*%
X158000000Y-74460000D03*
%TO.P,J6,5*%
%TO.N,Net-(J6-Pad5)*%
X155160000Y-84155000D03*
%TO.P,J6,4*%
%TO.N,Net-(J6-Pad4)*%
X155160000Y-81385000D03*
%TO.P,J6,3*%
%TO.N,Net-(J6-Pad3)*%
X155160000Y-78615000D03*
%TO.P,J6,2*%
%TO.N,/CAN-*%
X155160000Y-75845000D03*
D12*
%TO.P,J6,1*%
%TO.N,Net-(J6-Pad1)*%
X155160000Y-73075000D03*
%TD*%
D10*
%TO.P,J5,0*%
%TO.N,N/C*%
X155300000Y-31040000D03*
X155300000Y-56040000D03*
D11*
%TO.P,J5,9*%
%TO.N,Net-(J5-Pad9)*%
X157840000Y-47695000D03*
%TO.P,J5,8*%
%TO.N,Net-(J5-Pad8)*%
X157840000Y-44925000D03*
%TO.P,J5,7*%
%TO.N,/CAN+*%
X157840000Y-42155000D03*
%TO.P,J5,6*%
%TO.N,Net-(J5-Pad6)*%
X157840000Y-39385000D03*
%TO.P,J5,5*%
%TO.N,Net-(J5-Pad5)*%
X155000000Y-49080000D03*
%TO.P,J5,4*%
%TO.N,Net-(J5-Pad4)*%
X155000000Y-46310000D03*
%TO.P,J5,3*%
%TO.N,Net-(J5-Pad3)*%
X155000000Y-43540000D03*
%TO.P,J5,2*%
%TO.N,/CAN-*%
X155000000Y-40770000D03*
D12*
%TO.P,J5,1*%
%TO.N,Net-(J5-Pad1)*%
X155000000Y-38000000D03*
%TD*%
D10*
%TO.P,J4,0*%
%TO.N,N/C*%
X90700000Y-161960000D03*
X90700000Y-136960000D03*
D11*
%TO.P,J4,9*%
%TO.N,Net-(J4-Pad9)*%
X88160000Y-145305000D03*
%TO.P,J4,8*%
%TO.N,Net-(J4-Pad8)*%
X88160000Y-148075000D03*
%TO.P,J4,7*%
%TO.N,/CAN+*%
X88160000Y-150845000D03*
%TO.P,J4,6*%
%TO.N,Net-(J4-Pad6)*%
X88160000Y-153615000D03*
%TO.P,J4,5*%
%TO.N,Net-(J4-Pad5)*%
X91000000Y-143920000D03*
%TO.P,J4,4*%
%TO.N,Net-(J4-Pad4)*%
X91000000Y-146690000D03*
%TO.P,J4,3*%
%TO.N,Net-(J4-Pad3)*%
X91000000Y-149460000D03*
%TO.P,J4,2*%
%TO.N,/CAN-*%
X91000000Y-152230000D03*
D12*
%TO.P,J4,1*%
%TO.N,Net-(J4-Pad1)*%
X91000000Y-155000000D03*
%TD*%
D10*
%TO.P,J2,0*%
%TO.N,N/C*%
X90700000Y-90960000D03*
X90700000Y-65960000D03*
D11*
%TO.P,J2,9*%
%TO.N,Net-(J2-Pad9)*%
X88160000Y-74305000D03*
%TO.P,J2,8*%
%TO.N,Net-(J2-Pad8)*%
X88160000Y-77075000D03*
%TO.P,J2,7*%
%TO.N,/CAN+*%
X88160000Y-79845000D03*
%TO.P,J2,6*%
%TO.N,Net-(J2-Pad6)*%
X88160000Y-82615000D03*
%TO.P,J2,5*%
%TO.N,Net-(J2-Pad5)*%
X91000000Y-72920000D03*
%TO.P,J2,4*%
%TO.N,Net-(J2-Pad4)*%
X91000000Y-75690000D03*
%TO.P,J2,3*%
%TO.N,Net-(J2-Pad3)*%
X91000000Y-78460000D03*
%TO.P,J2,2*%
%TO.N,/CAN-*%
X91000000Y-81230000D03*
D12*
%TO.P,J2,1*%
%TO.N,Net-(J2-Pad1)*%
X91000000Y-84000000D03*
%TD*%
D10*
%TO.P,J1,0*%
%TO.N,N/C*%
X90700000Y-56960000D03*
X90700000Y-31960000D03*
D11*
%TO.P,J1,9*%
%TO.N,Net-(J1-Pad9)*%
X88160000Y-40305000D03*
%TO.P,J1,8*%
%TO.N,Net-(J1-Pad8)*%
X88160000Y-43075000D03*
%TO.P,J1,7*%
%TO.N,/CAN+*%
X88160000Y-45845000D03*
%TO.P,J1,6*%
%TO.N,Net-(J1-Pad6)*%
X88160000Y-48615000D03*
%TO.P,J1,5*%
%TO.N,Net-(J1-Pad5)*%
X91000000Y-38920000D03*
%TO.P,J1,4*%
%TO.N,Net-(J1-Pad4)*%
X91000000Y-41690000D03*
%TO.P,J1,3*%
%TO.N,Net-(J1-Pad3)*%
X91000000Y-44460000D03*
%TO.P,J1,2*%
%TO.N,/CAN-*%
X91000000Y-47230000D03*
D12*
%TO.P,J1,1*%
%TO.N,Net-(J1-Pad1)*%
X91000000Y-50000000D03*
%TD*%
D10*
%TO.P,J3,0*%
%TO.N,N/C*%
X90700000Y-125960000D03*
X90700000Y-100960000D03*
D11*
%TO.P,J3,9*%
%TO.N,Net-(J3-Pad9)*%
X88160000Y-109305000D03*
%TO.P,J3,8*%
%TO.N,Net-(J3-Pad8)*%
X88160000Y-112075000D03*
%TO.P,J3,7*%
%TO.N,/CAN+*%
X88160000Y-114845000D03*
%TO.P,J3,6*%
%TO.N,Net-(J3-Pad6)*%
X88160000Y-117615000D03*
%TO.P,J3,5*%
%TO.N,Net-(J3-Pad5)*%
X91000000Y-107920000D03*
%TO.P,J3,4*%
%TO.N,Net-(J3-Pad4)*%
X91000000Y-110690000D03*
%TO.P,J3,3*%
%TO.N,Net-(J3-Pad3)*%
X91000000Y-113460000D03*
%TO.P,J3,2*%
%TO.N,/CAN-*%
X91000000Y-116230000D03*
D12*
%TO.P,J3,1*%
%TO.N,Net-(J3-Pad1)*%
X91000000Y-119000000D03*
%TD*%
%TO.P,R2,2*%
%TO.N,/CAN+*%
%TA.AperFunction,SMDPad,CuDef*%
G36*
G01*
X123350000Y-164237500D02*
X123350000Y-163762500D01*
G75*
G02*
X123587500Y-163525000I237500J0D01*
G01*
X124162500Y-163525000D01*
G75*
G02*
X124400000Y-163762500I0J-237500D01*
G01*
X124400000Y-164237500D01*
G75*
G02*
X124162500Y-164475000I-237500J0D01*
G01*
X123587500Y-164475000D01*
G75*
G02*
X123350000Y-164237500I0J237500D01*
G01*
G37*
%TD.AperFunction*%
%TO.P,R2,1*%
%TO.N,/CAN-*%
%TA.AperFunction,SMDPad,CuDef*%
G36*
G01*
X121600000Y-164237500D02*
X121600000Y-163762500D01*
G75*
G02*
X121837500Y-163525000I237500J0D01*
G01*
X122412500Y-163525000D01*
G75*
G02*
X122650000Y-163762500I0J-237500D01*
G01*
X122650000Y-164237500D01*
G75*
G02*
X122412500Y-164475000I-237500J0D01*
G01*
X121837500Y-164475000D01*
G75*
G02*
X121600000Y-164237500I0J237500D01*
G01*
G37*
%TD.AperFunction*%
%TD*%
%TO.P,R1,2*%
%TO.N,/CAN+*%
%TA.AperFunction,SMDPad,CuDef*%
G36*
G01*
X123350000Y-31237500D02*
X123350000Y-30762500D01*
G75*
G02*
X123587500Y-30525000I237500J0D01*
G01*
X124162500Y-30525000D01*
G75*
G02*
X124400000Y-30762500I0J-237500D01*
G01*
X124400000Y-31237500D01*
G75*
G02*
X124162500Y-31475000I-237500J0D01*
G01*
X123587500Y-31475000D01*
G75*
G02*
X123350000Y-31237500I0J237500D01*
G01*
G37*
%TD.AperFunction*%
%TO.P,R1,1*%
%TO.N,/CAN-*%
%TA.AperFunction,SMDPad,CuDef*%
G36*
G01*
X121600000Y-31237500D02*
X121600000Y-30762500D01*
G75*
G02*
X121837500Y-30525000I237500J0D01*
G01*
X122412500Y-30525000D01*
G75*
G02*
X122650000Y-30762500I0J-237500D01*
G01*
X122650000Y-31237500D01*
G75*
G02*
X122412500Y-31475000I-237500J0D01*
G01*
X121837500Y-31475000D01*
G75*
G02*
X121600000Y-31237500I0J237500D01*
G01*
G37*
%TD.AperFunction*%
%TD*%
D13*
%TO.N,/CAN+*%
X126300000Y-45760000D03*
X126100000Y-79970000D03*
X127660000Y-114760000D03*
X128420000Y-150830000D03*
X118465000Y-150845000D03*
X118805000Y-114845000D03*
X119025000Y-79845000D03*
X119565000Y-45845000D03*
%TO.N,/CAN-*%
X118410000Y-146750000D03*
X118890000Y-110840000D03*
X119190000Y-75960000D03*
X119860000Y-40760000D03*
X126230000Y-40770000D03*
X125975000Y-75845000D03*
X127630000Y-110770000D03*
X128380000Y-146770000D03*
%TD*%
D14*
%TO.N,/CAN+*%
X88160000Y-150845000D02*
X118465000Y-150845000D01*
X118465000Y-150845000D02*
X118465000Y-150845000D01*
X128420000Y-150830000D02*
X123890000Y-150830000D01*
X123890000Y-150830000D02*
X123875000Y-150845000D01*
X123875000Y-164000000D02*
X123875000Y-150845000D01*
X123915000Y-148155000D02*
X123875000Y-148195000D01*
X123875000Y-150845000D02*
X123875000Y-148195000D01*
X157840000Y-148155000D02*
X123915000Y-148155000D01*
X123895000Y-112155000D02*
X123875000Y-112175000D01*
X157840000Y-112155000D02*
X123895000Y-112155000D01*
X158000000Y-77230000D02*
X123890000Y-77230000D01*
X123890000Y-77230000D02*
X123875000Y-77245000D01*
X123895000Y-42155000D02*
X123875000Y-42175000D01*
X157840000Y-42155000D02*
X123895000Y-42155000D01*
X123875000Y-42175000D02*
X123875000Y-31000000D01*
X88160000Y-114845000D02*
X118805000Y-114845000D01*
X118805000Y-114845000D02*
X118835000Y-114845000D01*
X123875000Y-148195000D02*
X123875000Y-114815000D01*
X123930000Y-114760000D02*
X123875000Y-114815000D01*
X127660000Y-114760000D02*
X123930000Y-114760000D01*
X123875000Y-114815000D02*
X123875000Y-112175000D01*
X88160000Y-79845000D02*
X119025000Y-79845000D01*
X119025000Y-79845000D02*
X119055000Y-79845000D01*
X123930000Y-79970000D02*
X123875000Y-80025000D01*
X126100000Y-79970000D02*
X123930000Y-79970000D01*
X123875000Y-112175000D02*
X123875000Y-80025000D01*
X123875000Y-80025000D02*
X123875000Y-77245000D01*
X88160000Y-45845000D02*
X119565000Y-45845000D01*
X119565000Y-45845000D02*
X119565000Y-45845000D01*
X123970000Y-45760000D02*
X123875000Y-45855000D01*
X126300000Y-45760000D02*
X123970000Y-45760000D01*
X123875000Y-77245000D02*
X123875000Y-45855000D01*
X123875000Y-45855000D02*
X123875000Y-42175000D01*
%TO.N,/CAN-*%
X122125000Y-163570510D02*
X122125000Y-164000000D01*
X122125000Y-164000000D02*
X122125000Y-162570510D01*
X91000000Y-47230000D02*
X122020000Y-47230000D01*
X122020000Y-47230000D02*
X122125000Y-47125000D01*
X91000000Y-81230000D02*
X122020000Y-81230000D01*
X122020000Y-81230000D02*
X122125000Y-81125000D01*
X122020000Y-116230000D02*
X122125000Y-116125000D01*
X91000000Y-116230000D02*
X122020000Y-116230000D01*
X91000000Y-152230000D02*
X122020000Y-152230000D01*
X122020000Y-152230000D02*
X122125000Y-152125000D01*
X122125000Y-152125000D02*
X122125000Y-162570510D01*
X155000000Y-40770000D02*
X126230000Y-40770000D01*
X126230000Y-40770000D02*
X126230000Y-40770000D01*
X122100000Y-40760000D02*
X122125000Y-40785000D01*
X119860000Y-40760000D02*
X122100000Y-40760000D01*
X122125000Y-31000000D02*
X122125000Y-40785000D01*
X122125000Y-40785000D02*
X122125000Y-47125000D01*
X155160000Y-75845000D02*
X125975000Y-75845000D01*
X125975000Y-75845000D02*
X125975000Y-75845000D01*
X119190000Y-75960000D02*
X122110000Y-75960000D01*
X122110000Y-75960000D02*
X122125000Y-75945000D01*
X122125000Y-47125000D02*
X122125000Y-75945000D01*
X122125000Y-75945000D02*
X122125000Y-81125000D01*
X155000000Y-110770000D02*
X127630000Y-110770000D01*
X127630000Y-110770000D02*
X127630000Y-110770000D01*
X122110000Y-110840000D02*
X122125000Y-110855000D01*
X118890000Y-110840000D02*
X122110000Y-110840000D01*
X122125000Y-81125000D02*
X122125000Y-110855000D01*
X122125000Y-110855000D02*
X122125000Y-116125000D01*
X155000000Y-146770000D02*
X128380000Y-146770000D01*
X128380000Y-146770000D02*
X128300000Y-146770000D01*
X122120000Y-146750000D02*
X122125000Y-146745000D01*
X118410000Y-146750000D02*
X122120000Y-146750000D01*
X122125000Y-116125000D02*
X122125000Y-146745000D01*
X122125000Y-146745000D02*
X122125000Y-152125000D01*
%TD*%
M02*
