M48
INCH,TZ
T1C0.0157
T2C0.0394
T3C0.1260
%
G90
G05
T1
X46618Y-57776
X46640Y-59388
X46774Y-45215
X46807Y-43638
X46860Y-31435
X46925Y-29906
X47073Y-18049
X47189Y-16047
X49596Y-29860
X49646Y-31484
X49697Y-16051
X49724Y-18016
X50248Y-43610
X50260Y-45181
X50543Y-57783
X50559Y-59382
T2
X34709Y-57207
X34709Y-58297
X34709Y-59388
X34709Y-60478
X35827Y-56661
X35827Y-57752
X35827Y-58843
X35827Y-59933
X35827Y-61024
X61087Y-28770
X61087Y-29860
X61087Y-30951
X61087Y-32041
X61087Y-33132
X62205Y-29315
X62205Y-30406
X62205Y-31496
X62205Y-32587
X34709Y-43033
X34709Y-44124
X34709Y-45215
X34709Y-46305
X35827Y-42488
X35827Y-43579
X35827Y-44669
X35827Y-45760
X35827Y-46850
X61024Y-14961
X61024Y-16051
X61024Y-17142
X61024Y-18232
X61024Y-19323
X62142Y-15506
X62142Y-16596
X62142Y-17687
X62142Y-18778
X34709Y-29254
X34709Y-30344
X34709Y-31435
X34709Y-32526
X35827Y-28709
X35827Y-29799
X35827Y-30890
X35827Y-31980
X35827Y-33071
X61024Y-56693
X61024Y-57783
X61024Y-58874
X61024Y-59965
X61024Y-61055
X62142Y-57238
X62142Y-58329
X62142Y-59419
X62142Y-60510
X34709Y-15868
X34709Y-16959
X34709Y-18049
X34709Y-19140
X35827Y-15323
X35827Y-16413
X35827Y-17504
X35827Y-18594
X35827Y-19685
X61024Y-42520
X61024Y-43610
X61024Y-44701
X61024Y-45791
X61024Y-46882
X62142Y-43065
X62142Y-44156
X62142Y-45246
X62142Y-46337
T3
X61142Y-39780
X61142Y-49622
X35709Y-53921
X35709Y-63764
X61205Y-26030
X61205Y-35872
X35709Y-39748
X35709Y-49591
X61142Y-12220
X61142Y-22063
X35709Y-25969
X35709Y-35811
X61142Y-53953
X61142Y-63795
X35709Y-12583
X35709Y-22425
T0
M30
