%TF.GenerationSoftware,KiCad,Pcbnew,(5.1.6)-1*%
%TF.CreationDate,2021-05-08T17:05:46+02:00*%
%TF.ProjectId,nano1,6e616e6f-312e-46b6-9963-61645f706362,rev?*%
%TF.SameCoordinates,Original*%
%TF.FileFunction,Copper,L2,Bot*%
%TF.FilePolarity,Positive*%
%FSLAX46Y46*%
G04 Gerber Fmt 4.6, Leading zero omitted, Abs format (unit mm)*
G04 Created by KiCad (PCBNEW (5.1.6)-1) date 2021-05-08 17:05:46*
%MOMM*%
%LPD*%
G01*
G04 APERTURE LIST*
%TA.AperFunction,ComponentPad*%
%ADD10O,1.700000X1.700000*%
%TD*%
%TA.AperFunction,ComponentPad*%
%ADD11R,1.700000X1.700000*%
%TD*%
%TA.AperFunction,ComponentPad*%
%ADD12C,2.600000*%
%TD*%
%TA.AperFunction,ComponentPad*%
%ADD13R,2.600000X2.600000*%
%TD*%
%TA.AperFunction,ComponentPad*%
%ADD14R,3.500000X3.500000*%
%TD*%
%TA.AperFunction,ComponentPad*%
%ADD15R,1.600000X1.600000*%
%TD*%
%TA.AperFunction,ComponentPad*%
%ADD16C,1.600000*%
%TD*%
%TA.AperFunction,ComponentPad*%
%ADD17R,2.200000X2.200000*%
%TD*%
%TA.AperFunction,ComponentPad*%
%ADD18O,2.200000X2.200000*%
%TD*%
%TA.AperFunction,ComponentPad*%
%ADD19O,1.600000X1.600000*%
%TD*%
%TA.AperFunction,ViaPad*%
%ADD20C,0.800000*%
%TD*%
%TA.AperFunction,Conductor*%
%ADD21C,0.250000*%
%TD*%
%TA.AperFunction,Conductor*%
%ADD22C,0.600000*%
%TD*%
%TA.AperFunction,Conductor*%
%ADD23C,0.254000*%
%TD*%
G04 APERTURE END LIST*
D10*
%TO.P,J10,4*%
%TO.N,/AIN3*%
X112100360Y-86476840D03*
%TO.P,J10,3*%
%TO.N,/AIN2*%
X112100360Y-89016840D03*
%TO.P,J10,2*%
%TO.N,/AIN1*%
X112100360Y-91556840D03*
D11*
%TO.P,J10,1*%
%TO.N,/AIN0*%
X112100360Y-94096840D03*
%TD*%
D10*
%TO.P,J9,3*%
%TO.N,/AIN0*%
X170703240Y-94066360D03*
%TO.P,J9,2*%
%TO.N,VCC*%
X170703240Y-91526360D03*
D11*
%TO.P,J9,1*%
%TO.N,GND*%
X170703240Y-88986360D03*
%TD*%
D10*
%TO.P,J3,6*%
%TO.N,Net-(J3-Pad6)*%
X114345720Y-67670680D03*
%TO.P,J3,5*%
%TO.N,Net-(J1-Pad11)*%
X111805720Y-67670680D03*
%TO.P,J3,4*%
%TO.N,Net-(J3-Pad4)*%
X114345720Y-65130680D03*
%TO.P,J3,3*%
%TO.N,Net-(J1-Pad13)*%
X111805720Y-65130680D03*
%TO.P,J3,2*%
%TO.N,Net-(J3-Pad2)*%
X114345720Y-62590680D03*
D11*
%TO.P,J3,1*%
%TO.N,Net-(J1-Pad15)*%
X111805720Y-62590680D03*
%TD*%
D10*
%TO.P,J1,40*%
%TO.N,Net-(J1-Pad40)*%
X99161600Y-46893480D03*
%TO.P,J1,39*%
%TO.N,Net-(J1-Pad39)*%
X101701600Y-46893480D03*
%TO.P,J1,38*%
%TO.N,Net-(J1-Pad38)*%
X99161600Y-49433480D03*
%TO.P,J1,37*%
%TO.N,Net-(J1-Pad37)*%
X101701600Y-49433480D03*
%TO.P,J1,36*%
%TO.N,Net-(J1-Pad36)*%
X99161600Y-51973480D03*
%TO.P,J1,35*%
%TO.N,Net-(J1-Pad35)*%
X101701600Y-51973480D03*
%TO.P,J1,34*%
%TO.N,Net-(J1-Pad34)*%
X99161600Y-54513480D03*
%TO.P,J1,33*%
%TO.N,Net-(J1-Pad33)*%
X101701600Y-54513480D03*
%TO.P,J1,32*%
%TO.N,Net-(J1-Pad32)*%
X99161600Y-57053480D03*
%TO.P,J1,31*%
%TO.N,Net-(J1-Pad31)*%
X101701600Y-57053480D03*
%TO.P,J1,30*%
%TO.N,Net-(J1-Pad30)*%
X99161600Y-59593480D03*
%TO.P,J1,29*%
%TO.N,Net-(J1-Pad29)*%
X101701600Y-59593480D03*
%TO.P,J1,28*%
%TO.N,Net-(J1-Pad28)*%
X99161600Y-62133480D03*
%TO.P,J1,27*%
%TO.N,Net-(J1-Pad27)*%
X101701600Y-62133480D03*
%TO.P,J1,26*%
%TO.N,Net-(J1-Pad26)*%
X99161600Y-64673480D03*
%TO.P,J1,25*%
%TO.N,Net-(J1-Pad25)*%
X101701600Y-64673480D03*
%TO.P,J1,24*%
%TO.N,Net-(J1-Pad24)*%
X99161600Y-67213480D03*
%TO.P,J1,23*%
%TO.N,Net-(J1-Pad23)*%
X101701600Y-67213480D03*
%TO.P,J1,22*%
%TO.N,Net-(J1-Pad22)*%
X99161600Y-69753480D03*
%TO.P,J1,21*%
%TO.N,Net-(J1-Pad21)*%
X101701600Y-69753480D03*
%TO.P,J1,20*%
%TO.N,Net-(J1-Pad20)*%
X99161600Y-72293480D03*
%TO.P,J1,19*%
%TO.N,Net-(J1-Pad19)*%
X101701600Y-72293480D03*
%TO.P,J1,18*%
%TO.N,Net-(J1-Pad18)*%
X99161600Y-74833480D03*
%TO.P,J1,17*%
%TO.N,Net-(J1-Pad17)*%
X101701600Y-74833480D03*
%TO.P,J1,16*%
%TO.N,Net-(J1-Pad16)*%
X99161600Y-77373480D03*
%TO.P,J1,15*%
%TO.N,Net-(J1-Pad15)*%
X101701600Y-77373480D03*
%TO.P,J1,14*%
%TO.N,Net-(J1-Pad14)*%
X99161600Y-79913480D03*
%TO.P,J1,13*%
%TO.N,Net-(J1-Pad13)*%
X101701600Y-79913480D03*
%TO.P,J1,12*%
%TO.N,Net-(J1-Pad12)*%
X99161600Y-82453480D03*
%TO.P,J1,11*%
%TO.N,Net-(J1-Pad11)*%
X101701600Y-82453480D03*
%TO.P,J1,10*%
%TO.N,Net-(J1-Pad10)*%
X99161600Y-84993480D03*
%TO.P,J1,9*%
%TO.N,GND*%
X101701600Y-84993480D03*
%TO.P,J1,8*%
%TO.N,Net-(J1-Pad8)*%
X99161600Y-87533480D03*
%TO.P,J1,7*%
%TO.N,Net-(J1-Pad7)*%
X101701600Y-87533480D03*
%TO.P,J1,6*%
%TO.N,Net-(J1-Pad6)*%
X99161600Y-90073480D03*
%TO.P,J1,5*%
%TO.N,/SCL*%
X101701600Y-90073480D03*
%TO.P,J1,4*%
%TO.N,Net-(J1-Pad4)*%
X99161600Y-92613480D03*
%TO.P,J1,3*%
%TO.N,/SDA*%
X101701600Y-92613480D03*
%TO.P,J1,2*%
%TO.N,VCC*%
X99161600Y-95153480D03*
D11*
%TO.P,J1,1*%
%TO.N,Net-(J1-Pad1)*%
X101701600Y-95153480D03*
%TD*%
D12*
%TO.P,J7,2*%
%TO.N,Net-(D7-Pad2)*%
X168711880Y-71292720D03*
D13*
%TO.P,J7,1*%
%TO.N,Net-(D3-Pad2)*%
X168711880Y-66212720D03*
%TD*%
D12*
%TO.P,J6,2*%
%TO.N,Net-(D5-Pad2)*%
X168935400Y-57221120D03*
D13*
%TO.P,J6,1*%
%TO.N,Net-(D1-Pad2)*%
X168935400Y-52141120D03*
%TD*%
D10*
%TO.P,J8,4*%
%TO.N,/SCL*%
X112181640Y-74843640D03*
%TO.P,J8,3*%
%TO.N,/SDA*%
X112181640Y-77383640D03*
%TO.P,J8,2*%
%TO.N,VCC*%
X112181640Y-79923640D03*
D11*
%TO.P,J8,1*%
%TO.N,GND*%
X112181640Y-82463640D03*
%TD*%
%TO.P,J5,3*%
%TO.N,N/C*%
%TA.AperFunction,ComponentPad*%
G36*
G01*
X124488240Y-46420840D02*
X126238240Y-46420840D01*
G75*
G02*
X127113240Y-47295840I0J-875000D01*
G01*
X127113240Y-49045840D01*
G75*
G02*
X126238240Y-49920840I-875000J0D01*
G01*
X124488240Y-49920840D01*
G75*
G02*
X123613240Y-49045840I0J875000D01*
G01*
X123613240Y-47295840D01*
G75*
G02*
X124488240Y-46420840I875000J0D01*
G01*
G37*
%TD.AperFunction*%
%TO.P,J5,2*%
%TO.N,GND*%
%TA.AperFunction,ComponentPad*%
G36*
G01*
X129063240Y-43670840D02*
X131063240Y-43670840D01*
G75*
G02*
X131813240Y-44420840I0J-750000D01*
G01*
X131813240Y-45920840D01*
G75*
G02*
X131063240Y-46670840I-750000J0D01*
G01*
X129063240Y-46670840D01*
G75*
G02*
X128313240Y-45920840I0J750000D01*
G01*
X128313240Y-44420840D01*
G75*
G02*
X129063240Y-43670840I750000J0D01*
G01*
G37*
%TD.AperFunction*%
D14*
%TO.P,J5,1*%
%TO.N,Net-(C1-Pad1)*%
X130063240Y-51170840D03*
%TD*%
D15*
%TO.P,C2,1*%
%TO.N,Net-(C2-Pad1)*%
X150779480Y-45354240D03*
D16*
%TO.P,C2,2*%
%TO.N,GND*%
X153279480Y-45354240D03*
%TD*%
D17*
%TO.P,D8,1*%
%TO.N,Net-(D7-Pad2)*%
X143154400Y-84419440D03*
D18*
%TO.P,D8,2*%
%TO.N,GND*%
X153314400Y-84419440D03*
%TD*%
D17*
%TO.P,D7,1*%
%TO.N,Net-(C1-Pad1)*%
X143154400Y-80070960D03*
D18*
%TO.P,D7,2*%
%TO.N,Net-(D7-Pad2)*%
X153314400Y-80070960D03*
%TD*%
D17*
%TO.P,D6,1*%
%TO.N,Net-(D5-Pad2)*%
X143068040Y-76154280D03*
D18*
%TO.P,D6,2*%
%TO.N,GND*%
X153228040Y-76154280D03*
%TD*%
D17*
%TO.P,D5,1*%
%TO.N,Net-(C1-Pad1)*%
X143068040Y-71978520D03*
D18*
%TO.P,D5,2*%
%TO.N,Net-(D5-Pad2)*%
X153228040Y-71978520D03*
%TD*%
D17*
%TO.P,D4,1*%
%TO.N,Net-(D3-Pad2)*%
X143068040Y-67802760D03*
D18*
%TO.P,D4,2*%
%TO.N,GND*%
X153228040Y-67802760D03*
%TD*%
D17*
%TO.P,D3,1*%
%TO.N,Net-(C1-Pad1)*%
X142981680Y-63454280D03*
D18*
%TO.P,D3,2*%
%TO.N,Net-(D3-Pad2)*%
X153141680Y-63454280D03*
%TD*%
D17*
%TO.P,D2,1*%
%TO.N,Net-(D1-Pad2)*%
X143012160Y-58978800D03*
D18*
%TO.P,D2,2*%
%TO.N,GND*%
X153172160Y-58978800D03*
%TD*%
D17*
%TO.P,D1,1*%
%TO.N,Net-(C1-Pad1)*%
X142956280Y-54665880D03*
D18*
%TO.P,D1,2*%
%TO.N,Net-(D1-Pad2)*%
X153116280Y-54665880D03*
%TD*%
D15*
%TO.P,C1,1*%
%TO.N,Net-(C1-Pad1)*%
X141721840Y-45501560D03*
D16*
%TO.P,C1,2*%
%TO.N,GND*%
X144221840Y-45501560D03*
%TD*%
D19*
%TO.P,U1,16*%
%TO.N,Net-(C2-Pad1)*%
X134574280Y-58364120D03*
%TO.P,U1,8*%
%TO.N,Net-(C1-Pad1)*%
X126954280Y-76144120D03*
%TO.P,U1,15*%
%TO.N,Net-(J3-Pad4)*%
X134574280Y-60904120D03*
%TO.P,U1,7*%
%TO.N,Net-(J2-Pad4)*%
X126954280Y-73604120D03*
%TO.P,U1,14*%
%TO.N,Net-(D7-Pad2)*%
X134574280Y-63444120D03*
%TO.P,U1,6*%
%TO.N,Net-(D5-Pad2)*%
X126954280Y-71064120D03*
%TO.P,U1,13*%
%TO.N,GND*%
X134574280Y-65984120D03*
%TO.P,U1,5*%
X126954280Y-68524120D03*
%TO.P,U1,12*%
X134574280Y-68524120D03*
%TO.P,U1,4*%
X126954280Y-65984120D03*
%TO.P,U1,11*%
%TO.N,Net-(D3-Pad2)*%
X134574280Y-71064120D03*
%TO.P,U1,3*%
%TO.N,Net-(D1-Pad2)*%
X126954280Y-63444120D03*
%TO.P,U1,10*%
%TO.N,Net-(J3-Pad2)*%
X134574280Y-73604120D03*
%TO.P,U1,2*%
%TO.N,Net-(J2-Pad2)*%
X126954280Y-60904120D03*
%TO.P,U1,9*%
%TO.N,Net-(J3-Pad6)*%
X134574280Y-76144120D03*
D15*
%TO.P,U1,1*%
%TO.N,Net-(J2-Pad6)*%
X126954280Y-58364120D03*
%TD*%
D10*
%TO.P,J4,4*%
%TO.N,GND*%
X114020600Y-47259240D03*
%TO.P,J4,3*%
%TO.N,Net-(J1-Pad39)*%
X111480600Y-47259240D03*
%TO.P,J4,2*%
%TO.N,Net-(C2-Pad1)*%
X114020600Y-44719240D03*
D11*
%TO.P,J4,1*%
%TO.N,Net-(J1-Pad4)*%
X111480600Y-44719240D03*
%TD*%
D10*
%TO.P,J2,6*%
%TO.N,Net-(J2-Pad6)*%
X114020600Y-57734200D03*
%TO.P,J2,5*%
%TO.N,Net-(J1-Pad19)*%
X111480600Y-57734200D03*
%TO.P,J2,4*%
%TO.N,Net-(J2-Pad4)*%
X114020600Y-55194200D03*
%TO.P,J2,3*%
%TO.N,Net-(J1-Pad21)*%
X111480600Y-55194200D03*
%TO.P,J2,2*%
%TO.N,Net-(J2-Pad2)*%
X114020600Y-52654200D03*
D11*
%TO.P,J2,1*%
%TO.N,Net-(J1-Pad23)*%
X111480600Y-52654200D03*
%TD*%
D20*
%TO.N,GND*%
X116626640Y-86669880D03*
X131582160Y-90678000D03*
X163748720Y-88463120D03*
X157911800Y-92547440D03*
%TD*%
D21*
%TO.N,Net-(J1-Pad4)*%
X106583480Y-49616360D02*
X111480600Y-44719240D01*
X101327597Y-83628481D02*
X103442519Y-83628481D01*
X100526599Y-84429479D02*
X101327597Y-83628481D01*
X99161600Y-92613480D02*
X100526599Y-91248481D01*
X100526599Y-91248481D02*
X100526599Y-84429479D01*
X106583480Y-80487520D02*
X106583480Y-49616360D01*
X103442519Y-83628481D02*
X106583480Y-80487520D01*
%TO.N,GND*%
X111580679Y-81862679D02*
X112181640Y-82463640D01*
X109651800Y-84993480D02*
X112181640Y-82463640D01*
X101701600Y-84993480D02*
X109651800Y-84993480D01*
D22*
%TO.N,Net-(C1-Pad1)*%
X126954280Y-76144120D02*
X130088640Y-79278480D01*
X139471400Y-80070960D02*
X143154400Y-80070960D01*
X138678920Y-79278480D02*
X139471400Y-80070960D01*
X130088640Y-79278480D02*
X138678920Y-79278480D01*
X147985480Y-54665880D02*
X142956280Y-54665880D01*
X141721840Y-43774360D02*
X143484600Y-42011600D01*
X157246320Y-45405040D02*
X147985480Y-54665880D01*
X143484600Y-42011600D02*
X153852880Y-42011600D01*
X141721840Y-45501560D02*
X141721840Y-43774360D01*
X153852880Y-42011600D02*
X157246320Y-45405040D01*
%TO.N,Net-(D1-Pad2)*%
X123797152Y-66601248D02*
X123797152Y-66641888D01*
X126954280Y-63444120D02*
X123797152Y-66601248D01*
X123797152Y-66641888D02*
X122260360Y-68178680D01*
X122260360Y-68178680D02*
X122260360Y-80157320D01*
X122260360Y-80157320D02*
X129240280Y-87137240D01*
X152964602Y-87137240D02*
X157154880Y-82946962D01*
X129240280Y-87137240D02*
X152964602Y-87137240D01*
X157154880Y-58704480D02*
X153116280Y-54665880D01*
X157154880Y-82946962D02*
X157154880Y-58704480D01*
%TO.N,Net-(D3-Pad2)*%
X139806680Y-71064120D02*
X143068040Y-67802760D01*
X134574280Y-71064120D02*
X139806680Y-71064120D01*
%TO.N,Net-(D5-Pad2)*%
X147995640Y-76997560D02*
X147152360Y-76154280D01*
X147995640Y-79943960D02*
X147995640Y-76997560D01*
X145120161Y-82819439D02*
X147995640Y-79943960D01*
X147152360Y-76154280D02*
X143068040Y-76154280D01*
X126954280Y-71064120D02*
X124597160Y-73421240D01*
X124597160Y-73421240D02*
X124597160Y-80218280D01*
X124597160Y-80218280D02*
X127198319Y-82819439D01*
X127198319Y-82819439D02*
X145120161Y-82819439D01*
%TO.N,Net-(D7-Pad2)*%
X134574280Y-63444120D02*
X136819640Y-65689480D01*
X136819640Y-65689480D02*
X147391120Y-65689480D01*
X148371560Y-66669920D02*
X148371560Y-75570080D01*
X147391120Y-65689480D02*
X148371560Y-66669920D01*
X148371560Y-75570080D02*
X150185120Y-77383640D01*
X150627080Y-77383640D02*
X153314400Y-80070960D01*
X150185120Y-77383640D02*
X150627080Y-77383640D01*
%TO.N,Net-(C2-Pad1)*%
X114020600Y-44719240D02*
X123794520Y-54493160D01*
X130703320Y-54493160D02*
X134574280Y-58364120D01*
X123794520Y-54493160D02*
X130703320Y-54493160D01*
X146044920Y-50088800D02*
X150779480Y-45354240D01*
X134574280Y-58364120D02*
X142849600Y-50088800D01*
X142849600Y-50088800D02*
X146044920Y-50088800D01*
%TD*%
D23*
%TO.N,GND*%
G36*
X121325361Y-78746209D02*
G01*
X121325361Y-80111378D01*
X121320836Y-80157320D01*
X121338889Y-80340611D01*
X121366157Y-80430500D01*
X121392354Y-80516860D01*
X121479175Y-80679292D01*
X121596017Y-80821664D01*
X121631696Y-80850945D01*
X128546655Y-87765905D01*
X128575936Y-87801584D01*
X128718308Y-87918426D01*
X128799531Y-87961840D01*
X128880739Y-88005247D01*
X129056988Y-88058712D01*
X129240280Y-88076764D01*
X129286215Y-88072240D01*
X152918670Y-88072240D01*
X152964602Y-88076764D01*
X153010534Y-88072240D01*
X153147894Y-88058711D01*
X153324142Y-88005247D01*
X153486574Y-87918426D01*
X153616376Y-87811900D01*
X169342720Y-87757475D01*
X169322703Y-87781866D01*
X169263738Y-87892180D01*
X169227428Y-88011878D01*
X169215168Y-88136360D01*
X169218240Y-88700610D01*
X169376990Y-88859360D01*
X170576240Y-88859360D01*
X170576240Y-88839360D01*
X170830240Y-88839360D01*
X170830240Y-88859360D01*
X172029490Y-88859360D01*
X172188240Y-88700610D01*
X172191312Y-88136360D01*
X172179052Y-88011878D01*
X172142742Y-87892180D01*
X172083777Y-87781866D01*
X172056054Y-87748085D01*
X175227375Y-87737110D01*
X175429958Y-96428886D01*
X174003400Y-96423992D01*
X174002449Y-96423898D01*
X173971122Y-96423881D01*
X173939526Y-96423773D01*
X173938567Y-96423864D01*
X103058893Y-96386296D01*
X103082137Y-96357974D01*
X103141102Y-96247660D01*
X103177412Y-96127962D01*
X103189672Y-96003480D01*
X103189672Y-94303480D01*
X103177412Y-94178998D01*
X103141102Y-94059300D01*
X103082137Y-93948986D01*
X103002785Y-93852295D01*
X102906094Y-93772943D01*
X102795780Y-93713978D01*
X102723220Y-93691967D01*
X102855075Y-93560112D01*
X103017590Y-93316891D01*
X103046605Y-93246840D01*
X110612288Y-93246840D01*
X110612288Y-94946840D01*
X110624548Y-95071322D01*
X110660858Y-95191020D01*
X110719823Y-95301334D01*
X110799175Y-95398025D01*
X110895866Y-95477377D01*
X111006180Y-95536342D01*
X111125878Y-95572652D01*
X111250360Y-95584912D01*
X112950360Y-95584912D01*
X113074842Y-95572652D01*
X113194540Y-95536342D01*
X113304854Y-95477377D01*
X113401545Y-95398025D01*
X113480897Y-95301334D01*
X113539862Y-95191020D01*
X113576172Y-95071322D01*
X113588432Y-94946840D01*
X113588432Y-93246840D01*
X113576172Y-93122358D01*
X113539862Y-93002660D01*
X113480897Y-92892346D01*
X113401545Y-92795655D01*
X113304854Y-92716303D01*
X113194540Y-92657338D01*
X113121980Y-92635327D01*
X113253835Y-92503472D01*
X113416350Y-92260251D01*
X113528292Y-91989998D01*
X113585360Y-91703100D01*
X113585360Y-91410580D01*
X113528292Y-91123682D01*
X113416350Y-90853429D01*
X113253835Y-90610208D01*
X113046992Y-90403365D01*
X112872600Y-90286840D01*
X113046992Y-90170315D01*
X113253835Y-89963472D01*
X113338768Y-89836360D01*
X169215168Y-89836360D01*
X169227428Y-89960842D01*
X169263738Y-90080540D01*
X169322703Y-90190854D01*
X169402055Y-90287545D01*
X169498746Y-90366897D01*
X169609060Y-90425862D01*
X169681620Y-90447873D01*
X169549765Y-90579728D01*
X169387250Y-90822949D01*
X169275308Y-91093202D01*
X169218240Y-91380100D01*
X169218240Y-91672620D01*
X169275308Y-91959518D01*
X169387250Y-92229771D01*
X169549765Y-92472992D01*
X169756608Y-92679835D01*
X169931000Y-92796360D01*
X169756608Y-92912885D01*
X169549765Y-93119728D01*
X169387250Y-93362949D01*
X169275308Y-93633202D01*
X169218240Y-93920100D01*
X169218240Y-94212620D01*
X169275308Y-94499518D01*
X169387250Y-94769771D01*
X169549765Y-95012992D01*
X169756608Y-95219835D01*
X169999829Y-95382350D01*
X170270082Y-95494292D01*
X170556980Y-95551360D01*
X170849500Y-95551360D01*
X171136398Y-95494292D01*
X171406651Y-95382350D01*
X171649872Y-95219835D01*
X171856715Y-95012992D01*
X172019230Y-94769771D01*
X172131172Y-94499518D01*
X172188240Y-94212620D01*
X172188240Y-93920100D01*
X172131172Y-93633202D01*
X172019230Y-93362949D01*
X171856715Y-93119728D01*
X171649872Y-92912885D01*
X171475480Y-92796360D01*
X171649872Y-92679835D01*
X171856715Y-92472992D01*
X172019230Y-92229771D01*
X172131172Y-91959518D01*
X172188240Y-91672620D01*
X172188240Y-91380100D01*
X172131172Y-91093202D01*
X172019230Y-90822949D01*
X171856715Y-90579728D01*
X171724860Y-90447873D01*
X171797420Y-90425862D01*
X171907734Y-90366897D01*
X172004425Y-90287545D01*
X172083777Y-90190854D01*
X172142742Y-90080540D01*
X172179052Y-89960842D01*
X172191312Y-89836360D01*
X172188240Y-89272110D01*
X172029490Y-89113360D01*
X170830240Y-89113360D01*
X170830240Y-89133360D01*
X170576240Y-89133360D01*
X170576240Y-89113360D01*
X169376990Y-89113360D01*
X169218240Y-89272110D01*
X169215168Y-89836360D01*
X113338768Y-89836360D01*
X113416350Y-89720251D01*
X113528292Y-89449998D01*
X113585360Y-89163100D01*
X113585360Y-88870580D01*
X113528292Y-88583682D01*
X113416350Y-88313429D01*
X113253835Y-88070208D01*
X113046992Y-87863365D01*
X112872600Y-87746840D01*
X113046992Y-87630315D01*
X113253835Y-87423472D01*
X113416350Y-87180251D01*
X113528292Y-86909998D01*
X113585360Y-86623100D01*
X113585360Y-86330580D01*
X113528292Y-86043682D01*
X113416350Y-85773429D01*
X113253835Y-85530208D01*
X113046992Y-85323365D01*
X112803771Y-85160850D01*
X112533518Y-85048908D01*
X112246620Y-84991840D01*
X111954100Y-84991840D01*
X111667202Y-85048908D01*
X111396949Y-85160850D01*
X111153728Y-85323365D01*
X110946885Y-85530208D01*
X110784370Y-85773429D01*
X110672428Y-86043682D01*
X110615360Y-86330580D01*
X110615360Y-86623100D01*
X110672428Y-86909998D01*
X110784370Y-87180251D01*
X110946885Y-87423472D01*
X111153728Y-87630315D01*
X111328120Y-87746840D01*
X111153728Y-87863365D01*
X110946885Y-88070208D01*
X110784370Y-88313429D01*
X110672428Y-88583682D01*
X110615360Y-88870580D01*
X110615360Y-89163100D01*
X110672428Y-89449998D01*
X110784370Y-89720251D01*
X110946885Y-89963472D01*
X111153728Y-90170315D01*
X111328120Y-90286840D01*
X111153728Y-90403365D01*
X110946885Y-90610208D01*
X110784370Y-90853429D01*
X110672428Y-91123682D01*
X110615360Y-91410580D01*
X110615360Y-91703100D01*
X110672428Y-91989998D01*
X110784370Y-92260251D01*
X110946885Y-92503472D01*
X111078740Y-92635327D01*
X111006180Y-92657338D01*
X110895866Y-92716303D01*
X110799175Y-92795655D01*
X110719823Y-92892346D01*
X110660858Y-93002660D01*
X110624548Y-93122358D01*
X110612288Y-93246840D01*
X103046605Y-93246840D01*
X103129532Y-93046638D01*
X103186600Y-92759740D01*
X103186600Y-92467220D01*
X103129532Y-92180322D01*
X103017590Y-91910069D01*
X102855075Y-91666848D01*
X102648232Y-91460005D01*
X102473840Y-91343480D01*
X102648232Y-91226955D01*
X102855075Y-91020112D01*
X103017590Y-90776891D01*
X103129532Y-90506638D01*
X103186600Y-90219740D01*
X103186600Y-89927220D01*
X103129532Y-89640322D01*
X103017590Y-89370069D01*
X102855075Y-89126848D01*
X102648232Y-88920005D01*
X102473840Y-88803480D01*
X102648232Y-88686955D01*
X102855075Y-88480112D01*
X103017590Y-88236891D01*
X103129532Y-87966638D01*
X103186600Y-87679740D01*
X103186600Y-87387220D01*
X103129532Y-87100322D01*
X103017590Y-86830069D01*
X102855075Y-86586848D01*
X102648232Y-86380005D01*
X102466066Y-86258285D01*
X102582955Y-86188658D01*
X102799188Y-85993749D01*
X102973241Y-85760400D01*
X103098425Y-85497579D01*
X103143076Y-85350370D01*
X103021755Y-85120480D01*
X101828600Y-85120480D01*
X101828600Y-85140480D01*
X101574600Y-85140480D01*
X101574600Y-85120480D01*
X101554600Y-85120480D01*
X101554600Y-84866480D01*
X101574600Y-84866480D01*
X101574600Y-84846480D01*
X101828600Y-84846480D01*
X101828600Y-84866480D01*
X103021755Y-84866480D01*
X103143076Y-84636590D01*
X103098425Y-84489381D01*
X103050365Y-84388481D01*
X103405197Y-84388481D01*
X103442519Y-84392157D01*
X103479841Y-84388481D01*
X103479852Y-84388481D01*
X103591505Y-84377484D01*
X103734766Y-84334027D01*
X103866795Y-84263455D01*
X103982520Y-84168482D01*
X104006323Y-84139478D01*
X104832161Y-83313640D01*
X110693568Y-83313640D01*
X110705828Y-83438122D01*
X110742138Y-83557820D01*
X110801103Y-83668134D01*
X110880455Y-83764825D01*
X110977146Y-83844177D01*
X111087460Y-83903142D01*
X111207158Y-83939452D01*
X111331640Y-83951712D01*
X111895890Y-83948640D01*
X112054640Y-83789890D01*
X112054640Y-82590640D01*
X112308640Y-82590640D01*
X112308640Y-83789890D01*
X112467390Y-83948640D01*
X113031640Y-83951712D01*
X113156122Y-83939452D01*
X113275820Y-83903142D01*
X113386134Y-83844177D01*
X113482825Y-83764825D01*
X113562177Y-83668134D01*
X113621142Y-83557820D01*
X113657452Y-83438122D01*
X113669712Y-83313640D01*
X113666640Y-82749390D01*
X113507890Y-82590640D01*
X112308640Y-82590640D01*
X112054640Y-82590640D01*
X110855390Y-82590640D01*
X110696640Y-82749390D01*
X110693568Y-83313640D01*
X104832161Y-83313640D01*
X107094484Y-81051318D01*
X107123481Y-81027521D01*
X107218454Y-80911796D01*
X107289026Y-80779767D01*
X107332483Y-80636506D01*
X107343480Y-80524853D01*
X107343480Y-80524845D01*
X107347156Y-80487520D01*
X107343480Y-80450195D01*
X107343480Y-73598478D01*
X111519356Y-73510615D01*
X111478229Y-73527650D01*
X111235008Y-73690165D01*
X111028165Y-73897008D01*
X110865650Y-74140229D01*
X110753708Y-74410482D01*
X110696640Y-74697380D01*
X110696640Y-74989900D01*
X110753708Y-75276798D01*
X110865650Y-75547051D01*
X111028165Y-75790272D01*
X111235008Y-75997115D01*
X111409400Y-76113640D01*
X111235008Y-76230165D01*
X111028165Y-76437008D01*
X110865650Y-76680229D01*
X110753708Y-76950482D01*
X110696640Y-77237380D01*
X110696640Y-77529900D01*
X110753708Y-77816798D01*
X110865650Y-78087051D01*
X111028165Y-78330272D01*
X111235008Y-78537115D01*
X111409400Y-78653640D01*
X111235008Y-78770165D01*
X111028165Y-78977008D01*
X110865650Y-79220229D01*
X110753708Y-79490482D01*
X110696640Y-79777380D01*
X110696640Y-80069900D01*
X110753708Y-80356798D01*
X110865650Y-80627051D01*
X111028165Y-80870272D01*
X111160020Y-81002127D01*
X111087460Y-81024138D01*
X110977146Y-81083103D01*
X110880455Y-81162455D01*
X110801103Y-81259146D01*
X110742138Y-81369460D01*
X110705828Y-81489158D01*
X110693568Y-81613640D01*
X110696640Y-82177890D01*
X110855390Y-82336640D01*
X112054640Y-82336640D01*
X112054640Y-82316640D01*
X112308640Y-82316640D01*
X112308640Y-82336640D01*
X113507890Y-82336640D01*
X113666640Y-82177890D01*
X113669712Y-81613640D01*
X113657452Y-81489158D01*
X113621142Y-81369460D01*
X113562177Y-81259146D01*
X113482825Y-81162455D01*
X113386134Y-81083103D01*
X113275820Y-81024138D01*
X113203260Y-81002127D01*
X113335115Y-80870272D01*
X113497630Y-80627051D01*
X113609572Y-80356798D01*
X113666640Y-80069900D01*
X113666640Y-79777380D01*
X113609572Y-79490482D01*
X113497630Y-79220229D01*
X113335115Y-78977008D01*
X113128272Y-78770165D01*
X112953880Y-78653640D01*
X113128272Y-78537115D01*
X113335115Y-78330272D01*
X113497630Y-78087051D01*
X113609572Y-77816798D01*
X113666640Y-77529900D01*
X113666640Y-77237380D01*
X113609572Y-76950482D01*
X113497630Y-76680229D01*
X113335115Y-76437008D01*
X113128272Y-76230165D01*
X112953880Y-76113640D01*
X113128272Y-75997115D01*
X113335115Y-75790272D01*
X113497630Y-75547051D01*
X113609572Y-75276798D01*
X113666640Y-74989900D01*
X113666640Y-74697380D01*
X113609572Y-74410482D01*
X113497630Y-74140229D01*
X113335115Y-73897008D01*
X113128272Y-73690165D01*
X112885051Y-73527650D01*
X112779893Y-73484092D01*
X115476311Y-73427358D01*
X121325361Y-78746209D01*
G37*
X121325361Y-78746209D02*
X121325361Y-80111378D01*
X121320836Y-80157320D01*
X121338889Y-80340611D01*
X121366157Y-80430500D01*
X121392354Y-80516860D01*
X121479175Y-80679292D01*
X121596017Y-80821664D01*
X121631696Y-80850945D01*
X128546655Y-87765905D01*
X128575936Y-87801584D01*
X128718308Y-87918426D01*
X128799531Y-87961840D01*
X128880739Y-88005247D01*
X129056988Y-88058712D01*
X129240280Y-88076764D01*
X129286215Y-88072240D01*
X152918670Y-88072240D01*
X152964602Y-88076764D01*
X153010534Y-88072240D01*
X153147894Y-88058711D01*
X153324142Y-88005247D01*
X153486574Y-87918426D01*
X153616376Y-87811900D01*
X169342720Y-87757475D01*
X169322703Y-87781866D01*
X169263738Y-87892180D01*
X169227428Y-88011878D01*
X169215168Y-88136360D01*
X169218240Y-88700610D01*
X169376990Y-88859360D01*
X170576240Y-88859360D01*
X170576240Y-88839360D01*
X170830240Y-88839360D01*
X170830240Y-88859360D01*
X172029490Y-88859360D01*
X172188240Y-88700610D01*
X172191312Y-88136360D01*
X172179052Y-88011878D01*
X172142742Y-87892180D01*
X172083777Y-87781866D01*
X172056054Y-87748085D01*
X175227375Y-87737110D01*
X175429958Y-96428886D01*
X174003400Y-96423992D01*
X174002449Y-96423898D01*
X173971122Y-96423881D01*
X173939526Y-96423773D01*
X173938567Y-96423864D01*
X103058893Y-96386296D01*
X103082137Y-96357974D01*
X103141102Y-96247660D01*
X103177412Y-96127962D01*
X103189672Y-96003480D01*
X103189672Y-94303480D01*
X103177412Y-94178998D01*
X103141102Y-94059300D01*
X103082137Y-93948986D01*
X103002785Y-93852295D01*
X102906094Y-93772943D01*
X102795780Y-93713978D01*
X102723220Y-93691967D01*
X102855075Y-93560112D01*
X103017590Y-93316891D01*
X103046605Y-93246840D01*
X110612288Y-93246840D01*
X110612288Y-94946840D01*
X110624548Y-95071322D01*
X110660858Y-95191020D01*
X110719823Y-95301334D01*
X110799175Y-95398025D01*
X110895866Y-95477377D01*
X111006180Y-95536342D01*
X111125878Y-95572652D01*
X111250360Y-95584912D01*
X112950360Y-95584912D01*
X113074842Y-95572652D01*
X113194540Y-95536342D01*
X113304854Y-95477377D01*
X113401545Y-95398025D01*
X113480897Y-95301334D01*
X113539862Y-95191020D01*
X113576172Y-95071322D01*
X113588432Y-94946840D01*
X113588432Y-93246840D01*
X113576172Y-93122358D01*
X113539862Y-93002660D01*
X113480897Y-92892346D01*
X113401545Y-92795655D01*
X113304854Y-92716303D01*
X113194540Y-92657338D01*
X113121980Y-92635327D01*
X113253835Y-92503472D01*
X113416350Y-92260251D01*
X113528292Y-91989998D01*
X113585360Y-91703100D01*
X113585360Y-91410580D01*
X113528292Y-91123682D01*
X113416350Y-90853429D01*
X113253835Y-90610208D01*
X113046992Y-90403365D01*
X112872600Y-90286840D01*
X113046992Y-90170315D01*
X113253835Y-89963472D01*
X113338768Y-89836360D01*
X169215168Y-89836360D01*
X169227428Y-89960842D01*
X169263738Y-90080540D01*
X169322703Y-90190854D01*
X169402055Y-90287545D01*
X169498746Y-90366897D01*
X169609060Y-90425862D01*
X169681620Y-90447873D01*
X169549765Y-90579728D01*
X169387250Y-90822949D01*
X169275308Y-91093202D01*
X169218240Y-91380100D01*
X169218240Y-91672620D01*
X169275308Y-91959518D01*
X169387250Y-92229771D01*
X169549765Y-92472992D01*
X169756608Y-92679835D01*
X169931000Y-92796360D01*
X169756608Y-92912885D01*
X169549765Y-93119728D01*
X169387250Y-93362949D01*
X169275308Y-93633202D01*
X169218240Y-93920100D01*
X169218240Y-94212620D01*
X169275308Y-94499518D01*
X169387250Y-94769771D01*
X169549765Y-95012992D01*
X169756608Y-95219835D01*
X169999829Y-95382350D01*
X170270082Y-95494292D01*
X170556980Y-95551360D01*
X170849500Y-95551360D01*
X171136398Y-95494292D01*
X171406651Y-95382350D01*
X171649872Y-95219835D01*
X171856715Y-95012992D01*
X172019230Y-94769771D01*
X172131172Y-94499518D01*
X172188240Y-94212620D01*
X172188240Y-93920100D01*
X172131172Y-93633202D01*
X172019230Y-93362949D01*
X171856715Y-93119728D01*
X171649872Y-92912885D01*
X171475480Y-92796360D01*
X171649872Y-92679835D01*
X171856715Y-92472992D01*
X172019230Y-92229771D01*
X172131172Y-91959518D01*
X172188240Y-91672620D01*
X172188240Y-91380100D01*
X172131172Y-91093202D01*
X172019230Y-90822949D01*
X171856715Y-90579728D01*
X171724860Y-90447873D01*
X171797420Y-90425862D01*
X171907734Y-90366897D01*
X172004425Y-90287545D01*
X172083777Y-90190854D01*
X172142742Y-90080540D01*
X172179052Y-89960842D01*
X172191312Y-89836360D01*
X172188240Y-89272110D01*
X172029490Y-89113360D01*
X170830240Y-89113360D01*
X170830240Y-89133360D01*
X170576240Y-89133360D01*
X170576240Y-89113360D01*
X169376990Y-89113360D01*
X169218240Y-89272110D01*
X169215168Y-89836360D01*
X113338768Y-89836360D01*
X113416350Y-89720251D01*
X113528292Y-89449998D01*
X113585360Y-89163100D01*
X113585360Y-88870580D01*
X113528292Y-88583682D01*
X113416350Y-88313429D01*
X113253835Y-88070208D01*
X113046992Y-87863365D01*
X112872600Y-87746840D01*
X113046992Y-87630315D01*
X113253835Y-87423472D01*
X113416350Y-87180251D01*
X113528292Y-86909998D01*
X113585360Y-86623100D01*
X113585360Y-86330580D01*
X113528292Y-86043682D01*
X113416350Y-85773429D01*
X113253835Y-85530208D01*
X113046992Y-85323365D01*
X112803771Y-85160850D01*
X112533518Y-85048908D01*
X112246620Y-84991840D01*
X111954100Y-84991840D01*
X111667202Y-85048908D01*
X111396949Y-85160850D01*
X111153728Y-85323365D01*
X110946885Y-85530208D01*
X110784370Y-85773429D01*
X110672428Y-86043682D01*
X110615360Y-86330580D01*
X110615360Y-86623100D01*
X110672428Y-86909998D01*
X110784370Y-87180251D01*
X110946885Y-87423472D01*
X111153728Y-87630315D01*
X111328120Y-87746840D01*
X111153728Y-87863365D01*
X110946885Y-88070208D01*
X110784370Y-88313429D01*
X110672428Y-88583682D01*
X110615360Y-88870580D01*
X110615360Y-89163100D01*
X110672428Y-89449998D01*
X110784370Y-89720251D01*
X110946885Y-89963472D01*
X111153728Y-90170315D01*
X111328120Y-90286840D01*
X111153728Y-90403365D01*
X110946885Y-90610208D01*
X110784370Y-90853429D01*
X110672428Y-91123682D01*
X110615360Y-91410580D01*
X110615360Y-91703100D01*
X110672428Y-91989998D01*
X110784370Y-92260251D01*
X110946885Y-92503472D01*
X111078740Y-92635327D01*
X111006180Y-92657338D01*
X110895866Y-92716303D01*
X110799175Y-92795655D01*
X110719823Y-92892346D01*
X110660858Y-93002660D01*
X110624548Y-93122358D01*
X110612288Y-93246840D01*
X103046605Y-93246840D01*
X103129532Y-93046638D01*
X103186600Y-92759740D01*
X103186600Y-92467220D01*
X103129532Y-92180322D01*
X103017590Y-91910069D01*
X102855075Y-91666848D01*
X102648232Y-91460005D01*
X102473840Y-91343480D01*
X102648232Y-91226955D01*
X102855075Y-91020112D01*
X103017590Y-90776891D01*
X103129532Y-90506638D01*
X103186600Y-90219740D01*
X103186600Y-89927220D01*
X103129532Y-89640322D01*
X103017590Y-89370069D01*
X102855075Y-89126848D01*
X102648232Y-88920005D01*
X102473840Y-88803480D01*
X102648232Y-88686955D01*
X102855075Y-88480112D01*
X103017590Y-88236891D01*
X103129532Y-87966638D01*
X103186600Y-87679740D01*
X103186600Y-87387220D01*
X103129532Y-87100322D01*
X103017590Y-86830069D01*
X102855075Y-86586848D01*
X102648232Y-86380005D01*
X102466066Y-86258285D01*
X102582955Y-86188658D01*
X102799188Y-85993749D01*
X102973241Y-85760400D01*
X103098425Y-85497579D01*
X103143076Y-85350370D01*
X103021755Y-85120480D01*
X101828600Y-85120480D01*
X101828600Y-85140480D01*
X101574600Y-85140480D01*
X101574600Y-85120480D01*
X101554600Y-85120480D01*
X101554600Y-84866480D01*
X101574600Y-84866480D01*
X101574600Y-84846480D01*
X101828600Y-84846480D01*
X101828600Y-84866480D01*
X103021755Y-84866480D01*
X103143076Y-84636590D01*
X103098425Y-84489381D01*
X103050365Y-84388481D01*
X103405197Y-84388481D01*
X103442519Y-84392157D01*
X103479841Y-84388481D01*
X103479852Y-84388481D01*
X103591505Y-84377484D01*
X103734766Y-84334027D01*
X103866795Y-84263455D01*
X103982520Y-84168482D01*
X104006323Y-84139478D01*
X104832161Y-83313640D01*
X110693568Y-83313640D01*
X110705828Y-83438122D01*
X110742138Y-83557820D01*
X110801103Y-83668134D01*
X110880455Y-83764825D01*
X110977146Y-83844177D01*
X111087460Y-83903142D01*
X111207158Y-83939452D01*
X111331640Y-83951712D01*
X111895890Y-83948640D01*
X112054640Y-83789890D01*
X112054640Y-82590640D01*
X112308640Y-82590640D01*
X112308640Y-83789890D01*
X112467390Y-83948640D01*
X113031640Y-83951712D01*
X113156122Y-83939452D01*
X113275820Y-83903142D01*
X113386134Y-83844177D01*
X113482825Y-83764825D01*
X113562177Y-83668134D01*
X113621142Y-83557820D01*
X113657452Y-83438122D01*
X113669712Y-83313640D01*
X113666640Y-82749390D01*
X113507890Y-82590640D01*
X112308640Y-82590640D01*
X112054640Y-82590640D01*
X110855390Y-82590640D01*
X110696640Y-82749390D01*
X110693568Y-83313640D01*
X104832161Y-83313640D01*
X107094484Y-81051318D01*
X107123481Y-81027521D01*
X107218454Y-80911796D01*
X107289026Y-80779767D01*
X107332483Y-80636506D01*
X107343480Y-80524853D01*
X107343480Y-80524845D01*
X107347156Y-80487520D01*
X107343480Y-80450195D01*
X107343480Y-73598478D01*
X111519356Y-73510615D01*
X111478229Y-73527650D01*
X111235008Y-73690165D01*
X111028165Y-73897008D01*
X110865650Y-74140229D01*
X110753708Y-74410482D01*
X110696640Y-74697380D01*
X110696640Y-74989900D01*
X110753708Y-75276798D01*
X110865650Y-75547051D01*
X111028165Y-75790272D01*
X111235008Y-75997115D01*
X111409400Y-76113640D01*
X111235008Y-76230165D01*
X111028165Y-76437008D01*
X110865650Y-76680229D01*
X110753708Y-76950482D01*
X110696640Y-77237380D01*
X110696640Y-77529900D01*
X110753708Y-77816798D01*
X110865650Y-78087051D01*
X111028165Y-78330272D01*
X111235008Y-78537115D01*
X111409400Y-78653640D01*
X111235008Y-78770165D01*
X111028165Y-78977008D01*
X110865650Y-79220229D01*
X110753708Y-79490482D01*
X110696640Y-79777380D01*
X110696640Y-80069900D01*
X110753708Y-80356798D01*
X110865650Y-80627051D01*
X111028165Y-80870272D01*
X111160020Y-81002127D01*
X111087460Y-81024138D01*
X110977146Y-81083103D01*
X110880455Y-81162455D01*
X110801103Y-81259146D01*
X110742138Y-81369460D01*
X110705828Y-81489158D01*
X110693568Y-81613640D01*
X110696640Y-82177890D01*
X110855390Y-82336640D01*
X112054640Y-82336640D01*
X112054640Y-82316640D01*
X112308640Y-82316640D01*
X112308640Y-82336640D01*
X113507890Y-82336640D01*
X113666640Y-82177890D01*
X113669712Y-81613640D01*
X113657452Y-81489158D01*
X113621142Y-81369460D01*
X113562177Y-81259146D01*
X113482825Y-81162455D01*
X113386134Y-81083103D01*
X113275820Y-81024138D01*
X113203260Y-81002127D01*
X113335115Y-80870272D01*
X113497630Y-80627051D01*
X113609572Y-80356798D01*
X113666640Y-80069900D01*
X113666640Y-79777380D01*
X113609572Y-79490482D01*
X113497630Y-79220229D01*
X113335115Y-78977008D01*
X113128272Y-78770165D01*
X112953880Y-78653640D01*
X113128272Y-78537115D01*
X113335115Y-78330272D01*
X113497630Y-78087051D01*
X113609572Y-77816798D01*
X113666640Y-77529900D01*
X113666640Y-77237380D01*
X113609572Y-76950482D01*
X113497630Y-76680229D01*
X113335115Y-76437008D01*
X113128272Y-76230165D01*
X112953880Y-76113640D01*
X113128272Y-75997115D01*
X113335115Y-75790272D01*
X113497630Y-75547051D01*
X113609572Y-75276798D01*
X113666640Y-74989900D01*
X113666640Y-74697380D01*
X113609572Y-74410482D01*
X113497630Y-74140229D01*
X113335115Y-73897008D01*
X113128272Y-73690165D01*
X112885051Y-73527650D01*
X112779893Y-73484092D01*
X115476311Y-73427358D01*
X121325361Y-78746209D01*
G36*
X142264813Y-41909098D02*
G01*
X141093176Y-43080735D01*
X141057497Y-43110016D01*
X140940655Y-43252388D01*
X140919852Y-43291308D01*
X140853834Y-43414820D01*
X140800369Y-43591069D01*
X140782316Y-43774360D01*
X140786841Y-43820302D01*
X140786841Y-44078938D01*
X140677660Y-44112058D01*
X140567346Y-44171023D01*
X140470655Y-44250375D01*
X140391303Y-44347066D01*
X140332338Y-44457380D01*
X140296028Y-44577078D01*
X140283768Y-44701560D01*
X140283768Y-46301560D01*
X140296028Y-46426042D01*
X140332338Y-46545740D01*
X140391303Y-46656054D01*
X140470655Y-46752745D01*
X140567346Y-46832097D01*
X140677660Y-46891062D01*
X140797358Y-46927372D01*
X140921840Y-46939632D01*
X142521840Y-46939632D01*
X142646322Y-46927372D01*
X142766020Y-46891062D01*
X142876334Y-46832097D01*
X142973025Y-46752745D01*
X143052377Y-46656054D01*
X143111342Y-46545740D01*
X143126957Y-46494262D01*
X143408743Y-46494262D01*
X143480326Y-46738231D01*
X143735836Y-46859131D01*
X144010024Y-46927860D01*
X144292352Y-46941777D01*
X144571970Y-46900347D01*
X144838132Y-46805163D01*
X144963354Y-46738231D01*
X145034937Y-46494262D01*
X144221840Y-45681165D01*
X143408743Y-46494262D01*
X143126957Y-46494262D01*
X143147652Y-46426042D01*
X143159912Y-46301560D01*
X143159912Y-46294345D01*
X143229138Y-46314657D01*
X144042235Y-45501560D01*
X144401445Y-45501560D01*
X145214542Y-46314657D01*
X145458511Y-46243074D01*
X145579411Y-45987564D01*
X145648140Y-45713376D01*
X145662057Y-45431048D01*
X145620627Y-45151430D01*
X145525443Y-44885268D01*
X145458511Y-44760046D01*
X145214542Y-44688463D01*
X144401445Y-45501560D01*
X144042235Y-45501560D01*
X143229138Y-44688463D01*
X143159912Y-44708775D01*
X143159912Y-44701560D01*
X143147652Y-44577078D01*
X143126958Y-44508858D01*
X143408743Y-44508858D01*
X144221840Y-45321955D01*
X145034937Y-44508858D01*
X144963354Y-44264889D01*
X144707844Y-44143989D01*
X144433656Y-44075260D01*
X144151328Y-44061343D01*
X143871710Y-44102773D01*
X143605548Y-44197957D01*
X143480326Y-44264889D01*
X143408743Y-44508858D01*
X143126958Y-44508858D01*
X143111342Y-44457380D01*
X143052377Y-44347066D01*
X142973025Y-44250375D01*
X142876334Y-44171023D01*
X142766020Y-44112058D01*
X142720300Y-44098189D01*
X143871890Y-42946600D01*
X153465591Y-42946600D01*
X155924031Y-45405040D01*
X147598191Y-53730880D01*
X144694352Y-53730880D01*
X144694352Y-53565880D01*
X144682092Y-53441398D01*
X144645782Y-53321700D01*
X144586817Y-53211386D01*
X144507465Y-53114695D01*
X144410774Y-53035343D01*
X144300460Y-52976378D01*
X144180762Y-52940068D01*
X144056280Y-52927808D01*
X141856280Y-52927808D01*
X141731798Y-52940068D01*
X141612100Y-52976378D01*
X141501786Y-53035343D01*
X141405095Y-53114695D01*
X141325743Y-53211386D01*
X141266778Y-53321700D01*
X141230468Y-53441398D01*
X141218208Y-53565880D01*
X141218208Y-55765880D01*
X141230468Y-55890362D01*
X141266778Y-56010060D01*
X141325743Y-56120374D01*
X141405095Y-56217065D01*
X141501786Y-56296417D01*
X141612100Y-56355382D01*
X141731798Y-56391692D01*
X141856280Y-56403952D01*
X144056280Y-56403952D01*
X144180762Y-56391692D01*
X144300460Y-56355382D01*
X144410774Y-56296417D01*
X144507465Y-56217065D01*
X144586817Y-56120374D01*
X144645782Y-56010060D01*
X144682092Y-55890362D01*
X144694352Y-55765880D01*
X144694352Y-55600880D01*
X147939548Y-55600880D01*
X147985480Y-55605404D01*
X148031412Y-55600880D01*
X148168772Y-55587351D01*
X148345020Y-55533887D01*
X148507452Y-55447066D01*
X148649824Y-55330224D01*
X148679110Y-55294539D01*
X153132529Y-50841120D01*
X166997328Y-50841120D01*
X166997328Y-53441120D01*
X167009588Y-53565602D01*
X167045898Y-53685300D01*
X167104863Y-53795614D01*
X167184215Y-53892305D01*
X167280906Y-53971657D01*
X167391220Y-54030622D01*
X167510918Y-54066932D01*
X167635400Y-54079192D01*
X170235400Y-54079192D01*
X170359882Y-54066932D01*
X170479580Y-54030622D01*
X170589894Y-53971657D01*
X170686585Y-53892305D01*
X170765937Y-53795614D01*
X170824902Y-53685300D01*
X170861212Y-53565602D01*
X170873472Y-53441120D01*
X170873472Y-50841120D01*
X170861212Y-50716638D01*
X170824902Y-50596940D01*
X170765937Y-50486626D01*
X170686585Y-50389935D01*
X170589894Y-50310583D01*
X170479580Y-50251618D01*
X170359882Y-50215308D01*
X170235400Y-50203048D01*
X167635400Y-50203048D01*
X167510918Y-50215308D01*
X167391220Y-50251618D01*
X167280906Y-50310583D01*
X167184215Y-50389935D01*
X167104863Y-50486626D01*
X167045898Y-50596940D01*
X167009588Y-50716638D01*
X166997328Y-50841120D01*
X153132529Y-50841120D01*
X157874995Y-46098655D01*
X157910663Y-46069383D01*
X157939935Y-46033715D01*
X157939944Y-46033706D01*
X158027505Y-45927012D01*
X158114327Y-45764581D01*
X158167792Y-45588332D01*
X158185844Y-45405040D01*
X158167792Y-45221748D01*
X158114327Y-45045500D01*
X158037908Y-44902531D01*
X158027505Y-44883068D01*
X157983210Y-44829095D01*
X157910664Y-44740696D01*
X157874982Y-44711413D01*
X155110473Y-41946904D01*
X175239665Y-42006146D01*
X175234615Y-85740354D01*
X158471210Y-85755479D01*
X155697845Y-85726286D01*
X157783540Y-83640591D01*
X157819224Y-83611306D01*
X157936066Y-83468934D01*
X158022887Y-83306502D01*
X158076351Y-83130254D01*
X158089880Y-82992894D01*
X158089880Y-82992893D01*
X158094404Y-82946962D01*
X158089880Y-82901030D01*
X158089880Y-71102139D01*
X166776880Y-71102139D01*
X166776880Y-71483301D01*
X166851241Y-71857139D01*
X166997105Y-72209286D01*
X167208867Y-72526211D01*
X167478389Y-72795733D01*
X167795314Y-73007495D01*
X168147461Y-73153359D01*
X168521299Y-73227720D01*
X168902461Y-73227720D01*
X169276299Y-73153359D01*
X169628446Y-73007495D01*
X169945371Y-72795733D01*
X170214893Y-72526211D01*
X170426655Y-72209286D01*
X170572519Y-71857139D01*
X170646880Y-71483301D01*
X170646880Y-71102139D01*
X170572519Y-70728301D01*
X170426655Y-70376154D01*
X170214893Y-70059229D01*
X169945371Y-69789707D01*
X169628446Y-69577945D01*
X169276299Y-69432081D01*
X168902461Y-69357720D01*
X168521299Y-69357720D01*
X168147461Y-69432081D01*
X167795314Y-69577945D01*
X167478389Y-69789707D01*
X167208867Y-70059229D01*
X166997105Y-70376154D01*
X166851241Y-70728301D01*
X166776880Y-71102139D01*
X158089880Y-71102139D01*
X158089880Y-64912720D01*
X166773808Y-64912720D01*
X166773808Y-67512720D01*
X166786068Y-67637202D01*
X166822378Y-67756900D01*
X166881343Y-67867214D01*
X166960695Y-67963905D01*
X167057386Y-68043257D01*
X167167700Y-68102222D01*
X167287398Y-68138532D01*
X167411880Y-68150792D01*
X170011880Y-68150792D01*
X170136362Y-68138532D01*
X170256060Y-68102222D01*
X170366374Y-68043257D01*
X170463065Y-67963905D01*
X170542417Y-67867214D01*
X170601382Y-67756900D01*
X170637692Y-67637202D01*
X170649952Y-67512720D01*
X170649952Y-64912720D01*
X170637692Y-64788238D01*
X170601382Y-64668540D01*
X170542417Y-64558226D01*
X170463065Y-64461535D01*
X170366374Y-64382183D01*
X170256060Y-64323218D01*
X170136362Y-64286908D01*
X170011880Y-64274648D01*
X167411880Y-64274648D01*
X167287398Y-64286908D01*
X167167700Y-64323218D01*
X167057386Y-64382183D01*
X166960695Y-64461535D01*
X166881343Y-64558226D01*
X166822378Y-64668540D01*
X166786068Y-64788238D01*
X166773808Y-64912720D01*
X158089880Y-64912720D01*
X158089880Y-58750412D01*
X158094404Y-58704480D01*
X158076351Y-58521188D01*
X158056155Y-58454611D01*
X158022887Y-58344940D01*
X157936066Y-58182508D01*
X157819224Y-58040136D01*
X157783539Y-58010850D01*
X156803228Y-57030539D01*
X167000400Y-57030539D01*
X167000400Y-57411701D01*
X167074761Y-57785539D01*
X167220625Y-58137686D01*
X167432387Y-58454611D01*
X167701909Y-58724133D01*
X168018834Y-58935895D01*
X168370981Y-59081759D01*
X168744819Y-59156120D01*
X169125981Y-59156120D01*
X169499819Y-59081759D01*
X169851966Y-58935895D01*
X170168891Y-58724133D01*
X170438413Y-58454611D01*
X170650175Y-58137686D01*
X170796039Y-57785539D01*
X170870400Y-57411701D01*
X170870400Y-57030539D01*
X170796039Y-56656701D01*
X170650175Y-56304554D01*
X170438413Y-55987629D01*
X170168891Y-55718107D01*
X169851966Y-55506345D01*
X169499819Y-55360481D01*
X169125981Y-55286120D01*
X168744819Y-55286120D01*
X168370981Y-55360481D01*
X168018834Y-55506345D01*
X167701909Y-55718107D01*
X167432387Y-55987629D01*
X167220625Y-56304554D01*
X167074761Y-56656701D01*
X167000400Y-57030539D01*
X156803228Y-57030539D01*
X154811158Y-55038469D01*
X154851280Y-54836763D01*
X154851280Y-54494997D01*
X154784605Y-54159799D01*
X154653817Y-53844049D01*
X154463943Y-53559882D01*
X154222278Y-53318217D01*
X153938111Y-53128343D01*
X153622361Y-52997555D01*
X153287163Y-52930880D01*
X152945397Y-52930880D01*
X152610199Y-52997555D01*
X152294449Y-53128343D01*
X152010282Y-53318217D01*
X151768617Y-53559882D01*
X151578743Y-53844049D01*
X151447955Y-54159799D01*
X151381280Y-54494997D01*
X151381280Y-54836763D01*
X151447955Y-55171961D01*
X151578743Y-55487711D01*
X151768617Y-55771878D01*
X152010282Y-56013543D01*
X152294449Y-56203417D01*
X152610199Y-56334205D01*
X152945397Y-56400880D01*
X153287163Y-56400880D01*
X153488869Y-56360758D01*
X156219881Y-59091770D01*
X156219880Y-82559673D01*
X154946011Y-83833542D01*
X154938975Y-83810346D01*
X154788931Y-83505111D01*
X154582222Y-83235013D01*
X154326791Y-83010432D01*
X154032454Y-82839998D01*
X153710523Y-82730261D01*
X153441400Y-82847840D01*
X153441400Y-84292440D01*
X153461400Y-84292440D01*
X153461400Y-84546440D01*
X153441400Y-84546440D01*
X153441400Y-84566440D01*
X153187400Y-84566440D01*
X153187400Y-84546440D01*
X151743275Y-84546440D01*
X151625225Y-84815562D01*
X151689825Y-85028534D01*
X151839869Y-85333769D01*
X152046578Y-85603867D01*
X152143257Y-85688869D01*
X144883312Y-85612449D01*
X144892472Y-85519440D01*
X144892472Y-84023318D01*
X151625225Y-84023318D01*
X151743275Y-84292440D01*
X153187400Y-84292440D01*
X153187400Y-82847840D01*
X152918277Y-82730261D01*
X152596346Y-82839998D01*
X152302009Y-83010432D01*
X152046578Y-83235013D01*
X151839869Y-83505111D01*
X151689825Y-83810346D01*
X151625225Y-84023318D01*
X144892472Y-84023318D01*
X144892472Y-83754439D01*
X145074229Y-83754439D01*
X145120161Y-83758963D01*
X145166093Y-83754439D01*
X145303453Y-83740910D01*
X145479701Y-83687446D01*
X145642133Y-83600625D01*
X145784505Y-83483783D01*
X145813791Y-83448098D01*
X148624306Y-80637584D01*
X148659984Y-80608304D01*
X148776826Y-80465932D01*
X148863647Y-80303500D01*
X148911276Y-80146487D01*
X148917111Y-80127253D01*
X148935164Y-79943961D01*
X148930640Y-79898029D01*
X148930640Y-77451450D01*
X149491494Y-78012304D01*
X149520776Y-78047984D01*
X149663148Y-78164826D01*
X149825580Y-78251647D01*
X149948363Y-78288893D01*
X150001827Y-78305111D01*
X150185119Y-78323164D01*
X150231051Y-78318640D01*
X150239791Y-78318640D01*
X151619522Y-79698371D01*
X151579400Y-79900077D01*
X151579400Y-80241843D01*
X151646075Y-80577041D01*
X151776863Y-80892791D01*
X151966737Y-81176958D01*
X152208402Y-81418623D01*
X152492569Y-81608497D01*
X152808319Y-81739285D01*
X153143517Y-81805960D01*
X153485283Y-81805960D01*
X153820481Y-81739285D01*
X154136231Y-81608497D01*
X154420398Y-81418623D01*
X154662063Y-81176958D01*
X154851937Y-80892791D01*
X154982725Y-80577041D01*
X155049400Y-80241843D01*
X155049400Y-79900077D01*
X154982725Y-79564879D01*
X154851937Y-79249129D01*
X154662063Y-78964962D01*
X154420398Y-78723297D01*
X154136231Y-78533423D01*
X153820481Y-78402635D01*
X153485283Y-78335960D01*
X153143517Y-78335960D01*
X152941811Y-78376082D01*
X151320710Y-76754981D01*
X151291424Y-76719296D01*
X151149052Y-76602454D01*
X151051669Y-76550402D01*
X151538865Y-76550402D01*
X151603465Y-76763374D01*
X151753509Y-77068609D01*
X151960218Y-77338707D01*
X152215649Y-77563288D01*
X152509986Y-77733722D01*
X152831917Y-77843459D01*
X153101040Y-77725880D01*
X153101040Y-76281280D01*
X153355040Y-76281280D01*
X153355040Y-77725880D01*
X153624163Y-77843459D01*
X153946094Y-77733722D01*
X154240431Y-77563288D01*
X154495862Y-77338707D01*
X154702571Y-77068609D01*
X154852615Y-76763374D01*
X154917215Y-76550402D01*
X154799165Y-76281280D01*
X153355040Y-76281280D01*
X153101040Y-76281280D01*
X151656915Y-76281280D01*
X151538865Y-76550402D01*
X151051669Y-76550402D01*
X150986620Y-76515633D01*
X150810372Y-76462169D01*
X150673012Y-76448640D01*
X150627080Y-76444116D01*
X150581148Y-76448640D01*
X150572410Y-76448640D01*
X149881928Y-75758158D01*
X151538865Y-75758158D01*
X151656915Y-76027280D01*
X153101040Y-76027280D01*
X153101040Y-74582680D01*
X153355040Y-74582680D01*
X153355040Y-76027280D01*
X154799165Y-76027280D01*
X154917215Y-75758158D01*
X154852615Y-75545186D01*
X154702571Y-75239951D01*
X154495862Y-74969853D01*
X154240431Y-74745272D01*
X153946094Y-74574838D01*
X153624163Y-74465101D01*
X153355040Y-74582680D01*
X153101040Y-74582680D01*
X152831917Y-74465101D01*
X152509986Y-74574838D01*
X152215649Y-74745272D01*
X151960218Y-74969853D01*
X151753509Y-75239951D01*
X151603465Y-75545186D01*
X151538865Y-75758158D01*
X149881928Y-75758158D01*
X149306560Y-75182791D01*
X149306560Y-71807637D01*
X151493040Y-71807637D01*
X151493040Y-72149403D01*
X151559715Y-72484601D01*
X151690503Y-72800351D01*
X151880377Y-73084518D01*
X152122042Y-73326183D01*
X152406209Y-73516057D01*
X152721959Y-73646845D01*
X153057157Y-73713520D01*
X153398923Y-73713520D01*
X153734121Y-73646845D01*
X154049871Y-73516057D01*
X154334038Y-73326183D01*
X154575703Y-73084518D01*
X154765577Y-72800351D01*
X154896365Y-72484601D01*
X154963040Y-72149403D01*
X154963040Y-71807637D01*
X154896365Y-71472439D01*
X154765577Y-71156689D01*
X154575703Y-70872522D01*
X154334038Y-70630857D01*
X154049871Y-70440983D01*
X153734121Y-70310195D01*
X153398923Y-70243520D01*
X153057157Y-70243520D01*
X152721959Y-70310195D01*
X152406209Y-70440983D01*
X152122042Y-70630857D01*
X151880377Y-70872522D01*
X151690503Y-71156689D01*
X151559715Y-71472439D01*
X151493040Y-71807637D01*
X149306560Y-71807637D01*
X149306560Y-68198882D01*
X151538865Y-68198882D01*
X151603465Y-68411854D01*
X151753509Y-68717089D01*
X151960218Y-68987187D01*
X152215649Y-69211768D01*
X152509986Y-69382202D01*
X152831917Y-69491939D01*
X153101040Y-69374360D01*
X153101040Y-67929760D01*
X153355040Y-67929760D01*
X153355040Y-69374360D01*
X153624163Y-69491939D01*
X153946094Y-69382202D01*
X154240431Y-69211768D01*
X154495862Y-68987187D01*
X154702571Y-68717089D01*
X154852615Y-68411854D01*
X154917215Y-68198882D01*
X154799165Y-67929760D01*
X153355040Y-67929760D01*
X153101040Y-67929760D01*
X151656915Y-67929760D01*
X151538865Y-68198882D01*
X149306560Y-68198882D01*
X149306560Y-67406638D01*
X151538865Y-67406638D01*
X151656915Y-67675760D01*
X153101040Y-67675760D01*
X153101040Y-66231160D01*
X153355040Y-66231160D01*
X153355040Y-67675760D01*
X154799165Y-67675760D01*
X154917215Y-67406638D01*
X154852615Y-67193666D01*
X154702571Y-66888431D01*
X154495862Y-66618333D01*
X154240431Y-66393752D01*
X153946094Y-66223318D01*
X153624163Y-66113581D01*
X153355040Y-66231160D01*
X153101040Y-66231160D01*
X152831917Y-66113581D01*
X152509986Y-66223318D01*
X152215649Y-66393752D01*
X151960218Y-66618333D01*
X151753509Y-66888431D01*
X151603465Y-67193666D01*
X151538865Y-67406638D01*
X149306560Y-67406638D01*
X149306560Y-66715855D01*
X149311084Y-66669920D01*
X149293032Y-66486628D01*
X149239567Y-66310379D01*
X149197223Y-66231160D01*
X149152746Y-66147948D01*
X149035904Y-66005576D01*
X149000220Y-65976291D01*
X148084750Y-65060821D01*
X148055464Y-65025136D01*
X147913092Y-64908294D01*
X147750660Y-64821473D01*
X147574412Y-64768009D01*
X147437052Y-64754480D01*
X147391120Y-64749956D01*
X147345188Y-64754480D01*
X144684523Y-64754480D01*
X144707492Y-64678762D01*
X144719752Y-64554280D01*
X144719752Y-63283397D01*
X151406680Y-63283397D01*
X151406680Y-63625163D01*
X151473355Y-63960361D01*
X151604143Y-64276111D01*
X151794017Y-64560278D01*
X152035682Y-64801943D01*
X152319849Y-64991817D01*
X152635599Y-65122605D01*
X152970797Y-65189280D01*
X153312563Y-65189280D01*
X153647761Y-65122605D01*
X153963511Y-64991817D01*
X154247678Y-64801943D01*
X154489343Y-64560278D01*
X154679217Y-64276111D01*
X154810005Y-63960361D01*
X154876680Y-63625163D01*
X154876680Y-63283397D01*
X154810005Y-62948199D01*
X154679217Y-62632449D01*
X154489343Y-62348282D01*
X154247678Y-62106617D01*
X153963511Y-61916743D01*
X153647761Y-61785955D01*
X153312563Y-61719280D01*
X152970797Y-61719280D01*
X152635599Y-61785955D01*
X152319849Y-61916743D01*
X152035682Y-62106617D01*
X151794017Y-62348282D01*
X151604143Y-62632449D01*
X151473355Y-62948199D01*
X151406680Y-63283397D01*
X144719752Y-63283397D01*
X144719752Y-62354280D01*
X144707492Y-62229798D01*
X144671182Y-62110100D01*
X144612217Y-61999786D01*
X144532865Y-61903095D01*
X144436174Y-61823743D01*
X144325860Y-61764778D01*
X144206162Y-61728468D01*
X144081680Y-61716208D01*
X141881680Y-61716208D01*
X141757198Y-61728468D01*
X141637500Y-61764778D01*
X141527186Y-61823743D01*
X141430495Y-61903095D01*
X141351143Y-61999786D01*
X141292178Y-62110100D01*
X141255868Y-62229798D01*
X141243608Y-62354280D01*
X141243608Y-64554280D01*
X141255868Y-64678762D01*
X141278837Y-64754480D01*
X137206929Y-64754480D01*
X136009280Y-63556831D01*
X136009280Y-63302785D01*
X135954133Y-63025546D01*
X135845960Y-62764393D01*
X135688917Y-62529361D01*
X135489039Y-62329483D01*
X135256521Y-62174120D01*
X135489039Y-62018757D01*
X135688917Y-61818879D01*
X135845960Y-61583847D01*
X135954133Y-61322694D01*
X136009280Y-61045455D01*
X136009280Y-60762785D01*
X135954133Y-60485546D01*
X135845960Y-60224393D01*
X135688917Y-59989361D01*
X135489039Y-59789483D01*
X135256521Y-59634120D01*
X135489039Y-59478757D01*
X135688917Y-59278879D01*
X135845960Y-59043847D01*
X135954133Y-58782694D01*
X136009280Y-58505455D01*
X136009280Y-58251409D01*
X136381889Y-57878800D01*
X141274088Y-57878800D01*
X141274088Y-60078800D01*
X141286348Y-60203282D01*
X141322658Y-60322980D01*
X141381623Y-60433294D01*
X141460975Y-60529985D01*
X141557666Y-60609337D01*
X141667980Y-60668302D01*
X141787678Y-60704612D01*
X141912160Y-60716872D01*
X144112160Y-60716872D01*
X144236642Y-60704612D01*
X144356340Y-60668302D01*
X144466654Y-60609337D01*
X144563345Y-60529985D01*
X144642697Y-60433294D01*
X144701662Y-60322980D01*
X144737972Y-60203282D01*
X144750232Y-60078800D01*
X144750232Y-59374922D01*
X151482985Y-59374922D01*
X151547585Y-59587894D01*
X151697629Y-59893129D01*
X151904338Y-60163227D01*
X152159769Y-60387808D01*
X152454106Y-60558242D01*
X152776037Y-60667979D01*
X153045160Y-60550400D01*
X153045160Y-59105800D01*
X153299160Y-59105800D01*
X153299160Y-60550400D01*
X153568283Y-60667979D01*
X153890214Y-60558242D01*
X154184551Y-60387808D01*
X154439982Y-60163227D01*
X154646691Y-59893129D01*
X154796735Y-59587894D01*
X154861335Y-59374922D01*
X154743285Y-59105800D01*
X153299160Y-59105800D01*
X153045160Y-59105800D01*
X151601035Y-59105800D01*
X151482985Y-59374922D01*
X144750232Y-59374922D01*
X144750232Y-58582678D01*
X151482985Y-58582678D01*
X151601035Y-58851800D01*
X153045160Y-58851800D01*
X153045160Y-57407200D01*
X153299160Y-57407200D01*
X153299160Y-58851800D01*
X154743285Y-58851800D01*
X154861335Y-58582678D01*
X154796735Y-58369706D01*
X154646691Y-58064471D01*
X154439982Y-57794373D01*
X154184551Y-57569792D01*
X153890214Y-57399358D01*
X153568283Y-57289621D01*
X153299160Y-57407200D01*
X153045160Y-57407200D01*
X152776037Y-57289621D01*
X152454106Y-57399358D01*
X152159769Y-57569792D01*
X151904338Y-57794373D01*
X151697629Y-58064471D01*
X151547585Y-58369706D01*
X151482985Y-58582678D01*
X144750232Y-58582678D01*
X144750232Y-57878800D01*
X144737972Y-57754318D01*
X144701662Y-57634620D01*
X144642697Y-57524306D01*
X144563345Y-57427615D01*
X144466654Y-57348263D01*
X144356340Y-57289298D01*
X144236642Y-57252988D01*
X144112160Y-57240728D01*
X141912160Y-57240728D01*
X141787678Y-57252988D01*
X141667980Y-57289298D01*
X141557666Y-57348263D01*
X141460975Y-57427615D01*
X141381623Y-57524306D01*
X141322658Y-57634620D01*
X141286348Y-57754318D01*
X141274088Y-57878800D01*
X136381889Y-57878800D01*
X143236889Y-51023800D01*
X145998988Y-51023800D01*
X146044920Y-51028324D01*
X146090852Y-51023800D01*
X146228212Y-51010271D01*
X146404460Y-50956807D01*
X146566892Y-50869986D01*
X146709264Y-50753144D01*
X146738550Y-50717459D01*
X150663697Y-46792312D01*
X151579480Y-46792312D01*
X151703962Y-46780052D01*
X151823660Y-46743742D01*
X151933974Y-46684777D01*
X152030665Y-46605425D01*
X152110017Y-46508734D01*
X152168982Y-46398420D01*
X152184597Y-46346942D01*
X152466383Y-46346942D01*
X152537966Y-46590911D01*
X152793476Y-46711811D01*
X153067664Y-46780540D01*
X153349992Y-46794457D01*
X153629610Y-46753027D01*
X153895772Y-46657843D01*
X154020994Y-46590911D01*
X154092577Y-46346942D01*
X153279480Y-45533845D01*
X152466383Y-46346942D01*
X152184597Y-46346942D01*
X152205292Y-46278722D01*
X152217552Y-46154240D01*
X152217552Y-46147025D01*
X152286778Y-46167337D01*
X153099875Y-45354240D01*
X153459085Y-45354240D01*
X154272182Y-46167337D01*
X154516151Y-46095754D01*
X154637051Y-45840244D01*
X154705780Y-45566056D01*
X154719697Y-45283728D01*
X154678267Y-45004110D01*
X154583083Y-44737948D01*
X154516151Y-44612726D01*
X154272182Y-44541143D01*
X153459085Y-45354240D01*
X153099875Y-45354240D01*
X152286778Y-44541143D01*
X152217552Y-44561455D01*
X152217552Y-44554240D01*
X152205292Y-44429758D01*
X152184598Y-44361538D01*
X152466383Y-44361538D01*
X153279480Y-45174635D01*
X154092577Y-44361538D01*
X154020994Y-44117569D01*
X153765484Y-43996669D01*
X153491296Y-43927940D01*
X153208968Y-43914023D01*
X152929350Y-43955453D01*
X152663188Y-44050637D01*
X152537966Y-44117569D01*
X152466383Y-44361538D01*
X152184598Y-44361538D01*
X152168982Y-44310060D01*
X152110017Y-44199746D01*
X152030665Y-44103055D01*
X151933974Y-44023703D01*
X151823660Y-43964738D01*
X151703962Y-43928428D01*
X151579480Y-43916168D01*
X149979480Y-43916168D01*
X149854998Y-43928428D01*
X149735300Y-43964738D01*
X149624986Y-44023703D01*
X149528295Y-44103055D01*
X149448943Y-44199746D01*
X149389978Y-44310060D01*
X149353668Y-44429758D01*
X149341408Y-44554240D01*
X149341408Y-45470023D01*
X145657631Y-49153800D01*
X142895535Y-49153800D01*
X142849600Y-49149276D01*
X142666308Y-49167328D01*
X142584701Y-49192084D01*
X142490060Y-49220793D01*
X142327628Y-49307614D01*
X142185256Y-49424456D01*
X142155970Y-49460141D01*
X134686991Y-56929120D01*
X134461570Y-56929120D01*
X131396950Y-53864501D01*
X131367664Y-53828816D01*
X131225292Y-53711974D01*
X131062860Y-53625153D01*
X130886612Y-53571689D01*
X130756887Y-53558912D01*
X131813240Y-53558912D01*
X131937722Y-53546652D01*
X132057420Y-53510342D01*
X132167734Y-53451377D01*
X132264425Y-53372025D01*
X132343777Y-53275334D01*
X132402742Y-53165020D01*
X132439052Y-53045322D01*
X132451312Y-52920840D01*
X132451312Y-49420840D01*
X132439052Y-49296358D01*
X132402742Y-49176660D01*
X132343777Y-49066346D01*
X132264425Y-48969655D01*
X132167734Y-48890303D01*
X132057420Y-48831338D01*
X131937722Y-48795028D01*
X131813240Y-48782768D01*
X128313240Y-48782768D01*
X128188758Y-48795028D01*
X128069060Y-48831338D01*
X127958746Y-48890303D01*
X127862055Y-48969655D01*
X127782703Y-49066346D01*
X127741746Y-49142971D01*
X127751312Y-49045840D01*
X127751312Y-47295840D01*
X127722239Y-47000654D01*
X127636136Y-46716812D01*
X127611564Y-46670840D01*
X127675168Y-46670840D01*
X127687428Y-46795322D01*
X127723738Y-46915020D01*
X127782703Y-47025334D01*
X127862055Y-47122025D01*
X127958746Y-47201377D01*
X128069060Y-47260342D01*
X128188758Y-47296652D01*
X128313240Y-47308912D01*
X129777490Y-47305840D01*
X129936240Y-47147090D01*
X129936240Y-45297840D01*
X130190240Y-45297840D01*
X130190240Y-47147090D01*
X130348990Y-47305840D01*
X131813240Y-47308912D01*
X131937722Y-47296652D01*
X132057420Y-47260342D01*
X132167734Y-47201377D01*
X132264425Y-47122025D01*
X132343777Y-47025334D01*
X132402742Y-46915020D01*
X132439052Y-46795322D01*
X132451312Y-46670840D01*
X132448240Y-45456590D01*
X132289490Y-45297840D01*
X130190240Y-45297840D01*
X129936240Y-45297840D01*
X127836990Y-45297840D01*
X127678240Y-45456590D01*
X127675168Y-46670840D01*
X127611564Y-46670840D01*
X127496313Y-46455222D01*
X127308143Y-46225937D01*
X127078858Y-46037767D01*
X126817268Y-45897944D01*
X126533426Y-45811841D01*
X126238240Y-45782768D01*
X124488240Y-45782768D01*
X124193054Y-45811841D01*
X123909212Y-45897944D01*
X123647622Y-46037767D01*
X123418337Y-46225937D01*
X123230167Y-46455222D01*
X123090344Y-46716812D01*
X123004241Y-47000654D01*
X122975168Y-47295840D01*
X122975168Y-49045840D01*
X123004241Y-49341026D01*
X123090344Y-49624868D01*
X123230167Y-49886458D01*
X123418337Y-50115743D01*
X123647622Y-50303913D01*
X123909212Y-50443736D01*
X124193054Y-50529839D01*
X124488240Y-50558912D01*
X126238240Y-50558912D01*
X126533426Y-50529839D01*
X126817268Y-50443736D01*
X127078858Y-50303913D01*
X127308143Y-50115743D01*
X127496313Y-49886458D01*
X127636136Y-49624868D01*
X127675168Y-49496197D01*
X127675168Y-52920840D01*
X127687428Y-53045322D01*
X127723738Y-53165020D01*
X127782703Y-53275334D01*
X127862055Y-53372025D01*
X127958746Y-53451377D01*
X128069060Y-53510342D01*
X128188758Y-53546652D01*
X128305605Y-53558160D01*
X124181810Y-53558160D01*
X115502871Y-44879222D01*
X115505600Y-44865500D01*
X115505600Y-44572980D01*
X115448532Y-44286082D01*
X115336590Y-44015829D01*
X115174075Y-43772608D01*
X115072307Y-43670840D01*
X127675168Y-43670840D01*
X127678240Y-44885090D01*
X127836990Y-45043840D01*
X129936240Y-45043840D01*
X129936240Y-43194590D01*
X130190240Y-43194590D01*
X130190240Y-45043840D01*
X132289490Y-45043840D01*
X132448240Y-44885090D01*
X132451312Y-43670840D01*
X132439052Y-43546358D01*
X132402742Y-43426660D01*
X132343777Y-43316346D01*
X132264425Y-43219655D01*
X132167734Y-43140303D01*
X132057420Y-43081338D01*
X131937722Y-43045028D01*
X131813240Y-43032768D01*
X130348990Y-43035840D01*
X130190240Y-43194590D01*
X129936240Y-43194590D01*
X129777490Y-43035840D01*
X128313240Y-43032768D01*
X128188758Y-43045028D01*
X128069060Y-43081338D01*
X127958746Y-43140303D01*
X127862055Y-43219655D01*
X127782703Y-43316346D01*
X127723738Y-43426660D01*
X127687428Y-43546358D01*
X127675168Y-43670840D01*
X115072307Y-43670840D01*
X114967232Y-43565765D01*
X114724011Y-43403250D01*
X114453758Y-43291308D01*
X114166860Y-43234240D01*
X113874340Y-43234240D01*
X113587442Y-43291308D01*
X113317189Y-43403250D01*
X113073968Y-43565765D01*
X112942113Y-43697620D01*
X112920102Y-43625060D01*
X112861137Y-43514746D01*
X112781785Y-43418055D01*
X112685094Y-43338703D01*
X112574780Y-43279738D01*
X112455082Y-43243428D01*
X112330600Y-43231168D01*
X110630600Y-43231168D01*
X110506118Y-43243428D01*
X110386420Y-43279738D01*
X110276106Y-43338703D01*
X110179415Y-43418055D01*
X110100063Y-43514746D01*
X110041098Y-43625060D01*
X110004788Y-43744758D01*
X109992528Y-43869240D01*
X109992528Y-45132510D01*
X106072478Y-49052561D01*
X106043480Y-49076359D01*
X106019682Y-49105357D01*
X106019681Y-49105358D01*
X105948506Y-49192084D01*
X105877934Y-49324114D01*
X105834478Y-49467375D01*
X105819804Y-49616360D01*
X105823481Y-49653693D01*
X105823480Y-70777478D01*
X102748763Y-70806424D01*
X102855075Y-70700112D01*
X103017590Y-70456891D01*
X103129532Y-70186638D01*
X103186600Y-69899740D01*
X103186600Y-69607220D01*
X103129532Y-69320322D01*
X103017590Y-69050069D01*
X102855075Y-68806848D01*
X102648232Y-68600005D01*
X102473840Y-68483480D01*
X102648232Y-68366955D01*
X102855075Y-68160112D01*
X103017590Y-67916891D01*
X103129532Y-67646638D01*
X103186600Y-67359740D01*
X103186600Y-67067220D01*
X103129532Y-66780322D01*
X103017590Y-66510069D01*
X102855075Y-66266848D01*
X102648232Y-66060005D01*
X102473840Y-65943480D01*
X102648232Y-65826955D01*
X102855075Y-65620112D01*
X103017590Y-65376891D01*
X103129532Y-65106638D01*
X103186600Y-64819740D01*
X103186600Y-64527220D01*
X103129532Y-64240322D01*
X103017590Y-63970069D01*
X102855075Y-63726848D01*
X102648232Y-63520005D01*
X102473840Y-63403480D01*
X102648232Y-63286955D01*
X102855075Y-63080112D01*
X103017590Y-62836891D01*
X103129532Y-62566638D01*
X103186600Y-62279740D01*
X103186600Y-61987220D01*
X103129532Y-61700322D01*
X103017590Y-61430069D01*
X102855075Y-61186848D01*
X102648232Y-60980005D01*
X102473840Y-60863480D01*
X102648232Y-60746955D01*
X102855075Y-60540112D01*
X103017590Y-60296891D01*
X103129532Y-60026638D01*
X103186600Y-59739740D01*
X103186600Y-59447220D01*
X103129532Y-59160322D01*
X103017590Y-58890069D01*
X102855075Y-58646848D01*
X102648232Y-58440005D01*
X102473840Y-58323480D01*
X102648232Y-58206955D01*
X102855075Y-58000112D01*
X103017590Y-57756891D01*
X103129532Y-57486638D01*
X103186600Y-57199740D01*
X103186600Y-56907220D01*
X103129532Y-56620322D01*
X103017590Y-56350069D01*
X102855075Y-56106848D01*
X102648232Y-55900005D01*
X102473840Y-55783480D01*
X102648232Y-55666955D01*
X102855075Y-55460112D01*
X103017590Y-55216891D01*
X103129532Y-54946638D01*
X103186600Y-54659740D01*
X103186600Y-54367220D01*
X103129532Y-54080322D01*
X103017590Y-53810069D01*
X102855075Y-53566848D01*
X102648232Y-53360005D01*
X102473840Y-53243480D01*
X102648232Y-53126955D01*
X102855075Y-52920112D01*
X103017590Y-52676891D01*
X103129532Y-52406638D01*
X103186600Y-52119740D01*
X103186600Y-51827220D01*
X103129532Y-51540322D01*
X103017590Y-51270069D01*
X102855075Y-51026848D01*
X102648232Y-50820005D01*
X102473840Y-50703480D01*
X102648232Y-50586955D01*
X102855075Y-50380112D01*
X103017590Y-50136891D01*
X103129532Y-49866638D01*
X103186600Y-49579740D01*
X103186600Y-49287220D01*
X103129532Y-49000322D01*
X103017590Y-48730069D01*
X102855075Y-48486848D01*
X102648232Y-48280005D01*
X102473840Y-48163480D01*
X102648232Y-48046955D01*
X102855075Y-47840112D01*
X103017590Y-47596891D01*
X103129532Y-47326638D01*
X103186600Y-47039740D01*
X103186600Y-46747220D01*
X103129532Y-46460322D01*
X103017590Y-46190069D01*
X102855075Y-45946848D01*
X102648232Y-45740005D01*
X102405011Y-45577490D01*
X102134758Y-45465548D01*
X101847860Y-45408480D01*
X101555340Y-45408480D01*
X101268442Y-45465548D01*
X100998189Y-45577490D01*
X100754968Y-45740005D01*
X100548125Y-45946848D01*
X100431600Y-46121240D01*
X100315075Y-45946848D01*
X100108232Y-45740005D01*
X99865011Y-45577490D01*
X99594758Y-45465548D01*
X99307860Y-45408480D01*
X99015340Y-45408480D01*
X98728442Y-45465548D01*
X98458189Y-45577490D01*
X98214968Y-45740005D01*
X98008125Y-45946848D01*
X97934100Y-46057634D01*
X97932159Y-41778622D01*
X142264813Y-41909098D01*
G37*
X142264813Y-41909098D02*
X141093176Y-43080735D01*
X141057497Y-43110016D01*
X140940655Y-43252388D01*
X140919852Y-43291308D01*
X140853834Y-43414820D01*
X140800369Y-43591069D01*
X140782316Y-43774360D01*
X140786841Y-43820302D01*
X140786841Y-44078938D01*
X140677660Y-44112058D01*
X140567346Y-44171023D01*
X140470655Y-44250375D01*
X140391303Y-44347066D01*
X140332338Y-44457380D01*
X140296028Y-44577078D01*
X140283768Y-44701560D01*
X140283768Y-46301560D01*
X140296028Y-46426042D01*
X140332338Y-46545740D01*
X140391303Y-46656054D01*
X140470655Y-46752745D01*
X140567346Y-46832097D01*
X140677660Y-46891062D01*
X140797358Y-46927372D01*
X140921840Y-46939632D01*
X142521840Y-46939632D01*
X142646322Y-46927372D01*
X142766020Y-46891062D01*
X142876334Y-46832097D01*
X142973025Y-46752745D01*
X143052377Y-46656054D01*
X143111342Y-46545740D01*
X143126957Y-46494262D01*
X143408743Y-46494262D01*
X143480326Y-46738231D01*
X143735836Y-46859131D01*
X144010024Y-46927860D01*
X144292352Y-46941777D01*
X144571970Y-46900347D01*
X144838132Y-46805163D01*
X144963354Y-46738231D01*
X145034937Y-46494262D01*
X144221840Y-45681165D01*
X143408743Y-46494262D01*
X143126957Y-46494262D01*
X143147652Y-46426042D01*
X143159912Y-46301560D01*
X143159912Y-46294345D01*
X143229138Y-46314657D01*
X144042235Y-45501560D01*
X144401445Y-45501560D01*
X145214542Y-46314657D01*
X145458511Y-46243074D01*
X145579411Y-45987564D01*
X145648140Y-45713376D01*
X145662057Y-45431048D01*
X145620627Y-45151430D01*
X145525443Y-44885268D01*
X145458511Y-44760046D01*
X145214542Y-44688463D01*
X144401445Y-45501560D01*
X144042235Y-45501560D01*
X143229138Y-44688463D01*
X143159912Y-44708775D01*
X143159912Y-44701560D01*
X143147652Y-44577078D01*
X143126958Y-44508858D01*
X143408743Y-44508858D01*
X144221840Y-45321955D01*
X145034937Y-44508858D01*
X144963354Y-44264889D01*
X144707844Y-44143989D01*
X144433656Y-44075260D01*
X144151328Y-44061343D01*
X143871710Y-44102773D01*
X143605548Y-44197957D01*
X143480326Y-44264889D01*
X143408743Y-44508858D01*
X143126958Y-44508858D01*
X143111342Y-44457380D01*
X143052377Y-44347066D01*
X142973025Y-44250375D01*
X142876334Y-44171023D01*
X142766020Y-44112058D01*
X142720300Y-44098189D01*
X143871890Y-42946600D01*
X153465591Y-42946600D01*
X155924031Y-45405040D01*
X147598191Y-53730880D01*
X144694352Y-53730880D01*
X144694352Y-53565880D01*
X144682092Y-53441398D01*
X144645782Y-53321700D01*
X144586817Y-53211386D01*
X144507465Y-53114695D01*
X144410774Y-53035343D01*
X144300460Y-52976378D01*
X144180762Y-52940068D01*
X144056280Y-52927808D01*
X141856280Y-52927808D01*
X141731798Y-52940068D01*
X141612100Y-52976378D01*
X141501786Y-53035343D01*
X141405095Y-53114695D01*
X141325743Y-53211386D01*
X141266778Y-53321700D01*
X141230468Y-53441398D01*
X141218208Y-53565880D01*
X141218208Y-55765880D01*
X141230468Y-55890362D01*
X141266778Y-56010060D01*
X141325743Y-56120374D01*
X141405095Y-56217065D01*
X141501786Y-56296417D01*
X141612100Y-56355382D01*
X141731798Y-56391692D01*
X141856280Y-56403952D01*
X144056280Y-56403952D01*
X144180762Y-56391692D01*
X144300460Y-56355382D01*
X144410774Y-56296417D01*
X144507465Y-56217065D01*
X144586817Y-56120374D01*
X144645782Y-56010060D01*
X144682092Y-55890362D01*
X144694352Y-55765880D01*
X144694352Y-55600880D01*
X147939548Y-55600880D01*
X147985480Y-55605404D01*
X148031412Y-55600880D01*
X148168772Y-55587351D01*
X148345020Y-55533887D01*
X148507452Y-55447066D01*
X148649824Y-55330224D01*
X148679110Y-55294539D01*
X153132529Y-50841120D01*
X166997328Y-50841120D01*
X166997328Y-53441120D01*
X167009588Y-53565602D01*
X167045898Y-53685300D01*
X167104863Y-53795614D01*
X167184215Y-53892305D01*
X167280906Y-53971657D01*
X167391220Y-54030622D01*
X167510918Y-54066932D01*
X167635400Y-54079192D01*
X170235400Y-54079192D01*
X170359882Y-54066932D01*
X170479580Y-54030622D01*
X170589894Y-53971657D01*
X170686585Y-53892305D01*
X170765937Y-53795614D01*
X170824902Y-53685300D01*
X170861212Y-53565602D01*
X170873472Y-53441120D01*
X170873472Y-50841120D01*
X170861212Y-50716638D01*
X170824902Y-50596940D01*
X170765937Y-50486626D01*
X170686585Y-50389935D01*
X170589894Y-50310583D01*
X170479580Y-50251618D01*
X170359882Y-50215308D01*
X170235400Y-50203048D01*
X167635400Y-50203048D01*
X167510918Y-50215308D01*
X167391220Y-50251618D01*
X167280906Y-50310583D01*
X167184215Y-50389935D01*
X167104863Y-50486626D01*
X167045898Y-50596940D01*
X167009588Y-50716638D01*
X166997328Y-50841120D01*
X153132529Y-50841120D01*
X157874995Y-46098655D01*
X157910663Y-46069383D01*
X157939935Y-46033715D01*
X157939944Y-46033706D01*
X158027505Y-45927012D01*
X158114327Y-45764581D01*
X158167792Y-45588332D01*
X158185844Y-45405040D01*
X158167792Y-45221748D01*
X158114327Y-45045500D01*
X158037908Y-44902531D01*
X158027505Y-44883068D01*
X157983210Y-44829095D01*
X157910664Y-44740696D01*
X157874982Y-44711413D01*
X155110473Y-41946904D01*
X175239665Y-42006146D01*
X175234615Y-85740354D01*
X158471210Y-85755479D01*
X155697845Y-85726286D01*
X157783540Y-83640591D01*
X157819224Y-83611306D01*
X157936066Y-83468934D01*
X158022887Y-83306502D01*
X158076351Y-83130254D01*
X158089880Y-82992894D01*
X158089880Y-82992893D01*
X158094404Y-82946962D01*
X158089880Y-82901030D01*
X158089880Y-71102139D01*
X166776880Y-71102139D01*
X166776880Y-71483301D01*
X166851241Y-71857139D01*
X166997105Y-72209286D01*
X167208867Y-72526211D01*
X167478389Y-72795733D01*
X167795314Y-73007495D01*
X168147461Y-73153359D01*
X168521299Y-73227720D01*
X168902461Y-73227720D01*
X169276299Y-73153359D01*
X169628446Y-73007495D01*
X169945371Y-72795733D01*
X170214893Y-72526211D01*
X170426655Y-72209286D01*
X170572519Y-71857139D01*
X170646880Y-71483301D01*
X170646880Y-71102139D01*
X170572519Y-70728301D01*
X170426655Y-70376154D01*
X170214893Y-70059229D01*
X169945371Y-69789707D01*
X169628446Y-69577945D01*
X169276299Y-69432081D01*
X168902461Y-69357720D01*
X168521299Y-69357720D01*
X168147461Y-69432081D01*
X167795314Y-69577945D01*
X167478389Y-69789707D01*
X167208867Y-70059229D01*
X166997105Y-70376154D01*
X166851241Y-70728301D01*
X166776880Y-71102139D01*
X158089880Y-71102139D01*
X158089880Y-64912720D01*
X166773808Y-64912720D01*
X166773808Y-67512720D01*
X166786068Y-67637202D01*
X166822378Y-67756900D01*
X166881343Y-67867214D01*
X166960695Y-67963905D01*
X167057386Y-68043257D01*
X167167700Y-68102222D01*
X167287398Y-68138532D01*
X167411880Y-68150792D01*
X170011880Y-68150792D01*
X170136362Y-68138532D01*
X170256060Y-68102222D01*
X170366374Y-68043257D01*
X170463065Y-67963905D01*
X170542417Y-67867214D01*
X170601382Y-67756900D01*
X170637692Y-67637202D01*
X170649952Y-67512720D01*
X170649952Y-64912720D01*
X170637692Y-64788238D01*
X170601382Y-64668540D01*
X170542417Y-64558226D01*
X170463065Y-64461535D01*
X170366374Y-64382183D01*
X170256060Y-64323218D01*
X170136362Y-64286908D01*
X170011880Y-64274648D01*
X167411880Y-64274648D01*
X167287398Y-64286908D01*
X167167700Y-64323218D01*
X167057386Y-64382183D01*
X166960695Y-64461535D01*
X166881343Y-64558226D01*
X166822378Y-64668540D01*
X166786068Y-64788238D01*
X166773808Y-64912720D01*
X158089880Y-64912720D01*
X158089880Y-58750412D01*
X158094404Y-58704480D01*
X158076351Y-58521188D01*
X158056155Y-58454611D01*
X158022887Y-58344940D01*
X157936066Y-58182508D01*
X157819224Y-58040136D01*
X157783539Y-58010850D01*
X156803228Y-57030539D01*
X167000400Y-57030539D01*
X167000400Y-57411701D01*
X167074761Y-57785539D01*
X167220625Y-58137686D01*
X167432387Y-58454611D01*
X167701909Y-58724133D01*
X168018834Y-58935895D01*
X168370981Y-59081759D01*
X168744819Y-59156120D01*
X169125981Y-59156120D01*
X169499819Y-59081759D01*
X169851966Y-58935895D01*
X170168891Y-58724133D01*
X170438413Y-58454611D01*
X170650175Y-58137686D01*
X170796039Y-57785539D01*
X170870400Y-57411701D01*
X170870400Y-57030539D01*
X170796039Y-56656701D01*
X170650175Y-56304554D01*
X170438413Y-55987629D01*
X170168891Y-55718107D01*
X169851966Y-55506345D01*
X169499819Y-55360481D01*
X169125981Y-55286120D01*
X168744819Y-55286120D01*
X168370981Y-55360481D01*
X168018834Y-55506345D01*
X167701909Y-55718107D01*
X167432387Y-55987629D01*
X167220625Y-56304554D01*
X167074761Y-56656701D01*
X167000400Y-57030539D01*
X156803228Y-57030539D01*
X154811158Y-55038469D01*
X154851280Y-54836763D01*
X154851280Y-54494997D01*
X154784605Y-54159799D01*
X154653817Y-53844049D01*
X154463943Y-53559882D01*
X154222278Y-53318217D01*
X153938111Y-53128343D01*
X153622361Y-52997555D01*
X153287163Y-52930880D01*
X152945397Y-52930880D01*
X152610199Y-52997555D01*
X152294449Y-53128343D01*
X152010282Y-53318217D01*
X151768617Y-53559882D01*
X151578743Y-53844049D01*
X151447955Y-54159799D01*
X151381280Y-54494997D01*
X151381280Y-54836763D01*
X151447955Y-55171961D01*
X151578743Y-55487711D01*
X151768617Y-55771878D01*
X152010282Y-56013543D01*
X152294449Y-56203417D01*
X152610199Y-56334205D01*
X152945397Y-56400880D01*
X153287163Y-56400880D01*
X153488869Y-56360758D01*
X156219881Y-59091770D01*
X156219880Y-82559673D01*
X154946011Y-83833542D01*
X154938975Y-83810346D01*
X154788931Y-83505111D01*
X154582222Y-83235013D01*
X154326791Y-83010432D01*
X154032454Y-82839998D01*
X153710523Y-82730261D01*
X153441400Y-82847840D01*
X153441400Y-84292440D01*
X153461400Y-84292440D01*
X153461400Y-84546440D01*
X153441400Y-84546440D01*
X153441400Y-84566440D01*
X153187400Y-84566440D01*
X153187400Y-84546440D01*
X151743275Y-84546440D01*
X151625225Y-84815562D01*
X151689825Y-85028534D01*
X151839869Y-85333769D01*
X152046578Y-85603867D01*
X152143257Y-85688869D01*
X144883312Y-85612449D01*
X144892472Y-85519440D01*
X144892472Y-84023318D01*
X151625225Y-84023318D01*
X151743275Y-84292440D01*
X153187400Y-84292440D01*
X153187400Y-82847840D01*
X152918277Y-82730261D01*
X152596346Y-82839998D01*
X152302009Y-83010432D01*
X152046578Y-83235013D01*
X151839869Y-83505111D01*
X151689825Y-83810346D01*
X151625225Y-84023318D01*
X144892472Y-84023318D01*
X144892472Y-83754439D01*
X145074229Y-83754439D01*
X145120161Y-83758963D01*
X145166093Y-83754439D01*
X145303453Y-83740910D01*
X145479701Y-83687446D01*
X145642133Y-83600625D01*
X145784505Y-83483783D01*
X145813791Y-83448098D01*
X148624306Y-80637584D01*
X148659984Y-80608304D01*
X148776826Y-80465932D01*
X148863647Y-80303500D01*
X148911276Y-80146487D01*
X148917111Y-80127253D01*
X148935164Y-79943961D01*
X148930640Y-79898029D01*
X148930640Y-77451450D01*
X149491494Y-78012304D01*
X149520776Y-78047984D01*
X149663148Y-78164826D01*
X149825580Y-78251647D01*
X149948363Y-78288893D01*
X150001827Y-78305111D01*
X150185119Y-78323164D01*
X150231051Y-78318640D01*
X150239791Y-78318640D01*
X151619522Y-79698371D01*
X151579400Y-79900077D01*
X151579400Y-80241843D01*
X151646075Y-80577041D01*
X151776863Y-80892791D01*
X151966737Y-81176958D01*
X152208402Y-81418623D01*
X152492569Y-81608497D01*
X152808319Y-81739285D01*
X153143517Y-81805960D01*
X153485283Y-81805960D01*
X153820481Y-81739285D01*
X154136231Y-81608497D01*
X154420398Y-81418623D01*
X154662063Y-81176958D01*
X154851937Y-80892791D01*
X154982725Y-80577041D01*
X155049400Y-80241843D01*
X155049400Y-79900077D01*
X154982725Y-79564879D01*
X154851937Y-79249129D01*
X154662063Y-78964962D01*
X154420398Y-78723297D01*
X154136231Y-78533423D01*
X153820481Y-78402635D01*
X153485283Y-78335960D01*
X153143517Y-78335960D01*
X152941811Y-78376082D01*
X151320710Y-76754981D01*
X151291424Y-76719296D01*
X151149052Y-76602454D01*
X151051669Y-76550402D01*
X151538865Y-76550402D01*
X151603465Y-76763374D01*
X151753509Y-77068609D01*
X151960218Y-77338707D01*
X152215649Y-77563288D01*
X152509986Y-77733722D01*
X152831917Y-77843459D01*
X153101040Y-77725880D01*
X153101040Y-76281280D01*
X153355040Y-76281280D01*
X153355040Y-77725880D01*
X153624163Y-77843459D01*
X153946094Y-77733722D01*
X154240431Y-77563288D01*
X154495862Y-77338707D01*
X154702571Y-77068609D01*
X154852615Y-76763374D01*
X154917215Y-76550402D01*
X154799165Y-76281280D01*
X153355040Y-76281280D01*
X153101040Y-76281280D01*
X151656915Y-76281280D01*
X151538865Y-76550402D01*
X151051669Y-76550402D01*
X150986620Y-76515633D01*
X150810372Y-76462169D01*
X150673012Y-76448640D01*
X150627080Y-76444116D01*
X150581148Y-76448640D01*
X150572410Y-76448640D01*
X149881928Y-75758158D01*
X151538865Y-75758158D01*
X151656915Y-76027280D01*
X153101040Y-76027280D01*
X153101040Y-74582680D01*
X153355040Y-74582680D01*
X153355040Y-76027280D01*
X154799165Y-76027280D01*
X154917215Y-75758158D01*
X154852615Y-75545186D01*
X154702571Y-75239951D01*
X154495862Y-74969853D01*
X154240431Y-74745272D01*
X153946094Y-74574838D01*
X153624163Y-74465101D01*
X153355040Y-74582680D01*
X153101040Y-74582680D01*
X152831917Y-74465101D01*
X152509986Y-74574838D01*
X152215649Y-74745272D01*
X151960218Y-74969853D01*
X151753509Y-75239951D01*
X151603465Y-75545186D01*
X151538865Y-75758158D01*
X149881928Y-75758158D01*
X149306560Y-75182791D01*
X149306560Y-71807637D01*
X151493040Y-71807637D01*
X151493040Y-72149403D01*
X151559715Y-72484601D01*
X151690503Y-72800351D01*
X151880377Y-73084518D01*
X152122042Y-73326183D01*
X152406209Y-73516057D01*
X152721959Y-73646845D01*
X153057157Y-73713520D01*
X153398923Y-73713520D01*
X153734121Y-73646845D01*
X154049871Y-73516057D01*
X154334038Y-73326183D01*
X154575703Y-73084518D01*
X154765577Y-72800351D01*
X154896365Y-72484601D01*
X154963040Y-72149403D01*
X154963040Y-71807637D01*
X154896365Y-71472439D01*
X154765577Y-71156689D01*
X154575703Y-70872522D01*
X154334038Y-70630857D01*
X154049871Y-70440983D01*
X153734121Y-70310195D01*
X153398923Y-70243520D01*
X153057157Y-70243520D01*
X152721959Y-70310195D01*
X152406209Y-70440983D01*
X152122042Y-70630857D01*
X151880377Y-70872522D01*
X151690503Y-71156689D01*
X151559715Y-71472439D01*
X151493040Y-71807637D01*
X149306560Y-71807637D01*
X149306560Y-68198882D01*
X151538865Y-68198882D01*
X151603465Y-68411854D01*
X151753509Y-68717089D01*
X151960218Y-68987187D01*
X152215649Y-69211768D01*
X152509986Y-69382202D01*
X152831917Y-69491939D01*
X153101040Y-69374360D01*
X153101040Y-67929760D01*
X153355040Y-67929760D01*
X153355040Y-69374360D01*
X153624163Y-69491939D01*
X153946094Y-69382202D01*
X154240431Y-69211768D01*
X154495862Y-68987187D01*
X154702571Y-68717089D01*
X154852615Y-68411854D01*
X154917215Y-68198882D01*
X154799165Y-67929760D01*
X153355040Y-67929760D01*
X153101040Y-67929760D01*
X151656915Y-67929760D01*
X151538865Y-68198882D01*
X149306560Y-68198882D01*
X149306560Y-67406638D01*
X151538865Y-67406638D01*
X151656915Y-67675760D01*
X153101040Y-67675760D01*
X153101040Y-66231160D01*
X153355040Y-66231160D01*
X153355040Y-67675760D01*
X154799165Y-67675760D01*
X154917215Y-67406638D01*
X154852615Y-67193666D01*
X154702571Y-66888431D01*
X154495862Y-66618333D01*
X154240431Y-66393752D01*
X153946094Y-66223318D01*
X153624163Y-66113581D01*
X153355040Y-66231160D01*
X153101040Y-66231160D01*
X152831917Y-66113581D01*
X152509986Y-66223318D01*
X152215649Y-66393752D01*
X151960218Y-66618333D01*
X151753509Y-66888431D01*
X151603465Y-67193666D01*
X151538865Y-67406638D01*
X149306560Y-67406638D01*
X149306560Y-66715855D01*
X149311084Y-66669920D01*
X149293032Y-66486628D01*
X149239567Y-66310379D01*
X149197223Y-66231160D01*
X149152746Y-66147948D01*
X149035904Y-66005576D01*
X149000220Y-65976291D01*
X148084750Y-65060821D01*
X148055464Y-65025136D01*
X147913092Y-64908294D01*
X147750660Y-64821473D01*
X147574412Y-64768009D01*
X147437052Y-64754480D01*
X147391120Y-64749956D01*
X147345188Y-64754480D01*
X144684523Y-64754480D01*
X144707492Y-64678762D01*
X144719752Y-64554280D01*
X144719752Y-63283397D01*
X151406680Y-63283397D01*
X151406680Y-63625163D01*
X151473355Y-63960361D01*
X151604143Y-64276111D01*
X151794017Y-64560278D01*
X152035682Y-64801943D01*
X152319849Y-64991817D01*
X152635599Y-65122605D01*
X152970797Y-65189280D01*
X153312563Y-65189280D01*
X153647761Y-65122605D01*
X153963511Y-64991817D01*
X154247678Y-64801943D01*
X154489343Y-64560278D01*
X154679217Y-64276111D01*
X154810005Y-63960361D01*
X154876680Y-63625163D01*
X154876680Y-63283397D01*
X154810005Y-62948199D01*
X154679217Y-62632449D01*
X154489343Y-62348282D01*
X154247678Y-62106617D01*
X153963511Y-61916743D01*
X153647761Y-61785955D01*
X153312563Y-61719280D01*
X152970797Y-61719280D01*
X152635599Y-61785955D01*
X152319849Y-61916743D01*
X152035682Y-62106617D01*
X151794017Y-62348282D01*
X151604143Y-62632449D01*
X151473355Y-62948199D01*
X151406680Y-63283397D01*
X144719752Y-63283397D01*
X144719752Y-62354280D01*
X144707492Y-62229798D01*
X144671182Y-62110100D01*
X144612217Y-61999786D01*
X144532865Y-61903095D01*
X144436174Y-61823743D01*
X144325860Y-61764778D01*
X144206162Y-61728468D01*
X144081680Y-61716208D01*
X141881680Y-61716208D01*
X141757198Y-61728468D01*
X141637500Y-61764778D01*
X141527186Y-61823743D01*
X141430495Y-61903095D01*
X141351143Y-61999786D01*
X141292178Y-62110100D01*
X141255868Y-62229798D01*
X141243608Y-62354280D01*
X141243608Y-64554280D01*
X141255868Y-64678762D01*
X141278837Y-64754480D01*
X137206929Y-64754480D01*
X136009280Y-63556831D01*
X136009280Y-63302785D01*
X135954133Y-63025546D01*
X135845960Y-62764393D01*
X135688917Y-62529361D01*
X135489039Y-62329483D01*
X135256521Y-62174120D01*
X135489039Y-62018757D01*
X135688917Y-61818879D01*
X135845960Y-61583847D01*
X135954133Y-61322694D01*
X136009280Y-61045455D01*
X136009280Y-60762785D01*
X135954133Y-60485546D01*
X135845960Y-60224393D01*
X135688917Y-59989361D01*
X135489039Y-59789483D01*
X135256521Y-59634120D01*
X135489039Y-59478757D01*
X135688917Y-59278879D01*
X135845960Y-59043847D01*
X135954133Y-58782694D01*
X136009280Y-58505455D01*
X136009280Y-58251409D01*
X136381889Y-57878800D01*
X141274088Y-57878800D01*
X141274088Y-60078800D01*
X141286348Y-60203282D01*
X141322658Y-60322980D01*
X141381623Y-60433294D01*
X141460975Y-60529985D01*
X141557666Y-60609337D01*
X141667980Y-60668302D01*
X141787678Y-60704612D01*
X141912160Y-60716872D01*
X144112160Y-60716872D01*
X144236642Y-60704612D01*
X144356340Y-60668302D01*
X144466654Y-60609337D01*
X144563345Y-60529985D01*
X144642697Y-60433294D01*
X144701662Y-60322980D01*
X144737972Y-60203282D01*
X144750232Y-60078800D01*
X144750232Y-59374922D01*
X151482985Y-59374922D01*
X151547585Y-59587894D01*
X151697629Y-59893129D01*
X151904338Y-60163227D01*
X152159769Y-60387808D01*
X152454106Y-60558242D01*
X152776037Y-60667979D01*
X153045160Y-60550400D01*
X153045160Y-59105800D01*
X153299160Y-59105800D01*
X153299160Y-60550400D01*
X153568283Y-60667979D01*
X153890214Y-60558242D01*
X154184551Y-60387808D01*
X154439982Y-60163227D01*
X154646691Y-59893129D01*
X154796735Y-59587894D01*
X154861335Y-59374922D01*
X154743285Y-59105800D01*
X153299160Y-59105800D01*
X153045160Y-59105800D01*
X151601035Y-59105800D01*
X151482985Y-59374922D01*
X144750232Y-59374922D01*
X144750232Y-58582678D01*
X151482985Y-58582678D01*
X151601035Y-58851800D01*
X153045160Y-58851800D01*
X153045160Y-57407200D01*
X153299160Y-57407200D01*
X153299160Y-58851800D01*
X154743285Y-58851800D01*
X154861335Y-58582678D01*
X154796735Y-58369706D01*
X154646691Y-58064471D01*
X154439982Y-57794373D01*
X154184551Y-57569792D01*
X153890214Y-57399358D01*
X153568283Y-57289621D01*
X153299160Y-57407200D01*
X153045160Y-57407200D01*
X152776037Y-57289621D01*
X152454106Y-57399358D01*
X152159769Y-57569792D01*
X151904338Y-57794373D01*
X151697629Y-58064471D01*
X151547585Y-58369706D01*
X151482985Y-58582678D01*
X144750232Y-58582678D01*
X144750232Y-57878800D01*
X144737972Y-57754318D01*
X144701662Y-57634620D01*
X144642697Y-57524306D01*
X144563345Y-57427615D01*
X144466654Y-57348263D01*
X144356340Y-57289298D01*
X144236642Y-57252988D01*
X144112160Y-57240728D01*
X141912160Y-57240728D01*
X141787678Y-57252988D01*
X141667980Y-57289298D01*
X141557666Y-57348263D01*
X141460975Y-57427615D01*
X141381623Y-57524306D01*
X141322658Y-57634620D01*
X141286348Y-57754318D01*
X141274088Y-57878800D01*
X136381889Y-57878800D01*
X143236889Y-51023800D01*
X145998988Y-51023800D01*
X146044920Y-51028324D01*
X146090852Y-51023800D01*
X146228212Y-51010271D01*
X146404460Y-50956807D01*
X146566892Y-50869986D01*
X146709264Y-50753144D01*
X146738550Y-50717459D01*
X150663697Y-46792312D01*
X151579480Y-46792312D01*
X151703962Y-46780052D01*
X151823660Y-46743742D01*
X151933974Y-46684777D01*
X152030665Y-46605425D01*
X152110017Y-46508734D01*
X152168982Y-46398420D01*
X152184597Y-46346942D01*
X152466383Y-46346942D01*
X152537966Y-46590911D01*
X152793476Y-46711811D01*
X153067664Y-46780540D01*
X153349992Y-46794457D01*
X153629610Y-46753027D01*
X153895772Y-46657843D01*
X154020994Y-46590911D01*
X154092577Y-46346942D01*
X153279480Y-45533845D01*
X152466383Y-46346942D01*
X152184597Y-46346942D01*
X152205292Y-46278722D01*
X152217552Y-46154240D01*
X152217552Y-46147025D01*
X152286778Y-46167337D01*
X153099875Y-45354240D01*
X153459085Y-45354240D01*
X154272182Y-46167337D01*
X154516151Y-46095754D01*
X154637051Y-45840244D01*
X154705780Y-45566056D01*
X154719697Y-45283728D01*
X154678267Y-45004110D01*
X154583083Y-44737948D01*
X154516151Y-44612726D01*
X154272182Y-44541143D01*
X153459085Y-45354240D01*
X153099875Y-45354240D01*
X152286778Y-44541143D01*
X152217552Y-44561455D01*
X152217552Y-44554240D01*
X152205292Y-44429758D01*
X152184598Y-44361538D01*
X152466383Y-44361538D01*
X153279480Y-45174635D01*
X154092577Y-44361538D01*
X154020994Y-44117569D01*
X153765484Y-43996669D01*
X153491296Y-43927940D01*
X153208968Y-43914023D01*
X152929350Y-43955453D01*
X152663188Y-44050637D01*
X152537966Y-44117569D01*
X152466383Y-44361538D01*
X152184598Y-44361538D01*
X152168982Y-44310060D01*
X152110017Y-44199746D01*
X152030665Y-44103055D01*
X151933974Y-44023703D01*
X151823660Y-43964738D01*
X151703962Y-43928428D01*
X151579480Y-43916168D01*
X149979480Y-43916168D01*
X149854998Y-43928428D01*
X149735300Y-43964738D01*
X149624986Y-44023703D01*
X149528295Y-44103055D01*
X149448943Y-44199746D01*
X149389978Y-44310060D01*
X149353668Y-44429758D01*
X149341408Y-44554240D01*
X149341408Y-45470023D01*
X145657631Y-49153800D01*
X142895535Y-49153800D01*
X142849600Y-49149276D01*
X142666308Y-49167328D01*
X142584701Y-49192084D01*
X142490060Y-49220793D01*
X142327628Y-49307614D01*
X142185256Y-49424456D01*
X142155970Y-49460141D01*
X134686991Y-56929120D01*
X134461570Y-56929120D01*
X131396950Y-53864501D01*
X131367664Y-53828816D01*
X131225292Y-53711974D01*
X131062860Y-53625153D01*
X130886612Y-53571689D01*
X130756887Y-53558912D01*
X131813240Y-53558912D01*
X131937722Y-53546652D01*
X132057420Y-53510342D01*
X132167734Y-53451377D01*
X132264425Y-53372025D01*
X132343777Y-53275334D01*
X132402742Y-53165020D01*
X132439052Y-53045322D01*
X132451312Y-52920840D01*
X132451312Y-49420840D01*
X132439052Y-49296358D01*
X132402742Y-49176660D01*
X132343777Y-49066346D01*
X132264425Y-48969655D01*
X132167734Y-48890303D01*
X132057420Y-48831338D01*
X131937722Y-48795028D01*
X131813240Y-48782768D01*
X128313240Y-48782768D01*
X128188758Y-48795028D01*
X128069060Y-48831338D01*
X127958746Y-48890303D01*
X127862055Y-48969655D01*
X127782703Y-49066346D01*
X127741746Y-49142971D01*
X127751312Y-49045840D01*
X127751312Y-47295840D01*
X127722239Y-47000654D01*
X127636136Y-46716812D01*
X127611564Y-46670840D01*
X127675168Y-46670840D01*
X127687428Y-46795322D01*
X127723738Y-46915020D01*
X127782703Y-47025334D01*
X127862055Y-47122025D01*
X127958746Y-47201377D01*
X128069060Y-47260342D01*
X128188758Y-47296652D01*
X128313240Y-47308912D01*
X129777490Y-47305840D01*
X129936240Y-47147090D01*
X129936240Y-45297840D01*
X130190240Y-45297840D01*
X130190240Y-47147090D01*
X130348990Y-47305840D01*
X131813240Y-47308912D01*
X131937722Y-47296652D01*
X132057420Y-47260342D01*
X132167734Y-47201377D01*
X132264425Y-47122025D01*
X132343777Y-47025334D01*
X132402742Y-46915020D01*
X132439052Y-46795322D01*
X132451312Y-46670840D01*
X132448240Y-45456590D01*
X132289490Y-45297840D01*
X130190240Y-45297840D01*
X129936240Y-45297840D01*
X127836990Y-45297840D01*
X127678240Y-45456590D01*
X127675168Y-46670840D01*
X127611564Y-46670840D01*
X127496313Y-46455222D01*
X127308143Y-46225937D01*
X127078858Y-46037767D01*
X126817268Y-45897944D01*
X126533426Y-45811841D01*
X126238240Y-45782768D01*
X124488240Y-45782768D01*
X124193054Y-45811841D01*
X123909212Y-45897944D01*
X123647622Y-46037767D01*
X123418337Y-46225937D01*
X123230167Y-46455222D01*
X123090344Y-46716812D01*
X123004241Y-47000654D01*
X122975168Y-47295840D01*
X122975168Y-49045840D01*
X123004241Y-49341026D01*
X123090344Y-49624868D01*
X123230167Y-49886458D01*
X123418337Y-50115743D01*
X123647622Y-50303913D01*
X123909212Y-50443736D01*
X124193054Y-50529839D01*
X124488240Y-50558912D01*
X126238240Y-50558912D01*
X126533426Y-50529839D01*
X126817268Y-50443736D01*
X127078858Y-50303913D01*
X127308143Y-50115743D01*
X127496313Y-49886458D01*
X127636136Y-49624868D01*
X127675168Y-49496197D01*
X127675168Y-52920840D01*
X127687428Y-53045322D01*
X127723738Y-53165020D01*
X127782703Y-53275334D01*
X127862055Y-53372025D01*
X127958746Y-53451377D01*
X128069060Y-53510342D01*
X128188758Y-53546652D01*
X128305605Y-53558160D01*
X124181810Y-53558160D01*
X115502871Y-44879222D01*
X115505600Y-44865500D01*
X115505600Y-44572980D01*
X115448532Y-44286082D01*
X115336590Y-44015829D01*
X115174075Y-43772608D01*
X115072307Y-43670840D01*
X127675168Y-43670840D01*
X127678240Y-44885090D01*
X127836990Y-45043840D01*
X129936240Y-45043840D01*
X129936240Y-43194590D01*
X130190240Y-43194590D01*
X130190240Y-45043840D01*
X132289490Y-45043840D01*
X132448240Y-44885090D01*
X132451312Y-43670840D01*
X132439052Y-43546358D01*
X132402742Y-43426660D01*
X132343777Y-43316346D01*
X132264425Y-43219655D01*
X132167734Y-43140303D01*
X132057420Y-43081338D01*
X131937722Y-43045028D01*
X131813240Y-43032768D01*
X130348990Y-43035840D01*
X130190240Y-43194590D01*
X129936240Y-43194590D01*
X129777490Y-43035840D01*
X128313240Y-43032768D01*
X128188758Y-43045028D01*
X128069060Y-43081338D01*
X127958746Y-43140303D01*
X127862055Y-43219655D01*
X127782703Y-43316346D01*
X127723738Y-43426660D01*
X127687428Y-43546358D01*
X127675168Y-43670840D01*
X115072307Y-43670840D01*
X114967232Y-43565765D01*
X114724011Y-43403250D01*
X114453758Y-43291308D01*
X114166860Y-43234240D01*
X113874340Y-43234240D01*
X113587442Y-43291308D01*
X113317189Y-43403250D01*
X113073968Y-43565765D01*
X112942113Y-43697620D01*
X112920102Y-43625060D01*
X112861137Y-43514746D01*
X112781785Y-43418055D01*
X112685094Y-43338703D01*
X112574780Y-43279738D01*
X112455082Y-43243428D01*
X112330600Y-43231168D01*
X110630600Y-43231168D01*
X110506118Y-43243428D01*
X110386420Y-43279738D01*
X110276106Y-43338703D01*
X110179415Y-43418055D01*
X110100063Y-43514746D01*
X110041098Y-43625060D01*
X110004788Y-43744758D01*
X109992528Y-43869240D01*
X109992528Y-45132510D01*
X106072478Y-49052561D01*
X106043480Y-49076359D01*
X106019682Y-49105357D01*
X106019681Y-49105358D01*
X105948506Y-49192084D01*
X105877934Y-49324114D01*
X105834478Y-49467375D01*
X105819804Y-49616360D01*
X105823481Y-49653693D01*
X105823480Y-70777478D01*
X102748763Y-70806424D01*
X102855075Y-70700112D01*
X103017590Y-70456891D01*
X103129532Y-70186638D01*
X103186600Y-69899740D01*
X103186600Y-69607220D01*
X103129532Y-69320322D01*
X103017590Y-69050069D01*
X102855075Y-68806848D01*
X102648232Y-68600005D01*
X102473840Y-68483480D01*
X102648232Y-68366955D01*
X102855075Y-68160112D01*
X103017590Y-67916891D01*
X103129532Y-67646638D01*
X103186600Y-67359740D01*
X103186600Y-67067220D01*
X103129532Y-66780322D01*
X103017590Y-66510069D01*
X102855075Y-66266848D01*
X102648232Y-66060005D01*
X102473840Y-65943480D01*
X102648232Y-65826955D01*
X102855075Y-65620112D01*
X103017590Y-65376891D01*
X103129532Y-65106638D01*
X103186600Y-64819740D01*
X103186600Y-64527220D01*
X103129532Y-64240322D01*
X103017590Y-63970069D01*
X102855075Y-63726848D01*
X102648232Y-63520005D01*
X102473840Y-63403480D01*
X102648232Y-63286955D01*
X102855075Y-63080112D01*
X103017590Y-62836891D01*
X103129532Y-62566638D01*
X103186600Y-62279740D01*
X103186600Y-61987220D01*
X103129532Y-61700322D01*
X103017590Y-61430069D01*
X102855075Y-61186848D01*
X102648232Y-60980005D01*
X102473840Y-60863480D01*
X102648232Y-60746955D01*
X102855075Y-60540112D01*
X103017590Y-60296891D01*
X103129532Y-60026638D01*
X103186600Y-59739740D01*
X103186600Y-59447220D01*
X103129532Y-59160322D01*
X103017590Y-58890069D01*
X102855075Y-58646848D01*
X102648232Y-58440005D01*
X102473840Y-58323480D01*
X102648232Y-58206955D01*
X102855075Y-58000112D01*
X103017590Y-57756891D01*
X103129532Y-57486638D01*
X103186600Y-57199740D01*
X103186600Y-56907220D01*
X103129532Y-56620322D01*
X103017590Y-56350069D01*
X102855075Y-56106848D01*
X102648232Y-55900005D01*
X102473840Y-55783480D01*
X102648232Y-55666955D01*
X102855075Y-55460112D01*
X103017590Y-55216891D01*
X103129532Y-54946638D01*
X103186600Y-54659740D01*
X103186600Y-54367220D01*
X103129532Y-54080322D01*
X103017590Y-53810069D01*
X102855075Y-53566848D01*
X102648232Y-53360005D01*
X102473840Y-53243480D01*
X102648232Y-53126955D01*
X102855075Y-52920112D01*
X103017590Y-52676891D01*
X103129532Y-52406638D01*
X103186600Y-52119740D01*
X103186600Y-51827220D01*
X103129532Y-51540322D01*
X103017590Y-51270069D01*
X102855075Y-51026848D01*
X102648232Y-50820005D01*
X102473840Y-50703480D01*
X102648232Y-50586955D01*
X102855075Y-50380112D01*
X103017590Y-50136891D01*
X103129532Y-49866638D01*
X103186600Y-49579740D01*
X103186600Y-49287220D01*
X103129532Y-49000322D01*
X103017590Y-48730069D01*
X102855075Y-48486848D01*
X102648232Y-48280005D01*
X102473840Y-48163480D01*
X102648232Y-48046955D01*
X102855075Y-47840112D01*
X103017590Y-47596891D01*
X103129532Y-47326638D01*
X103186600Y-47039740D01*
X103186600Y-46747220D01*
X103129532Y-46460322D01*
X103017590Y-46190069D01*
X102855075Y-45946848D01*
X102648232Y-45740005D01*
X102405011Y-45577490D01*
X102134758Y-45465548D01*
X101847860Y-45408480D01*
X101555340Y-45408480D01*
X101268442Y-45465548D01*
X100998189Y-45577490D01*
X100754968Y-45740005D01*
X100548125Y-45946848D01*
X100431600Y-46121240D01*
X100315075Y-45946848D01*
X100108232Y-45740005D01*
X99865011Y-45577490D01*
X99594758Y-45465548D01*
X99307860Y-45408480D01*
X99015340Y-45408480D01*
X98728442Y-45465548D01*
X98458189Y-45577490D01*
X98214968Y-45740005D01*
X98008125Y-45946848D01*
X97934100Y-46057634D01*
X97932159Y-41778622D01*
X142264813Y-41909098D01*
G36*
X114147600Y-47132240D02*
G01*
X114167600Y-47132240D01*
X114167600Y-47386240D01*
X114147600Y-47386240D01*
X114147600Y-48580054D01*
X114377491Y-48700721D01*
X114651852Y-48603397D01*
X114901955Y-48454418D01*
X115118188Y-48259509D01*
X115292241Y-48026160D01*
X115417425Y-47763339D01*
X115462076Y-47616130D01*
X115340756Y-47386242D01*
X115365313Y-47386242D01*
X123100895Y-55121825D01*
X123130176Y-55157504D01*
X123272548Y-55274346D01*
X123434980Y-55361167D01*
X123557763Y-55398413D01*
X123611227Y-55414631D01*
X123794519Y-55432684D01*
X123840451Y-55428160D01*
X130316031Y-55428160D01*
X133139280Y-58251410D01*
X133139280Y-58505455D01*
X133194427Y-58782694D01*
X133302600Y-59043847D01*
X133459643Y-59278879D01*
X133659521Y-59478757D01*
X133892039Y-59634120D01*
X133659521Y-59789483D01*
X133459643Y-59989361D01*
X133302600Y-60224393D01*
X133194427Y-60485546D01*
X133139280Y-60762785D01*
X133139280Y-61045455D01*
X133194427Y-61322694D01*
X133302600Y-61583847D01*
X133459643Y-61818879D01*
X133659521Y-62018757D01*
X133892039Y-62174120D01*
X133659521Y-62329483D01*
X133459643Y-62529361D01*
X133302600Y-62764393D01*
X133194427Y-63025546D01*
X133139280Y-63302785D01*
X133139280Y-63585455D01*
X133194427Y-63862694D01*
X133302600Y-64123847D01*
X133459643Y-64358879D01*
X133659521Y-64558757D01*
X133894553Y-64715800D01*
X133905145Y-64720187D01*
X133719149Y-64831735D01*
X133510761Y-65020706D01*
X133343243Y-65246700D01*
X133223034Y-65501033D01*
X133182376Y-65635081D01*
X133304365Y-65857120D01*
X134447280Y-65857120D01*
X134447280Y-65837120D01*
X134701280Y-65837120D01*
X134701280Y-65857120D01*
X134721280Y-65857120D01*
X134721280Y-66111120D01*
X134701280Y-66111120D01*
X134701280Y-68397120D01*
X135844195Y-68397120D01*
X135966184Y-68175081D01*
X135925526Y-68041033D01*
X135805317Y-67786700D01*
X135637799Y-67560706D01*
X135429411Y-67371735D01*
X135233298Y-67254120D01*
X135429411Y-67136505D01*
X135637799Y-66947534D01*
X135805317Y-66721540D01*
X135925526Y-66467207D01*
X135966184Y-66333159D01*
X135844196Y-66111122D01*
X135918993Y-66111122D01*
X136126010Y-66318139D01*
X136155296Y-66353824D01*
X136297668Y-66470666D01*
X136384737Y-66517205D01*
X136460099Y-66557487D01*
X136636348Y-66610952D01*
X136819640Y-66629004D01*
X136865575Y-66624480D01*
X141337678Y-66624480D01*
X141329968Y-66702760D01*
X141329968Y-68218543D01*
X139419391Y-70129120D01*
X135668676Y-70129120D01*
X135489039Y-69949483D01*
X135254007Y-69792440D01*
X135243415Y-69788053D01*
X135429411Y-69676505D01*
X135637799Y-69487534D01*
X135805317Y-69261540D01*
X135925526Y-69007207D01*
X135966184Y-68873159D01*
X135844195Y-68651120D01*
X134701280Y-68651120D01*
X134701280Y-68671120D01*
X134447280Y-68671120D01*
X134447280Y-68651120D01*
X133304365Y-68651120D01*
X133182376Y-68873159D01*
X133223034Y-69007207D01*
X133343243Y-69261540D01*
X133510761Y-69487534D01*
X133719149Y-69676505D01*
X133905145Y-69788053D01*
X133894553Y-69792440D01*
X133659521Y-69949483D01*
X133459643Y-70149361D01*
X133302600Y-70384393D01*
X133194427Y-70645546D01*
X133139280Y-70922785D01*
X133139280Y-71205455D01*
X133194427Y-71482694D01*
X133302600Y-71743847D01*
X133459643Y-71978879D01*
X133659521Y-72178757D01*
X133892039Y-72334120D01*
X133659521Y-72489483D01*
X133459643Y-72689361D01*
X133302600Y-72924393D01*
X133194427Y-73185546D01*
X133139280Y-73462785D01*
X133139280Y-73745455D01*
X133194427Y-74022694D01*
X133302600Y-74283847D01*
X133459643Y-74518879D01*
X133659521Y-74718757D01*
X133892039Y-74874120D01*
X133659521Y-75029483D01*
X133459643Y-75229361D01*
X133302600Y-75464393D01*
X133194427Y-75725546D01*
X133139280Y-76002785D01*
X133139280Y-76285455D01*
X133194427Y-76562694D01*
X133302600Y-76823847D01*
X133459643Y-77058879D01*
X133659521Y-77258757D01*
X133894553Y-77415800D01*
X134155706Y-77523973D01*
X134432945Y-77579120D01*
X134715615Y-77579120D01*
X134992854Y-77523973D01*
X135254007Y-77415800D01*
X135489039Y-77258757D01*
X135688917Y-77058879D01*
X135845960Y-76823847D01*
X135954133Y-76562694D01*
X136009280Y-76285455D01*
X136009280Y-76002785D01*
X135954133Y-75725546D01*
X135845960Y-75464393D01*
X135688917Y-75229361D01*
X135489039Y-75029483D01*
X135256521Y-74874120D01*
X135489039Y-74718757D01*
X135688917Y-74518879D01*
X135845960Y-74283847D01*
X135954133Y-74022694D01*
X136009280Y-73745455D01*
X136009280Y-73462785D01*
X135954133Y-73185546D01*
X135845960Y-72924393D01*
X135688917Y-72689361D01*
X135489039Y-72489483D01*
X135256521Y-72334120D01*
X135489039Y-72178757D01*
X135668676Y-71999120D01*
X139760748Y-71999120D01*
X139806680Y-72003644D01*
X139852612Y-71999120D01*
X139989972Y-71985591D01*
X140166220Y-71932127D01*
X140328652Y-71845306D01*
X140471024Y-71728464D01*
X140500310Y-71692779D01*
X141331650Y-70861439D01*
X141329968Y-70878520D01*
X141329968Y-73078520D01*
X141342228Y-73203002D01*
X141378538Y-73322700D01*
X141437503Y-73433014D01*
X141516855Y-73529705D01*
X141613546Y-73609057D01*
X141723860Y-73668022D01*
X141843558Y-73704332D01*
X141968040Y-73716592D01*
X144168040Y-73716592D01*
X144292522Y-73704332D01*
X144412220Y-73668022D01*
X144522534Y-73609057D01*
X144619225Y-73529705D01*
X144698577Y-73433014D01*
X144757542Y-73322700D01*
X144793852Y-73203002D01*
X144806112Y-73078520D01*
X144806112Y-70878520D01*
X144793852Y-70754038D01*
X144757542Y-70634340D01*
X144698577Y-70524026D01*
X144619225Y-70427335D01*
X144522534Y-70347983D01*
X144412220Y-70289018D01*
X144292522Y-70252708D01*
X144168040Y-70240448D01*
X141968040Y-70240448D01*
X141950959Y-70242130D01*
X142652257Y-69540832D01*
X144168040Y-69540832D01*
X144292522Y-69528572D01*
X144412220Y-69492262D01*
X144522534Y-69433297D01*
X144619225Y-69353945D01*
X144698577Y-69257254D01*
X144757542Y-69146940D01*
X144793852Y-69027242D01*
X144806112Y-68902760D01*
X144806112Y-66702760D01*
X144798402Y-66624480D01*
X147003831Y-66624480D01*
X147436560Y-67057209D01*
X147436561Y-75263419D01*
X147335652Y-75232809D01*
X147198292Y-75219280D01*
X147152360Y-75214756D01*
X147106428Y-75219280D01*
X144806112Y-75219280D01*
X144806112Y-75054280D01*
X144793852Y-74929798D01*
X144757542Y-74810100D01*
X144698577Y-74699786D01*
X144619225Y-74603095D01*
X144522534Y-74523743D01*
X144412220Y-74464778D01*
X144292522Y-74428468D01*
X144168040Y-74416208D01*
X141968040Y-74416208D01*
X141843558Y-74428468D01*
X141723860Y-74464778D01*
X141613546Y-74523743D01*
X141516855Y-74603095D01*
X141437503Y-74699786D01*
X141378538Y-74810100D01*
X141342228Y-74929798D01*
X141329968Y-75054280D01*
X141329968Y-77254280D01*
X141342228Y-77378762D01*
X141378538Y-77498460D01*
X141437503Y-77608774D01*
X141516855Y-77705465D01*
X141613546Y-77784817D01*
X141723860Y-77843782D01*
X141843558Y-77880092D01*
X141968040Y-77892352D01*
X144168040Y-77892352D01*
X144292522Y-77880092D01*
X144412220Y-77843782D01*
X144522534Y-77784817D01*
X144619225Y-77705465D01*
X144698577Y-77608774D01*
X144757542Y-77498460D01*
X144793852Y-77378762D01*
X144806112Y-77254280D01*
X144806112Y-77089280D01*
X146765071Y-77089280D01*
X147060641Y-77384851D01*
X147060640Y-79556670D01*
X144732872Y-81884439D01*
X129455836Y-81884439D01*
X125532160Y-77373570D01*
X125532160Y-76350206D01*
X125574427Y-76562694D01*
X125682600Y-76823847D01*
X125839643Y-77058879D01*
X126039521Y-77258757D01*
X126274553Y-77415800D01*
X126535706Y-77523973D01*
X126812945Y-77579120D01*
X127066991Y-77579120D01*
X129395014Y-79907144D01*
X129424296Y-79942824D01*
X129566668Y-80059666D01*
X129729100Y-80146487D01*
X129851883Y-80183733D01*
X129905347Y-80199951D01*
X129923750Y-80201763D01*
X130042708Y-80213480D01*
X130042714Y-80213480D01*
X130088639Y-80218003D01*
X130134564Y-80213480D01*
X138291631Y-80213480D01*
X138777770Y-80699619D01*
X138807056Y-80735304D01*
X138949428Y-80852146D01*
X139111860Y-80938967D01*
X139272934Y-80987828D01*
X139288108Y-80992431D01*
X139471400Y-81010484D01*
X139517332Y-81005960D01*
X141416328Y-81005960D01*
X141416328Y-81170960D01*
X141428588Y-81295442D01*
X141464898Y-81415140D01*
X141523863Y-81525454D01*
X141603215Y-81622145D01*
X141699906Y-81701497D01*
X141810220Y-81760462D01*
X141929918Y-81796772D01*
X142054400Y-81809032D01*
X144254400Y-81809032D01*
X144378882Y-81796772D01*
X144498580Y-81760462D01*
X144608894Y-81701497D01*
X144705585Y-81622145D01*
X144784937Y-81525454D01*
X144843902Y-81415140D01*
X144880212Y-81295442D01*
X144892472Y-81170960D01*
X144892472Y-78970960D01*
X144880212Y-78846478D01*
X144843902Y-78726780D01*
X144784937Y-78616466D01*
X144705585Y-78519775D01*
X144608894Y-78440423D01*
X144498580Y-78381458D01*
X144378882Y-78345148D01*
X144254400Y-78332888D01*
X142054400Y-78332888D01*
X141929918Y-78345148D01*
X141810220Y-78381458D01*
X141699906Y-78440423D01*
X141603215Y-78519775D01*
X141523863Y-78616466D01*
X141464898Y-78726780D01*
X141428588Y-78846478D01*
X141416328Y-78970960D01*
X141416328Y-79135960D01*
X139858689Y-79135960D01*
X139372550Y-78649821D01*
X139343264Y-78614136D01*
X139200892Y-78497294D01*
X139038460Y-78410473D01*
X138862212Y-78357009D01*
X138724852Y-78343480D01*
X138678920Y-78338956D01*
X138632988Y-78343480D01*
X130475930Y-78343480D01*
X128389280Y-76256831D01*
X128389280Y-76002785D01*
X128334133Y-75725546D01*
X128225960Y-75464393D01*
X128068917Y-75229361D01*
X127869039Y-75029483D01*
X127636521Y-74874120D01*
X127869039Y-74718757D01*
X128068917Y-74518879D01*
X128225960Y-74283847D01*
X128334133Y-74022694D01*
X128389280Y-73745455D01*
X128389280Y-73462785D01*
X128334133Y-73185546D01*
X128225960Y-72924393D01*
X128068917Y-72689361D01*
X127869039Y-72489483D01*
X127636521Y-72334120D01*
X127869039Y-72178757D01*
X128068917Y-71978879D01*
X128225960Y-71743847D01*
X128334133Y-71482694D01*
X128389280Y-71205455D01*
X128389280Y-70922785D01*
X128334133Y-70645546D01*
X128225960Y-70384393D01*
X128068917Y-70149361D01*
X127869039Y-69949483D01*
X127634007Y-69792440D01*
X127623415Y-69788053D01*
X127809411Y-69676505D01*
X128017799Y-69487534D01*
X128185317Y-69261540D01*
X128305526Y-69007207D01*
X128346184Y-68873159D01*
X128224195Y-68651120D01*
X127081280Y-68651120D01*
X127081280Y-68671120D01*
X126827280Y-68671120D01*
X126827280Y-68651120D01*
X125684365Y-68651120D01*
X125562376Y-68873159D01*
X125603034Y-69007207D01*
X125723243Y-69261540D01*
X125890761Y-69487534D01*
X126099149Y-69676505D01*
X126285145Y-69788053D01*
X126274553Y-69792440D01*
X126039521Y-69949483D01*
X125839643Y-70149361D01*
X125682600Y-70384393D01*
X125574427Y-70645546D01*
X125519280Y-70922785D01*
X125519280Y-71176830D01*
X123968501Y-72727610D01*
X123932816Y-72756896D01*
X123815974Y-72899269D01*
X123729153Y-73061701D01*
X123722232Y-73084518D01*
X123675689Y-73237949D01*
X123657636Y-73421240D01*
X123662160Y-73467172D01*
X123662160Y-75223718D01*
X123195360Y-74687060D01*
X123195360Y-68565969D01*
X124425816Y-67335514D01*
X124461496Y-67306232D01*
X124578338Y-67163860D01*
X124603036Y-67117654D01*
X125609567Y-66111122D01*
X125684364Y-66111122D01*
X125562376Y-66333159D01*
X125603034Y-66467207D01*
X125723243Y-66721540D01*
X125890761Y-66947534D01*
X126099149Y-67136505D01*
X126295262Y-67254120D01*
X126099149Y-67371735D01*
X125890761Y-67560706D01*
X125723243Y-67786700D01*
X125603034Y-68041033D01*
X125562376Y-68175081D01*
X125684365Y-68397120D01*
X126827280Y-68397120D01*
X126827280Y-66111120D01*
X127081280Y-66111120D01*
X127081280Y-68397120D01*
X128224195Y-68397120D01*
X128346184Y-68175081D01*
X128305526Y-68041033D01*
X128185317Y-67786700D01*
X128017799Y-67560706D01*
X127809411Y-67371735D01*
X127613298Y-67254120D01*
X127809411Y-67136505D01*
X128017799Y-66947534D01*
X128185317Y-66721540D01*
X128305526Y-66467207D01*
X128346184Y-66333159D01*
X133182376Y-66333159D01*
X133223034Y-66467207D01*
X133343243Y-66721540D01*
X133510761Y-66947534D01*
X133719149Y-67136505D01*
X133915262Y-67254120D01*
X133719149Y-67371735D01*
X133510761Y-67560706D01*
X133343243Y-67786700D01*
X133223034Y-68041033D01*
X133182376Y-68175081D01*
X133304365Y-68397120D01*
X134447280Y-68397120D01*
X134447280Y-66111120D01*
X133304365Y-66111120D01*
X133182376Y-66333159D01*
X128346184Y-66333159D01*
X128224195Y-66111120D01*
X127081280Y-66111120D01*
X126827280Y-66111120D01*
X126807280Y-66111120D01*
X126807280Y-65857120D01*
X126827280Y-65857120D01*
X126827280Y-65837120D01*
X127081280Y-65837120D01*
X127081280Y-65857120D01*
X128224195Y-65857120D01*
X128346184Y-65635081D01*
X128305526Y-65501033D01*
X128185317Y-65246700D01*
X128017799Y-65020706D01*
X127809411Y-64831735D01*
X127623415Y-64720187D01*
X127634007Y-64715800D01*
X127869039Y-64558757D01*
X128068917Y-64358879D01*
X128225960Y-64123847D01*
X128334133Y-63862694D01*
X128389280Y-63585455D01*
X128389280Y-63302785D01*
X128334133Y-63025546D01*
X128225960Y-62764393D01*
X128068917Y-62529361D01*
X127869039Y-62329483D01*
X127636521Y-62174120D01*
X127869039Y-62018757D01*
X128068917Y-61818879D01*
X128225960Y-61583847D01*
X128334133Y-61322694D01*
X128389280Y-61045455D01*
X128389280Y-60762785D01*
X128334133Y-60485546D01*
X128225960Y-60224393D01*
X128068917Y-59989361D01*
X127870319Y-59790763D01*
X127878762Y-59789932D01*
X127998460Y-59753622D01*
X128108774Y-59694657D01*
X128205465Y-59615305D01*
X128284817Y-59518614D01*
X128343782Y-59408300D01*
X128380092Y-59288602D01*
X128392352Y-59164120D01*
X128392352Y-57564120D01*
X128380092Y-57439638D01*
X128343782Y-57319940D01*
X128284817Y-57209626D01*
X128205465Y-57112935D01*
X128108774Y-57033583D01*
X127998460Y-56974618D01*
X127878762Y-56938308D01*
X127754280Y-56926048D01*
X126154280Y-56926048D01*
X126029798Y-56938308D01*
X125910100Y-56974618D01*
X125799786Y-57033583D01*
X125703095Y-57112935D01*
X125623743Y-57209626D01*
X125564778Y-57319940D01*
X125528468Y-57439638D01*
X125516208Y-57564120D01*
X125516208Y-59164120D01*
X125528468Y-59288602D01*
X125564778Y-59408300D01*
X125623743Y-59518614D01*
X125703095Y-59615305D01*
X125799786Y-59694657D01*
X125910100Y-59753622D01*
X126029798Y-59789932D01*
X126038241Y-59790763D01*
X125839643Y-59989361D01*
X125682600Y-60224393D01*
X125574427Y-60485546D01*
X125519280Y-60762785D01*
X125519280Y-61045455D01*
X125574427Y-61322694D01*
X125682600Y-61583847D01*
X125839643Y-61818879D01*
X126039521Y-62018757D01*
X126272039Y-62174120D01*
X126039521Y-62329483D01*
X125839643Y-62529361D01*
X125682600Y-62764393D01*
X125574427Y-63025546D01*
X125519280Y-63302785D01*
X125519280Y-63556830D01*
X123168493Y-65907618D01*
X123132808Y-65936904D01*
X123015966Y-66079277D01*
X122991270Y-66125480D01*
X121631701Y-67485050D01*
X121596016Y-67514336D01*
X121479174Y-67656709D01*
X121392353Y-67819141D01*
X121348440Y-67963905D01*
X121338889Y-67995389D01*
X121320836Y-68178680D01*
X121325360Y-68224612D01*
X121325360Y-72537208D01*
X119719662Y-70691211D01*
X119701561Y-70674118D01*
X119680472Y-70660886D01*
X119657207Y-70652022D01*
X119622644Y-70647566D01*
X107343480Y-70763168D01*
X107343480Y-61740680D01*
X110317648Y-61740680D01*
X110317648Y-63440680D01*
X110329908Y-63565162D01*
X110366218Y-63684860D01*
X110425183Y-63795174D01*
X110504535Y-63891865D01*
X110601226Y-63971217D01*
X110711540Y-64030182D01*
X110784100Y-64052193D01*
X110652245Y-64184048D01*
X110489730Y-64427269D01*
X110377788Y-64697522D01*
X110320720Y-64984420D01*
X110320720Y-65276940D01*
X110377788Y-65563838D01*
X110489730Y-65834091D01*
X110652245Y-66077312D01*
X110859088Y-66284155D01*
X111033480Y-66400680D01*
X110859088Y-66517205D01*
X110652245Y-66724048D01*
X110489730Y-66967269D01*
X110377788Y-67237522D01*
X110320720Y-67524420D01*
X110320720Y-67816940D01*
X110377788Y-68103838D01*
X110489730Y-68374091D01*
X110652245Y-68617312D01*
X110859088Y-68824155D01*
X111102309Y-68986670D01*
X111372562Y-69098612D01*
X111659460Y-69155680D01*
X111951980Y-69155680D01*
X112238878Y-69098612D01*
X112509131Y-68986670D01*
X112752352Y-68824155D01*
X112959195Y-68617312D01*
X113075720Y-68442920D01*
X113192245Y-68617312D01*
X113399088Y-68824155D01*
X113642309Y-68986670D01*
X113912562Y-69098612D01*
X114199460Y-69155680D01*
X114491980Y-69155680D01*
X114778878Y-69098612D01*
X115049131Y-68986670D01*
X115292352Y-68824155D01*
X115499195Y-68617312D01*
X115661710Y-68374091D01*
X115773652Y-68103838D01*
X115830720Y-67816940D01*
X115830720Y-67524420D01*
X115773652Y-67237522D01*
X115661710Y-66967269D01*
X115499195Y-66724048D01*
X115292352Y-66517205D01*
X115117960Y-66400680D01*
X115292352Y-66284155D01*
X115499195Y-66077312D01*
X115661710Y-65834091D01*
X115773652Y-65563838D01*
X115830720Y-65276940D01*
X115830720Y-64984420D01*
X115773652Y-64697522D01*
X115661710Y-64427269D01*
X115499195Y-64184048D01*
X115292352Y-63977205D01*
X115117960Y-63860680D01*
X115292352Y-63744155D01*
X115499195Y-63537312D01*
X115661710Y-63294091D01*
X115773652Y-63023838D01*
X115830720Y-62736940D01*
X115830720Y-62444420D01*
X115773652Y-62157522D01*
X115661710Y-61887269D01*
X115499195Y-61644048D01*
X115292352Y-61437205D01*
X115049131Y-61274690D01*
X114778878Y-61162748D01*
X114491980Y-61105680D01*
X114199460Y-61105680D01*
X113912562Y-61162748D01*
X113642309Y-61274690D01*
X113399088Y-61437205D01*
X113267233Y-61569060D01*
X113245222Y-61496500D01*
X113186257Y-61386186D01*
X113106905Y-61289495D01*
X113010214Y-61210143D01*
X112899900Y-61151178D01*
X112780202Y-61114868D01*
X112655720Y-61102608D01*
X110955720Y-61102608D01*
X110831238Y-61114868D01*
X110711540Y-61151178D01*
X110601226Y-61210143D01*
X110504535Y-61289495D01*
X110425183Y-61386186D01*
X110366218Y-61496500D01*
X110329908Y-61616198D01*
X110317648Y-61740680D01*
X107343480Y-61740680D01*
X107343480Y-51804200D01*
X109992528Y-51804200D01*
X109992528Y-53504200D01*
X110004788Y-53628682D01*
X110041098Y-53748380D01*
X110100063Y-53858694D01*
X110179415Y-53955385D01*
X110276106Y-54034737D01*
X110386420Y-54093702D01*
X110458980Y-54115713D01*
X110327125Y-54247568D01*
X110164610Y-54490789D01*
X110052668Y-54761042D01*
X109995600Y-55047940D01*
X109995600Y-55340460D01*
X110052668Y-55627358D01*
X110164610Y-55897611D01*
X110327125Y-56140832D01*
X110533968Y-56347675D01*
X110708360Y-56464200D01*
X110533968Y-56580725D01*
X110327125Y-56787568D01*
X110164610Y-57030789D01*
X110052668Y-57301042D01*
X109995600Y-57587940D01*
X109995600Y-57880460D01*
X110052668Y-58167358D01*
X110164610Y-58437611D01*
X110327125Y-58680832D01*
X110533968Y-58887675D01*
X110777189Y-59050190D01*
X111047442Y-59162132D01*
X111334340Y-59219200D01*
X111626860Y-59219200D01*
X111913758Y-59162132D01*
X112184011Y-59050190D01*
X112427232Y-58887675D01*
X112634075Y-58680832D01*
X112750600Y-58506440D01*
X112867125Y-58680832D01*
X113073968Y-58887675D01*
X113317189Y-59050190D01*
X113587442Y-59162132D01*
X113874340Y-59219200D01*
X114166860Y-59219200D01*
X114453758Y-59162132D01*
X114724011Y-59050190D01*
X114967232Y-58887675D01*
X115174075Y-58680832D01*
X115336590Y-58437611D01*
X115448532Y-58167358D01*
X115505600Y-57880460D01*
X115505600Y-57587940D01*
X115448532Y-57301042D01*
X115336590Y-57030789D01*
X115174075Y-56787568D01*
X114967232Y-56580725D01*
X114792840Y-56464200D01*
X114967232Y-56347675D01*
X115174075Y-56140832D01*
X115336590Y-55897611D01*
X115448532Y-55627358D01*
X115505600Y-55340460D01*
X115505600Y-55047940D01*
X115448532Y-54761042D01*
X115336590Y-54490789D01*
X115174075Y-54247568D01*
X114967232Y-54040725D01*
X114792840Y-53924200D01*
X114967232Y-53807675D01*
X115174075Y-53600832D01*
X115336590Y-53357611D01*
X115448532Y-53087358D01*
X115505600Y-52800460D01*
X115505600Y-52507940D01*
X115448532Y-52221042D01*
X115336590Y-51950789D01*
X115174075Y-51707568D01*
X114967232Y-51500725D01*
X114724011Y-51338210D01*
X114453758Y-51226268D01*
X114166860Y-51169200D01*
X113874340Y-51169200D01*
X113587442Y-51226268D01*
X113317189Y-51338210D01*
X113073968Y-51500725D01*
X112942113Y-51632580D01*
X112920102Y-51560020D01*
X112861137Y-51449706D01*
X112781785Y-51353015D01*
X112685094Y-51273663D01*
X112574780Y-51214698D01*
X112455082Y-51178388D01*
X112330600Y-51166128D01*
X110630600Y-51166128D01*
X110506118Y-51178388D01*
X110386420Y-51214698D01*
X110276106Y-51273663D01*
X110179415Y-51353015D01*
X110100063Y-51449706D01*
X110041098Y-51560020D01*
X110004788Y-51679718D01*
X109992528Y-51804200D01*
X107343480Y-51804200D01*
X107343480Y-49931161D01*
X109995600Y-47279042D01*
X109995600Y-47405500D01*
X110052668Y-47692398D01*
X110164610Y-47962651D01*
X110327125Y-48205872D01*
X110533968Y-48412715D01*
X110777189Y-48575230D01*
X111047442Y-48687172D01*
X111334340Y-48744240D01*
X111626860Y-48744240D01*
X111913758Y-48687172D01*
X112184011Y-48575230D01*
X112427232Y-48412715D01*
X112634075Y-48205872D01*
X112751700Y-48029834D01*
X112923012Y-48259509D01*
X113139245Y-48454418D01*
X113389348Y-48603397D01*
X113663709Y-48700721D01*
X113893600Y-48580054D01*
X113893600Y-47386240D01*
X113873600Y-47386240D01*
X113873600Y-47132240D01*
X113893600Y-47132240D01*
X113893600Y-47112240D01*
X114147600Y-47112240D01*
X114147600Y-47132240D01*
G37*
X114147600Y-47132240D02*
X114167600Y-47132240D01*
X114167600Y-47386240D01*
X114147600Y-47386240D01*
X114147600Y-48580054D01*
X114377491Y-48700721D01*
X114651852Y-48603397D01*
X114901955Y-48454418D01*
X115118188Y-48259509D01*
X115292241Y-48026160D01*
X115417425Y-47763339D01*
X115462076Y-47616130D01*
X115340756Y-47386242D01*
X115365313Y-47386242D01*
X123100895Y-55121825D01*
X123130176Y-55157504D01*
X123272548Y-55274346D01*
X123434980Y-55361167D01*
X123557763Y-55398413D01*
X123611227Y-55414631D01*
X123794519Y-55432684D01*
X123840451Y-55428160D01*
X130316031Y-55428160D01*
X133139280Y-58251410D01*
X133139280Y-58505455D01*
X133194427Y-58782694D01*
X133302600Y-59043847D01*
X133459643Y-59278879D01*
X133659521Y-59478757D01*
X133892039Y-59634120D01*
X133659521Y-59789483D01*
X133459643Y-59989361D01*
X133302600Y-60224393D01*
X133194427Y-60485546D01*
X133139280Y-60762785D01*
X133139280Y-61045455D01*
X133194427Y-61322694D01*
X133302600Y-61583847D01*
X133459643Y-61818879D01*
X133659521Y-62018757D01*
X133892039Y-62174120D01*
X133659521Y-62329483D01*
X133459643Y-62529361D01*
X133302600Y-62764393D01*
X133194427Y-63025546D01*
X133139280Y-63302785D01*
X133139280Y-63585455D01*
X133194427Y-63862694D01*
X133302600Y-64123847D01*
X133459643Y-64358879D01*
X133659521Y-64558757D01*
X133894553Y-64715800D01*
X133905145Y-64720187D01*
X133719149Y-64831735D01*
X133510761Y-65020706D01*
X133343243Y-65246700D01*
X133223034Y-65501033D01*
X133182376Y-65635081D01*
X133304365Y-65857120D01*
X134447280Y-65857120D01*
X134447280Y-65837120D01*
X134701280Y-65837120D01*
X134701280Y-65857120D01*
X134721280Y-65857120D01*
X134721280Y-66111120D01*
X134701280Y-66111120D01*
X134701280Y-68397120D01*
X135844195Y-68397120D01*
X135966184Y-68175081D01*
X135925526Y-68041033D01*
X135805317Y-67786700D01*
X135637799Y-67560706D01*
X135429411Y-67371735D01*
X135233298Y-67254120D01*
X135429411Y-67136505D01*
X135637799Y-66947534D01*
X135805317Y-66721540D01*
X135925526Y-66467207D01*
X135966184Y-66333159D01*
X135844196Y-66111122D01*
X135918993Y-66111122D01*
X136126010Y-66318139D01*
X136155296Y-66353824D01*
X136297668Y-66470666D01*
X136384737Y-66517205D01*
X136460099Y-66557487D01*
X136636348Y-66610952D01*
X136819640Y-66629004D01*
X136865575Y-66624480D01*
X141337678Y-66624480D01*
X141329968Y-66702760D01*
X141329968Y-68218543D01*
X139419391Y-70129120D01*
X135668676Y-70129120D01*
X135489039Y-69949483D01*
X135254007Y-69792440D01*
X135243415Y-69788053D01*
X135429411Y-69676505D01*
X135637799Y-69487534D01*
X135805317Y-69261540D01*
X135925526Y-69007207D01*
X135966184Y-68873159D01*
X135844195Y-68651120D01*
X134701280Y-68651120D01*
X134701280Y-68671120D01*
X134447280Y-68671120D01*
X134447280Y-68651120D01*
X133304365Y-68651120D01*
X133182376Y-68873159D01*
X133223034Y-69007207D01*
X133343243Y-69261540D01*
X133510761Y-69487534D01*
X133719149Y-69676505D01*
X133905145Y-69788053D01*
X133894553Y-69792440D01*
X133659521Y-69949483D01*
X133459643Y-70149361D01*
X133302600Y-70384393D01*
X133194427Y-70645546D01*
X133139280Y-70922785D01*
X133139280Y-71205455D01*
X133194427Y-71482694D01*
X133302600Y-71743847D01*
X133459643Y-71978879D01*
X133659521Y-72178757D01*
X133892039Y-72334120D01*
X133659521Y-72489483D01*
X133459643Y-72689361D01*
X133302600Y-72924393D01*
X133194427Y-73185546D01*
X133139280Y-73462785D01*
X133139280Y-73745455D01*
X133194427Y-74022694D01*
X133302600Y-74283847D01*
X133459643Y-74518879D01*
X133659521Y-74718757D01*
X133892039Y-74874120D01*
X133659521Y-75029483D01*
X133459643Y-75229361D01*
X133302600Y-75464393D01*
X133194427Y-75725546D01*
X133139280Y-76002785D01*
X133139280Y-76285455D01*
X133194427Y-76562694D01*
X133302600Y-76823847D01*
X133459643Y-77058879D01*
X133659521Y-77258757D01*
X133894553Y-77415800D01*
X134155706Y-77523973D01*
X134432945Y-77579120D01*
X134715615Y-77579120D01*
X134992854Y-77523973D01*
X135254007Y-77415800D01*
X135489039Y-77258757D01*
X135688917Y-77058879D01*
X135845960Y-76823847D01*
X135954133Y-76562694D01*
X136009280Y-76285455D01*
X136009280Y-76002785D01*
X135954133Y-75725546D01*
X135845960Y-75464393D01*
X135688917Y-75229361D01*
X135489039Y-75029483D01*
X135256521Y-74874120D01*
X135489039Y-74718757D01*
X135688917Y-74518879D01*
X135845960Y-74283847D01*
X135954133Y-74022694D01*
X136009280Y-73745455D01*
X136009280Y-73462785D01*
X135954133Y-73185546D01*
X135845960Y-72924393D01*
X135688917Y-72689361D01*
X135489039Y-72489483D01*
X135256521Y-72334120D01*
X135489039Y-72178757D01*
X135668676Y-71999120D01*
X139760748Y-71999120D01*
X139806680Y-72003644D01*
X139852612Y-71999120D01*
X139989972Y-71985591D01*
X140166220Y-71932127D01*
X140328652Y-71845306D01*
X140471024Y-71728464D01*
X140500310Y-71692779D01*
X141331650Y-70861439D01*
X141329968Y-70878520D01*
X141329968Y-73078520D01*
X141342228Y-73203002D01*
X141378538Y-73322700D01*
X141437503Y-73433014D01*
X141516855Y-73529705D01*
X141613546Y-73609057D01*
X141723860Y-73668022D01*
X141843558Y-73704332D01*
X141968040Y-73716592D01*
X144168040Y-73716592D01*
X144292522Y-73704332D01*
X144412220Y-73668022D01*
X144522534Y-73609057D01*
X144619225Y-73529705D01*
X144698577Y-73433014D01*
X144757542Y-73322700D01*
X144793852Y-73203002D01*
X144806112Y-73078520D01*
X144806112Y-70878520D01*
X144793852Y-70754038D01*
X144757542Y-70634340D01*
X144698577Y-70524026D01*
X144619225Y-70427335D01*
X144522534Y-70347983D01*
X144412220Y-70289018D01*
X144292522Y-70252708D01*
X144168040Y-70240448D01*
X141968040Y-70240448D01*
X141950959Y-70242130D01*
X142652257Y-69540832D01*
X144168040Y-69540832D01*
X144292522Y-69528572D01*
X144412220Y-69492262D01*
X144522534Y-69433297D01*
X144619225Y-69353945D01*
X144698577Y-69257254D01*
X144757542Y-69146940D01*
X144793852Y-69027242D01*
X144806112Y-68902760D01*
X144806112Y-66702760D01*
X144798402Y-66624480D01*
X147003831Y-66624480D01*
X147436560Y-67057209D01*
X147436561Y-75263419D01*
X147335652Y-75232809D01*
X147198292Y-75219280D01*
X147152360Y-75214756D01*
X147106428Y-75219280D01*
X144806112Y-75219280D01*
X144806112Y-75054280D01*
X144793852Y-74929798D01*
X144757542Y-74810100D01*
X144698577Y-74699786D01*
X144619225Y-74603095D01*
X144522534Y-74523743D01*
X144412220Y-74464778D01*
X144292522Y-74428468D01*
X144168040Y-74416208D01*
X141968040Y-74416208D01*
X141843558Y-74428468D01*
X141723860Y-74464778D01*
X141613546Y-74523743D01*
X141516855Y-74603095D01*
X141437503Y-74699786D01*
X141378538Y-74810100D01*
X141342228Y-74929798D01*
X141329968Y-75054280D01*
X141329968Y-77254280D01*
X141342228Y-77378762D01*
X141378538Y-77498460D01*
X141437503Y-77608774D01*
X141516855Y-77705465D01*
X141613546Y-77784817D01*
X141723860Y-77843782D01*
X141843558Y-77880092D01*
X141968040Y-77892352D01*
X144168040Y-77892352D01*
X144292522Y-77880092D01*
X144412220Y-77843782D01*
X144522534Y-77784817D01*
X144619225Y-77705465D01*
X144698577Y-77608774D01*
X144757542Y-77498460D01*
X144793852Y-77378762D01*
X144806112Y-77254280D01*
X144806112Y-77089280D01*
X146765071Y-77089280D01*
X147060641Y-77384851D01*
X147060640Y-79556670D01*
X144732872Y-81884439D01*
X129455836Y-81884439D01*
X125532160Y-77373570D01*
X125532160Y-76350206D01*
X125574427Y-76562694D01*
X125682600Y-76823847D01*
X125839643Y-77058879D01*
X126039521Y-77258757D01*
X126274553Y-77415800D01*
X126535706Y-77523973D01*
X126812945Y-77579120D01*
X127066991Y-77579120D01*
X129395014Y-79907144D01*
X129424296Y-79942824D01*
X129566668Y-80059666D01*
X129729100Y-80146487D01*
X129851883Y-80183733D01*
X129905347Y-80199951D01*
X129923750Y-80201763D01*
X130042708Y-80213480D01*
X130042714Y-80213480D01*
X130088639Y-80218003D01*
X130134564Y-80213480D01*
X138291631Y-80213480D01*
X138777770Y-80699619D01*
X138807056Y-80735304D01*
X138949428Y-80852146D01*
X139111860Y-80938967D01*
X139272934Y-80987828D01*
X139288108Y-80992431D01*
X139471400Y-81010484D01*
X139517332Y-81005960D01*
X141416328Y-81005960D01*
X141416328Y-81170960D01*
X141428588Y-81295442D01*
X141464898Y-81415140D01*
X141523863Y-81525454D01*
X141603215Y-81622145D01*
X141699906Y-81701497D01*
X141810220Y-81760462D01*
X141929918Y-81796772D01*
X142054400Y-81809032D01*
X144254400Y-81809032D01*
X144378882Y-81796772D01*
X144498580Y-81760462D01*
X144608894Y-81701497D01*
X144705585Y-81622145D01*
X144784937Y-81525454D01*
X144843902Y-81415140D01*
X144880212Y-81295442D01*
X144892472Y-81170960D01*
X144892472Y-78970960D01*
X144880212Y-78846478D01*
X144843902Y-78726780D01*
X144784937Y-78616466D01*
X144705585Y-78519775D01*
X144608894Y-78440423D01*
X144498580Y-78381458D01*
X144378882Y-78345148D01*
X144254400Y-78332888D01*
X142054400Y-78332888D01*
X141929918Y-78345148D01*
X141810220Y-78381458D01*
X141699906Y-78440423D01*
X141603215Y-78519775D01*
X141523863Y-78616466D01*
X141464898Y-78726780D01*
X141428588Y-78846478D01*
X141416328Y-78970960D01*
X141416328Y-79135960D01*
X139858689Y-79135960D01*
X139372550Y-78649821D01*
X139343264Y-78614136D01*
X139200892Y-78497294D01*
X139038460Y-78410473D01*
X138862212Y-78357009D01*
X138724852Y-78343480D01*
X138678920Y-78338956D01*
X138632988Y-78343480D01*
X130475930Y-78343480D01*
X128389280Y-76256831D01*
X128389280Y-76002785D01*
X128334133Y-75725546D01*
X128225960Y-75464393D01*
X128068917Y-75229361D01*
X127869039Y-75029483D01*
X127636521Y-74874120D01*
X127869039Y-74718757D01*
X128068917Y-74518879D01*
X128225960Y-74283847D01*
X128334133Y-74022694D01*
X128389280Y-73745455D01*
X128389280Y-73462785D01*
X128334133Y-73185546D01*
X128225960Y-72924393D01*
X128068917Y-72689361D01*
X127869039Y-72489483D01*
X127636521Y-72334120D01*
X127869039Y-72178757D01*
X128068917Y-71978879D01*
X128225960Y-71743847D01*
X128334133Y-71482694D01*
X128389280Y-71205455D01*
X128389280Y-70922785D01*
X128334133Y-70645546D01*
X128225960Y-70384393D01*
X128068917Y-70149361D01*
X127869039Y-69949483D01*
X127634007Y-69792440D01*
X127623415Y-69788053D01*
X127809411Y-69676505D01*
X128017799Y-69487534D01*
X128185317Y-69261540D01*
X128305526Y-69007207D01*
X128346184Y-68873159D01*
X128224195Y-68651120D01*
X127081280Y-68651120D01*
X127081280Y-68671120D01*
X126827280Y-68671120D01*
X126827280Y-68651120D01*
X125684365Y-68651120D01*
X125562376Y-68873159D01*
X125603034Y-69007207D01*
X125723243Y-69261540D01*
X125890761Y-69487534D01*
X126099149Y-69676505D01*
X126285145Y-69788053D01*
X126274553Y-69792440D01*
X126039521Y-69949483D01*
X125839643Y-70149361D01*
X125682600Y-70384393D01*
X125574427Y-70645546D01*
X125519280Y-70922785D01*
X125519280Y-71176830D01*
X123968501Y-72727610D01*
X123932816Y-72756896D01*
X123815974Y-72899269D01*
X123729153Y-73061701D01*
X123722232Y-73084518D01*
X123675689Y-73237949D01*
X123657636Y-73421240D01*
X123662160Y-73467172D01*
X123662160Y-75223718D01*
X123195360Y-74687060D01*
X123195360Y-68565969D01*
X124425816Y-67335514D01*
X124461496Y-67306232D01*
X124578338Y-67163860D01*
X124603036Y-67117654D01*
X125609567Y-66111122D01*
X125684364Y-66111122D01*
X125562376Y-66333159D01*
X125603034Y-66467207D01*
X125723243Y-66721540D01*
X125890761Y-66947534D01*
X126099149Y-67136505D01*
X126295262Y-67254120D01*
X126099149Y-67371735D01*
X125890761Y-67560706D01*
X125723243Y-67786700D01*
X125603034Y-68041033D01*
X125562376Y-68175081D01*
X125684365Y-68397120D01*
X126827280Y-68397120D01*
X126827280Y-66111120D01*
X127081280Y-66111120D01*
X127081280Y-68397120D01*
X128224195Y-68397120D01*
X128346184Y-68175081D01*
X128305526Y-68041033D01*
X128185317Y-67786700D01*
X128017799Y-67560706D01*
X127809411Y-67371735D01*
X127613298Y-67254120D01*
X127809411Y-67136505D01*
X128017799Y-66947534D01*
X128185317Y-66721540D01*
X128305526Y-66467207D01*
X128346184Y-66333159D01*
X133182376Y-66333159D01*
X133223034Y-66467207D01*
X133343243Y-66721540D01*
X133510761Y-66947534D01*
X133719149Y-67136505D01*
X133915262Y-67254120D01*
X133719149Y-67371735D01*
X133510761Y-67560706D01*
X133343243Y-67786700D01*
X133223034Y-68041033D01*
X133182376Y-68175081D01*
X133304365Y-68397120D01*
X134447280Y-68397120D01*
X134447280Y-66111120D01*
X133304365Y-66111120D01*
X133182376Y-66333159D01*
X128346184Y-66333159D01*
X128224195Y-66111120D01*
X127081280Y-66111120D01*
X126827280Y-66111120D01*
X126807280Y-66111120D01*
X126807280Y-65857120D01*
X126827280Y-65857120D01*
X126827280Y-65837120D01*
X127081280Y-65837120D01*
X127081280Y-65857120D01*
X128224195Y-65857120D01*
X128346184Y-65635081D01*
X128305526Y-65501033D01*
X128185317Y-65246700D01*
X128017799Y-65020706D01*
X127809411Y-64831735D01*
X127623415Y-64720187D01*
X127634007Y-64715800D01*
X127869039Y-64558757D01*
X128068917Y-64358879D01*
X128225960Y-64123847D01*
X128334133Y-63862694D01*
X128389280Y-63585455D01*
X128389280Y-63302785D01*
X128334133Y-63025546D01*
X128225960Y-62764393D01*
X128068917Y-62529361D01*
X127869039Y-62329483D01*
X127636521Y-62174120D01*
X127869039Y-62018757D01*
X128068917Y-61818879D01*
X128225960Y-61583847D01*
X128334133Y-61322694D01*
X128389280Y-61045455D01*
X128389280Y-60762785D01*
X128334133Y-60485546D01*
X128225960Y-60224393D01*
X128068917Y-59989361D01*
X127870319Y-59790763D01*
X127878762Y-59789932D01*
X127998460Y-59753622D01*
X128108774Y-59694657D01*
X128205465Y-59615305D01*
X128284817Y-59518614D01*
X128343782Y-59408300D01*
X128380092Y-59288602D01*
X128392352Y-59164120D01*
X128392352Y-57564120D01*
X128380092Y-57439638D01*
X128343782Y-57319940D01*
X128284817Y-57209626D01*
X128205465Y-57112935D01*
X128108774Y-57033583D01*
X127998460Y-56974618D01*
X127878762Y-56938308D01*
X127754280Y-56926048D01*
X126154280Y-56926048D01*
X126029798Y-56938308D01*
X125910100Y-56974618D01*
X125799786Y-57033583D01*
X125703095Y-57112935D01*
X125623743Y-57209626D01*
X125564778Y-57319940D01*
X125528468Y-57439638D01*
X125516208Y-57564120D01*
X125516208Y-59164120D01*
X125528468Y-59288602D01*
X125564778Y-59408300D01*
X125623743Y-59518614D01*
X125703095Y-59615305D01*
X125799786Y-59694657D01*
X125910100Y-59753622D01*
X126029798Y-59789932D01*
X126038241Y-59790763D01*
X125839643Y-59989361D01*
X125682600Y-60224393D01*
X125574427Y-60485546D01*
X125519280Y-60762785D01*
X125519280Y-61045455D01*
X125574427Y-61322694D01*
X125682600Y-61583847D01*
X125839643Y-61818879D01*
X126039521Y-62018757D01*
X126272039Y-62174120D01*
X126039521Y-62329483D01*
X125839643Y-62529361D01*
X125682600Y-62764393D01*
X125574427Y-63025546D01*
X125519280Y-63302785D01*
X125519280Y-63556830D01*
X123168493Y-65907618D01*
X123132808Y-65936904D01*
X123015966Y-66079277D01*
X122991270Y-66125480D01*
X121631701Y-67485050D01*
X121596016Y-67514336D01*
X121479174Y-67656709D01*
X121392353Y-67819141D01*
X121348440Y-67963905D01*
X121338889Y-67995389D01*
X121320836Y-68178680D01*
X121325360Y-68224612D01*
X121325360Y-72537208D01*
X119719662Y-70691211D01*
X119701561Y-70674118D01*
X119680472Y-70660886D01*
X119657207Y-70652022D01*
X119622644Y-70647566D01*
X107343480Y-70763168D01*
X107343480Y-61740680D01*
X110317648Y-61740680D01*
X110317648Y-63440680D01*
X110329908Y-63565162D01*
X110366218Y-63684860D01*
X110425183Y-63795174D01*
X110504535Y-63891865D01*
X110601226Y-63971217D01*
X110711540Y-64030182D01*
X110784100Y-64052193D01*
X110652245Y-64184048D01*
X110489730Y-64427269D01*
X110377788Y-64697522D01*
X110320720Y-64984420D01*
X110320720Y-65276940D01*
X110377788Y-65563838D01*
X110489730Y-65834091D01*
X110652245Y-66077312D01*
X110859088Y-66284155D01*
X111033480Y-66400680D01*
X110859088Y-66517205D01*
X110652245Y-66724048D01*
X110489730Y-66967269D01*
X110377788Y-67237522D01*
X110320720Y-67524420D01*
X110320720Y-67816940D01*
X110377788Y-68103838D01*
X110489730Y-68374091D01*
X110652245Y-68617312D01*
X110859088Y-68824155D01*
X111102309Y-68986670D01*
X111372562Y-69098612D01*
X111659460Y-69155680D01*
X111951980Y-69155680D01*
X112238878Y-69098612D01*
X112509131Y-68986670D01*
X112752352Y-68824155D01*
X112959195Y-68617312D01*
X113075720Y-68442920D01*
X113192245Y-68617312D01*
X113399088Y-68824155D01*
X113642309Y-68986670D01*
X113912562Y-69098612D01*
X114199460Y-69155680D01*
X114491980Y-69155680D01*
X114778878Y-69098612D01*
X115049131Y-68986670D01*
X115292352Y-68824155D01*
X115499195Y-68617312D01*
X115661710Y-68374091D01*
X115773652Y-68103838D01*
X115830720Y-67816940D01*
X115830720Y-67524420D01*
X115773652Y-67237522D01*
X115661710Y-66967269D01*
X115499195Y-66724048D01*
X115292352Y-66517205D01*
X115117960Y-66400680D01*
X115292352Y-66284155D01*
X115499195Y-66077312D01*
X115661710Y-65834091D01*
X115773652Y-65563838D01*
X115830720Y-65276940D01*
X115830720Y-64984420D01*
X115773652Y-64697522D01*
X115661710Y-64427269D01*
X115499195Y-64184048D01*
X115292352Y-63977205D01*
X115117960Y-63860680D01*
X115292352Y-63744155D01*
X115499195Y-63537312D01*
X115661710Y-63294091D01*
X115773652Y-63023838D01*
X115830720Y-62736940D01*
X115830720Y-62444420D01*
X115773652Y-62157522D01*
X115661710Y-61887269D01*
X115499195Y-61644048D01*
X115292352Y-61437205D01*
X115049131Y-61274690D01*
X114778878Y-61162748D01*
X114491980Y-61105680D01*
X114199460Y-61105680D01*
X113912562Y-61162748D01*
X113642309Y-61274690D01*
X113399088Y-61437205D01*
X113267233Y-61569060D01*
X113245222Y-61496500D01*
X113186257Y-61386186D01*
X113106905Y-61289495D01*
X113010214Y-61210143D01*
X112899900Y-61151178D01*
X112780202Y-61114868D01*
X112655720Y-61102608D01*
X110955720Y-61102608D01*
X110831238Y-61114868D01*
X110711540Y-61151178D01*
X110601226Y-61210143D01*
X110504535Y-61289495D01*
X110425183Y-61386186D01*
X110366218Y-61496500D01*
X110329908Y-61616198D01*
X110317648Y-61740680D01*
X107343480Y-61740680D01*
X107343480Y-51804200D01*
X109992528Y-51804200D01*
X109992528Y-53504200D01*
X110004788Y-53628682D01*
X110041098Y-53748380D01*
X110100063Y-53858694D01*
X110179415Y-53955385D01*
X110276106Y-54034737D01*
X110386420Y-54093702D01*
X110458980Y-54115713D01*
X110327125Y-54247568D01*
X110164610Y-54490789D01*
X110052668Y-54761042D01*
X109995600Y-55047940D01*
X109995600Y-55340460D01*
X110052668Y-55627358D01*
X110164610Y-55897611D01*
X110327125Y-56140832D01*
X110533968Y-56347675D01*
X110708360Y-56464200D01*
X110533968Y-56580725D01*
X110327125Y-56787568D01*
X110164610Y-57030789D01*
X110052668Y-57301042D01*
X109995600Y-57587940D01*
X109995600Y-57880460D01*
X110052668Y-58167358D01*
X110164610Y-58437611D01*
X110327125Y-58680832D01*
X110533968Y-58887675D01*
X110777189Y-59050190D01*
X111047442Y-59162132D01*
X111334340Y-59219200D01*
X111626860Y-59219200D01*
X111913758Y-59162132D01*
X112184011Y-59050190D01*
X112427232Y-58887675D01*
X112634075Y-58680832D01*
X112750600Y-58506440D01*
X112867125Y-58680832D01*
X113073968Y-58887675D01*
X113317189Y-59050190D01*
X113587442Y-59162132D01*
X113874340Y-59219200D01*
X114166860Y-59219200D01*
X114453758Y-59162132D01*
X114724011Y-59050190D01*
X114967232Y-58887675D01*
X115174075Y-58680832D01*
X115336590Y-58437611D01*
X115448532Y-58167358D01*
X115505600Y-57880460D01*
X115505600Y-57587940D01*
X115448532Y-57301042D01*
X115336590Y-57030789D01*
X115174075Y-56787568D01*
X114967232Y-56580725D01*
X114792840Y-56464200D01*
X114967232Y-56347675D01*
X115174075Y-56140832D01*
X115336590Y-55897611D01*
X115448532Y-55627358D01*
X115505600Y-55340460D01*
X115505600Y-55047940D01*
X115448532Y-54761042D01*
X115336590Y-54490789D01*
X115174075Y-54247568D01*
X114967232Y-54040725D01*
X114792840Y-53924200D01*
X114967232Y-53807675D01*
X115174075Y-53600832D01*
X115336590Y-53357611D01*
X115448532Y-53087358D01*
X115505600Y-52800460D01*
X115505600Y-52507940D01*
X115448532Y-52221042D01*
X115336590Y-51950789D01*
X115174075Y-51707568D01*
X114967232Y-51500725D01*
X114724011Y-51338210D01*
X114453758Y-51226268D01*
X114166860Y-51169200D01*
X113874340Y-51169200D01*
X113587442Y-51226268D01*
X113317189Y-51338210D01*
X113073968Y-51500725D01*
X112942113Y-51632580D01*
X112920102Y-51560020D01*
X112861137Y-51449706D01*
X112781785Y-51353015D01*
X112685094Y-51273663D01*
X112574780Y-51214698D01*
X112455082Y-51178388D01*
X112330600Y-51166128D01*
X110630600Y-51166128D01*
X110506118Y-51178388D01*
X110386420Y-51214698D01*
X110276106Y-51273663D01*
X110179415Y-51353015D01*
X110100063Y-51449706D01*
X110041098Y-51560020D01*
X110004788Y-51679718D01*
X109992528Y-51804200D01*
X107343480Y-51804200D01*
X107343480Y-49931161D01*
X109995600Y-47279042D01*
X109995600Y-47405500D01*
X110052668Y-47692398D01*
X110164610Y-47962651D01*
X110327125Y-48205872D01*
X110533968Y-48412715D01*
X110777189Y-48575230D01*
X111047442Y-48687172D01*
X111334340Y-48744240D01*
X111626860Y-48744240D01*
X111913758Y-48687172D01*
X112184011Y-48575230D01*
X112427232Y-48412715D01*
X112634075Y-48205872D01*
X112751700Y-48029834D01*
X112923012Y-48259509D01*
X113139245Y-48454418D01*
X113389348Y-48603397D01*
X113663709Y-48700721D01*
X113893600Y-48580054D01*
X113893600Y-47386240D01*
X113873600Y-47386240D01*
X113873600Y-47132240D01*
X113893600Y-47132240D01*
X113893600Y-47112240D01*
X114147600Y-47112240D01*
X114147600Y-47132240D01*
%TD*%
M02*
