%TF.GenerationSoftware,KiCad,Pcbnew,(5.1.6)-1*%
%TF.CreationDate,2021-05-14T12:36:00+02:00*%
%TF.ProjectId,nano1,6e616e6f-312e-46b6-9963-61645f706362,rev?*%
%TF.SameCoordinates,Original*%
%TF.FileFunction,Paste,Top*%
%TF.FilePolarity,Positive*%
%FSLAX46Y46*%
G04 Gerber Fmt 4.6, Leading zero omitted, Abs format (unit mm)*
G04 Created by KiCad (PCBNEW (5.1.6)-1) date 2021-05-14 12:36:00*
%MOMM*%
%LPD*%
G01*
G04 APERTURE LIST*
%ADD10R,0.250000X1.100000*%
G04 APERTURE END LIST*
D10*
%TO.C,U2*%
X126213360Y-87633920D03*
X126713360Y-87633920D03*
X127213360Y-87633920D03*
X127713360Y-87633920D03*
X128213360Y-87633920D03*
X128213360Y-91933920D03*
X127713360Y-91933920D03*
X127213360Y-91933920D03*
X126713360Y-91933920D03*
X126213360Y-91933920D03*
%TD*%
%TO.C,C3*%
G36*
G01*
X143406150Y-91764600D02*
X143918650Y-91764600D01*
G75*
G02*
X144137400Y-91983350I0J-218750D01*
G01*
X144137400Y-92420850D01*
G75*
G02*
X143918650Y-92639600I-218750J0D01*
G01*
X143406150Y-92639600D01*
G75*
G02*
X143187400Y-92420850I0J218750D01*
G01*
X143187400Y-91983350D01*
G75*
G02*
X143406150Y-91764600I218750J0D01*
G01*
G37*
G36*
G01*
X143406150Y-90189600D02*
X143918650Y-90189600D01*
G75*
G02*
X144137400Y-90408350I0J-218750D01*
G01*
X144137400Y-90845850D01*
G75*
G02*
X143918650Y-91064600I-218750J0D01*
G01*
X143406150Y-91064600D01*
G75*
G02*
X143187400Y-90845850I0J218750D01*
G01*
X143187400Y-90408350D01*
G75*
G02*
X143406150Y-90189600I218750J0D01*
G01*
G37*
%TD*%
%TO.C,R3*%
G36*
G01*
X155684510Y-91901760D02*
X156197010Y-91901760D01*
G75*
G02*
X156415760Y-92120510I0J-218750D01*
G01*
X156415760Y-92558010D01*
G75*
G02*
X156197010Y-92776760I-218750J0D01*
G01*
X155684510Y-92776760D01*
G75*
G02*
X155465760Y-92558010I0J218750D01*
G01*
X155465760Y-92120510D01*
G75*
G02*
X155684510Y-91901760I218750J0D01*
G01*
G37*
G36*
G01*
X155684510Y-90326760D02*
X156197010Y-90326760D01*
G75*
G02*
X156415760Y-90545510I0J-218750D01*
G01*
X156415760Y-90983010D01*
G75*
G02*
X156197010Y-91201760I-218750J0D01*
G01*
X155684510Y-91201760D01*
G75*
G02*
X155465760Y-90983010I0J218750D01*
G01*
X155465760Y-90545510D01*
G75*
G02*
X155684510Y-90326760I218750J0D01*
G01*
G37*
%TD*%
%TO.C,R2*%
G36*
G01*
X147591490Y-91064600D02*
X147078990Y-91064600D01*
G75*
G02*
X146860240Y-90845850I0J218750D01*
G01*
X146860240Y-90408350D01*
G75*
G02*
X147078990Y-90189600I218750J0D01*
G01*
X147591490Y-90189600D01*
G75*
G02*
X147810240Y-90408350I0J-218750D01*
G01*
X147810240Y-90845850D01*
G75*
G02*
X147591490Y-91064600I-218750J0D01*
G01*
G37*
G36*
G01*
X147591490Y-92639600D02*
X147078990Y-92639600D01*
G75*
G02*
X146860240Y-92420850I0J218750D01*
G01*
X146860240Y-91983350D01*
G75*
G02*
X147078990Y-91764600I218750J0D01*
G01*
X147591490Y-91764600D01*
G75*
G02*
X147810240Y-91983350I0J-218750D01*
G01*
X147810240Y-92420850D01*
G75*
G02*
X147591490Y-92639600I-218750J0D01*
G01*
G37*
%TD*%
%TO.C,R1*%
G36*
G01*
X150370250Y-91105240D02*
X149857750Y-91105240D01*
G75*
G02*
X149639000Y-90886490I0J218750D01*
G01*
X149639000Y-90448990D01*
G75*
G02*
X149857750Y-90230240I218750J0D01*
G01*
X150370250Y-90230240D01*
G75*
G02*
X150589000Y-90448990I0J-218750D01*
G01*
X150589000Y-90886490D01*
G75*
G02*
X150370250Y-91105240I-218750J0D01*
G01*
G37*
G36*
G01*
X150370250Y-92680240D02*
X149857750Y-92680240D01*
G75*
G02*
X149639000Y-92461490I0J218750D01*
G01*
X149639000Y-92023990D01*
G75*
G02*
X149857750Y-91805240I218750J0D01*
G01*
X150370250Y-91805240D01*
G75*
G02*
X150589000Y-92023990I0J-218750D01*
G01*
X150589000Y-92461490D01*
G75*
G02*
X150370250Y-92680240I-218750J0D01*
G01*
G37*
%TD*%
%TO.C,R4*%
G36*
G01*
X152738110Y-91825560D02*
X153250610Y-91825560D01*
G75*
G02*
X153469360Y-92044310I0J-218750D01*
G01*
X153469360Y-92481810D01*
G75*
G02*
X153250610Y-92700560I-218750J0D01*
G01*
X152738110Y-92700560D01*
G75*
G02*
X152519360Y-92481810I0J218750D01*
G01*
X152519360Y-92044310D01*
G75*
G02*
X152738110Y-91825560I218750J0D01*
G01*
G37*
G36*
G01*
X152738110Y-90250560D02*
X153250610Y-90250560D01*
G75*
G02*
X153469360Y-90469310I0J-218750D01*
G01*
X153469360Y-90906810D01*
G75*
G02*
X153250610Y-91125560I-218750J0D01*
G01*
X152738110Y-91125560D01*
G75*
G02*
X152519360Y-90906810I0J218750D01*
G01*
X152519360Y-90469310D01*
G75*
G02*
X152738110Y-90250560I218750J0D01*
G01*
G37*
%TD*%
M02*
