%TF.GenerationSoftware,KiCad,Pcbnew,(5.1.6)-1*%
%TF.CreationDate,2021-05-14T12:36:00+02:00*%
%TF.ProjectId,nano1,6e616e6f-312e-46b6-9963-61645f706362,rev?*%
%TF.SameCoordinates,Original*%
%TF.FileFunction,Copper,L2,Bot*%
%TF.FilePolarity,Positive*%
%FSLAX46Y46*%
G04 Gerber Fmt 4.6, Leading zero omitted, Abs format (unit mm)*
G04 Created by KiCad (PCBNEW (5.1.6)-1) date 2021-05-14 12:36:00*
%MOMM*%
%LPD*%
G01*
G04 APERTURE LIST*
%TA.AperFunction,ComponentPad*%
%ADD10O,1.700000X1.700000*%
%TD*%
%TA.AperFunction,ComponentPad*%
%ADD11R,1.700000X1.700000*%
%TD*%
%TA.AperFunction,SMDPad,CuDef*%
%ADD12R,0.450000X0.700000*%
%TD*%
%TA.AperFunction,ComponentPad*%
%ADD13C,2.600000*%
%TD*%
%TA.AperFunction,ComponentPad*%
%ADD14R,2.600000X2.600000*%
%TD*%
%TA.AperFunction,ComponentPad*%
%ADD15R,3.500000X3.500000*%
%TD*%
%TA.AperFunction,ComponentPad*%
%ADD16R,1.600000X1.600000*%
%TD*%
%TA.AperFunction,ComponentPad*%
%ADD17C,1.600000*%
%TD*%
%TA.AperFunction,ComponentPad*%
%ADD18R,2.200000X2.200000*%
%TD*%
%TA.AperFunction,ComponentPad*%
%ADD19O,2.200000X2.200000*%
%TD*%
%TA.AperFunction,ComponentPad*%
%ADD20O,1.600000X1.600000*%
%TD*%
%TA.AperFunction,ViaPad*%
%ADD21C,0.800000*%
%TD*%
%TA.AperFunction,Conductor*%
%ADD22C,0.250000*%
%TD*%
%TA.AperFunction,Conductor*%
%ADD23C,0.600000*%
%TD*%
%TA.AperFunction,Conductor*%
%ADD24C,0.254000*%
%TD*%
G04 APERTURE END LIST*
D10*
%TO.P,J12,2*%
%TO.N,GND*%
X133807200Y-90114120D03*
D11*
%TO.P,J12,1*%
%TO.N,Net-(J1-Pad9)*%
X136347200Y-90114120D03*
%TD*%
D10*
%TO.P,J11,2*%
%TO.N,Net-(J11-Pad2)*%
X124028200Y-47320200D03*
D11*
%TO.P,J11,1*%
%TO.N,Net-(J1-Pad39)*%
X124028200Y-44780200D03*
%TD*%
%TO.P,R6,2*%
%TO.N,Net-(J1-Pad7)*%
%TA.AperFunction,SMDPad,CuDef*%
G36*
G01*
X107335840Y-88521830D02*
X107335840Y-89034330D01*
G75*
G02*
X107117090Y-89253080I-218750J0D01*
G01*
X106679590Y-89253080D01*
G75*
G02*
X106460840Y-89034330I0J218750D01*
G01*
X106460840Y-88521830D01*
G75*
G02*
X106679590Y-88303080I218750J0D01*
G01*
X107117090Y-88303080D01*
G75*
G02*
X107335840Y-88521830I0J-218750D01*
G01*
G37*
%TD.AperFunction*%
%TO.P,R6,1*%
%TO.N,Net-(Q2-Pad1)*%
%TA.AperFunction,SMDPad,CuDef*%
G36*
G01*
X108910840Y-88521830D02*
X108910840Y-89034330D01*
G75*
G02*
X108692090Y-89253080I-218750J0D01*
G01*
X108254590Y-89253080D01*
G75*
G02*
X108035840Y-89034330I0J218750D01*
G01*
X108035840Y-88521830D01*
G75*
G02*
X108254590Y-88303080I218750J0D01*
G01*
X108692090Y-88303080D01*
G75*
G02*
X108910840Y-88521830I0J-218750D01*
G01*
G37*
%TD.AperFunction*%
%TD*%
%TO.P,R5,2*%
%TO.N,Net-(J1-Pad37)*%
%TA.AperFunction,SMDPad,CuDef*%
G36*
G01*
X105192080Y-47698950D02*
X105192080Y-48211450D01*
G75*
G02*
X104973330Y-48430200I-218750J0D01*
G01*
X104535830Y-48430200D01*
G75*
G02*
X104317080Y-48211450I0J218750D01*
G01*
X104317080Y-47698950D01*
G75*
G02*
X104535830Y-47480200I218750J0D01*
G01*
X104973330Y-47480200D01*
G75*
G02*
X105192080Y-47698950I0J-218750D01*
G01*
G37*
%TD.AperFunction*%
%TO.P,R5,1*%
%TO.N,Net-(Q1-Pad1)*%
%TA.AperFunction,SMDPad,CuDef*%
G36*
G01*
X106767080Y-47698950D02*
X106767080Y-48211450D01*
G75*
G02*
X106548330Y-48430200I-218750J0D01*
G01*
X106110830Y-48430200D01*
G75*
G02*
X105892080Y-48211450I0J218750D01*
G01*
X105892080Y-47698950D01*
G75*
G02*
X106110830Y-47480200I218750J0D01*
G01*
X106548330Y-47480200D01*
G75*
G02*
X106767080Y-47698950I0J-218750D01*
G01*
G37*
%TD.AperFunction*%
%TD*%
D12*
%TO.P,Q2,3*%
%TO.N,Net-(J1-Pad9)*%
X107914440Y-83861400D03*
%TO.P,Q2,2*%
%TO.N,GND*%
X107264440Y-85861400D03*
%TO.P,Q2,1*%
%TO.N,Net-(Q2-Pad1)*%
X108564440Y-85861400D03*
%TD*%
%TO.P,Q1,3*%
%TO.N,Net-(J1-Pad39)*%
X105450640Y-43927520D03*
%TO.P,Q1,2*%
%TO.N,Net-(J11-Pad2)*%
X104800640Y-45927520D03*
%TO.P,Q1,1*%
%TO.N,Net-(Q1-Pad1)*%
X106100640Y-45927520D03*
%TD*%
D10*
%TO.P,J10,4*%
%TO.N,/AIN3*%
X112100360Y-86476840D03*
%TO.P,J10,3*%
%TO.N,/AIN2*%
X112100360Y-89016840D03*
%TO.P,J10,2*%
%TO.N,/AIN1*%
X112100360Y-91556840D03*
D11*
%TO.P,J10,1*%
%TO.N,/AIN0*%
X112100360Y-94096840D03*
%TD*%
D10*
%TO.P,J9,3*%
%TO.N,/AIN0*%
X170703240Y-94066360D03*
%TO.P,J9,2*%
%TO.N,VCC*%
X170703240Y-91526360D03*
D11*
%TO.P,J9,1*%
%TO.N,GND*%
X170703240Y-88986360D03*
%TD*%
D10*
%TO.P,J3,6*%
%TO.N,Net-(J3-Pad6)*%
X114345720Y-67670680D03*
%TO.P,J3,5*%
%TO.N,Net-(J1-Pad11)*%
X111805720Y-67670680D03*
%TO.P,J3,4*%
%TO.N,Net-(J3-Pad4)*%
X114345720Y-65130680D03*
%TO.P,J3,3*%
%TO.N,Net-(J1-Pad13)*%
X111805720Y-65130680D03*
%TO.P,J3,2*%
%TO.N,Net-(J3-Pad2)*%
X114345720Y-62590680D03*
D11*
%TO.P,J3,1*%
%TO.N,Net-(J1-Pad15)*%
X111805720Y-62590680D03*
%TD*%
D10*
%TO.P,J1,40*%
%TO.N,Net-(J1-Pad40)*%
X99161600Y-46893480D03*
%TO.P,J1,39*%
%TO.N,Net-(J1-Pad39)*%
X101701600Y-46893480D03*
%TO.P,J1,38*%
%TO.N,Net-(J1-Pad38)*%
X99161600Y-49433480D03*
%TO.P,J1,37*%
%TO.N,Net-(J1-Pad37)*%
X101701600Y-49433480D03*
%TO.P,J1,36*%
%TO.N,Net-(J1-Pad36)*%
X99161600Y-51973480D03*
%TO.P,J1,35*%
%TO.N,Net-(J1-Pad35)*%
X101701600Y-51973480D03*
%TO.P,J1,34*%
%TO.N,Net-(J1-Pad34)*%
X99161600Y-54513480D03*
%TO.P,J1,33*%
%TO.N,Net-(J1-Pad33)*%
X101701600Y-54513480D03*
%TO.P,J1,32*%
%TO.N,Net-(J1-Pad32)*%
X99161600Y-57053480D03*
%TO.P,J1,31*%
%TO.N,Net-(J1-Pad31)*%
X101701600Y-57053480D03*
%TO.P,J1,30*%
%TO.N,Net-(J1-Pad30)*%
X99161600Y-59593480D03*
%TO.P,J1,29*%
%TO.N,Net-(J1-Pad29)*%
X101701600Y-59593480D03*
%TO.P,J1,28*%
%TO.N,Net-(J1-Pad28)*%
X99161600Y-62133480D03*
%TO.P,J1,27*%
%TO.N,Net-(J1-Pad27)*%
X101701600Y-62133480D03*
%TO.P,J1,26*%
%TO.N,Net-(J1-Pad26)*%
X99161600Y-64673480D03*
%TO.P,J1,25*%
%TO.N,Net-(J1-Pad25)*%
X101701600Y-64673480D03*
%TO.P,J1,24*%
%TO.N,Net-(J1-Pad24)*%
X99161600Y-67213480D03*
%TO.P,J1,23*%
%TO.N,Net-(J1-Pad23)*%
X101701600Y-67213480D03*
%TO.P,J1,22*%
%TO.N,Net-(J1-Pad22)*%
X99161600Y-69753480D03*
%TO.P,J1,21*%
%TO.N,Net-(J1-Pad21)*%
X101701600Y-69753480D03*
%TO.P,J1,20*%
%TO.N,Net-(J1-Pad20)*%
X99161600Y-72293480D03*
%TO.P,J1,19*%
%TO.N,Net-(J1-Pad19)*%
X101701600Y-72293480D03*
%TO.P,J1,18*%
%TO.N,Net-(J1-Pad18)*%
X99161600Y-74833480D03*
%TO.P,J1,17*%
%TO.N,Net-(J1-Pad17)*%
X101701600Y-74833480D03*
%TO.P,J1,16*%
%TO.N,Net-(J1-Pad16)*%
X99161600Y-77373480D03*
%TO.P,J1,15*%
%TO.N,Net-(J1-Pad15)*%
X101701600Y-77373480D03*
%TO.P,J1,14*%
%TO.N,Net-(J1-Pad14)*%
X99161600Y-79913480D03*
%TO.P,J1,13*%
%TO.N,Net-(J1-Pad13)*%
X101701600Y-79913480D03*
%TO.P,J1,12*%
%TO.N,Net-(J1-Pad12)*%
X99161600Y-82453480D03*
%TO.P,J1,11*%
%TO.N,Net-(J1-Pad11)*%
X101701600Y-82453480D03*
%TO.P,J1,10*%
%TO.N,Net-(J1-Pad10)*%
X99161600Y-84993480D03*
%TO.P,J1,9*%
%TO.N,Net-(J1-Pad9)*%
X101701600Y-84993480D03*
%TO.P,J1,8*%
%TO.N,Net-(J1-Pad8)*%
X99161600Y-87533480D03*
%TO.P,J1,7*%
%TO.N,Net-(J1-Pad7)*%
X101701600Y-87533480D03*
%TO.P,J1,6*%
%TO.N,Net-(J1-Pad6)*%
X99161600Y-90073480D03*
%TO.P,J1,5*%
%TO.N,/SCL*%
X101701600Y-90073480D03*
%TO.P,J1,4*%
%TO.N,Net-(J1-Pad4)*%
X99161600Y-92613480D03*
%TO.P,J1,3*%
%TO.N,/SDA*%
X101701600Y-92613480D03*
%TO.P,J1,2*%
%TO.N,VCC*%
X99161600Y-95153480D03*
D11*
%TO.P,J1,1*%
%TO.N,Net-(J1-Pad1)*%
X101701600Y-95153480D03*
%TD*%
D13*
%TO.P,J7,2*%
%TO.N,Net-(D7-Pad2)*%
X168711880Y-71292720D03*
D14*
%TO.P,J7,1*%
%TO.N,Net-(D3-Pad2)*%
X168711880Y-66212720D03*
%TD*%
D13*
%TO.P,J6,2*%
%TO.N,Net-(D5-Pad2)*%
X168935400Y-57221120D03*
D14*
%TO.P,J6,1*%
%TO.N,Net-(D1-Pad2)*%
X168935400Y-52141120D03*
%TD*%
D10*
%TO.P,J8,4*%
%TO.N,/SCL*%
X112181640Y-74843640D03*
%TO.P,J8,3*%
%TO.N,/SDA*%
X112181640Y-77383640D03*
%TO.P,J8,2*%
%TO.N,VCC*%
X112181640Y-79923640D03*
D11*
%TO.P,J8,1*%
%TO.N,GND*%
X112181640Y-82463640D03*
%TD*%
%TO.P,J5,3*%
%TO.N,N/C*%
%TA.AperFunction,ComponentPad*%
G36*
G01*
X128907840Y-46481800D02*
X130657840Y-46481800D01*
G75*
G02*
X131532840Y-47356800I0J-875000D01*
G01*
X131532840Y-49106800D01*
G75*
G02*
X130657840Y-49981800I-875000J0D01*
G01*
X128907840Y-49981800D01*
G75*
G02*
X128032840Y-49106800I0J875000D01*
G01*
X128032840Y-47356800D01*
G75*
G02*
X128907840Y-46481800I875000J0D01*
G01*
G37*
%TD.AperFunction*%
%TO.P,J5,2*%
%TO.N,GND*%
%TA.AperFunction,ComponentPad*%
G36*
G01*
X133482840Y-43731800D02*
X135482840Y-43731800D01*
G75*
G02*
X136232840Y-44481800I0J-750000D01*
G01*
X136232840Y-45981800D01*
G75*
G02*
X135482840Y-46731800I-750000J0D01*
G01*
X133482840Y-46731800D01*
G75*
G02*
X132732840Y-45981800I0J750000D01*
G01*
X132732840Y-44481800D01*
G75*
G02*
X133482840Y-43731800I750000J0D01*
G01*
G37*
%TD.AperFunction*%
D15*
%TO.P,J5,1*%
%TO.N,Net-(C1-Pad1)*%
X134482840Y-51231800D03*
%TD*%
D16*
%TO.P,C2,1*%
%TO.N,Net-(C2-Pad1)*%
X158424880Y-45811440D03*
D17*
%TO.P,C2,2*%
%TO.N,GND*%
X160924880Y-45811440D03*
%TD*%
D18*
%TO.P,D8,1*%
%TO.N,Net-(D7-Pad2)*%
X143154400Y-84419440D03*
D19*
%TO.P,D8,2*%
%TO.N,GND*%
X153314400Y-84419440D03*
%TD*%
D18*
%TO.P,D7,1*%
%TO.N,Net-(C1-Pad1)*%
X143154400Y-80070960D03*
D19*
%TO.P,D7,2*%
%TO.N,Net-(D7-Pad2)*%
X153314400Y-80070960D03*
%TD*%
D18*
%TO.P,D6,1*%
%TO.N,Net-(D5-Pad2)*%
X143068040Y-76154280D03*
D19*
%TO.P,D6,2*%
%TO.N,GND*%
X153228040Y-76154280D03*
%TD*%
D18*
%TO.P,D5,1*%
%TO.N,Net-(C1-Pad1)*%
X143068040Y-71978520D03*
D19*
%TO.P,D5,2*%
%TO.N,Net-(D5-Pad2)*%
X153228040Y-71978520D03*
%TD*%
D18*
%TO.P,D4,1*%
%TO.N,Net-(D3-Pad2)*%
X143068040Y-67802760D03*
D19*
%TO.P,D4,2*%
%TO.N,GND*%
X153228040Y-67802760D03*
%TD*%
D18*
%TO.P,D3,1*%
%TO.N,Net-(C1-Pad1)*%
X142981680Y-63454280D03*
D19*
%TO.P,D3,2*%
%TO.N,Net-(D3-Pad2)*%
X153141680Y-63454280D03*
%TD*%
D18*
%TO.P,D2,1*%
%TO.N,Net-(D1-Pad2)*%
X143012160Y-58978800D03*
D19*
%TO.P,D2,2*%
%TO.N,GND*%
X153172160Y-58978800D03*
%TD*%
D18*
%TO.P,D1,1*%
%TO.N,Net-(C1-Pad1)*%
X142956280Y-54665880D03*
D19*
%TO.P,D1,2*%
%TO.N,Net-(D1-Pad2)*%
X153116280Y-54665880D03*
%TD*%
D16*
%TO.P,C1,1*%
%TO.N,Net-(C1-Pad1)*%
X149367240Y-45958760D03*
D17*
%TO.P,C1,2*%
%TO.N,GND*%
X151867240Y-45958760D03*
%TD*%
D20*
%TO.P,U1,16*%
%TO.N,Net-(C2-Pad1)*%
X134574280Y-58364120D03*
%TO.P,U1,8*%
%TO.N,Net-(C1-Pad1)*%
X126954280Y-76144120D03*
%TO.P,U1,15*%
%TO.N,Net-(J3-Pad4)*%
X134574280Y-60904120D03*
%TO.P,U1,7*%
%TO.N,Net-(J2-Pad4)*%
X126954280Y-73604120D03*
%TO.P,U1,14*%
%TO.N,Net-(D7-Pad2)*%
X134574280Y-63444120D03*
%TO.P,U1,6*%
%TO.N,Net-(D5-Pad2)*%
X126954280Y-71064120D03*
%TO.P,U1,13*%
%TO.N,GND*%
X134574280Y-65984120D03*
%TO.P,U1,5*%
X126954280Y-68524120D03*
%TO.P,U1,12*%
X134574280Y-68524120D03*
%TO.P,U1,4*%
X126954280Y-65984120D03*
%TO.P,U1,11*%
%TO.N,Net-(D3-Pad2)*%
X134574280Y-71064120D03*
%TO.P,U1,3*%
%TO.N,Net-(D1-Pad2)*%
X126954280Y-63444120D03*
%TO.P,U1,10*%
%TO.N,Net-(J3-Pad2)*%
X134574280Y-73604120D03*
%TO.P,U1,2*%
%TO.N,Net-(J2-Pad2)*%
X126954280Y-60904120D03*
%TO.P,U1,9*%
%TO.N,Net-(J3-Pad6)*%
X134574280Y-76144120D03*
D16*
%TO.P,U1,1*%
%TO.N,Net-(J2-Pad6)*%
X126954280Y-58364120D03*
%TD*%
D10*
%TO.P,J4,4*%
%TO.N,GND*%
X114020600Y-47259240D03*
%TO.P,J4,3*%
%TO.N,Net-(J11-Pad2)*%
X111480600Y-47259240D03*
%TO.P,J4,2*%
%TO.N,Net-(C2-Pad1)*%
X114020600Y-44719240D03*
D11*
%TO.P,J4,1*%
%TO.N,Net-(J1-Pad4)*%
X111480600Y-44719240D03*
%TD*%
D10*
%TO.P,J2,6*%
%TO.N,Net-(J2-Pad6)*%
X114020600Y-57734200D03*
%TO.P,J2,5*%
%TO.N,Net-(J1-Pad19)*%
X111480600Y-57734200D03*
%TO.P,J2,4*%
%TO.N,Net-(J2-Pad4)*%
X114020600Y-55194200D03*
%TO.P,J2,3*%
%TO.N,Net-(J1-Pad21)*%
X111480600Y-55194200D03*
%TO.P,J2,2*%
%TO.N,Net-(J2-Pad2)*%
X114020600Y-52654200D03*
D11*
%TO.P,J2,1*%
%TO.N,Net-(J1-Pad23)*%
X111480600Y-52654200D03*
%TD*%
D21*
%TO.N,GND*%
X131582160Y-90678000D03*
X163748720Y-88463120D03*
X157911800Y-92547440D03*
X107787440Y-91572080D03*
X175112680Y-88905080D03*
X166116000Y-88432640D03*
X129921000Y-90744040D03*
X106756200Y-92567760D03*
X108818680Y-92511880D03*
X107883960Y-93599000D03*
X130703320Y-89687400D03*
X130820160Y-91765120D03*
X139115800Y-91815920D03*
X164998400Y-89448640D03*
X164886640Y-87330280D03*
X173116240Y-88950800D03*
X174117000Y-87807800D03*
X174228760Y-90002360D03*
X114874040Y-85191600D03*
%TD*%
D22*
%TO.N,Net-(J1-Pad39)*%
X104667560Y-43927520D02*
X105450640Y-43927520D01*
X101701600Y-46893480D02*
X104667560Y-43927520D01*
D23*
X105450640Y-43927520D02*
X105450640Y-43093640D01*
X105450640Y-43093640D02*
X106359960Y-42184320D01*
X121432320Y-42184320D02*
X124028200Y-44780200D01*
X106359960Y-42184320D02*
X121432320Y-42184320D01*
D22*
%TO.N,Net-(J1-Pad37)*%
X103276300Y-49433480D02*
X104754580Y-47955200D01*
X101701600Y-49433480D02*
X103276300Y-49433480D01*
%TO.N,Net-(J1-Pad7)*%
X105653740Y-87533480D02*
X106898340Y-88778080D01*
X101701600Y-87533480D02*
X105653740Y-87533480D01*
%TO.N,Net-(J1-Pad4)*%
X106583480Y-49616360D02*
X111480600Y-44719240D01*
X101327597Y-83628481D02*
X103442519Y-83628481D01*
X100526599Y-84429479D02*
X101327597Y-83628481D01*
X99161600Y-92613480D02*
X100526599Y-91248481D01*
X100526599Y-91248481D02*
X100526599Y-84429479D01*
X106583480Y-80487520D02*
X106583480Y-49616360D01*
X103442519Y-83628481D02*
X106583480Y-80487520D01*
%TO.N,GND*%
X111580679Y-81862679D02*
X112181640Y-82463640D01*
X107264440Y-85861400D02*
X107264440Y-85125320D01*
X107264440Y-85125320D02*
X107502960Y-84886800D01*
X109758480Y-84886800D02*
X112181640Y-82463640D01*
X107502960Y-84886800D02*
X109758480Y-84886800D01*
D23*
%TO.N,Net-(C1-Pad1)*%
X126954280Y-76144120D02*
X130088640Y-79278480D01*
X139471400Y-80070960D02*
X143154400Y-80070960D01*
X138678920Y-79278480D02*
X139471400Y-80070960D01*
X130088640Y-79278480D02*
X138678920Y-79278480D01*
X147985480Y-54665880D02*
X142956280Y-54665880D01*
X147985480Y-47340520D02*
X149367240Y-45958760D01*
X147985480Y-54665880D02*
X147985480Y-47340520D01*
%TO.N,Net-(D1-Pad2)*%
X123797152Y-66601248D02*
X123797152Y-66641888D01*
X126954280Y-63444120D02*
X123797152Y-66601248D01*
X123797152Y-66641888D02*
X122260360Y-68178680D01*
X122260360Y-68178680D02*
X122260360Y-80157320D01*
X122260360Y-80157320D02*
X129240280Y-87137240D01*
X152964602Y-87137240D02*
X157154880Y-82946962D01*
X129240280Y-87137240D02*
X152964602Y-87137240D01*
X157154880Y-58704480D02*
X153116280Y-54665880D01*
X157154880Y-82946962D02*
X157154880Y-58704480D01*
%TO.N,Net-(D3-Pad2)*%
X139806680Y-71064120D02*
X143068040Y-67802760D01*
X134574280Y-71064120D02*
X139806680Y-71064120D01*
%TO.N,Net-(D5-Pad2)*%
X147995640Y-76997560D02*
X147152360Y-76154280D01*
X147995640Y-79943960D02*
X147995640Y-76997560D01*
X145120161Y-82819439D02*
X147995640Y-79943960D01*
X147152360Y-76154280D02*
X143068040Y-76154280D01*
X126954280Y-71064120D02*
X124597160Y-73421240D01*
X124597160Y-73421240D02*
X124597160Y-80218280D01*
X124597160Y-80218280D02*
X127198319Y-82819439D01*
X127198319Y-82819439D02*
X145120161Y-82819439D01*
%TO.N,Net-(D7-Pad2)*%
X134574280Y-63444120D02*
X136819640Y-65689480D01*
X136819640Y-65689480D02*
X147391120Y-65689480D01*
X148371560Y-66669920D02*
X148371560Y-75570080D01*
X147391120Y-65689480D02*
X148371560Y-66669920D01*
X148371560Y-75570080D02*
X150185120Y-77383640D01*
X150627080Y-77383640D02*
X153314400Y-80070960D01*
X150185120Y-77383640D02*
X150627080Y-77383640D01*
%TO.N,Net-(C2-Pad1)*%
X114020600Y-44719240D02*
X123794520Y-54493160D01*
X130703320Y-54493160D02*
X134574280Y-58364120D01*
X123794520Y-54493160D02*
X130703320Y-54493160D01*
X147899120Y-42870120D02*
X153700480Y-42870120D01*
X146044920Y-50088800D02*
X146044920Y-46781078D01*
X153700480Y-42870120D02*
X156641800Y-45811440D01*
X134574280Y-58364120D02*
X142849600Y-50088800D01*
X156641800Y-45811440D02*
X158424880Y-45811440D01*
X146039840Y-44729400D02*
X147899120Y-42870120D01*
X142849600Y-50088800D02*
X146044920Y-50088800D01*
X146044920Y-46781078D02*
X146039840Y-46775998D01*
X146039840Y-46775998D02*
X146039840Y-44729400D01*
D22*
%TO.N,Net-(J1-Pad9)*%
X101701600Y-84993480D02*
X104333040Y-84993480D01*
X105465120Y-83861400D02*
X107914440Y-83861400D01*
X104333040Y-84993480D02*
X105465120Y-83861400D01*
X107914440Y-75036680D02*
X107914440Y-83861400D01*
X110510320Y-72440800D02*
X107914440Y-75036680D01*
X116118640Y-73944480D02*
X114614960Y-72440800D01*
X136347200Y-91821000D02*
X134985760Y-93182440D01*
X134985760Y-93182440D02*
X124212202Y-93182440D01*
X136347200Y-90114120D02*
X136347200Y-91821000D01*
X114614960Y-72440800D02*
X110510320Y-72440800D01*
X116118640Y-85088878D02*
X116118640Y-73944480D01*
X124212202Y-93182440D02*
X116118640Y-85088878D01*
%TO.N,Net-(J11-Pad2)*%
X112776000Y-45963840D02*
X111480600Y-47259240D01*
X112776000Y-43444160D02*
X112776000Y-45963840D01*
X105475641Y-45252519D02*
X108280079Y-45252519D01*
X104800640Y-45927520D02*
X105475641Y-45252519D01*
X108280079Y-45252519D02*
X110352598Y-43180000D01*
X110352598Y-43180000D02*
X112511840Y-43180000D01*
X112511840Y-43180000D02*
X112776000Y-43444160D01*
%TO.N,Net-(Q1-Pad1)*%
X106329580Y-46156460D02*
X106100640Y-45927520D01*
X106329580Y-47955200D02*
X106329580Y-46156460D01*
%TO.N,Net-(Q2-Pad1)*%
X108473340Y-85952500D02*
X108564440Y-85861400D01*
X108473340Y-88778080D02*
X108473340Y-85952500D01*
%TD*%
D24*
%TO.N,GND*%
G36*
X117467201Y-72848682D02*
G01*
X117790014Y-83910065D01*
X117793176Y-83934760D01*
X117801095Y-83958363D01*
X117813467Y-83979968D01*
X117828904Y-83997876D01*
X121994504Y-88005996D01*
X122014050Y-88021416D01*
X122036228Y-88032727D01*
X122060188Y-88039494D01*
X122082245Y-88041480D01*
X129057433Y-88058756D01*
X129240280Y-88076764D01*
X129286215Y-88072240D01*
X134501709Y-88072240D01*
X138400355Y-88081896D01*
X138970345Y-89733902D01*
X138980733Y-89756528D01*
X138995335Y-89776692D01*
X139013591Y-89793620D01*
X139034798Y-89806662D01*
X139058143Y-89815315D01*
X139089972Y-89819479D01*
X158663212Y-89885519D01*
X158687996Y-89883163D01*
X158711845Y-89876016D01*
X158742610Y-89857983D01*
X158769844Y-89836360D01*
X169215168Y-89836360D01*
X169227428Y-89960842D01*
X169263738Y-90080540D01*
X169322703Y-90190854D01*
X169402055Y-90287545D01*
X169498746Y-90366897D01*
X169609060Y-90425862D01*
X169681620Y-90447873D01*
X169549765Y-90579728D01*
X169387250Y-90822949D01*
X169275308Y-91093202D01*
X169218240Y-91380100D01*
X169218240Y-91672620D01*
X169275308Y-91959518D01*
X169387250Y-92229771D01*
X169549765Y-92472992D01*
X169756608Y-92679835D01*
X169931000Y-92796360D01*
X169756608Y-92912885D01*
X169549765Y-93119728D01*
X169387250Y-93362949D01*
X169275308Y-93633202D01*
X169218240Y-93920100D01*
X169218240Y-94212620D01*
X169275308Y-94499518D01*
X169387250Y-94769771D01*
X169549765Y-95012992D01*
X169756608Y-95219835D01*
X169999829Y-95382350D01*
X170270082Y-95494292D01*
X170556980Y-95551360D01*
X170849500Y-95551360D01*
X171136398Y-95494292D01*
X171406651Y-95382350D01*
X171649872Y-95219835D01*
X171856715Y-95012992D01*
X172019230Y-94769771D01*
X172131172Y-94499518D01*
X172188240Y-94212620D01*
X172188240Y-93920100D01*
X172131172Y-93633202D01*
X172019230Y-93362949D01*
X171856715Y-93119728D01*
X171649872Y-92912885D01*
X171475480Y-92796360D01*
X171649872Y-92679835D01*
X171856715Y-92472992D01*
X172019230Y-92229771D01*
X172131172Y-91959518D01*
X172188240Y-91672620D01*
X172188240Y-91380100D01*
X172131172Y-91093202D01*
X172019230Y-90822949D01*
X171856715Y-90579728D01*
X171724860Y-90447873D01*
X171797420Y-90425862D01*
X171907734Y-90366897D01*
X172004425Y-90287545D01*
X172083777Y-90190854D01*
X172142742Y-90080540D01*
X172179052Y-89960842D01*
X172191312Y-89836360D01*
X172188240Y-89272110D01*
X172029490Y-89113360D01*
X170830240Y-89113360D01*
X170830240Y-89133360D01*
X170576240Y-89133360D01*
X170576240Y-89113360D01*
X169376990Y-89113360D01*
X169218240Y-89272110D01*
X169215168Y-89836360D01*
X158769844Y-89836360D01*
X160911000Y-88136360D01*
X169215168Y-88136360D01*
X169218240Y-88700610D01*
X169376990Y-88859360D01*
X170576240Y-88859360D01*
X170576240Y-87660110D01*
X170830240Y-87660110D01*
X170830240Y-88859360D01*
X172029490Y-88859360D01*
X172188240Y-88700610D01*
X172191312Y-88136360D01*
X172179052Y-88011878D01*
X172142742Y-87892180D01*
X172083777Y-87781866D01*
X172004425Y-87685175D01*
X171907734Y-87605823D01*
X171797420Y-87546858D01*
X171677722Y-87510548D01*
X171553240Y-87498288D01*
X170988990Y-87501360D01*
X170830240Y-87660110D01*
X170576240Y-87660110D01*
X170417490Y-87501360D01*
X169853240Y-87498288D01*
X169728758Y-87510548D01*
X169609060Y-87546858D01*
X169498746Y-87605823D01*
X169402055Y-87685175D01*
X169322703Y-87781866D01*
X169263738Y-87892180D01*
X169227428Y-88011878D01*
X169215168Y-88136360D01*
X160911000Y-88136360D01*
X162579740Y-86811442D01*
X176279140Y-86601284D01*
X176271814Y-96431774D01*
X174003400Y-96423992D01*
X174002449Y-96423898D01*
X173971122Y-96423881D01*
X173939526Y-96423773D01*
X173938567Y-96423864D01*
X103058893Y-96386296D01*
X103082137Y-96357974D01*
X103141102Y-96247660D01*
X103177412Y-96127962D01*
X103189672Y-96003480D01*
X103189672Y-94303480D01*
X103177412Y-94178998D01*
X103141102Y-94059300D01*
X103082137Y-93948986D01*
X103002785Y-93852295D01*
X102906094Y-93772943D01*
X102795780Y-93713978D01*
X102723220Y-93691967D01*
X102855075Y-93560112D01*
X103017590Y-93316891D01*
X103046605Y-93246840D01*
X110612288Y-93246840D01*
X110612288Y-94946840D01*
X110624548Y-95071322D01*
X110660858Y-95191020D01*
X110719823Y-95301334D01*
X110799175Y-95398025D01*
X110895866Y-95477377D01*
X111006180Y-95536342D01*
X111125878Y-95572652D01*
X111250360Y-95584912D01*
X112950360Y-95584912D01*
X113074842Y-95572652D01*
X113194540Y-95536342D01*
X113304854Y-95477377D01*
X113401545Y-95398025D01*
X113480897Y-95301334D01*
X113539862Y-95191020D01*
X113576172Y-95071322D01*
X113588432Y-94946840D01*
X113588432Y-93246840D01*
X113576172Y-93122358D01*
X113539862Y-93002660D01*
X113480897Y-92892346D01*
X113401545Y-92795655D01*
X113304854Y-92716303D01*
X113194540Y-92657338D01*
X113121980Y-92635327D01*
X113253835Y-92503472D01*
X113416350Y-92260251D01*
X113528292Y-91989998D01*
X113585360Y-91703100D01*
X113585360Y-91410580D01*
X113528292Y-91123682D01*
X113416350Y-90853429D01*
X113253835Y-90610208D01*
X113046992Y-90403365D01*
X112872600Y-90286840D01*
X113046992Y-90170315D01*
X113253835Y-89963472D01*
X113416350Y-89720251D01*
X113528292Y-89449998D01*
X113585360Y-89163100D01*
X113585360Y-88870580D01*
X113528292Y-88583682D01*
X113416350Y-88313429D01*
X113253835Y-88070208D01*
X113046992Y-87863365D01*
X112872600Y-87746840D01*
X113046992Y-87630315D01*
X113253835Y-87423472D01*
X113416350Y-87180251D01*
X113528292Y-86909998D01*
X113585360Y-86623100D01*
X113585360Y-86330580D01*
X113528292Y-86043682D01*
X113416350Y-85773429D01*
X113253835Y-85530208D01*
X113046992Y-85323365D01*
X112803771Y-85160850D01*
X112533518Y-85048908D01*
X112246620Y-84991840D01*
X111954100Y-84991840D01*
X111667202Y-85048908D01*
X111396949Y-85160850D01*
X111153728Y-85323365D01*
X110946885Y-85530208D01*
X110784370Y-85773429D01*
X110672428Y-86043682D01*
X110615360Y-86330580D01*
X110615360Y-86623100D01*
X110672428Y-86909998D01*
X110784370Y-87180251D01*
X110946885Y-87423472D01*
X111153728Y-87630315D01*
X111328120Y-87746840D01*
X111153728Y-87863365D01*
X110946885Y-88070208D01*
X110784370Y-88313429D01*
X110672428Y-88583682D01*
X110615360Y-88870580D01*
X110615360Y-89163100D01*
X110672428Y-89449998D01*
X110784370Y-89720251D01*
X110946885Y-89963472D01*
X111153728Y-90170315D01*
X111328120Y-90286840D01*
X111153728Y-90403365D01*
X110946885Y-90610208D01*
X110784370Y-90853429D01*
X110672428Y-91123682D01*
X110615360Y-91410580D01*
X110615360Y-91703100D01*
X110672428Y-91989998D01*
X110784370Y-92260251D01*
X110946885Y-92503472D01*
X111078740Y-92635327D01*
X111006180Y-92657338D01*
X110895866Y-92716303D01*
X110799175Y-92795655D01*
X110719823Y-92892346D01*
X110660858Y-93002660D01*
X110624548Y-93122358D01*
X110612288Y-93246840D01*
X103046605Y-93246840D01*
X103129532Y-93046638D01*
X103186600Y-92759740D01*
X103186600Y-92467220D01*
X103129532Y-92180322D01*
X103017590Y-91910069D01*
X102855075Y-91666848D01*
X102648232Y-91460005D01*
X102473840Y-91343480D01*
X102648232Y-91226955D01*
X102855075Y-91020112D01*
X103017590Y-90776891D01*
X103129532Y-90506638D01*
X103186600Y-90219740D01*
X103186600Y-89927220D01*
X103129532Y-89640322D01*
X103017590Y-89370069D01*
X102855075Y-89126848D01*
X102648232Y-88920005D01*
X102473840Y-88803480D01*
X102648232Y-88686955D01*
X102855075Y-88480112D01*
X102979778Y-88293480D01*
X105338939Y-88293480D01*
X105822768Y-88777310D01*
X105822768Y-89034330D01*
X105839232Y-89201488D01*
X105887990Y-89362222D01*
X105967169Y-89510355D01*
X106073725Y-89640195D01*
X106203565Y-89746751D01*
X106351698Y-89825930D01*
X106512432Y-89874688D01*
X106679590Y-89891152D01*
X107117090Y-89891152D01*
X107284248Y-89874688D01*
X107444982Y-89825930D01*
X107593115Y-89746751D01*
X107685840Y-89670654D01*
X107778565Y-89746751D01*
X107926698Y-89825930D01*
X108087432Y-89874688D01*
X108254590Y-89891152D01*
X108692090Y-89891152D01*
X108859248Y-89874688D01*
X109019982Y-89825930D01*
X109168115Y-89746751D01*
X109297955Y-89640195D01*
X109404511Y-89510355D01*
X109483690Y-89362222D01*
X109532448Y-89201488D01*
X109548912Y-89034330D01*
X109548912Y-88521830D01*
X109532448Y-88354672D01*
X109483690Y-88193938D01*
X109404511Y-88045805D01*
X109297955Y-87915965D01*
X109233340Y-87862937D01*
X109233340Y-86668564D01*
X109240625Y-86662585D01*
X109319977Y-86565894D01*
X109378942Y-86455580D01*
X109415252Y-86335882D01*
X109427512Y-86211400D01*
X109427512Y-85511400D01*
X109415252Y-85386918D01*
X109378942Y-85267220D01*
X109319977Y-85156906D01*
X109240625Y-85060215D01*
X109143934Y-84980863D01*
X109033620Y-84921898D01*
X108913922Y-84885588D01*
X108789440Y-84873328D01*
X108339440Y-84873328D01*
X108214958Y-84885588D01*
X108095260Y-84921898D01*
X107984946Y-84980863D01*
X107914046Y-85039049D01*
X107856448Y-84989441D01*
X107747567Y-84927871D01*
X107628766Y-84888725D01*
X107521190Y-84876400D01*
X107362440Y-85035150D01*
X107362440Y-85734400D01*
X107411440Y-85734400D01*
X107411440Y-85988400D01*
X107362440Y-85988400D01*
X107362440Y-86687650D01*
X107521190Y-86846400D01*
X107628766Y-86834075D01*
X107713341Y-86806207D01*
X107713340Y-87862937D01*
X107685840Y-87885506D01*
X107593115Y-87809409D01*
X107444982Y-87730230D01*
X107284248Y-87681472D01*
X107117090Y-87665008D01*
X106860070Y-87665008D01*
X106217544Y-87022483D01*
X106193741Y-86993479D01*
X106078016Y-86898506D01*
X105945987Y-86827934D01*
X105802726Y-86784477D01*
X105691073Y-86773480D01*
X105691062Y-86773480D01*
X105653740Y-86769804D01*
X105616418Y-86773480D01*
X102979778Y-86773480D01*
X102855075Y-86586848D01*
X102648232Y-86380005D01*
X102473840Y-86263480D01*
X102574488Y-86196229D01*
X106401548Y-86196229D01*
X106410846Y-86320967D01*
X106444299Y-86441495D01*
X106500624Y-86553180D01*
X106577655Y-86651730D01*
X106672432Y-86733359D01*
X106781313Y-86794929D01*
X106900114Y-86834075D01*
X107007690Y-86846400D01*
X107166440Y-86687650D01*
X107166440Y-85988400D01*
X106563190Y-85988400D01*
X106404440Y-86147150D01*
X106401548Y-86196229D01*
X102574488Y-86196229D01*
X102648232Y-86146955D01*
X102855075Y-85940112D01*
X102979778Y-85753480D01*
X104295718Y-85753480D01*
X104333040Y-85757156D01*
X104370362Y-85753480D01*
X104370373Y-85753480D01*
X104482026Y-85742483D01*
X104625287Y-85699026D01*
X104757316Y-85628454D01*
X104873041Y-85533481D01*
X104878712Y-85526571D01*
X106401548Y-85526571D01*
X106404440Y-85575650D01*
X106563190Y-85734400D01*
X107166440Y-85734400D01*
X107166440Y-85035150D01*
X107007690Y-84876400D01*
X106900114Y-84888725D01*
X106781313Y-84927871D01*
X106672432Y-84989441D01*
X106577655Y-85071070D01*
X106500624Y-85169620D01*
X106444299Y-85281305D01*
X106410846Y-85401833D01*
X106401548Y-85526571D01*
X104878712Y-85526571D01*
X104896844Y-85504478D01*
X105779922Y-84621400D01*
X107204455Y-84621400D01*
X107238255Y-84662585D01*
X107334946Y-84741937D01*
X107445260Y-84800902D01*
X107564958Y-84837212D01*
X107689440Y-84849472D01*
X108139440Y-84849472D01*
X108263922Y-84837212D01*
X108383620Y-84800902D01*
X108493934Y-84741937D01*
X108590625Y-84662585D01*
X108669977Y-84565894D01*
X108728942Y-84455580D01*
X108765252Y-84335882D01*
X108777512Y-84211400D01*
X108777512Y-83511400D01*
X108765252Y-83386918D01*
X108743024Y-83313640D01*
X110693568Y-83313640D01*
X110705828Y-83438122D01*
X110742138Y-83557820D01*
X110801103Y-83668134D01*
X110880455Y-83764825D01*
X110977146Y-83844177D01*
X111087460Y-83903142D01*
X111207158Y-83939452D01*
X111331640Y-83951712D01*
X111895890Y-83948640D01*
X112054640Y-83789890D01*
X112054640Y-82590640D01*
X112308640Y-82590640D01*
X112308640Y-83789890D01*
X112467390Y-83948640D01*
X113031640Y-83951712D01*
X113156122Y-83939452D01*
X113275820Y-83903142D01*
X113386134Y-83844177D01*
X113482825Y-83764825D01*
X113562177Y-83668134D01*
X113621142Y-83557820D01*
X113657452Y-83438122D01*
X113669712Y-83313640D01*
X113666640Y-82749390D01*
X113507890Y-82590640D01*
X112308640Y-82590640D01*
X112054640Y-82590640D01*
X110855390Y-82590640D01*
X110696640Y-82749390D01*
X110693568Y-83313640D01*
X108743024Y-83313640D01*
X108728942Y-83267220D01*
X108674440Y-83165256D01*
X108674440Y-81613640D01*
X110693568Y-81613640D01*
X110696640Y-82177890D01*
X110855390Y-82336640D01*
X112054640Y-82336640D01*
X112054640Y-82316640D01*
X112308640Y-82316640D01*
X112308640Y-82336640D01*
X113507890Y-82336640D01*
X113666640Y-82177890D01*
X113669712Y-81613640D01*
X113657452Y-81489158D01*
X113621142Y-81369460D01*
X113562177Y-81259146D01*
X113482825Y-81162455D01*
X113386134Y-81083103D01*
X113275820Y-81024138D01*
X113203260Y-81002127D01*
X113335115Y-80870272D01*
X113497630Y-80627051D01*
X113609572Y-80356798D01*
X113666640Y-80069900D01*
X113666640Y-79777380D01*
X113609572Y-79490482D01*
X113497630Y-79220229D01*
X113335115Y-78977008D01*
X113128272Y-78770165D01*
X112953880Y-78653640D01*
X113128272Y-78537115D01*
X113335115Y-78330272D01*
X113497630Y-78087051D01*
X113609572Y-77816798D01*
X113666640Y-77529900D01*
X113666640Y-77237380D01*
X113609572Y-76950482D01*
X113497630Y-76680229D01*
X113335115Y-76437008D01*
X113128272Y-76230165D01*
X112953880Y-76113640D01*
X113128272Y-75997115D01*
X113335115Y-75790272D01*
X113497630Y-75547051D01*
X113609572Y-75276798D01*
X113666640Y-74989900D01*
X113666640Y-74697380D01*
X113609572Y-74410482D01*
X113497630Y-74140229D01*
X113335115Y-73897008D01*
X113128272Y-73690165D01*
X112885051Y-73527650D01*
X112614798Y-73415708D01*
X112327900Y-73358640D01*
X112035380Y-73358640D01*
X111748482Y-73415708D01*
X111478229Y-73527650D01*
X111235008Y-73690165D01*
X111028165Y-73897008D01*
X110865650Y-74140229D01*
X110753708Y-74410482D01*
X110696640Y-74697380D01*
X110696640Y-74989900D01*
X110753708Y-75276798D01*
X110865650Y-75547051D01*
X111028165Y-75790272D01*
X111235008Y-75997115D01*
X111409400Y-76113640D01*
X111235008Y-76230165D01*
X111028165Y-76437008D01*
X110865650Y-76680229D01*
X110753708Y-76950482D01*
X110696640Y-77237380D01*
X110696640Y-77529900D01*
X110753708Y-77816798D01*
X110865650Y-78087051D01*
X111028165Y-78330272D01*
X111235008Y-78537115D01*
X111409400Y-78653640D01*
X111235008Y-78770165D01*
X111028165Y-78977008D01*
X110865650Y-79220229D01*
X110753708Y-79490482D01*
X110696640Y-79777380D01*
X110696640Y-80069900D01*
X110753708Y-80356798D01*
X110865650Y-80627051D01*
X111028165Y-80870272D01*
X111160020Y-81002127D01*
X111087460Y-81024138D01*
X110977146Y-81083103D01*
X110880455Y-81162455D01*
X110801103Y-81259146D01*
X110742138Y-81369460D01*
X110705828Y-81489158D01*
X110693568Y-81613640D01*
X108674440Y-81613640D01*
X108674440Y-75351481D01*
X110825122Y-73200800D01*
X114300159Y-73200800D01*
X115358641Y-74259283D01*
X115358640Y-85051556D01*
X115354964Y-85088878D01*
X115358640Y-85126200D01*
X115358640Y-85126210D01*
X115369637Y-85237863D01*
X115413094Y-85381124D01*
X115483666Y-85513154D01*
X115519879Y-85557279D01*
X115578639Y-85628879D01*
X115607643Y-85652682D01*
X123648403Y-93693443D01*
X123672201Y-93722441D01*
X123701199Y-93746239D01*
X123787925Y-93817414D01*
X123919955Y-93887986D01*
X124063216Y-93931443D01*
X124174869Y-93942440D01*
X124174878Y-93942440D01*
X124212201Y-93946116D01*
X124249524Y-93942440D01*
X134948438Y-93942440D01*
X134985760Y-93946116D01*
X135023082Y-93942440D01*
X135023093Y-93942440D01*
X135134746Y-93931443D01*
X135278007Y-93887986D01*
X135410036Y-93817414D01*
X135525761Y-93722441D01*
X135549564Y-93693437D01*
X136858203Y-92384799D01*
X136887201Y-92361001D01*
X136919837Y-92321234D01*
X136982174Y-92245277D01*
X137052746Y-92113247D01*
X137083410Y-92012158D01*
X137096203Y-91969986D01*
X137107200Y-91858333D01*
X137107200Y-91858323D01*
X137110876Y-91821000D01*
X137107200Y-91783677D01*
X137107200Y-91602192D01*
X137197200Y-91602192D01*
X137321682Y-91589932D01*
X137441380Y-91553622D01*
X137551694Y-91494657D01*
X137648385Y-91415305D01*
X137727737Y-91318614D01*
X137786702Y-91208300D01*
X137823012Y-91088602D01*
X137835272Y-90964120D01*
X137835272Y-89264120D01*
X137823012Y-89139638D01*
X137786702Y-89019940D01*
X137727737Y-88909626D01*
X137648385Y-88812935D01*
X137551694Y-88733583D01*
X137441380Y-88674618D01*
X137321682Y-88638308D01*
X137197200Y-88626048D01*
X135497200Y-88626048D01*
X135372718Y-88638308D01*
X135253020Y-88674618D01*
X135142706Y-88733583D01*
X135046015Y-88812935D01*
X134966663Y-88909626D01*
X134907698Y-89019940D01*
X134883234Y-89100586D01*
X134807469Y-89016532D01*
X134574120Y-88842479D01*
X134311299Y-88717295D01*
X134164090Y-88672644D01*
X133934200Y-88793965D01*
X133934200Y-89987120D01*
X133954200Y-89987120D01*
X133954200Y-90241120D01*
X133934200Y-90241120D01*
X133934200Y-91434275D01*
X134164090Y-91555596D01*
X134311299Y-91510945D01*
X134574120Y-91385761D01*
X134807469Y-91211708D01*
X134883234Y-91127654D01*
X134907698Y-91208300D01*
X134966663Y-91318614D01*
X135046015Y-91415305D01*
X135142706Y-91494657D01*
X135253020Y-91553622D01*
X135372718Y-91589932D01*
X135491744Y-91601655D01*
X134670959Y-92422440D01*
X124527004Y-92422440D01*
X122575575Y-90471011D01*
X132365719Y-90471011D01*
X132463043Y-90745372D01*
X132612022Y-90995475D01*
X132806931Y-91211708D01*
X133040280Y-91385761D01*
X133303101Y-91510945D01*
X133450310Y-91555596D01*
X133680200Y-91434275D01*
X133680200Y-90241120D01*
X132486386Y-90241120D01*
X132365719Y-90471011D01*
X122575575Y-90471011D01*
X121861793Y-89757229D01*
X132365719Y-89757229D01*
X132486386Y-89987120D01*
X133680200Y-89987120D01*
X133680200Y-88793965D01*
X133450310Y-88672644D01*
X133303101Y-88717295D01*
X133040280Y-88842479D01*
X132806931Y-89016532D01*
X132612022Y-89232765D01*
X132463043Y-89482868D01*
X132365719Y-89757229D01*
X121861793Y-89757229D01*
X116878640Y-84774077D01*
X116878640Y-73981805D01*
X116882316Y-73944480D01*
X116878640Y-73907155D01*
X116878640Y-73907147D01*
X116867643Y-73795494D01*
X116824186Y-73652233D01*
X116753614Y-73520204D01*
X116658641Y-73404479D01*
X116629643Y-73380681D01*
X115178764Y-71929803D01*
X115154961Y-71900799D01*
X115039236Y-71805826D01*
X114907207Y-71735254D01*
X114764505Y-71691967D01*
X114923640Y-71689405D01*
X117467201Y-72848682D01*
G37*
X117467201Y-72848682D02*
X117790014Y-83910065D01*
X117793176Y-83934760D01*
X117801095Y-83958363D01*
X117813467Y-83979968D01*
X117828904Y-83997876D01*
X121994504Y-88005996D01*
X122014050Y-88021416D01*
X122036228Y-88032727D01*
X122060188Y-88039494D01*
X122082245Y-88041480D01*
X129057433Y-88058756D01*
X129240280Y-88076764D01*
X129286215Y-88072240D01*
X134501709Y-88072240D01*
X138400355Y-88081896D01*
X138970345Y-89733902D01*
X138980733Y-89756528D01*
X138995335Y-89776692D01*
X139013591Y-89793620D01*
X139034798Y-89806662D01*
X139058143Y-89815315D01*
X139089972Y-89819479D01*
X158663212Y-89885519D01*
X158687996Y-89883163D01*
X158711845Y-89876016D01*
X158742610Y-89857983D01*
X158769844Y-89836360D01*
X169215168Y-89836360D01*
X169227428Y-89960842D01*
X169263738Y-90080540D01*
X169322703Y-90190854D01*
X169402055Y-90287545D01*
X169498746Y-90366897D01*
X169609060Y-90425862D01*
X169681620Y-90447873D01*
X169549765Y-90579728D01*
X169387250Y-90822949D01*
X169275308Y-91093202D01*
X169218240Y-91380100D01*
X169218240Y-91672620D01*
X169275308Y-91959518D01*
X169387250Y-92229771D01*
X169549765Y-92472992D01*
X169756608Y-92679835D01*
X169931000Y-92796360D01*
X169756608Y-92912885D01*
X169549765Y-93119728D01*
X169387250Y-93362949D01*
X169275308Y-93633202D01*
X169218240Y-93920100D01*
X169218240Y-94212620D01*
X169275308Y-94499518D01*
X169387250Y-94769771D01*
X169549765Y-95012992D01*
X169756608Y-95219835D01*
X169999829Y-95382350D01*
X170270082Y-95494292D01*
X170556980Y-95551360D01*
X170849500Y-95551360D01*
X171136398Y-95494292D01*
X171406651Y-95382350D01*
X171649872Y-95219835D01*
X171856715Y-95012992D01*
X172019230Y-94769771D01*
X172131172Y-94499518D01*
X172188240Y-94212620D01*
X172188240Y-93920100D01*
X172131172Y-93633202D01*
X172019230Y-93362949D01*
X171856715Y-93119728D01*
X171649872Y-92912885D01*
X171475480Y-92796360D01*
X171649872Y-92679835D01*
X171856715Y-92472992D01*
X172019230Y-92229771D01*
X172131172Y-91959518D01*
X172188240Y-91672620D01*
X172188240Y-91380100D01*
X172131172Y-91093202D01*
X172019230Y-90822949D01*
X171856715Y-90579728D01*
X171724860Y-90447873D01*
X171797420Y-90425862D01*
X171907734Y-90366897D01*
X172004425Y-90287545D01*
X172083777Y-90190854D01*
X172142742Y-90080540D01*
X172179052Y-89960842D01*
X172191312Y-89836360D01*
X172188240Y-89272110D01*
X172029490Y-89113360D01*
X170830240Y-89113360D01*
X170830240Y-89133360D01*
X170576240Y-89133360D01*
X170576240Y-89113360D01*
X169376990Y-89113360D01*
X169218240Y-89272110D01*
X169215168Y-89836360D01*
X158769844Y-89836360D01*
X160911000Y-88136360D01*
X169215168Y-88136360D01*
X169218240Y-88700610D01*
X169376990Y-88859360D01*
X170576240Y-88859360D01*
X170576240Y-87660110D01*
X170830240Y-87660110D01*
X170830240Y-88859360D01*
X172029490Y-88859360D01*
X172188240Y-88700610D01*
X172191312Y-88136360D01*
X172179052Y-88011878D01*
X172142742Y-87892180D01*
X172083777Y-87781866D01*
X172004425Y-87685175D01*
X171907734Y-87605823D01*
X171797420Y-87546858D01*
X171677722Y-87510548D01*
X171553240Y-87498288D01*
X170988990Y-87501360D01*
X170830240Y-87660110D01*
X170576240Y-87660110D01*
X170417490Y-87501360D01*
X169853240Y-87498288D01*
X169728758Y-87510548D01*
X169609060Y-87546858D01*
X169498746Y-87605823D01*
X169402055Y-87685175D01*
X169322703Y-87781866D01*
X169263738Y-87892180D01*
X169227428Y-88011878D01*
X169215168Y-88136360D01*
X160911000Y-88136360D01*
X162579740Y-86811442D01*
X176279140Y-86601284D01*
X176271814Y-96431774D01*
X174003400Y-96423992D01*
X174002449Y-96423898D01*
X173971122Y-96423881D01*
X173939526Y-96423773D01*
X173938567Y-96423864D01*
X103058893Y-96386296D01*
X103082137Y-96357974D01*
X103141102Y-96247660D01*
X103177412Y-96127962D01*
X103189672Y-96003480D01*
X103189672Y-94303480D01*
X103177412Y-94178998D01*
X103141102Y-94059300D01*
X103082137Y-93948986D01*
X103002785Y-93852295D01*
X102906094Y-93772943D01*
X102795780Y-93713978D01*
X102723220Y-93691967D01*
X102855075Y-93560112D01*
X103017590Y-93316891D01*
X103046605Y-93246840D01*
X110612288Y-93246840D01*
X110612288Y-94946840D01*
X110624548Y-95071322D01*
X110660858Y-95191020D01*
X110719823Y-95301334D01*
X110799175Y-95398025D01*
X110895866Y-95477377D01*
X111006180Y-95536342D01*
X111125878Y-95572652D01*
X111250360Y-95584912D01*
X112950360Y-95584912D01*
X113074842Y-95572652D01*
X113194540Y-95536342D01*
X113304854Y-95477377D01*
X113401545Y-95398025D01*
X113480897Y-95301334D01*
X113539862Y-95191020D01*
X113576172Y-95071322D01*
X113588432Y-94946840D01*
X113588432Y-93246840D01*
X113576172Y-93122358D01*
X113539862Y-93002660D01*
X113480897Y-92892346D01*
X113401545Y-92795655D01*
X113304854Y-92716303D01*
X113194540Y-92657338D01*
X113121980Y-92635327D01*
X113253835Y-92503472D01*
X113416350Y-92260251D01*
X113528292Y-91989998D01*
X113585360Y-91703100D01*
X113585360Y-91410580D01*
X113528292Y-91123682D01*
X113416350Y-90853429D01*
X113253835Y-90610208D01*
X113046992Y-90403365D01*
X112872600Y-90286840D01*
X113046992Y-90170315D01*
X113253835Y-89963472D01*
X113416350Y-89720251D01*
X113528292Y-89449998D01*
X113585360Y-89163100D01*
X113585360Y-88870580D01*
X113528292Y-88583682D01*
X113416350Y-88313429D01*
X113253835Y-88070208D01*
X113046992Y-87863365D01*
X112872600Y-87746840D01*
X113046992Y-87630315D01*
X113253835Y-87423472D01*
X113416350Y-87180251D01*
X113528292Y-86909998D01*
X113585360Y-86623100D01*
X113585360Y-86330580D01*
X113528292Y-86043682D01*
X113416350Y-85773429D01*
X113253835Y-85530208D01*
X113046992Y-85323365D01*
X112803771Y-85160850D01*
X112533518Y-85048908D01*
X112246620Y-84991840D01*
X111954100Y-84991840D01*
X111667202Y-85048908D01*
X111396949Y-85160850D01*
X111153728Y-85323365D01*
X110946885Y-85530208D01*
X110784370Y-85773429D01*
X110672428Y-86043682D01*
X110615360Y-86330580D01*
X110615360Y-86623100D01*
X110672428Y-86909998D01*
X110784370Y-87180251D01*
X110946885Y-87423472D01*
X111153728Y-87630315D01*
X111328120Y-87746840D01*
X111153728Y-87863365D01*
X110946885Y-88070208D01*
X110784370Y-88313429D01*
X110672428Y-88583682D01*
X110615360Y-88870580D01*
X110615360Y-89163100D01*
X110672428Y-89449998D01*
X110784370Y-89720251D01*
X110946885Y-89963472D01*
X111153728Y-90170315D01*
X111328120Y-90286840D01*
X111153728Y-90403365D01*
X110946885Y-90610208D01*
X110784370Y-90853429D01*
X110672428Y-91123682D01*
X110615360Y-91410580D01*
X110615360Y-91703100D01*
X110672428Y-91989998D01*
X110784370Y-92260251D01*
X110946885Y-92503472D01*
X111078740Y-92635327D01*
X111006180Y-92657338D01*
X110895866Y-92716303D01*
X110799175Y-92795655D01*
X110719823Y-92892346D01*
X110660858Y-93002660D01*
X110624548Y-93122358D01*
X110612288Y-93246840D01*
X103046605Y-93246840D01*
X103129532Y-93046638D01*
X103186600Y-92759740D01*
X103186600Y-92467220D01*
X103129532Y-92180322D01*
X103017590Y-91910069D01*
X102855075Y-91666848D01*
X102648232Y-91460005D01*
X102473840Y-91343480D01*
X102648232Y-91226955D01*
X102855075Y-91020112D01*
X103017590Y-90776891D01*
X103129532Y-90506638D01*
X103186600Y-90219740D01*
X103186600Y-89927220D01*
X103129532Y-89640322D01*
X103017590Y-89370069D01*
X102855075Y-89126848D01*
X102648232Y-88920005D01*
X102473840Y-88803480D01*
X102648232Y-88686955D01*
X102855075Y-88480112D01*
X102979778Y-88293480D01*
X105338939Y-88293480D01*
X105822768Y-88777310D01*
X105822768Y-89034330D01*
X105839232Y-89201488D01*
X105887990Y-89362222D01*
X105967169Y-89510355D01*
X106073725Y-89640195D01*
X106203565Y-89746751D01*
X106351698Y-89825930D01*
X106512432Y-89874688D01*
X106679590Y-89891152D01*
X107117090Y-89891152D01*
X107284248Y-89874688D01*
X107444982Y-89825930D01*
X107593115Y-89746751D01*
X107685840Y-89670654D01*
X107778565Y-89746751D01*
X107926698Y-89825930D01*
X108087432Y-89874688D01*
X108254590Y-89891152D01*
X108692090Y-89891152D01*
X108859248Y-89874688D01*
X109019982Y-89825930D01*
X109168115Y-89746751D01*
X109297955Y-89640195D01*
X109404511Y-89510355D01*
X109483690Y-89362222D01*
X109532448Y-89201488D01*
X109548912Y-89034330D01*
X109548912Y-88521830D01*
X109532448Y-88354672D01*
X109483690Y-88193938D01*
X109404511Y-88045805D01*
X109297955Y-87915965D01*
X109233340Y-87862937D01*
X109233340Y-86668564D01*
X109240625Y-86662585D01*
X109319977Y-86565894D01*
X109378942Y-86455580D01*
X109415252Y-86335882D01*
X109427512Y-86211400D01*
X109427512Y-85511400D01*
X109415252Y-85386918D01*
X109378942Y-85267220D01*
X109319977Y-85156906D01*
X109240625Y-85060215D01*
X109143934Y-84980863D01*
X109033620Y-84921898D01*
X108913922Y-84885588D01*
X108789440Y-84873328D01*
X108339440Y-84873328D01*
X108214958Y-84885588D01*
X108095260Y-84921898D01*
X107984946Y-84980863D01*
X107914046Y-85039049D01*
X107856448Y-84989441D01*
X107747567Y-84927871D01*
X107628766Y-84888725D01*
X107521190Y-84876400D01*
X107362440Y-85035150D01*
X107362440Y-85734400D01*
X107411440Y-85734400D01*
X107411440Y-85988400D01*
X107362440Y-85988400D01*
X107362440Y-86687650D01*
X107521190Y-86846400D01*
X107628766Y-86834075D01*
X107713341Y-86806207D01*
X107713340Y-87862937D01*
X107685840Y-87885506D01*
X107593115Y-87809409D01*
X107444982Y-87730230D01*
X107284248Y-87681472D01*
X107117090Y-87665008D01*
X106860070Y-87665008D01*
X106217544Y-87022483D01*
X106193741Y-86993479D01*
X106078016Y-86898506D01*
X105945987Y-86827934D01*
X105802726Y-86784477D01*
X105691073Y-86773480D01*
X105691062Y-86773480D01*
X105653740Y-86769804D01*
X105616418Y-86773480D01*
X102979778Y-86773480D01*
X102855075Y-86586848D01*
X102648232Y-86380005D01*
X102473840Y-86263480D01*
X102574488Y-86196229D01*
X106401548Y-86196229D01*
X106410846Y-86320967D01*
X106444299Y-86441495D01*
X106500624Y-86553180D01*
X106577655Y-86651730D01*
X106672432Y-86733359D01*
X106781313Y-86794929D01*
X106900114Y-86834075D01*
X107007690Y-86846400D01*
X107166440Y-86687650D01*
X107166440Y-85988400D01*
X106563190Y-85988400D01*
X106404440Y-86147150D01*
X106401548Y-86196229D01*
X102574488Y-86196229D01*
X102648232Y-86146955D01*
X102855075Y-85940112D01*
X102979778Y-85753480D01*
X104295718Y-85753480D01*
X104333040Y-85757156D01*
X104370362Y-85753480D01*
X104370373Y-85753480D01*
X104482026Y-85742483D01*
X104625287Y-85699026D01*
X104757316Y-85628454D01*
X104873041Y-85533481D01*
X104878712Y-85526571D01*
X106401548Y-85526571D01*
X106404440Y-85575650D01*
X106563190Y-85734400D01*
X107166440Y-85734400D01*
X107166440Y-85035150D01*
X107007690Y-84876400D01*
X106900114Y-84888725D01*
X106781313Y-84927871D01*
X106672432Y-84989441D01*
X106577655Y-85071070D01*
X106500624Y-85169620D01*
X106444299Y-85281305D01*
X106410846Y-85401833D01*
X106401548Y-85526571D01*
X104878712Y-85526571D01*
X104896844Y-85504478D01*
X105779922Y-84621400D01*
X107204455Y-84621400D01*
X107238255Y-84662585D01*
X107334946Y-84741937D01*
X107445260Y-84800902D01*
X107564958Y-84837212D01*
X107689440Y-84849472D01*
X108139440Y-84849472D01*
X108263922Y-84837212D01*
X108383620Y-84800902D01*
X108493934Y-84741937D01*
X108590625Y-84662585D01*
X108669977Y-84565894D01*
X108728942Y-84455580D01*
X108765252Y-84335882D01*
X108777512Y-84211400D01*
X108777512Y-83511400D01*
X108765252Y-83386918D01*
X108743024Y-83313640D01*
X110693568Y-83313640D01*
X110705828Y-83438122D01*
X110742138Y-83557820D01*
X110801103Y-83668134D01*
X110880455Y-83764825D01*
X110977146Y-83844177D01*
X111087460Y-83903142D01*
X111207158Y-83939452D01*
X111331640Y-83951712D01*
X111895890Y-83948640D01*
X112054640Y-83789890D01*
X112054640Y-82590640D01*
X112308640Y-82590640D01*
X112308640Y-83789890D01*
X112467390Y-83948640D01*
X113031640Y-83951712D01*
X113156122Y-83939452D01*
X113275820Y-83903142D01*
X113386134Y-83844177D01*
X113482825Y-83764825D01*
X113562177Y-83668134D01*
X113621142Y-83557820D01*
X113657452Y-83438122D01*
X113669712Y-83313640D01*
X113666640Y-82749390D01*
X113507890Y-82590640D01*
X112308640Y-82590640D01*
X112054640Y-82590640D01*
X110855390Y-82590640D01*
X110696640Y-82749390D01*
X110693568Y-83313640D01*
X108743024Y-83313640D01*
X108728942Y-83267220D01*
X108674440Y-83165256D01*
X108674440Y-81613640D01*
X110693568Y-81613640D01*
X110696640Y-82177890D01*
X110855390Y-82336640D01*
X112054640Y-82336640D01*
X112054640Y-82316640D01*
X112308640Y-82316640D01*
X112308640Y-82336640D01*
X113507890Y-82336640D01*
X113666640Y-82177890D01*
X113669712Y-81613640D01*
X113657452Y-81489158D01*
X113621142Y-81369460D01*
X113562177Y-81259146D01*
X113482825Y-81162455D01*
X113386134Y-81083103D01*
X113275820Y-81024138D01*
X113203260Y-81002127D01*
X113335115Y-80870272D01*
X113497630Y-80627051D01*
X113609572Y-80356798D01*
X113666640Y-80069900D01*
X113666640Y-79777380D01*
X113609572Y-79490482D01*
X113497630Y-79220229D01*
X113335115Y-78977008D01*
X113128272Y-78770165D01*
X112953880Y-78653640D01*
X113128272Y-78537115D01*
X113335115Y-78330272D01*
X113497630Y-78087051D01*
X113609572Y-77816798D01*
X113666640Y-77529900D01*
X113666640Y-77237380D01*
X113609572Y-76950482D01*
X113497630Y-76680229D01*
X113335115Y-76437008D01*
X113128272Y-76230165D01*
X112953880Y-76113640D01*
X113128272Y-75997115D01*
X113335115Y-75790272D01*
X113497630Y-75547051D01*
X113609572Y-75276798D01*
X113666640Y-74989900D01*
X113666640Y-74697380D01*
X113609572Y-74410482D01*
X113497630Y-74140229D01*
X113335115Y-73897008D01*
X113128272Y-73690165D01*
X112885051Y-73527650D01*
X112614798Y-73415708D01*
X112327900Y-73358640D01*
X112035380Y-73358640D01*
X111748482Y-73415708D01*
X111478229Y-73527650D01*
X111235008Y-73690165D01*
X111028165Y-73897008D01*
X110865650Y-74140229D01*
X110753708Y-74410482D01*
X110696640Y-74697380D01*
X110696640Y-74989900D01*
X110753708Y-75276798D01*
X110865650Y-75547051D01*
X111028165Y-75790272D01*
X111235008Y-75997115D01*
X111409400Y-76113640D01*
X111235008Y-76230165D01*
X111028165Y-76437008D01*
X110865650Y-76680229D01*
X110753708Y-76950482D01*
X110696640Y-77237380D01*
X110696640Y-77529900D01*
X110753708Y-77816798D01*
X110865650Y-78087051D01*
X111028165Y-78330272D01*
X111235008Y-78537115D01*
X111409400Y-78653640D01*
X111235008Y-78770165D01*
X111028165Y-78977008D01*
X110865650Y-79220229D01*
X110753708Y-79490482D01*
X110696640Y-79777380D01*
X110696640Y-80069900D01*
X110753708Y-80356798D01*
X110865650Y-80627051D01*
X111028165Y-80870272D01*
X111160020Y-81002127D01*
X111087460Y-81024138D01*
X110977146Y-81083103D01*
X110880455Y-81162455D01*
X110801103Y-81259146D01*
X110742138Y-81369460D01*
X110705828Y-81489158D01*
X110693568Y-81613640D01*
X108674440Y-81613640D01*
X108674440Y-75351481D01*
X110825122Y-73200800D01*
X114300159Y-73200800D01*
X115358641Y-74259283D01*
X115358640Y-85051556D01*
X115354964Y-85088878D01*
X115358640Y-85126200D01*
X115358640Y-85126210D01*
X115369637Y-85237863D01*
X115413094Y-85381124D01*
X115483666Y-85513154D01*
X115519879Y-85557279D01*
X115578639Y-85628879D01*
X115607643Y-85652682D01*
X123648403Y-93693443D01*
X123672201Y-93722441D01*
X123701199Y-93746239D01*
X123787925Y-93817414D01*
X123919955Y-93887986D01*
X124063216Y-93931443D01*
X124174869Y-93942440D01*
X124174878Y-93942440D01*
X124212201Y-93946116D01*
X124249524Y-93942440D01*
X134948438Y-93942440D01*
X134985760Y-93946116D01*
X135023082Y-93942440D01*
X135023093Y-93942440D01*
X135134746Y-93931443D01*
X135278007Y-93887986D01*
X135410036Y-93817414D01*
X135525761Y-93722441D01*
X135549564Y-93693437D01*
X136858203Y-92384799D01*
X136887201Y-92361001D01*
X136919837Y-92321234D01*
X136982174Y-92245277D01*
X137052746Y-92113247D01*
X137083410Y-92012158D01*
X137096203Y-91969986D01*
X137107200Y-91858333D01*
X137107200Y-91858323D01*
X137110876Y-91821000D01*
X137107200Y-91783677D01*
X137107200Y-91602192D01*
X137197200Y-91602192D01*
X137321682Y-91589932D01*
X137441380Y-91553622D01*
X137551694Y-91494657D01*
X137648385Y-91415305D01*
X137727737Y-91318614D01*
X137786702Y-91208300D01*
X137823012Y-91088602D01*
X137835272Y-90964120D01*
X137835272Y-89264120D01*
X137823012Y-89139638D01*
X137786702Y-89019940D01*
X137727737Y-88909626D01*
X137648385Y-88812935D01*
X137551694Y-88733583D01*
X137441380Y-88674618D01*
X137321682Y-88638308D01*
X137197200Y-88626048D01*
X135497200Y-88626048D01*
X135372718Y-88638308D01*
X135253020Y-88674618D01*
X135142706Y-88733583D01*
X135046015Y-88812935D01*
X134966663Y-88909626D01*
X134907698Y-89019940D01*
X134883234Y-89100586D01*
X134807469Y-89016532D01*
X134574120Y-88842479D01*
X134311299Y-88717295D01*
X134164090Y-88672644D01*
X133934200Y-88793965D01*
X133934200Y-89987120D01*
X133954200Y-89987120D01*
X133954200Y-90241120D01*
X133934200Y-90241120D01*
X133934200Y-91434275D01*
X134164090Y-91555596D01*
X134311299Y-91510945D01*
X134574120Y-91385761D01*
X134807469Y-91211708D01*
X134883234Y-91127654D01*
X134907698Y-91208300D01*
X134966663Y-91318614D01*
X135046015Y-91415305D01*
X135142706Y-91494657D01*
X135253020Y-91553622D01*
X135372718Y-91589932D01*
X135491744Y-91601655D01*
X134670959Y-92422440D01*
X124527004Y-92422440D01*
X122575575Y-90471011D01*
X132365719Y-90471011D01*
X132463043Y-90745372D01*
X132612022Y-90995475D01*
X132806931Y-91211708D01*
X133040280Y-91385761D01*
X133303101Y-91510945D01*
X133450310Y-91555596D01*
X133680200Y-91434275D01*
X133680200Y-90241120D01*
X132486386Y-90241120D01*
X132365719Y-90471011D01*
X122575575Y-90471011D01*
X121861793Y-89757229D01*
X132365719Y-89757229D01*
X132486386Y-89987120D01*
X133680200Y-89987120D01*
X133680200Y-88793965D01*
X133450310Y-88672644D01*
X133303101Y-88717295D01*
X133040280Y-88842479D01*
X132806931Y-89016532D01*
X132612022Y-89232765D01*
X132463043Y-89482868D01*
X132365719Y-89757229D01*
X121861793Y-89757229D01*
X116878640Y-84774077D01*
X116878640Y-73981805D01*
X116882316Y-73944480D01*
X116878640Y-73907155D01*
X116878640Y-73907147D01*
X116867643Y-73795494D01*
X116824186Y-73652233D01*
X116753614Y-73520204D01*
X116658641Y-73404479D01*
X116629643Y-73380681D01*
X115178764Y-71929803D01*
X115154961Y-71900799D01*
X115039236Y-71805826D01*
X114907207Y-71735254D01*
X114764505Y-71691967D01*
X114923640Y-71689405D01*
X117467201Y-72848682D01*
G36*
X176311960Y-42560851D02*
G01*
X176282381Y-82252420D01*
X159284175Y-82148682D01*
X159259384Y-82150971D01*
X159235516Y-82158053D01*
X159213488Y-82169655D01*
X159195797Y-82183730D01*
X158025155Y-83299025D01*
X158076351Y-83130254D01*
X158089880Y-82992894D01*
X158089880Y-82992893D01*
X158094404Y-82946962D01*
X158089880Y-82901030D01*
X158089880Y-71102139D01*
X166776880Y-71102139D01*
X166776880Y-71483301D01*
X166851241Y-71857139D01*
X166997105Y-72209286D01*
X167208867Y-72526211D01*
X167478389Y-72795733D01*
X167795314Y-73007495D01*
X168147461Y-73153359D01*
X168521299Y-73227720D01*
X168902461Y-73227720D01*
X169276299Y-73153359D01*
X169628446Y-73007495D01*
X169945371Y-72795733D01*
X170214893Y-72526211D01*
X170426655Y-72209286D01*
X170572519Y-71857139D01*
X170646880Y-71483301D01*
X170646880Y-71102139D01*
X170572519Y-70728301D01*
X170426655Y-70376154D01*
X170214893Y-70059229D01*
X169945371Y-69789707D01*
X169628446Y-69577945D01*
X169276299Y-69432081D01*
X168902461Y-69357720D01*
X168521299Y-69357720D01*
X168147461Y-69432081D01*
X167795314Y-69577945D01*
X167478389Y-69789707D01*
X167208867Y-70059229D01*
X166997105Y-70376154D01*
X166851241Y-70728301D01*
X166776880Y-71102139D01*
X158089880Y-71102139D01*
X158089880Y-64912720D01*
X166773808Y-64912720D01*
X166773808Y-67512720D01*
X166786068Y-67637202D01*
X166822378Y-67756900D01*
X166881343Y-67867214D01*
X166960695Y-67963905D01*
X167057386Y-68043257D01*
X167167700Y-68102222D01*
X167287398Y-68138532D01*
X167411880Y-68150792D01*
X170011880Y-68150792D01*
X170136362Y-68138532D01*
X170256060Y-68102222D01*
X170366374Y-68043257D01*
X170463065Y-67963905D01*
X170542417Y-67867214D01*
X170601382Y-67756900D01*
X170637692Y-67637202D01*
X170649952Y-67512720D01*
X170649952Y-64912720D01*
X170637692Y-64788238D01*
X170601382Y-64668540D01*
X170542417Y-64558226D01*
X170463065Y-64461535D01*
X170366374Y-64382183D01*
X170256060Y-64323218D01*
X170136362Y-64286908D01*
X170011880Y-64274648D01*
X167411880Y-64274648D01*
X167287398Y-64286908D01*
X167167700Y-64323218D01*
X167057386Y-64382183D01*
X166960695Y-64461535D01*
X166881343Y-64558226D01*
X166822378Y-64668540D01*
X166786068Y-64788238D01*
X166773808Y-64912720D01*
X158089880Y-64912720D01*
X158089880Y-58750412D01*
X158094404Y-58704480D01*
X158076351Y-58521188D01*
X158056155Y-58454611D01*
X158022887Y-58344940D01*
X157936066Y-58182508D01*
X157819224Y-58040136D01*
X157783539Y-58010850D01*
X156803228Y-57030539D01*
X167000400Y-57030539D01*
X167000400Y-57411701D01*
X167074761Y-57785539D01*
X167220625Y-58137686D01*
X167432387Y-58454611D01*
X167701909Y-58724133D01*
X168018834Y-58935895D01*
X168370981Y-59081759D01*
X168744819Y-59156120D01*
X169125981Y-59156120D01*
X169499819Y-59081759D01*
X169851966Y-58935895D01*
X170168891Y-58724133D01*
X170438413Y-58454611D01*
X170650175Y-58137686D01*
X170796039Y-57785539D01*
X170870400Y-57411701D01*
X170870400Y-57030539D01*
X170796039Y-56656701D01*
X170650175Y-56304554D01*
X170438413Y-55987629D01*
X170168891Y-55718107D01*
X169851966Y-55506345D01*
X169499819Y-55360481D01*
X169125981Y-55286120D01*
X168744819Y-55286120D01*
X168370981Y-55360481D01*
X168018834Y-55506345D01*
X167701909Y-55718107D01*
X167432387Y-55987629D01*
X167220625Y-56304554D01*
X167074761Y-56656701D01*
X167000400Y-57030539D01*
X156803228Y-57030539D01*
X154811158Y-55038469D01*
X154851280Y-54836763D01*
X154851280Y-54494997D01*
X154784605Y-54159799D01*
X154653817Y-53844049D01*
X154463943Y-53559882D01*
X154222278Y-53318217D01*
X153938111Y-53128343D01*
X153622361Y-52997555D01*
X153287163Y-52930880D01*
X152945397Y-52930880D01*
X152610199Y-52997555D01*
X152294449Y-53128343D01*
X152010282Y-53318217D01*
X151768617Y-53559882D01*
X151578743Y-53844049D01*
X151447955Y-54159799D01*
X151381280Y-54494997D01*
X151381280Y-54836763D01*
X151447955Y-55171961D01*
X151578743Y-55487711D01*
X151768617Y-55771878D01*
X152010282Y-56013543D01*
X152294449Y-56203417D01*
X152610199Y-56334205D01*
X152945397Y-56400880D01*
X153287163Y-56400880D01*
X153488869Y-56360758D01*
X156219881Y-59091770D01*
X156219880Y-82559673D01*
X154946011Y-83833542D01*
X154938975Y-83810346D01*
X154788931Y-83505111D01*
X154582222Y-83235013D01*
X154326791Y-83010432D01*
X154032454Y-82839998D01*
X153710523Y-82730261D01*
X153441400Y-82847840D01*
X153441400Y-84292440D01*
X153461400Y-84292440D01*
X153461400Y-84546440D01*
X153441400Y-84546440D01*
X153441400Y-84566440D01*
X153187400Y-84566440D01*
X153187400Y-84546440D01*
X151743275Y-84546440D01*
X151625225Y-84815562D01*
X151689825Y-85028534D01*
X151839869Y-85333769D01*
X152046578Y-85603867D01*
X152302009Y-85828448D01*
X152596346Y-85998882D01*
X152733813Y-86045740D01*
X152577313Y-86202240D01*
X140566864Y-86202240D01*
X138728447Y-83833572D01*
X138711328Y-83815495D01*
X138691012Y-83801106D01*
X138668278Y-83790956D01*
X138644001Y-83785437D01*
X138628120Y-83784440D01*
X127209769Y-83784440D01*
X127182760Y-83757431D01*
X127198318Y-83758963D01*
X127244250Y-83754439D01*
X141416328Y-83754439D01*
X141416328Y-85519440D01*
X141428588Y-85643922D01*
X141464898Y-85763620D01*
X141523863Y-85873934D01*
X141603215Y-85970625D01*
X141699906Y-86049977D01*
X141810220Y-86108942D01*
X141929918Y-86145252D01*
X142054400Y-86157512D01*
X144254400Y-86157512D01*
X144378882Y-86145252D01*
X144498580Y-86108942D01*
X144608894Y-86049977D01*
X144705585Y-85970625D01*
X144784937Y-85873934D01*
X144843902Y-85763620D01*
X144880212Y-85643922D01*
X144892472Y-85519440D01*
X144892472Y-84023318D01*
X151625225Y-84023318D01*
X151743275Y-84292440D01*
X153187400Y-84292440D01*
X153187400Y-82847840D01*
X152918277Y-82730261D01*
X152596346Y-82839998D01*
X152302009Y-83010432D01*
X152046578Y-83235013D01*
X151839869Y-83505111D01*
X151689825Y-83810346D01*
X151625225Y-84023318D01*
X144892472Y-84023318D01*
X144892472Y-83754439D01*
X145074229Y-83754439D01*
X145120161Y-83758963D01*
X145166093Y-83754439D01*
X145303453Y-83740910D01*
X145479701Y-83687446D01*
X145642133Y-83600625D01*
X145784505Y-83483783D01*
X145813791Y-83448098D01*
X148624306Y-80637584D01*
X148659984Y-80608304D01*
X148776826Y-80465932D01*
X148863647Y-80303500D01*
X148911276Y-80146487D01*
X148917111Y-80127253D01*
X148935164Y-79943961D01*
X148930640Y-79898029D01*
X148930640Y-77451450D01*
X149491494Y-78012304D01*
X149520776Y-78047984D01*
X149663148Y-78164826D01*
X149825580Y-78251647D01*
X149948363Y-78288893D01*
X150001827Y-78305111D01*
X150185119Y-78323164D01*
X150231051Y-78318640D01*
X150239791Y-78318640D01*
X151619522Y-79698371D01*
X151579400Y-79900077D01*
X151579400Y-80241843D01*
X151646075Y-80577041D01*
X151776863Y-80892791D01*
X151966737Y-81176958D01*
X152208402Y-81418623D01*
X152492569Y-81608497D01*
X152808319Y-81739285D01*
X153143517Y-81805960D01*
X153485283Y-81805960D01*
X153820481Y-81739285D01*
X154136231Y-81608497D01*
X154420398Y-81418623D01*
X154662063Y-81176958D01*
X154851937Y-80892791D01*
X154982725Y-80577041D01*
X155049400Y-80241843D01*
X155049400Y-79900077D01*
X154982725Y-79564879D01*
X154851937Y-79249129D01*
X154662063Y-78964962D01*
X154420398Y-78723297D01*
X154136231Y-78533423D01*
X153820481Y-78402635D01*
X153485283Y-78335960D01*
X153143517Y-78335960D01*
X152941811Y-78376082D01*
X151320710Y-76754981D01*
X151291424Y-76719296D01*
X151149052Y-76602454D01*
X151051669Y-76550402D01*
X151538865Y-76550402D01*
X151603465Y-76763374D01*
X151753509Y-77068609D01*
X151960218Y-77338707D01*
X152215649Y-77563288D01*
X152509986Y-77733722D01*
X152831917Y-77843459D01*
X153101040Y-77725880D01*
X153101040Y-76281280D01*
X153355040Y-76281280D01*
X153355040Y-77725880D01*
X153624163Y-77843459D01*
X153946094Y-77733722D01*
X154240431Y-77563288D01*
X154495862Y-77338707D01*
X154702571Y-77068609D01*
X154852615Y-76763374D01*
X154917215Y-76550402D01*
X154799165Y-76281280D01*
X153355040Y-76281280D01*
X153101040Y-76281280D01*
X151656915Y-76281280D01*
X151538865Y-76550402D01*
X151051669Y-76550402D01*
X150986620Y-76515633D01*
X150810372Y-76462169D01*
X150673012Y-76448640D01*
X150627080Y-76444116D01*
X150581148Y-76448640D01*
X150572410Y-76448640D01*
X149881928Y-75758158D01*
X151538865Y-75758158D01*
X151656915Y-76027280D01*
X153101040Y-76027280D01*
X153101040Y-74582680D01*
X153355040Y-74582680D01*
X153355040Y-76027280D01*
X154799165Y-76027280D01*
X154917215Y-75758158D01*
X154852615Y-75545186D01*
X154702571Y-75239951D01*
X154495862Y-74969853D01*
X154240431Y-74745272D01*
X153946094Y-74574838D01*
X153624163Y-74465101D01*
X153355040Y-74582680D01*
X153101040Y-74582680D01*
X152831917Y-74465101D01*
X152509986Y-74574838D01*
X152215649Y-74745272D01*
X151960218Y-74969853D01*
X151753509Y-75239951D01*
X151603465Y-75545186D01*
X151538865Y-75758158D01*
X149881928Y-75758158D01*
X149306560Y-75182791D01*
X149306560Y-71807637D01*
X151493040Y-71807637D01*
X151493040Y-72149403D01*
X151559715Y-72484601D01*
X151690503Y-72800351D01*
X151880377Y-73084518D01*
X152122042Y-73326183D01*
X152406209Y-73516057D01*
X152721959Y-73646845D01*
X153057157Y-73713520D01*
X153398923Y-73713520D01*
X153734121Y-73646845D01*
X154049871Y-73516057D01*
X154334038Y-73326183D01*
X154575703Y-73084518D01*
X154765577Y-72800351D01*
X154896365Y-72484601D01*
X154963040Y-72149403D01*
X154963040Y-71807637D01*
X154896365Y-71472439D01*
X154765577Y-71156689D01*
X154575703Y-70872522D01*
X154334038Y-70630857D01*
X154049871Y-70440983D01*
X153734121Y-70310195D01*
X153398923Y-70243520D01*
X153057157Y-70243520D01*
X152721959Y-70310195D01*
X152406209Y-70440983D01*
X152122042Y-70630857D01*
X151880377Y-70872522D01*
X151690503Y-71156689D01*
X151559715Y-71472439D01*
X151493040Y-71807637D01*
X149306560Y-71807637D01*
X149306560Y-68198882D01*
X151538865Y-68198882D01*
X151603465Y-68411854D01*
X151753509Y-68717089D01*
X151960218Y-68987187D01*
X152215649Y-69211768D01*
X152509986Y-69382202D01*
X152831917Y-69491939D01*
X153101040Y-69374360D01*
X153101040Y-67929760D01*
X153355040Y-67929760D01*
X153355040Y-69374360D01*
X153624163Y-69491939D01*
X153946094Y-69382202D01*
X154240431Y-69211768D01*
X154495862Y-68987187D01*
X154702571Y-68717089D01*
X154852615Y-68411854D01*
X154917215Y-68198882D01*
X154799165Y-67929760D01*
X153355040Y-67929760D01*
X153101040Y-67929760D01*
X151656915Y-67929760D01*
X151538865Y-68198882D01*
X149306560Y-68198882D01*
X149306560Y-67406638D01*
X151538865Y-67406638D01*
X151656915Y-67675760D01*
X153101040Y-67675760D01*
X153101040Y-66231160D01*
X153355040Y-66231160D01*
X153355040Y-67675760D01*
X154799165Y-67675760D01*
X154917215Y-67406638D01*
X154852615Y-67193666D01*
X154702571Y-66888431D01*
X154495862Y-66618333D01*
X154240431Y-66393752D01*
X153946094Y-66223318D01*
X153624163Y-66113581D01*
X153355040Y-66231160D01*
X153101040Y-66231160D01*
X152831917Y-66113581D01*
X152509986Y-66223318D01*
X152215649Y-66393752D01*
X151960218Y-66618333D01*
X151753509Y-66888431D01*
X151603465Y-67193666D01*
X151538865Y-67406638D01*
X149306560Y-67406638D01*
X149306560Y-66715855D01*
X149311084Y-66669920D01*
X149293032Y-66486628D01*
X149239567Y-66310379D01*
X149197223Y-66231160D01*
X149152746Y-66147948D01*
X149035904Y-66005576D01*
X149000220Y-65976291D01*
X148084750Y-65060821D01*
X148055464Y-65025136D01*
X147913092Y-64908294D01*
X147750660Y-64821473D01*
X147574412Y-64768009D01*
X147437052Y-64754480D01*
X147391120Y-64749956D01*
X147345188Y-64754480D01*
X144684523Y-64754480D01*
X144707492Y-64678762D01*
X144719752Y-64554280D01*
X144719752Y-63283397D01*
X151406680Y-63283397D01*
X151406680Y-63625163D01*
X151473355Y-63960361D01*
X151604143Y-64276111D01*
X151794017Y-64560278D01*
X152035682Y-64801943D01*
X152319849Y-64991817D01*
X152635599Y-65122605D01*
X152970797Y-65189280D01*
X153312563Y-65189280D01*
X153647761Y-65122605D01*
X153963511Y-64991817D01*
X154247678Y-64801943D01*
X154489343Y-64560278D01*
X154679217Y-64276111D01*
X154810005Y-63960361D01*
X154876680Y-63625163D01*
X154876680Y-63283397D01*
X154810005Y-62948199D01*
X154679217Y-62632449D01*
X154489343Y-62348282D01*
X154247678Y-62106617D01*
X153963511Y-61916743D01*
X153647761Y-61785955D01*
X153312563Y-61719280D01*
X152970797Y-61719280D01*
X152635599Y-61785955D01*
X152319849Y-61916743D01*
X152035682Y-62106617D01*
X151794017Y-62348282D01*
X151604143Y-62632449D01*
X151473355Y-62948199D01*
X151406680Y-63283397D01*
X144719752Y-63283397D01*
X144719752Y-62354280D01*
X144707492Y-62229798D01*
X144671182Y-62110100D01*
X144612217Y-61999786D01*
X144532865Y-61903095D01*
X144436174Y-61823743D01*
X144325860Y-61764778D01*
X144206162Y-61728468D01*
X144081680Y-61716208D01*
X141881680Y-61716208D01*
X141757198Y-61728468D01*
X141637500Y-61764778D01*
X141527186Y-61823743D01*
X141430495Y-61903095D01*
X141351143Y-61999786D01*
X141292178Y-62110100D01*
X141255868Y-62229798D01*
X141243608Y-62354280D01*
X141243608Y-64554280D01*
X141255868Y-64678762D01*
X141278837Y-64754480D01*
X137206929Y-64754480D01*
X136009280Y-63556831D01*
X136009280Y-63302785D01*
X135954133Y-63025546D01*
X135845960Y-62764393D01*
X135688917Y-62529361D01*
X135489039Y-62329483D01*
X135256521Y-62174120D01*
X135489039Y-62018757D01*
X135688917Y-61818879D01*
X135845960Y-61583847D01*
X135954133Y-61322694D01*
X136009280Y-61045455D01*
X136009280Y-60762785D01*
X135954133Y-60485546D01*
X135845960Y-60224393D01*
X135688917Y-59989361D01*
X135489039Y-59789483D01*
X135256521Y-59634120D01*
X135489039Y-59478757D01*
X135688917Y-59278879D01*
X135845960Y-59043847D01*
X135954133Y-58782694D01*
X136009280Y-58505455D01*
X136009280Y-58251409D01*
X136381889Y-57878800D01*
X141274088Y-57878800D01*
X141274088Y-60078800D01*
X141286348Y-60203282D01*
X141322658Y-60322980D01*
X141381623Y-60433294D01*
X141460975Y-60529985D01*
X141557666Y-60609337D01*
X141667980Y-60668302D01*
X141787678Y-60704612D01*
X141912160Y-60716872D01*
X144112160Y-60716872D01*
X144236642Y-60704612D01*
X144356340Y-60668302D01*
X144466654Y-60609337D01*
X144563345Y-60529985D01*
X144642697Y-60433294D01*
X144701662Y-60322980D01*
X144737972Y-60203282D01*
X144750232Y-60078800D01*
X144750232Y-59374922D01*
X151482985Y-59374922D01*
X151547585Y-59587894D01*
X151697629Y-59893129D01*
X151904338Y-60163227D01*
X152159769Y-60387808D01*
X152454106Y-60558242D01*
X152776037Y-60667979D01*
X153045160Y-60550400D01*
X153045160Y-59105800D01*
X153299160Y-59105800D01*
X153299160Y-60550400D01*
X153568283Y-60667979D01*
X153890214Y-60558242D01*
X154184551Y-60387808D01*
X154439982Y-60163227D01*
X154646691Y-59893129D01*
X154796735Y-59587894D01*
X154861335Y-59374922D01*
X154743285Y-59105800D01*
X153299160Y-59105800D01*
X153045160Y-59105800D01*
X151601035Y-59105800D01*
X151482985Y-59374922D01*
X144750232Y-59374922D01*
X144750232Y-58582678D01*
X151482985Y-58582678D01*
X151601035Y-58851800D01*
X153045160Y-58851800D01*
X153045160Y-57407200D01*
X153299160Y-57407200D01*
X153299160Y-58851800D01*
X154743285Y-58851800D01*
X154861335Y-58582678D01*
X154796735Y-58369706D01*
X154646691Y-58064471D01*
X154439982Y-57794373D01*
X154184551Y-57569792D01*
X153890214Y-57399358D01*
X153568283Y-57289621D01*
X153299160Y-57407200D01*
X153045160Y-57407200D01*
X152776037Y-57289621D01*
X152454106Y-57399358D01*
X152159769Y-57569792D01*
X151904338Y-57794373D01*
X151697629Y-58064471D01*
X151547585Y-58369706D01*
X151482985Y-58582678D01*
X144750232Y-58582678D01*
X144750232Y-57878800D01*
X144737972Y-57754318D01*
X144701662Y-57634620D01*
X144642697Y-57524306D01*
X144563345Y-57427615D01*
X144466654Y-57348263D01*
X144356340Y-57289298D01*
X144236642Y-57252988D01*
X144112160Y-57240728D01*
X141912160Y-57240728D01*
X141787678Y-57252988D01*
X141667980Y-57289298D01*
X141557666Y-57348263D01*
X141460975Y-57427615D01*
X141381623Y-57524306D01*
X141322658Y-57634620D01*
X141286348Y-57754318D01*
X141274088Y-57878800D01*
X136381889Y-57878800D01*
X140694809Y-53565880D01*
X141218208Y-53565880D01*
X141218208Y-55765880D01*
X141230468Y-55890362D01*
X141266778Y-56010060D01*
X141325743Y-56120374D01*
X141405095Y-56217065D01*
X141501786Y-56296417D01*
X141612100Y-56355382D01*
X141731798Y-56391692D01*
X141856280Y-56403952D01*
X144056280Y-56403952D01*
X144180762Y-56391692D01*
X144300460Y-56355382D01*
X144410774Y-56296417D01*
X144507465Y-56217065D01*
X144586817Y-56120374D01*
X144645782Y-56010060D01*
X144682092Y-55890362D01*
X144694352Y-55765880D01*
X144694352Y-55600880D01*
X147939548Y-55600880D01*
X147985480Y-55605404D01*
X148031412Y-55600880D01*
X148168772Y-55587351D01*
X148345020Y-55533887D01*
X148507452Y-55447066D01*
X148649824Y-55330224D01*
X148766666Y-55187852D01*
X148853487Y-55025420D01*
X148906951Y-54849172D01*
X148925004Y-54665880D01*
X148920480Y-54619948D01*
X148920480Y-50841120D01*
X166997328Y-50841120D01*
X166997328Y-53441120D01*
X167009588Y-53565602D01*
X167045898Y-53685300D01*
X167104863Y-53795614D01*
X167184215Y-53892305D01*
X167280906Y-53971657D01*
X167391220Y-54030622D01*
X167510918Y-54066932D01*
X167635400Y-54079192D01*
X170235400Y-54079192D01*
X170359882Y-54066932D01*
X170479580Y-54030622D01*
X170589894Y-53971657D01*
X170686585Y-53892305D01*
X170765937Y-53795614D01*
X170824902Y-53685300D01*
X170861212Y-53565602D01*
X170873472Y-53441120D01*
X170873472Y-50841120D01*
X170861212Y-50716638D01*
X170824902Y-50596940D01*
X170765937Y-50486626D01*
X170686585Y-50389935D01*
X170589894Y-50310583D01*
X170479580Y-50251618D01*
X170359882Y-50215308D01*
X170235400Y-50203048D01*
X167635400Y-50203048D01*
X167510918Y-50215308D01*
X167391220Y-50251618D01*
X167280906Y-50310583D01*
X167184215Y-50389935D01*
X167104863Y-50486626D01*
X167045898Y-50596940D01*
X167009588Y-50716638D01*
X166997328Y-50841120D01*
X148920480Y-50841120D01*
X148920480Y-47727809D01*
X149251457Y-47396832D01*
X150167240Y-47396832D01*
X150291722Y-47384572D01*
X150411420Y-47348262D01*
X150521734Y-47289297D01*
X150618425Y-47209945D01*
X150697777Y-47113254D01*
X150756742Y-47002940D01*
X150772357Y-46951462D01*
X151054143Y-46951462D01*
X151125726Y-47195431D01*
X151381236Y-47316331D01*
X151655424Y-47385060D01*
X151937752Y-47398977D01*
X152217370Y-47357547D01*
X152483532Y-47262363D01*
X152608754Y-47195431D01*
X152680337Y-46951462D01*
X151867240Y-46138365D01*
X151054143Y-46951462D01*
X150772357Y-46951462D01*
X150793052Y-46883242D01*
X150805312Y-46758760D01*
X150805312Y-46751545D01*
X150874538Y-46771857D01*
X151687635Y-45958760D01*
X152046845Y-45958760D01*
X152859942Y-46771857D01*
X153103911Y-46700274D01*
X153224811Y-46444764D01*
X153293540Y-46170576D01*
X153307457Y-45888248D01*
X153266027Y-45608630D01*
X153170843Y-45342468D01*
X153103911Y-45217246D01*
X152859942Y-45145663D01*
X152046845Y-45958760D01*
X151687635Y-45958760D01*
X150874538Y-45145663D01*
X150805312Y-45165975D01*
X150805312Y-45158760D01*
X150793052Y-45034278D01*
X150772358Y-44966058D01*
X151054143Y-44966058D01*
X151867240Y-45779155D01*
X152680337Y-44966058D01*
X152608754Y-44722089D01*
X152353244Y-44601189D01*
X152079056Y-44532460D01*
X151796728Y-44518543D01*
X151517110Y-44559973D01*
X151250948Y-44655157D01*
X151125726Y-44722089D01*
X151054143Y-44966058D01*
X150772358Y-44966058D01*
X150756742Y-44914580D01*
X150697777Y-44804266D01*
X150618425Y-44707575D01*
X150521734Y-44628223D01*
X150411420Y-44569258D01*
X150291722Y-44532948D01*
X150167240Y-44520688D01*
X148567240Y-44520688D01*
X148442758Y-44532948D01*
X148323060Y-44569258D01*
X148212746Y-44628223D01*
X148116055Y-44707575D01*
X148036703Y-44804266D01*
X147977738Y-44914580D01*
X147941428Y-45034278D01*
X147929168Y-45158760D01*
X147929168Y-46074543D01*
X147356816Y-46646895D01*
X147321137Y-46676176D01*
X147204295Y-46818548D01*
X147126353Y-46964369D01*
X147117474Y-46980980D01*
X147064009Y-47157229D01*
X147045956Y-47340520D01*
X147050481Y-47386462D01*
X147050480Y-53730880D01*
X144694352Y-53730880D01*
X144694352Y-53565880D01*
X144682092Y-53441398D01*
X144645782Y-53321700D01*
X144586817Y-53211386D01*
X144507465Y-53114695D01*
X144410774Y-53035343D01*
X144300460Y-52976378D01*
X144180762Y-52940068D01*
X144056280Y-52927808D01*
X141856280Y-52927808D01*
X141731798Y-52940068D01*
X141612100Y-52976378D01*
X141501786Y-53035343D01*
X141405095Y-53114695D01*
X141325743Y-53211386D01*
X141266778Y-53321700D01*
X141230468Y-53441398D01*
X141218208Y-53565880D01*
X140694809Y-53565880D01*
X143236889Y-51023800D01*
X145998988Y-51023800D01*
X146044920Y-51028324D01*
X146090852Y-51023800D01*
X146228212Y-51010271D01*
X146404460Y-50956807D01*
X146566892Y-50869986D01*
X146709264Y-50753144D01*
X146826106Y-50610772D01*
X146912927Y-50448340D01*
X146966391Y-50272092D01*
X146984444Y-50088800D01*
X146979920Y-50042868D01*
X146979920Y-46827009D01*
X146984444Y-46781077D01*
X146974840Y-46683568D01*
X146974840Y-45116689D01*
X148286410Y-43805120D01*
X153313191Y-43805120D01*
X155948170Y-46440099D01*
X155977456Y-46475784D01*
X156119828Y-46592626D01*
X156195487Y-46633066D01*
X156282259Y-46679447D01*
X156458508Y-46732912D01*
X156641800Y-46750964D01*
X156687735Y-46746440D01*
X157002259Y-46746440D01*
X157035378Y-46855620D01*
X157094343Y-46965934D01*
X157173695Y-47062625D01*
X157270386Y-47141977D01*
X157380700Y-47200942D01*
X157500398Y-47237252D01*
X157624880Y-47249512D01*
X159224880Y-47249512D01*
X159349362Y-47237252D01*
X159469060Y-47200942D01*
X159579374Y-47141977D01*
X159676065Y-47062625D01*
X159755417Y-46965934D01*
X159814382Y-46855620D01*
X159829997Y-46804142D01*
X160111783Y-46804142D01*
X160183366Y-47048111D01*
X160438876Y-47169011D01*
X160713064Y-47237740D01*
X160995392Y-47251657D01*
X161275010Y-47210227D01*
X161541172Y-47115043D01*
X161666394Y-47048111D01*
X161737977Y-46804142D01*
X160924880Y-45991045D01*
X160111783Y-46804142D01*
X159829997Y-46804142D01*
X159850692Y-46735922D01*
X159862952Y-46611440D01*
X159862952Y-46604225D01*
X159932178Y-46624537D01*
X160745275Y-45811440D01*
X161104485Y-45811440D01*
X161917582Y-46624537D01*
X162161551Y-46552954D01*
X162282451Y-46297444D01*
X162351180Y-46023256D01*
X162365097Y-45740928D01*
X162323667Y-45461310D01*
X162228483Y-45195148D01*
X162161551Y-45069926D01*
X161917582Y-44998343D01*
X161104485Y-45811440D01*
X160745275Y-45811440D01*
X159932178Y-44998343D01*
X159862952Y-45018655D01*
X159862952Y-45011440D01*
X159850692Y-44886958D01*
X159829998Y-44818738D01*
X160111783Y-44818738D01*
X160924880Y-45631835D01*
X161737977Y-44818738D01*
X161666394Y-44574769D01*
X161410884Y-44453869D01*
X161136696Y-44385140D01*
X160854368Y-44371223D01*
X160574750Y-44412653D01*
X160308588Y-44507837D01*
X160183366Y-44574769D01*
X160111783Y-44818738D01*
X159829998Y-44818738D01*
X159814382Y-44767260D01*
X159755417Y-44656946D01*
X159676065Y-44560255D01*
X159579374Y-44480903D01*
X159469060Y-44421938D01*
X159349362Y-44385628D01*
X159224880Y-44373368D01*
X157624880Y-44373368D01*
X157500398Y-44385628D01*
X157380700Y-44421938D01*
X157270386Y-44480903D01*
X157173695Y-44560255D01*
X157094343Y-44656946D01*
X157035378Y-44767260D01*
X157008503Y-44855854D01*
X154394110Y-42241461D01*
X154364824Y-42205776D01*
X154222452Y-42088934D01*
X154060020Y-42002113D01*
X153883772Y-41948649D01*
X153746412Y-41935120D01*
X153700480Y-41930596D01*
X153654548Y-41935120D01*
X147945052Y-41935120D01*
X147899120Y-41930596D01*
X147853188Y-41935120D01*
X147715828Y-41948649D01*
X147539580Y-42002113D01*
X147377148Y-42088934D01*
X147234776Y-42205776D01*
X147205494Y-42241456D01*
X145411176Y-44035775D01*
X145375497Y-44065056D01*
X145258655Y-44207428D01*
X145181489Y-44351796D01*
X145171834Y-44369860D01*
X145118369Y-44546109D01*
X145100316Y-44729400D01*
X145104841Y-44775342D01*
X145104840Y-46730066D01*
X145100316Y-46775998D01*
X145108451Y-46858592D01*
X145109921Y-46873516D01*
X145109920Y-49153800D01*
X142895535Y-49153800D01*
X142849600Y-49149276D01*
X142666308Y-49167328D01*
X142584701Y-49192084D01*
X142490060Y-49220793D01*
X142327628Y-49307614D01*
X142185256Y-49424456D01*
X142155970Y-49460141D01*
X134686991Y-56929120D01*
X134461570Y-56929120D01*
X131396950Y-53864501D01*
X131367664Y-53828816D01*
X131225292Y-53711974D01*
X131062860Y-53625153D01*
X130886612Y-53571689D01*
X130749252Y-53558160D01*
X130703320Y-53553636D01*
X130657388Y-53558160D01*
X124181810Y-53558160D01*
X115502871Y-44879222D01*
X115505600Y-44865500D01*
X115505600Y-44572980D01*
X115448532Y-44286082D01*
X115336590Y-44015829D01*
X115174075Y-43772608D01*
X114967232Y-43565765D01*
X114724011Y-43403250D01*
X114453758Y-43291308D01*
X114166860Y-43234240D01*
X113874340Y-43234240D01*
X113587442Y-43291308D01*
X113527085Y-43316309D01*
X113525003Y-43295174D01*
X113481546Y-43151913D01*
X113464124Y-43119320D01*
X121045031Y-43119320D01*
X122540128Y-44614417D01*
X122540128Y-45630200D01*
X122552388Y-45754682D01*
X122588698Y-45874380D01*
X122647663Y-45984694D01*
X122727015Y-46081385D01*
X122823706Y-46160737D01*
X122934020Y-46219702D01*
X123006580Y-46241713D01*
X122874725Y-46373568D01*
X122712210Y-46616789D01*
X122600268Y-46887042D01*
X122543200Y-47173940D01*
X122543200Y-47466460D01*
X122600268Y-47753358D01*
X122712210Y-48023611D01*
X122874725Y-48266832D01*
X123081568Y-48473675D01*
X123324789Y-48636190D01*
X123595042Y-48748132D01*
X123881940Y-48805200D01*
X124174460Y-48805200D01*
X124461358Y-48748132D01*
X124731611Y-48636190D01*
X124974832Y-48473675D01*
X125181675Y-48266832D01*
X125344190Y-48023611D01*
X125456132Y-47753358D01*
X125513200Y-47466460D01*
X125513200Y-47356800D01*
X127394768Y-47356800D01*
X127394768Y-49106800D01*
X127423841Y-49401986D01*
X127509944Y-49685828D01*
X127649767Y-49947418D01*
X127837937Y-50176703D01*
X128067222Y-50364873D01*
X128328812Y-50504696D01*
X128612654Y-50590799D01*
X128907840Y-50619872D01*
X130657840Y-50619872D01*
X130953026Y-50590799D01*
X131236868Y-50504696D01*
X131498458Y-50364873D01*
X131727743Y-50176703D01*
X131915913Y-49947418D01*
X132055736Y-49685828D01*
X132094768Y-49557157D01*
X132094768Y-52981800D01*
X132107028Y-53106282D01*
X132143338Y-53225980D01*
X132202303Y-53336294D01*
X132281655Y-53432985D01*
X132378346Y-53512337D01*
X132488660Y-53571302D01*
X132608358Y-53607612D01*
X132732840Y-53619872D01*
X136232840Y-53619872D01*
X136357322Y-53607612D01*
X136477020Y-53571302D01*
X136587334Y-53512337D01*
X136684025Y-53432985D01*
X136763377Y-53336294D01*
X136822342Y-53225980D01*
X136858652Y-53106282D01*
X136870912Y-52981800D01*
X136870912Y-49481800D01*
X136858652Y-49357318D01*
X136822342Y-49237620D01*
X136763377Y-49127306D01*
X136684025Y-49030615D01*
X136587334Y-48951263D01*
X136477020Y-48892298D01*
X136357322Y-48855988D01*
X136232840Y-48843728D01*
X132732840Y-48843728D01*
X132608358Y-48855988D01*
X132488660Y-48892298D01*
X132378346Y-48951263D01*
X132281655Y-49030615D01*
X132202303Y-49127306D01*
X132161346Y-49203931D01*
X132170912Y-49106800D01*
X132170912Y-47356800D01*
X132141839Y-47061614D01*
X132055736Y-46777772D01*
X132031164Y-46731800D01*
X132094768Y-46731800D01*
X132107028Y-46856282D01*
X132143338Y-46975980D01*
X132202303Y-47086294D01*
X132281655Y-47182985D01*
X132378346Y-47262337D01*
X132488660Y-47321302D01*
X132608358Y-47357612D01*
X132732840Y-47369872D01*
X134197090Y-47366800D01*
X134355840Y-47208050D01*
X134355840Y-45358800D01*
X134609840Y-45358800D01*
X134609840Y-47208050D01*
X134768590Y-47366800D01*
X136232840Y-47369872D01*
X136357322Y-47357612D01*
X136477020Y-47321302D01*
X136587334Y-47262337D01*
X136684025Y-47182985D01*
X136763377Y-47086294D01*
X136822342Y-46975980D01*
X136858652Y-46856282D01*
X136870912Y-46731800D01*
X136867840Y-45517550D01*
X136709090Y-45358800D01*
X134609840Y-45358800D01*
X134355840Y-45358800D01*
X132256590Y-45358800D01*
X132097840Y-45517550D01*
X132094768Y-46731800D01*
X132031164Y-46731800D01*
X131915913Y-46516182D01*
X131727743Y-46286897D01*
X131498458Y-46098727D01*
X131236868Y-45958904D01*
X130953026Y-45872801D01*
X130657840Y-45843728D01*
X128907840Y-45843728D01*
X128612654Y-45872801D01*
X128328812Y-45958904D01*
X128067222Y-46098727D01*
X127837937Y-46286897D01*
X127649767Y-46516182D01*
X127509944Y-46777772D01*
X127423841Y-47061614D01*
X127394768Y-47356800D01*
X125513200Y-47356800D01*
X125513200Y-47173940D01*
X125456132Y-46887042D01*
X125344190Y-46616789D01*
X125181675Y-46373568D01*
X125049820Y-46241713D01*
X125122380Y-46219702D01*
X125232694Y-46160737D01*
X125329385Y-46081385D01*
X125408737Y-45984694D01*
X125467702Y-45874380D01*
X125504012Y-45754682D01*
X125516272Y-45630200D01*
X125516272Y-43930200D01*
X125504012Y-43805718D01*
X125481590Y-43731800D01*
X132094768Y-43731800D01*
X132097840Y-44946050D01*
X132256590Y-45104800D01*
X134355840Y-45104800D01*
X134355840Y-43255550D01*
X134609840Y-43255550D01*
X134609840Y-45104800D01*
X136709090Y-45104800D01*
X136867840Y-44946050D01*
X136870912Y-43731800D01*
X136858652Y-43607318D01*
X136822342Y-43487620D01*
X136763377Y-43377306D01*
X136684025Y-43280615D01*
X136587334Y-43201263D01*
X136477020Y-43142298D01*
X136357322Y-43105988D01*
X136232840Y-43093728D01*
X134768590Y-43096800D01*
X134609840Y-43255550D01*
X134355840Y-43255550D01*
X134197090Y-43096800D01*
X132732840Y-43093728D01*
X132608358Y-43105988D01*
X132488660Y-43142298D01*
X132378346Y-43201263D01*
X132281655Y-43280615D01*
X132202303Y-43377306D01*
X132143338Y-43487620D01*
X132107028Y-43607318D01*
X132094768Y-43731800D01*
X125481590Y-43731800D01*
X125467702Y-43686020D01*
X125408737Y-43575706D01*
X125329385Y-43479015D01*
X125232694Y-43399663D01*
X125122380Y-43340698D01*
X125002682Y-43304388D01*
X124878200Y-43292128D01*
X123862417Y-43292128D01*
X122278180Y-41707891D01*
X176311961Y-41656231D01*
X176311960Y-42560851D01*
G37*
X176311960Y-42560851D02*
X176282381Y-82252420D01*
X159284175Y-82148682D01*
X159259384Y-82150971D01*
X159235516Y-82158053D01*
X159213488Y-82169655D01*
X159195797Y-82183730D01*
X158025155Y-83299025D01*
X158076351Y-83130254D01*
X158089880Y-82992894D01*
X158089880Y-82992893D01*
X158094404Y-82946962D01*
X158089880Y-82901030D01*
X158089880Y-71102139D01*
X166776880Y-71102139D01*
X166776880Y-71483301D01*
X166851241Y-71857139D01*
X166997105Y-72209286D01*
X167208867Y-72526211D01*
X167478389Y-72795733D01*
X167795314Y-73007495D01*
X168147461Y-73153359D01*
X168521299Y-73227720D01*
X168902461Y-73227720D01*
X169276299Y-73153359D01*
X169628446Y-73007495D01*
X169945371Y-72795733D01*
X170214893Y-72526211D01*
X170426655Y-72209286D01*
X170572519Y-71857139D01*
X170646880Y-71483301D01*
X170646880Y-71102139D01*
X170572519Y-70728301D01*
X170426655Y-70376154D01*
X170214893Y-70059229D01*
X169945371Y-69789707D01*
X169628446Y-69577945D01*
X169276299Y-69432081D01*
X168902461Y-69357720D01*
X168521299Y-69357720D01*
X168147461Y-69432081D01*
X167795314Y-69577945D01*
X167478389Y-69789707D01*
X167208867Y-70059229D01*
X166997105Y-70376154D01*
X166851241Y-70728301D01*
X166776880Y-71102139D01*
X158089880Y-71102139D01*
X158089880Y-64912720D01*
X166773808Y-64912720D01*
X166773808Y-67512720D01*
X166786068Y-67637202D01*
X166822378Y-67756900D01*
X166881343Y-67867214D01*
X166960695Y-67963905D01*
X167057386Y-68043257D01*
X167167700Y-68102222D01*
X167287398Y-68138532D01*
X167411880Y-68150792D01*
X170011880Y-68150792D01*
X170136362Y-68138532D01*
X170256060Y-68102222D01*
X170366374Y-68043257D01*
X170463065Y-67963905D01*
X170542417Y-67867214D01*
X170601382Y-67756900D01*
X170637692Y-67637202D01*
X170649952Y-67512720D01*
X170649952Y-64912720D01*
X170637692Y-64788238D01*
X170601382Y-64668540D01*
X170542417Y-64558226D01*
X170463065Y-64461535D01*
X170366374Y-64382183D01*
X170256060Y-64323218D01*
X170136362Y-64286908D01*
X170011880Y-64274648D01*
X167411880Y-64274648D01*
X167287398Y-64286908D01*
X167167700Y-64323218D01*
X167057386Y-64382183D01*
X166960695Y-64461535D01*
X166881343Y-64558226D01*
X166822378Y-64668540D01*
X166786068Y-64788238D01*
X166773808Y-64912720D01*
X158089880Y-64912720D01*
X158089880Y-58750412D01*
X158094404Y-58704480D01*
X158076351Y-58521188D01*
X158056155Y-58454611D01*
X158022887Y-58344940D01*
X157936066Y-58182508D01*
X157819224Y-58040136D01*
X157783539Y-58010850D01*
X156803228Y-57030539D01*
X167000400Y-57030539D01*
X167000400Y-57411701D01*
X167074761Y-57785539D01*
X167220625Y-58137686D01*
X167432387Y-58454611D01*
X167701909Y-58724133D01*
X168018834Y-58935895D01*
X168370981Y-59081759D01*
X168744819Y-59156120D01*
X169125981Y-59156120D01*
X169499819Y-59081759D01*
X169851966Y-58935895D01*
X170168891Y-58724133D01*
X170438413Y-58454611D01*
X170650175Y-58137686D01*
X170796039Y-57785539D01*
X170870400Y-57411701D01*
X170870400Y-57030539D01*
X170796039Y-56656701D01*
X170650175Y-56304554D01*
X170438413Y-55987629D01*
X170168891Y-55718107D01*
X169851966Y-55506345D01*
X169499819Y-55360481D01*
X169125981Y-55286120D01*
X168744819Y-55286120D01*
X168370981Y-55360481D01*
X168018834Y-55506345D01*
X167701909Y-55718107D01*
X167432387Y-55987629D01*
X167220625Y-56304554D01*
X167074761Y-56656701D01*
X167000400Y-57030539D01*
X156803228Y-57030539D01*
X154811158Y-55038469D01*
X154851280Y-54836763D01*
X154851280Y-54494997D01*
X154784605Y-54159799D01*
X154653817Y-53844049D01*
X154463943Y-53559882D01*
X154222278Y-53318217D01*
X153938111Y-53128343D01*
X153622361Y-52997555D01*
X153287163Y-52930880D01*
X152945397Y-52930880D01*
X152610199Y-52997555D01*
X152294449Y-53128343D01*
X152010282Y-53318217D01*
X151768617Y-53559882D01*
X151578743Y-53844049D01*
X151447955Y-54159799D01*
X151381280Y-54494997D01*
X151381280Y-54836763D01*
X151447955Y-55171961D01*
X151578743Y-55487711D01*
X151768617Y-55771878D01*
X152010282Y-56013543D01*
X152294449Y-56203417D01*
X152610199Y-56334205D01*
X152945397Y-56400880D01*
X153287163Y-56400880D01*
X153488869Y-56360758D01*
X156219881Y-59091770D01*
X156219880Y-82559673D01*
X154946011Y-83833542D01*
X154938975Y-83810346D01*
X154788931Y-83505111D01*
X154582222Y-83235013D01*
X154326791Y-83010432D01*
X154032454Y-82839998D01*
X153710523Y-82730261D01*
X153441400Y-82847840D01*
X153441400Y-84292440D01*
X153461400Y-84292440D01*
X153461400Y-84546440D01*
X153441400Y-84546440D01*
X153441400Y-84566440D01*
X153187400Y-84566440D01*
X153187400Y-84546440D01*
X151743275Y-84546440D01*
X151625225Y-84815562D01*
X151689825Y-85028534D01*
X151839869Y-85333769D01*
X152046578Y-85603867D01*
X152302009Y-85828448D01*
X152596346Y-85998882D01*
X152733813Y-86045740D01*
X152577313Y-86202240D01*
X140566864Y-86202240D01*
X138728447Y-83833572D01*
X138711328Y-83815495D01*
X138691012Y-83801106D01*
X138668278Y-83790956D01*
X138644001Y-83785437D01*
X138628120Y-83784440D01*
X127209769Y-83784440D01*
X127182760Y-83757431D01*
X127198318Y-83758963D01*
X127244250Y-83754439D01*
X141416328Y-83754439D01*
X141416328Y-85519440D01*
X141428588Y-85643922D01*
X141464898Y-85763620D01*
X141523863Y-85873934D01*
X141603215Y-85970625D01*
X141699906Y-86049977D01*
X141810220Y-86108942D01*
X141929918Y-86145252D01*
X142054400Y-86157512D01*
X144254400Y-86157512D01*
X144378882Y-86145252D01*
X144498580Y-86108942D01*
X144608894Y-86049977D01*
X144705585Y-85970625D01*
X144784937Y-85873934D01*
X144843902Y-85763620D01*
X144880212Y-85643922D01*
X144892472Y-85519440D01*
X144892472Y-84023318D01*
X151625225Y-84023318D01*
X151743275Y-84292440D01*
X153187400Y-84292440D01*
X153187400Y-82847840D01*
X152918277Y-82730261D01*
X152596346Y-82839998D01*
X152302009Y-83010432D01*
X152046578Y-83235013D01*
X151839869Y-83505111D01*
X151689825Y-83810346D01*
X151625225Y-84023318D01*
X144892472Y-84023318D01*
X144892472Y-83754439D01*
X145074229Y-83754439D01*
X145120161Y-83758963D01*
X145166093Y-83754439D01*
X145303453Y-83740910D01*
X145479701Y-83687446D01*
X145642133Y-83600625D01*
X145784505Y-83483783D01*
X145813791Y-83448098D01*
X148624306Y-80637584D01*
X148659984Y-80608304D01*
X148776826Y-80465932D01*
X148863647Y-80303500D01*
X148911276Y-80146487D01*
X148917111Y-80127253D01*
X148935164Y-79943961D01*
X148930640Y-79898029D01*
X148930640Y-77451450D01*
X149491494Y-78012304D01*
X149520776Y-78047984D01*
X149663148Y-78164826D01*
X149825580Y-78251647D01*
X149948363Y-78288893D01*
X150001827Y-78305111D01*
X150185119Y-78323164D01*
X150231051Y-78318640D01*
X150239791Y-78318640D01*
X151619522Y-79698371D01*
X151579400Y-79900077D01*
X151579400Y-80241843D01*
X151646075Y-80577041D01*
X151776863Y-80892791D01*
X151966737Y-81176958D01*
X152208402Y-81418623D01*
X152492569Y-81608497D01*
X152808319Y-81739285D01*
X153143517Y-81805960D01*
X153485283Y-81805960D01*
X153820481Y-81739285D01*
X154136231Y-81608497D01*
X154420398Y-81418623D01*
X154662063Y-81176958D01*
X154851937Y-80892791D01*
X154982725Y-80577041D01*
X155049400Y-80241843D01*
X155049400Y-79900077D01*
X154982725Y-79564879D01*
X154851937Y-79249129D01*
X154662063Y-78964962D01*
X154420398Y-78723297D01*
X154136231Y-78533423D01*
X153820481Y-78402635D01*
X153485283Y-78335960D01*
X153143517Y-78335960D01*
X152941811Y-78376082D01*
X151320710Y-76754981D01*
X151291424Y-76719296D01*
X151149052Y-76602454D01*
X151051669Y-76550402D01*
X151538865Y-76550402D01*
X151603465Y-76763374D01*
X151753509Y-77068609D01*
X151960218Y-77338707D01*
X152215649Y-77563288D01*
X152509986Y-77733722D01*
X152831917Y-77843459D01*
X153101040Y-77725880D01*
X153101040Y-76281280D01*
X153355040Y-76281280D01*
X153355040Y-77725880D01*
X153624163Y-77843459D01*
X153946094Y-77733722D01*
X154240431Y-77563288D01*
X154495862Y-77338707D01*
X154702571Y-77068609D01*
X154852615Y-76763374D01*
X154917215Y-76550402D01*
X154799165Y-76281280D01*
X153355040Y-76281280D01*
X153101040Y-76281280D01*
X151656915Y-76281280D01*
X151538865Y-76550402D01*
X151051669Y-76550402D01*
X150986620Y-76515633D01*
X150810372Y-76462169D01*
X150673012Y-76448640D01*
X150627080Y-76444116D01*
X150581148Y-76448640D01*
X150572410Y-76448640D01*
X149881928Y-75758158D01*
X151538865Y-75758158D01*
X151656915Y-76027280D01*
X153101040Y-76027280D01*
X153101040Y-74582680D01*
X153355040Y-74582680D01*
X153355040Y-76027280D01*
X154799165Y-76027280D01*
X154917215Y-75758158D01*
X154852615Y-75545186D01*
X154702571Y-75239951D01*
X154495862Y-74969853D01*
X154240431Y-74745272D01*
X153946094Y-74574838D01*
X153624163Y-74465101D01*
X153355040Y-74582680D01*
X153101040Y-74582680D01*
X152831917Y-74465101D01*
X152509986Y-74574838D01*
X152215649Y-74745272D01*
X151960218Y-74969853D01*
X151753509Y-75239951D01*
X151603465Y-75545186D01*
X151538865Y-75758158D01*
X149881928Y-75758158D01*
X149306560Y-75182791D01*
X149306560Y-71807637D01*
X151493040Y-71807637D01*
X151493040Y-72149403D01*
X151559715Y-72484601D01*
X151690503Y-72800351D01*
X151880377Y-73084518D01*
X152122042Y-73326183D01*
X152406209Y-73516057D01*
X152721959Y-73646845D01*
X153057157Y-73713520D01*
X153398923Y-73713520D01*
X153734121Y-73646845D01*
X154049871Y-73516057D01*
X154334038Y-73326183D01*
X154575703Y-73084518D01*
X154765577Y-72800351D01*
X154896365Y-72484601D01*
X154963040Y-72149403D01*
X154963040Y-71807637D01*
X154896365Y-71472439D01*
X154765577Y-71156689D01*
X154575703Y-70872522D01*
X154334038Y-70630857D01*
X154049871Y-70440983D01*
X153734121Y-70310195D01*
X153398923Y-70243520D01*
X153057157Y-70243520D01*
X152721959Y-70310195D01*
X152406209Y-70440983D01*
X152122042Y-70630857D01*
X151880377Y-70872522D01*
X151690503Y-71156689D01*
X151559715Y-71472439D01*
X151493040Y-71807637D01*
X149306560Y-71807637D01*
X149306560Y-68198882D01*
X151538865Y-68198882D01*
X151603465Y-68411854D01*
X151753509Y-68717089D01*
X151960218Y-68987187D01*
X152215649Y-69211768D01*
X152509986Y-69382202D01*
X152831917Y-69491939D01*
X153101040Y-69374360D01*
X153101040Y-67929760D01*
X153355040Y-67929760D01*
X153355040Y-69374360D01*
X153624163Y-69491939D01*
X153946094Y-69382202D01*
X154240431Y-69211768D01*
X154495862Y-68987187D01*
X154702571Y-68717089D01*
X154852615Y-68411854D01*
X154917215Y-68198882D01*
X154799165Y-67929760D01*
X153355040Y-67929760D01*
X153101040Y-67929760D01*
X151656915Y-67929760D01*
X151538865Y-68198882D01*
X149306560Y-68198882D01*
X149306560Y-67406638D01*
X151538865Y-67406638D01*
X151656915Y-67675760D01*
X153101040Y-67675760D01*
X153101040Y-66231160D01*
X153355040Y-66231160D01*
X153355040Y-67675760D01*
X154799165Y-67675760D01*
X154917215Y-67406638D01*
X154852615Y-67193666D01*
X154702571Y-66888431D01*
X154495862Y-66618333D01*
X154240431Y-66393752D01*
X153946094Y-66223318D01*
X153624163Y-66113581D01*
X153355040Y-66231160D01*
X153101040Y-66231160D01*
X152831917Y-66113581D01*
X152509986Y-66223318D01*
X152215649Y-66393752D01*
X151960218Y-66618333D01*
X151753509Y-66888431D01*
X151603465Y-67193666D01*
X151538865Y-67406638D01*
X149306560Y-67406638D01*
X149306560Y-66715855D01*
X149311084Y-66669920D01*
X149293032Y-66486628D01*
X149239567Y-66310379D01*
X149197223Y-66231160D01*
X149152746Y-66147948D01*
X149035904Y-66005576D01*
X149000220Y-65976291D01*
X148084750Y-65060821D01*
X148055464Y-65025136D01*
X147913092Y-64908294D01*
X147750660Y-64821473D01*
X147574412Y-64768009D01*
X147437052Y-64754480D01*
X147391120Y-64749956D01*
X147345188Y-64754480D01*
X144684523Y-64754480D01*
X144707492Y-64678762D01*
X144719752Y-64554280D01*
X144719752Y-63283397D01*
X151406680Y-63283397D01*
X151406680Y-63625163D01*
X151473355Y-63960361D01*
X151604143Y-64276111D01*
X151794017Y-64560278D01*
X152035682Y-64801943D01*
X152319849Y-64991817D01*
X152635599Y-65122605D01*
X152970797Y-65189280D01*
X153312563Y-65189280D01*
X153647761Y-65122605D01*
X153963511Y-64991817D01*
X154247678Y-64801943D01*
X154489343Y-64560278D01*
X154679217Y-64276111D01*
X154810005Y-63960361D01*
X154876680Y-63625163D01*
X154876680Y-63283397D01*
X154810005Y-62948199D01*
X154679217Y-62632449D01*
X154489343Y-62348282D01*
X154247678Y-62106617D01*
X153963511Y-61916743D01*
X153647761Y-61785955D01*
X153312563Y-61719280D01*
X152970797Y-61719280D01*
X152635599Y-61785955D01*
X152319849Y-61916743D01*
X152035682Y-62106617D01*
X151794017Y-62348282D01*
X151604143Y-62632449D01*
X151473355Y-62948199D01*
X151406680Y-63283397D01*
X144719752Y-63283397D01*
X144719752Y-62354280D01*
X144707492Y-62229798D01*
X144671182Y-62110100D01*
X144612217Y-61999786D01*
X144532865Y-61903095D01*
X144436174Y-61823743D01*
X144325860Y-61764778D01*
X144206162Y-61728468D01*
X144081680Y-61716208D01*
X141881680Y-61716208D01*
X141757198Y-61728468D01*
X141637500Y-61764778D01*
X141527186Y-61823743D01*
X141430495Y-61903095D01*
X141351143Y-61999786D01*
X141292178Y-62110100D01*
X141255868Y-62229798D01*
X141243608Y-62354280D01*
X141243608Y-64554280D01*
X141255868Y-64678762D01*
X141278837Y-64754480D01*
X137206929Y-64754480D01*
X136009280Y-63556831D01*
X136009280Y-63302785D01*
X135954133Y-63025546D01*
X135845960Y-62764393D01*
X135688917Y-62529361D01*
X135489039Y-62329483D01*
X135256521Y-62174120D01*
X135489039Y-62018757D01*
X135688917Y-61818879D01*
X135845960Y-61583847D01*
X135954133Y-61322694D01*
X136009280Y-61045455D01*
X136009280Y-60762785D01*
X135954133Y-60485546D01*
X135845960Y-60224393D01*
X135688917Y-59989361D01*
X135489039Y-59789483D01*
X135256521Y-59634120D01*
X135489039Y-59478757D01*
X135688917Y-59278879D01*
X135845960Y-59043847D01*
X135954133Y-58782694D01*
X136009280Y-58505455D01*
X136009280Y-58251409D01*
X136381889Y-57878800D01*
X141274088Y-57878800D01*
X141274088Y-60078800D01*
X141286348Y-60203282D01*
X141322658Y-60322980D01*
X141381623Y-60433294D01*
X141460975Y-60529985D01*
X141557666Y-60609337D01*
X141667980Y-60668302D01*
X141787678Y-60704612D01*
X141912160Y-60716872D01*
X144112160Y-60716872D01*
X144236642Y-60704612D01*
X144356340Y-60668302D01*
X144466654Y-60609337D01*
X144563345Y-60529985D01*
X144642697Y-60433294D01*
X144701662Y-60322980D01*
X144737972Y-60203282D01*
X144750232Y-60078800D01*
X144750232Y-59374922D01*
X151482985Y-59374922D01*
X151547585Y-59587894D01*
X151697629Y-59893129D01*
X151904338Y-60163227D01*
X152159769Y-60387808D01*
X152454106Y-60558242D01*
X152776037Y-60667979D01*
X153045160Y-60550400D01*
X153045160Y-59105800D01*
X153299160Y-59105800D01*
X153299160Y-60550400D01*
X153568283Y-60667979D01*
X153890214Y-60558242D01*
X154184551Y-60387808D01*
X154439982Y-60163227D01*
X154646691Y-59893129D01*
X154796735Y-59587894D01*
X154861335Y-59374922D01*
X154743285Y-59105800D01*
X153299160Y-59105800D01*
X153045160Y-59105800D01*
X151601035Y-59105800D01*
X151482985Y-59374922D01*
X144750232Y-59374922D01*
X144750232Y-58582678D01*
X151482985Y-58582678D01*
X151601035Y-58851800D01*
X153045160Y-58851800D01*
X153045160Y-57407200D01*
X153299160Y-57407200D01*
X153299160Y-58851800D01*
X154743285Y-58851800D01*
X154861335Y-58582678D01*
X154796735Y-58369706D01*
X154646691Y-58064471D01*
X154439982Y-57794373D01*
X154184551Y-57569792D01*
X153890214Y-57399358D01*
X153568283Y-57289621D01*
X153299160Y-57407200D01*
X153045160Y-57407200D01*
X152776037Y-57289621D01*
X152454106Y-57399358D01*
X152159769Y-57569792D01*
X151904338Y-57794373D01*
X151697629Y-58064471D01*
X151547585Y-58369706D01*
X151482985Y-58582678D01*
X144750232Y-58582678D01*
X144750232Y-57878800D01*
X144737972Y-57754318D01*
X144701662Y-57634620D01*
X144642697Y-57524306D01*
X144563345Y-57427615D01*
X144466654Y-57348263D01*
X144356340Y-57289298D01*
X144236642Y-57252988D01*
X144112160Y-57240728D01*
X141912160Y-57240728D01*
X141787678Y-57252988D01*
X141667980Y-57289298D01*
X141557666Y-57348263D01*
X141460975Y-57427615D01*
X141381623Y-57524306D01*
X141322658Y-57634620D01*
X141286348Y-57754318D01*
X141274088Y-57878800D01*
X136381889Y-57878800D01*
X140694809Y-53565880D01*
X141218208Y-53565880D01*
X141218208Y-55765880D01*
X141230468Y-55890362D01*
X141266778Y-56010060D01*
X141325743Y-56120374D01*
X141405095Y-56217065D01*
X141501786Y-56296417D01*
X141612100Y-56355382D01*
X141731798Y-56391692D01*
X141856280Y-56403952D01*
X144056280Y-56403952D01*
X144180762Y-56391692D01*
X144300460Y-56355382D01*
X144410774Y-56296417D01*
X144507465Y-56217065D01*
X144586817Y-56120374D01*
X144645782Y-56010060D01*
X144682092Y-55890362D01*
X144694352Y-55765880D01*
X144694352Y-55600880D01*
X147939548Y-55600880D01*
X147985480Y-55605404D01*
X148031412Y-55600880D01*
X148168772Y-55587351D01*
X148345020Y-55533887D01*
X148507452Y-55447066D01*
X148649824Y-55330224D01*
X148766666Y-55187852D01*
X148853487Y-55025420D01*
X148906951Y-54849172D01*
X148925004Y-54665880D01*
X148920480Y-54619948D01*
X148920480Y-50841120D01*
X166997328Y-50841120D01*
X166997328Y-53441120D01*
X167009588Y-53565602D01*
X167045898Y-53685300D01*
X167104863Y-53795614D01*
X167184215Y-53892305D01*
X167280906Y-53971657D01*
X167391220Y-54030622D01*
X167510918Y-54066932D01*
X167635400Y-54079192D01*
X170235400Y-54079192D01*
X170359882Y-54066932D01*
X170479580Y-54030622D01*
X170589894Y-53971657D01*
X170686585Y-53892305D01*
X170765937Y-53795614D01*
X170824902Y-53685300D01*
X170861212Y-53565602D01*
X170873472Y-53441120D01*
X170873472Y-50841120D01*
X170861212Y-50716638D01*
X170824902Y-50596940D01*
X170765937Y-50486626D01*
X170686585Y-50389935D01*
X170589894Y-50310583D01*
X170479580Y-50251618D01*
X170359882Y-50215308D01*
X170235400Y-50203048D01*
X167635400Y-50203048D01*
X167510918Y-50215308D01*
X167391220Y-50251618D01*
X167280906Y-50310583D01*
X167184215Y-50389935D01*
X167104863Y-50486626D01*
X167045898Y-50596940D01*
X167009588Y-50716638D01*
X166997328Y-50841120D01*
X148920480Y-50841120D01*
X148920480Y-47727809D01*
X149251457Y-47396832D01*
X150167240Y-47396832D01*
X150291722Y-47384572D01*
X150411420Y-47348262D01*
X150521734Y-47289297D01*
X150618425Y-47209945D01*
X150697777Y-47113254D01*
X150756742Y-47002940D01*
X150772357Y-46951462D01*
X151054143Y-46951462D01*
X151125726Y-47195431D01*
X151381236Y-47316331D01*
X151655424Y-47385060D01*
X151937752Y-47398977D01*
X152217370Y-47357547D01*
X152483532Y-47262363D01*
X152608754Y-47195431D01*
X152680337Y-46951462D01*
X151867240Y-46138365D01*
X151054143Y-46951462D01*
X150772357Y-46951462D01*
X150793052Y-46883242D01*
X150805312Y-46758760D01*
X150805312Y-46751545D01*
X150874538Y-46771857D01*
X151687635Y-45958760D01*
X152046845Y-45958760D01*
X152859942Y-46771857D01*
X153103911Y-46700274D01*
X153224811Y-46444764D01*
X153293540Y-46170576D01*
X153307457Y-45888248D01*
X153266027Y-45608630D01*
X153170843Y-45342468D01*
X153103911Y-45217246D01*
X152859942Y-45145663D01*
X152046845Y-45958760D01*
X151687635Y-45958760D01*
X150874538Y-45145663D01*
X150805312Y-45165975D01*
X150805312Y-45158760D01*
X150793052Y-45034278D01*
X150772358Y-44966058D01*
X151054143Y-44966058D01*
X151867240Y-45779155D01*
X152680337Y-44966058D01*
X152608754Y-44722089D01*
X152353244Y-44601189D01*
X152079056Y-44532460D01*
X151796728Y-44518543D01*
X151517110Y-44559973D01*
X151250948Y-44655157D01*
X151125726Y-44722089D01*
X151054143Y-44966058D01*
X150772358Y-44966058D01*
X150756742Y-44914580D01*
X150697777Y-44804266D01*
X150618425Y-44707575D01*
X150521734Y-44628223D01*
X150411420Y-44569258D01*
X150291722Y-44532948D01*
X150167240Y-44520688D01*
X148567240Y-44520688D01*
X148442758Y-44532948D01*
X148323060Y-44569258D01*
X148212746Y-44628223D01*
X148116055Y-44707575D01*
X148036703Y-44804266D01*
X147977738Y-44914580D01*
X147941428Y-45034278D01*
X147929168Y-45158760D01*
X147929168Y-46074543D01*
X147356816Y-46646895D01*
X147321137Y-46676176D01*
X147204295Y-46818548D01*
X147126353Y-46964369D01*
X147117474Y-46980980D01*
X147064009Y-47157229D01*
X147045956Y-47340520D01*
X147050481Y-47386462D01*
X147050480Y-53730880D01*
X144694352Y-53730880D01*
X144694352Y-53565880D01*
X144682092Y-53441398D01*
X144645782Y-53321700D01*
X144586817Y-53211386D01*
X144507465Y-53114695D01*
X144410774Y-53035343D01*
X144300460Y-52976378D01*
X144180762Y-52940068D01*
X144056280Y-52927808D01*
X141856280Y-52927808D01*
X141731798Y-52940068D01*
X141612100Y-52976378D01*
X141501786Y-53035343D01*
X141405095Y-53114695D01*
X141325743Y-53211386D01*
X141266778Y-53321700D01*
X141230468Y-53441398D01*
X141218208Y-53565880D01*
X140694809Y-53565880D01*
X143236889Y-51023800D01*
X145998988Y-51023800D01*
X146044920Y-51028324D01*
X146090852Y-51023800D01*
X146228212Y-51010271D01*
X146404460Y-50956807D01*
X146566892Y-50869986D01*
X146709264Y-50753144D01*
X146826106Y-50610772D01*
X146912927Y-50448340D01*
X146966391Y-50272092D01*
X146984444Y-50088800D01*
X146979920Y-50042868D01*
X146979920Y-46827009D01*
X146984444Y-46781077D01*
X146974840Y-46683568D01*
X146974840Y-45116689D01*
X148286410Y-43805120D01*
X153313191Y-43805120D01*
X155948170Y-46440099D01*
X155977456Y-46475784D01*
X156119828Y-46592626D01*
X156195487Y-46633066D01*
X156282259Y-46679447D01*
X156458508Y-46732912D01*
X156641800Y-46750964D01*
X156687735Y-46746440D01*
X157002259Y-46746440D01*
X157035378Y-46855620D01*
X157094343Y-46965934D01*
X157173695Y-47062625D01*
X157270386Y-47141977D01*
X157380700Y-47200942D01*
X157500398Y-47237252D01*
X157624880Y-47249512D01*
X159224880Y-47249512D01*
X159349362Y-47237252D01*
X159469060Y-47200942D01*
X159579374Y-47141977D01*
X159676065Y-47062625D01*
X159755417Y-46965934D01*
X159814382Y-46855620D01*
X159829997Y-46804142D01*
X160111783Y-46804142D01*
X160183366Y-47048111D01*
X160438876Y-47169011D01*
X160713064Y-47237740D01*
X160995392Y-47251657D01*
X161275010Y-47210227D01*
X161541172Y-47115043D01*
X161666394Y-47048111D01*
X161737977Y-46804142D01*
X160924880Y-45991045D01*
X160111783Y-46804142D01*
X159829997Y-46804142D01*
X159850692Y-46735922D01*
X159862952Y-46611440D01*
X159862952Y-46604225D01*
X159932178Y-46624537D01*
X160745275Y-45811440D01*
X161104485Y-45811440D01*
X161917582Y-46624537D01*
X162161551Y-46552954D01*
X162282451Y-46297444D01*
X162351180Y-46023256D01*
X162365097Y-45740928D01*
X162323667Y-45461310D01*
X162228483Y-45195148D01*
X162161551Y-45069926D01*
X161917582Y-44998343D01*
X161104485Y-45811440D01*
X160745275Y-45811440D01*
X159932178Y-44998343D01*
X159862952Y-45018655D01*
X159862952Y-45011440D01*
X159850692Y-44886958D01*
X159829998Y-44818738D01*
X160111783Y-44818738D01*
X160924880Y-45631835D01*
X161737977Y-44818738D01*
X161666394Y-44574769D01*
X161410884Y-44453869D01*
X161136696Y-44385140D01*
X160854368Y-44371223D01*
X160574750Y-44412653D01*
X160308588Y-44507837D01*
X160183366Y-44574769D01*
X160111783Y-44818738D01*
X159829998Y-44818738D01*
X159814382Y-44767260D01*
X159755417Y-44656946D01*
X159676065Y-44560255D01*
X159579374Y-44480903D01*
X159469060Y-44421938D01*
X159349362Y-44385628D01*
X159224880Y-44373368D01*
X157624880Y-44373368D01*
X157500398Y-44385628D01*
X157380700Y-44421938D01*
X157270386Y-44480903D01*
X157173695Y-44560255D01*
X157094343Y-44656946D01*
X157035378Y-44767260D01*
X157008503Y-44855854D01*
X154394110Y-42241461D01*
X154364824Y-42205776D01*
X154222452Y-42088934D01*
X154060020Y-42002113D01*
X153883772Y-41948649D01*
X153746412Y-41935120D01*
X153700480Y-41930596D01*
X153654548Y-41935120D01*
X147945052Y-41935120D01*
X147899120Y-41930596D01*
X147853188Y-41935120D01*
X147715828Y-41948649D01*
X147539580Y-42002113D01*
X147377148Y-42088934D01*
X147234776Y-42205776D01*
X147205494Y-42241456D01*
X145411176Y-44035775D01*
X145375497Y-44065056D01*
X145258655Y-44207428D01*
X145181489Y-44351796D01*
X145171834Y-44369860D01*
X145118369Y-44546109D01*
X145100316Y-44729400D01*
X145104841Y-44775342D01*
X145104840Y-46730066D01*
X145100316Y-46775998D01*
X145108451Y-46858592D01*
X145109921Y-46873516D01*
X145109920Y-49153800D01*
X142895535Y-49153800D01*
X142849600Y-49149276D01*
X142666308Y-49167328D01*
X142584701Y-49192084D01*
X142490060Y-49220793D01*
X142327628Y-49307614D01*
X142185256Y-49424456D01*
X142155970Y-49460141D01*
X134686991Y-56929120D01*
X134461570Y-56929120D01*
X131396950Y-53864501D01*
X131367664Y-53828816D01*
X131225292Y-53711974D01*
X131062860Y-53625153D01*
X130886612Y-53571689D01*
X130749252Y-53558160D01*
X130703320Y-53553636D01*
X130657388Y-53558160D01*
X124181810Y-53558160D01*
X115502871Y-44879222D01*
X115505600Y-44865500D01*
X115505600Y-44572980D01*
X115448532Y-44286082D01*
X115336590Y-44015829D01*
X115174075Y-43772608D01*
X114967232Y-43565765D01*
X114724011Y-43403250D01*
X114453758Y-43291308D01*
X114166860Y-43234240D01*
X113874340Y-43234240D01*
X113587442Y-43291308D01*
X113527085Y-43316309D01*
X113525003Y-43295174D01*
X113481546Y-43151913D01*
X113464124Y-43119320D01*
X121045031Y-43119320D01*
X122540128Y-44614417D01*
X122540128Y-45630200D01*
X122552388Y-45754682D01*
X122588698Y-45874380D01*
X122647663Y-45984694D01*
X122727015Y-46081385D01*
X122823706Y-46160737D01*
X122934020Y-46219702D01*
X123006580Y-46241713D01*
X122874725Y-46373568D01*
X122712210Y-46616789D01*
X122600268Y-46887042D01*
X122543200Y-47173940D01*
X122543200Y-47466460D01*
X122600268Y-47753358D01*
X122712210Y-48023611D01*
X122874725Y-48266832D01*
X123081568Y-48473675D01*
X123324789Y-48636190D01*
X123595042Y-48748132D01*
X123881940Y-48805200D01*
X124174460Y-48805200D01*
X124461358Y-48748132D01*
X124731611Y-48636190D01*
X124974832Y-48473675D01*
X125181675Y-48266832D01*
X125344190Y-48023611D01*
X125456132Y-47753358D01*
X125513200Y-47466460D01*
X125513200Y-47356800D01*
X127394768Y-47356800D01*
X127394768Y-49106800D01*
X127423841Y-49401986D01*
X127509944Y-49685828D01*
X127649767Y-49947418D01*
X127837937Y-50176703D01*
X128067222Y-50364873D01*
X128328812Y-50504696D01*
X128612654Y-50590799D01*
X128907840Y-50619872D01*
X130657840Y-50619872D01*
X130953026Y-50590799D01*
X131236868Y-50504696D01*
X131498458Y-50364873D01*
X131727743Y-50176703D01*
X131915913Y-49947418D01*
X132055736Y-49685828D01*
X132094768Y-49557157D01*
X132094768Y-52981800D01*
X132107028Y-53106282D01*
X132143338Y-53225980D01*
X132202303Y-53336294D01*
X132281655Y-53432985D01*
X132378346Y-53512337D01*
X132488660Y-53571302D01*
X132608358Y-53607612D01*
X132732840Y-53619872D01*
X136232840Y-53619872D01*
X136357322Y-53607612D01*
X136477020Y-53571302D01*
X136587334Y-53512337D01*
X136684025Y-53432985D01*
X136763377Y-53336294D01*
X136822342Y-53225980D01*
X136858652Y-53106282D01*
X136870912Y-52981800D01*
X136870912Y-49481800D01*
X136858652Y-49357318D01*
X136822342Y-49237620D01*
X136763377Y-49127306D01*
X136684025Y-49030615D01*
X136587334Y-48951263D01*
X136477020Y-48892298D01*
X136357322Y-48855988D01*
X136232840Y-48843728D01*
X132732840Y-48843728D01*
X132608358Y-48855988D01*
X132488660Y-48892298D01*
X132378346Y-48951263D01*
X132281655Y-49030615D01*
X132202303Y-49127306D01*
X132161346Y-49203931D01*
X132170912Y-49106800D01*
X132170912Y-47356800D01*
X132141839Y-47061614D01*
X132055736Y-46777772D01*
X132031164Y-46731800D01*
X132094768Y-46731800D01*
X132107028Y-46856282D01*
X132143338Y-46975980D01*
X132202303Y-47086294D01*
X132281655Y-47182985D01*
X132378346Y-47262337D01*
X132488660Y-47321302D01*
X132608358Y-47357612D01*
X132732840Y-47369872D01*
X134197090Y-47366800D01*
X134355840Y-47208050D01*
X134355840Y-45358800D01*
X134609840Y-45358800D01*
X134609840Y-47208050D01*
X134768590Y-47366800D01*
X136232840Y-47369872D01*
X136357322Y-47357612D01*
X136477020Y-47321302D01*
X136587334Y-47262337D01*
X136684025Y-47182985D01*
X136763377Y-47086294D01*
X136822342Y-46975980D01*
X136858652Y-46856282D01*
X136870912Y-46731800D01*
X136867840Y-45517550D01*
X136709090Y-45358800D01*
X134609840Y-45358800D01*
X134355840Y-45358800D01*
X132256590Y-45358800D01*
X132097840Y-45517550D01*
X132094768Y-46731800D01*
X132031164Y-46731800D01*
X131915913Y-46516182D01*
X131727743Y-46286897D01*
X131498458Y-46098727D01*
X131236868Y-45958904D01*
X130953026Y-45872801D01*
X130657840Y-45843728D01*
X128907840Y-45843728D01*
X128612654Y-45872801D01*
X128328812Y-45958904D01*
X128067222Y-46098727D01*
X127837937Y-46286897D01*
X127649767Y-46516182D01*
X127509944Y-46777772D01*
X127423841Y-47061614D01*
X127394768Y-47356800D01*
X125513200Y-47356800D01*
X125513200Y-47173940D01*
X125456132Y-46887042D01*
X125344190Y-46616789D01*
X125181675Y-46373568D01*
X125049820Y-46241713D01*
X125122380Y-46219702D01*
X125232694Y-46160737D01*
X125329385Y-46081385D01*
X125408737Y-45984694D01*
X125467702Y-45874380D01*
X125504012Y-45754682D01*
X125516272Y-45630200D01*
X125516272Y-43930200D01*
X125504012Y-43805718D01*
X125481590Y-43731800D01*
X132094768Y-43731800D01*
X132097840Y-44946050D01*
X132256590Y-45104800D01*
X134355840Y-45104800D01*
X134355840Y-43255550D01*
X134609840Y-43255550D01*
X134609840Y-45104800D01*
X136709090Y-45104800D01*
X136867840Y-44946050D01*
X136870912Y-43731800D01*
X136858652Y-43607318D01*
X136822342Y-43487620D01*
X136763377Y-43377306D01*
X136684025Y-43280615D01*
X136587334Y-43201263D01*
X136477020Y-43142298D01*
X136357322Y-43105988D01*
X136232840Y-43093728D01*
X134768590Y-43096800D01*
X134609840Y-43255550D01*
X134355840Y-43255550D01*
X134197090Y-43096800D01*
X132732840Y-43093728D01*
X132608358Y-43105988D01*
X132488660Y-43142298D01*
X132378346Y-43201263D01*
X132281655Y-43280615D01*
X132202303Y-43377306D01*
X132143338Y-43487620D01*
X132107028Y-43607318D01*
X132094768Y-43731800D01*
X125481590Y-43731800D01*
X125467702Y-43686020D01*
X125408737Y-43575706D01*
X125329385Y-43479015D01*
X125232694Y-43399663D01*
X125122380Y-43340698D01*
X125002682Y-43304388D01*
X124878200Y-43292128D01*
X123862417Y-43292128D01*
X122278180Y-41707891D01*
X176311961Y-41656231D01*
X176311960Y-42560851D01*
G36*
X114147600Y-47132240D02*
G01*
X114167600Y-47132240D01*
X114167600Y-47386240D01*
X114147600Y-47386240D01*
X114147600Y-48580054D01*
X114377491Y-48700721D01*
X114651852Y-48603397D01*
X114901955Y-48454418D01*
X115118188Y-48259509D01*
X115292241Y-48026160D01*
X115417425Y-47763339D01*
X115462076Y-47616130D01*
X115340756Y-47386242D01*
X115365313Y-47386242D01*
X123100895Y-55121825D01*
X123130176Y-55157504D01*
X123272548Y-55274346D01*
X123434980Y-55361167D01*
X123557763Y-55398413D01*
X123611227Y-55414631D01*
X123794519Y-55432684D01*
X123840451Y-55428160D01*
X130316031Y-55428160D01*
X133139280Y-58251410D01*
X133139280Y-58505455D01*
X133194427Y-58782694D01*
X133302600Y-59043847D01*
X133459643Y-59278879D01*
X133659521Y-59478757D01*
X133892039Y-59634120D01*
X133659521Y-59789483D01*
X133459643Y-59989361D01*
X133302600Y-60224393D01*
X133194427Y-60485546D01*
X133139280Y-60762785D01*
X133139280Y-61045455D01*
X133194427Y-61322694D01*
X133302600Y-61583847D01*
X133459643Y-61818879D01*
X133659521Y-62018757D01*
X133892039Y-62174120D01*
X133659521Y-62329483D01*
X133459643Y-62529361D01*
X133302600Y-62764393D01*
X133194427Y-63025546D01*
X133139280Y-63302785D01*
X133139280Y-63585455D01*
X133194427Y-63862694D01*
X133302600Y-64123847D01*
X133459643Y-64358879D01*
X133659521Y-64558757D01*
X133894553Y-64715800D01*
X133905145Y-64720187D01*
X133719149Y-64831735D01*
X133510761Y-65020706D01*
X133343243Y-65246700D01*
X133223034Y-65501033D01*
X133182376Y-65635081D01*
X133304365Y-65857120D01*
X134447280Y-65857120D01*
X134447280Y-65837120D01*
X134701280Y-65837120D01*
X134701280Y-65857120D01*
X134721280Y-65857120D01*
X134721280Y-66111120D01*
X134701280Y-66111120D01*
X134701280Y-68397120D01*
X135844195Y-68397120D01*
X135966184Y-68175081D01*
X135925526Y-68041033D01*
X135805317Y-67786700D01*
X135637799Y-67560706D01*
X135429411Y-67371735D01*
X135233298Y-67254120D01*
X135429411Y-67136505D01*
X135637799Y-66947534D01*
X135805317Y-66721540D01*
X135925526Y-66467207D01*
X135966184Y-66333159D01*
X135844196Y-66111122D01*
X135918993Y-66111122D01*
X136126010Y-66318139D01*
X136155296Y-66353824D01*
X136297668Y-66470666D01*
X136384737Y-66517205D01*
X136460099Y-66557487D01*
X136636348Y-66610952D01*
X136819640Y-66629004D01*
X136865575Y-66624480D01*
X141337678Y-66624480D01*
X141329968Y-66702760D01*
X141329968Y-68218543D01*
X139419391Y-70129120D01*
X135668676Y-70129120D01*
X135489039Y-69949483D01*
X135254007Y-69792440D01*
X135243415Y-69788053D01*
X135429411Y-69676505D01*
X135637799Y-69487534D01*
X135805317Y-69261540D01*
X135925526Y-69007207D01*
X135966184Y-68873159D01*
X135844195Y-68651120D01*
X134701280Y-68651120D01*
X134701280Y-68671120D01*
X134447280Y-68671120D01*
X134447280Y-68651120D01*
X133304365Y-68651120D01*
X133182376Y-68873159D01*
X133223034Y-69007207D01*
X133343243Y-69261540D01*
X133510761Y-69487534D01*
X133719149Y-69676505D01*
X133905145Y-69788053D01*
X133894553Y-69792440D01*
X133659521Y-69949483D01*
X133459643Y-70149361D01*
X133302600Y-70384393D01*
X133194427Y-70645546D01*
X133139280Y-70922785D01*
X133139280Y-71205455D01*
X133194427Y-71482694D01*
X133302600Y-71743847D01*
X133459643Y-71978879D01*
X133659521Y-72178757D01*
X133892039Y-72334120D01*
X133659521Y-72489483D01*
X133459643Y-72689361D01*
X133302600Y-72924393D01*
X133194427Y-73185546D01*
X133139280Y-73462785D01*
X133139280Y-73745455D01*
X133194427Y-74022694D01*
X133302600Y-74283847D01*
X133459643Y-74518879D01*
X133659521Y-74718757D01*
X133892039Y-74874120D01*
X133659521Y-75029483D01*
X133459643Y-75229361D01*
X133302600Y-75464393D01*
X133194427Y-75725546D01*
X133139280Y-76002785D01*
X133139280Y-76285455D01*
X133194427Y-76562694D01*
X133302600Y-76823847D01*
X133459643Y-77058879D01*
X133659521Y-77258757D01*
X133894553Y-77415800D01*
X134155706Y-77523973D01*
X134432945Y-77579120D01*
X134715615Y-77579120D01*
X134992854Y-77523973D01*
X135254007Y-77415800D01*
X135489039Y-77258757D01*
X135688917Y-77058879D01*
X135845960Y-76823847D01*
X135954133Y-76562694D01*
X136009280Y-76285455D01*
X136009280Y-76002785D01*
X135954133Y-75725546D01*
X135845960Y-75464393D01*
X135688917Y-75229361D01*
X135489039Y-75029483D01*
X135256521Y-74874120D01*
X135489039Y-74718757D01*
X135688917Y-74518879D01*
X135845960Y-74283847D01*
X135954133Y-74022694D01*
X136009280Y-73745455D01*
X136009280Y-73462785D01*
X135954133Y-73185546D01*
X135845960Y-72924393D01*
X135688917Y-72689361D01*
X135489039Y-72489483D01*
X135256521Y-72334120D01*
X135489039Y-72178757D01*
X135668676Y-71999120D01*
X139760748Y-71999120D01*
X139806680Y-72003644D01*
X139852612Y-71999120D01*
X139989972Y-71985591D01*
X140166220Y-71932127D01*
X140328652Y-71845306D01*
X140471024Y-71728464D01*
X140500310Y-71692779D01*
X141331650Y-70861439D01*
X141329968Y-70878520D01*
X141329968Y-73078520D01*
X141342228Y-73203002D01*
X141378538Y-73322700D01*
X141437503Y-73433014D01*
X141516855Y-73529705D01*
X141613546Y-73609057D01*
X141723860Y-73668022D01*
X141843558Y-73704332D01*
X141968040Y-73716592D01*
X144168040Y-73716592D01*
X144292522Y-73704332D01*
X144412220Y-73668022D01*
X144522534Y-73609057D01*
X144619225Y-73529705D01*
X144698577Y-73433014D01*
X144757542Y-73322700D01*
X144793852Y-73203002D01*
X144806112Y-73078520D01*
X144806112Y-70878520D01*
X144793852Y-70754038D01*
X144757542Y-70634340D01*
X144698577Y-70524026D01*
X144619225Y-70427335D01*
X144522534Y-70347983D01*
X144412220Y-70289018D01*
X144292522Y-70252708D01*
X144168040Y-70240448D01*
X141968040Y-70240448D01*
X141950959Y-70242130D01*
X142652257Y-69540832D01*
X144168040Y-69540832D01*
X144292522Y-69528572D01*
X144412220Y-69492262D01*
X144522534Y-69433297D01*
X144619225Y-69353945D01*
X144698577Y-69257254D01*
X144757542Y-69146940D01*
X144793852Y-69027242D01*
X144806112Y-68902760D01*
X144806112Y-66702760D01*
X144798402Y-66624480D01*
X147003831Y-66624480D01*
X147436560Y-67057209D01*
X147436561Y-75263419D01*
X147335652Y-75232809D01*
X147198292Y-75219280D01*
X147152360Y-75214756D01*
X147106428Y-75219280D01*
X144806112Y-75219280D01*
X144806112Y-75054280D01*
X144793852Y-74929798D01*
X144757542Y-74810100D01*
X144698577Y-74699786D01*
X144619225Y-74603095D01*
X144522534Y-74523743D01*
X144412220Y-74464778D01*
X144292522Y-74428468D01*
X144168040Y-74416208D01*
X141968040Y-74416208D01*
X141843558Y-74428468D01*
X141723860Y-74464778D01*
X141613546Y-74523743D01*
X141516855Y-74603095D01*
X141437503Y-74699786D01*
X141378538Y-74810100D01*
X141342228Y-74929798D01*
X141329968Y-75054280D01*
X141329968Y-77254280D01*
X141342228Y-77378762D01*
X141378538Y-77498460D01*
X141437503Y-77608774D01*
X141516855Y-77705465D01*
X141613546Y-77784817D01*
X141723860Y-77843782D01*
X141843558Y-77880092D01*
X141968040Y-77892352D01*
X144168040Y-77892352D01*
X144292522Y-77880092D01*
X144412220Y-77843782D01*
X144522534Y-77784817D01*
X144619225Y-77705465D01*
X144698577Y-77608774D01*
X144757542Y-77498460D01*
X144793852Y-77378762D01*
X144806112Y-77254280D01*
X144806112Y-77089280D01*
X146765071Y-77089280D01*
X147060641Y-77384851D01*
X147060640Y-79556670D01*
X144732872Y-81884439D01*
X127585609Y-81884439D01*
X125532160Y-79830991D01*
X125532160Y-76350206D01*
X125574427Y-76562694D01*
X125682600Y-76823847D01*
X125839643Y-77058879D01*
X126039521Y-77258757D01*
X126274553Y-77415800D01*
X126535706Y-77523973D01*
X126812945Y-77579120D01*
X127066991Y-77579120D01*
X129395014Y-79907144D01*
X129424296Y-79942824D01*
X129566668Y-80059666D01*
X129729100Y-80146487D01*
X129851883Y-80183733D01*
X129905347Y-80199951D01*
X129923750Y-80201763D01*
X130042708Y-80213480D01*
X130042714Y-80213480D01*
X130088639Y-80218003D01*
X130134564Y-80213480D01*
X138291631Y-80213480D01*
X138777770Y-80699619D01*
X138807056Y-80735304D01*
X138949428Y-80852146D01*
X139111860Y-80938967D01*
X139272934Y-80987828D01*
X139288108Y-80992431D01*
X139471400Y-81010484D01*
X139517332Y-81005960D01*
X141416328Y-81005960D01*
X141416328Y-81170960D01*
X141428588Y-81295442D01*
X141464898Y-81415140D01*
X141523863Y-81525454D01*
X141603215Y-81622145D01*
X141699906Y-81701497D01*
X141810220Y-81760462D01*
X141929918Y-81796772D01*
X142054400Y-81809032D01*
X144254400Y-81809032D01*
X144378882Y-81796772D01*
X144498580Y-81760462D01*
X144608894Y-81701497D01*
X144705585Y-81622145D01*
X144784937Y-81525454D01*
X144843902Y-81415140D01*
X144880212Y-81295442D01*
X144892472Y-81170960D01*
X144892472Y-78970960D01*
X144880212Y-78846478D01*
X144843902Y-78726780D01*
X144784937Y-78616466D01*
X144705585Y-78519775D01*
X144608894Y-78440423D01*
X144498580Y-78381458D01*
X144378882Y-78345148D01*
X144254400Y-78332888D01*
X142054400Y-78332888D01*
X141929918Y-78345148D01*
X141810220Y-78381458D01*
X141699906Y-78440423D01*
X141603215Y-78519775D01*
X141523863Y-78616466D01*
X141464898Y-78726780D01*
X141428588Y-78846478D01*
X141416328Y-78970960D01*
X141416328Y-79135960D01*
X139858689Y-79135960D01*
X139372550Y-78649821D01*
X139343264Y-78614136D01*
X139200892Y-78497294D01*
X139038460Y-78410473D01*
X138862212Y-78357009D01*
X138724852Y-78343480D01*
X138678920Y-78338956D01*
X138632988Y-78343480D01*
X130475930Y-78343480D01*
X128389280Y-76256831D01*
X128389280Y-76002785D01*
X128334133Y-75725546D01*
X128225960Y-75464393D01*
X128068917Y-75229361D01*
X127869039Y-75029483D01*
X127636521Y-74874120D01*
X127869039Y-74718757D01*
X128068917Y-74518879D01*
X128225960Y-74283847D01*
X128334133Y-74022694D01*
X128389280Y-73745455D01*
X128389280Y-73462785D01*
X128334133Y-73185546D01*
X128225960Y-72924393D01*
X128068917Y-72689361D01*
X127869039Y-72489483D01*
X127636521Y-72334120D01*
X127869039Y-72178757D01*
X128068917Y-71978879D01*
X128225960Y-71743847D01*
X128334133Y-71482694D01*
X128389280Y-71205455D01*
X128389280Y-70922785D01*
X128334133Y-70645546D01*
X128225960Y-70384393D01*
X128068917Y-70149361D01*
X127869039Y-69949483D01*
X127634007Y-69792440D01*
X127623415Y-69788053D01*
X127809411Y-69676505D01*
X128017799Y-69487534D01*
X128185317Y-69261540D01*
X128305526Y-69007207D01*
X128346184Y-68873159D01*
X128224195Y-68651120D01*
X127081280Y-68651120D01*
X127081280Y-68671120D01*
X126827280Y-68671120D01*
X126827280Y-68651120D01*
X125684365Y-68651120D01*
X125562376Y-68873159D01*
X125603034Y-69007207D01*
X125723243Y-69261540D01*
X125890761Y-69487534D01*
X126099149Y-69676505D01*
X126285145Y-69788053D01*
X126274553Y-69792440D01*
X126039521Y-69949483D01*
X125839643Y-70149361D01*
X125682600Y-70384393D01*
X125574427Y-70645546D01*
X125519280Y-70922785D01*
X125519280Y-71176830D01*
X123968501Y-72727610D01*
X123932816Y-72756896D01*
X123815974Y-72899269D01*
X123729153Y-73061701D01*
X123701349Y-73153359D01*
X123675689Y-73237949D01*
X123657636Y-73421240D01*
X123662160Y-73467172D01*
X123662161Y-80172338D01*
X123657636Y-80218280D01*
X123659169Y-80233839D01*
X123195360Y-79770031D01*
X123195360Y-68565969D01*
X124425816Y-67335514D01*
X124461496Y-67306232D01*
X124578338Y-67163860D01*
X124603036Y-67117654D01*
X125609567Y-66111122D01*
X125684364Y-66111122D01*
X125562376Y-66333159D01*
X125603034Y-66467207D01*
X125723243Y-66721540D01*
X125890761Y-66947534D01*
X126099149Y-67136505D01*
X126295262Y-67254120D01*
X126099149Y-67371735D01*
X125890761Y-67560706D01*
X125723243Y-67786700D01*
X125603034Y-68041033D01*
X125562376Y-68175081D01*
X125684365Y-68397120D01*
X126827280Y-68397120D01*
X126827280Y-66111120D01*
X127081280Y-66111120D01*
X127081280Y-68397120D01*
X128224195Y-68397120D01*
X128346184Y-68175081D01*
X128305526Y-68041033D01*
X128185317Y-67786700D01*
X128017799Y-67560706D01*
X127809411Y-67371735D01*
X127613298Y-67254120D01*
X127809411Y-67136505D01*
X128017799Y-66947534D01*
X128185317Y-66721540D01*
X128305526Y-66467207D01*
X128346184Y-66333159D01*
X133182376Y-66333159D01*
X133223034Y-66467207D01*
X133343243Y-66721540D01*
X133510761Y-66947534D01*
X133719149Y-67136505D01*
X133915262Y-67254120D01*
X133719149Y-67371735D01*
X133510761Y-67560706D01*
X133343243Y-67786700D01*
X133223034Y-68041033D01*
X133182376Y-68175081D01*
X133304365Y-68397120D01*
X134447280Y-68397120D01*
X134447280Y-66111120D01*
X133304365Y-66111120D01*
X133182376Y-66333159D01*
X128346184Y-66333159D01*
X128224195Y-66111120D01*
X127081280Y-66111120D01*
X126827280Y-66111120D01*
X126807280Y-66111120D01*
X126807280Y-65857120D01*
X126827280Y-65857120D01*
X126827280Y-65837120D01*
X127081280Y-65837120D01*
X127081280Y-65857120D01*
X128224195Y-65857120D01*
X128346184Y-65635081D01*
X128305526Y-65501033D01*
X128185317Y-65246700D01*
X128017799Y-65020706D01*
X127809411Y-64831735D01*
X127623415Y-64720187D01*
X127634007Y-64715800D01*
X127869039Y-64558757D01*
X128068917Y-64358879D01*
X128225960Y-64123847D01*
X128334133Y-63862694D01*
X128389280Y-63585455D01*
X128389280Y-63302785D01*
X128334133Y-63025546D01*
X128225960Y-62764393D01*
X128068917Y-62529361D01*
X127869039Y-62329483D01*
X127636521Y-62174120D01*
X127869039Y-62018757D01*
X128068917Y-61818879D01*
X128225960Y-61583847D01*
X128334133Y-61322694D01*
X128389280Y-61045455D01*
X128389280Y-60762785D01*
X128334133Y-60485546D01*
X128225960Y-60224393D01*
X128068917Y-59989361D01*
X127870319Y-59790763D01*
X127878762Y-59789932D01*
X127998460Y-59753622D01*
X128108774Y-59694657D01*
X128205465Y-59615305D01*
X128284817Y-59518614D01*
X128343782Y-59408300D01*
X128380092Y-59288602D01*
X128392352Y-59164120D01*
X128392352Y-57564120D01*
X128380092Y-57439638D01*
X128343782Y-57319940D01*
X128284817Y-57209626D01*
X128205465Y-57112935D01*
X128108774Y-57033583D01*
X127998460Y-56974618D01*
X127878762Y-56938308D01*
X127754280Y-56926048D01*
X126154280Y-56926048D01*
X126029798Y-56938308D01*
X125910100Y-56974618D01*
X125799786Y-57033583D01*
X125703095Y-57112935D01*
X125623743Y-57209626D01*
X125564778Y-57319940D01*
X125528468Y-57439638D01*
X125516208Y-57564120D01*
X125516208Y-59164120D01*
X125528468Y-59288602D01*
X125564778Y-59408300D01*
X125623743Y-59518614D01*
X125703095Y-59615305D01*
X125799786Y-59694657D01*
X125910100Y-59753622D01*
X126029798Y-59789932D01*
X126038241Y-59790763D01*
X125839643Y-59989361D01*
X125682600Y-60224393D01*
X125574427Y-60485546D01*
X125519280Y-60762785D01*
X125519280Y-61045455D01*
X125574427Y-61322694D01*
X125682600Y-61583847D01*
X125839643Y-61818879D01*
X126039521Y-62018757D01*
X126272039Y-62174120D01*
X126039521Y-62329483D01*
X125839643Y-62529361D01*
X125682600Y-62764393D01*
X125574427Y-63025546D01*
X125519280Y-63302785D01*
X125519280Y-63556830D01*
X123168493Y-65907618D01*
X123132808Y-65936904D01*
X123015966Y-66079277D01*
X122991270Y-66125480D01*
X121631701Y-67485050D01*
X121596016Y-67514336D01*
X121479174Y-67656709D01*
X121392353Y-67819141D01*
X121348440Y-67963905D01*
X121338889Y-67995389D01*
X121320836Y-68178680D01*
X121325360Y-68224612D01*
X121325360Y-69109068D01*
X121309126Y-69101111D01*
X121285062Y-69094726D01*
X121266064Y-69093088D01*
X114958202Y-69024334D01*
X115049131Y-68986670D01*
X115292352Y-68824155D01*
X115499195Y-68617312D01*
X115661710Y-68374091D01*
X115773652Y-68103838D01*
X115830720Y-67816940D01*
X115830720Y-67524420D01*
X115773652Y-67237522D01*
X115661710Y-66967269D01*
X115499195Y-66724048D01*
X115292352Y-66517205D01*
X115117960Y-66400680D01*
X115292352Y-66284155D01*
X115499195Y-66077312D01*
X115661710Y-65834091D01*
X115773652Y-65563838D01*
X115830720Y-65276940D01*
X115830720Y-64984420D01*
X115773652Y-64697522D01*
X115661710Y-64427269D01*
X115499195Y-64184048D01*
X115292352Y-63977205D01*
X115117960Y-63860680D01*
X115292352Y-63744155D01*
X115499195Y-63537312D01*
X115661710Y-63294091D01*
X115773652Y-63023838D01*
X115830720Y-62736940D01*
X115830720Y-62444420D01*
X115773652Y-62157522D01*
X115661710Y-61887269D01*
X115499195Y-61644048D01*
X115292352Y-61437205D01*
X115049131Y-61274690D01*
X114778878Y-61162748D01*
X114491980Y-61105680D01*
X114199460Y-61105680D01*
X113912562Y-61162748D01*
X113642309Y-61274690D01*
X113399088Y-61437205D01*
X113267233Y-61569060D01*
X113245222Y-61496500D01*
X113186257Y-61386186D01*
X113106905Y-61289495D01*
X113010214Y-61210143D01*
X112899900Y-61151178D01*
X112780202Y-61114868D01*
X112655720Y-61102608D01*
X110955720Y-61102608D01*
X110831238Y-61114868D01*
X110711540Y-61151178D01*
X110601226Y-61210143D01*
X110504535Y-61289495D01*
X110425183Y-61386186D01*
X110366218Y-61496500D01*
X110329908Y-61616198D01*
X110317648Y-61740680D01*
X110317648Y-63440680D01*
X110329908Y-63565162D01*
X110366218Y-63684860D01*
X110425183Y-63795174D01*
X110504535Y-63891865D01*
X110601226Y-63971217D01*
X110711540Y-64030182D01*
X110784100Y-64052193D01*
X110652245Y-64184048D01*
X110489730Y-64427269D01*
X110377788Y-64697522D01*
X110320720Y-64984420D01*
X110320720Y-65276940D01*
X110377788Y-65563838D01*
X110489730Y-65834091D01*
X110652245Y-66077312D01*
X110859088Y-66284155D01*
X111033480Y-66400680D01*
X110859088Y-66517205D01*
X110652245Y-66724048D01*
X110489730Y-66967269D01*
X110377788Y-67237522D01*
X110320720Y-67524420D01*
X110320720Y-67816940D01*
X110377788Y-68103838D01*
X110489730Y-68374091D01*
X110652245Y-68617312D01*
X110859088Y-68824155D01*
X111095669Y-68982233D01*
X107343480Y-68941335D01*
X107343480Y-51804200D01*
X109992528Y-51804200D01*
X109992528Y-53504200D01*
X110004788Y-53628682D01*
X110041098Y-53748380D01*
X110100063Y-53858694D01*
X110179415Y-53955385D01*
X110276106Y-54034737D01*
X110386420Y-54093702D01*
X110458980Y-54115713D01*
X110327125Y-54247568D01*
X110164610Y-54490789D01*
X110052668Y-54761042D01*
X109995600Y-55047940D01*
X109995600Y-55340460D01*
X110052668Y-55627358D01*
X110164610Y-55897611D01*
X110327125Y-56140832D01*
X110533968Y-56347675D01*
X110708360Y-56464200D01*
X110533968Y-56580725D01*
X110327125Y-56787568D01*
X110164610Y-57030789D01*
X110052668Y-57301042D01*
X109995600Y-57587940D01*
X109995600Y-57880460D01*
X110052668Y-58167358D01*
X110164610Y-58437611D01*
X110327125Y-58680832D01*
X110533968Y-58887675D01*
X110777189Y-59050190D01*
X111047442Y-59162132D01*
X111334340Y-59219200D01*
X111626860Y-59219200D01*
X111913758Y-59162132D01*
X112184011Y-59050190D01*
X112427232Y-58887675D01*
X112634075Y-58680832D01*
X112750600Y-58506440D01*
X112867125Y-58680832D01*
X113073968Y-58887675D01*
X113317189Y-59050190D01*
X113587442Y-59162132D01*
X113874340Y-59219200D01*
X114166860Y-59219200D01*
X114453758Y-59162132D01*
X114724011Y-59050190D01*
X114967232Y-58887675D01*
X115174075Y-58680832D01*
X115336590Y-58437611D01*
X115448532Y-58167358D01*
X115505600Y-57880460D01*
X115505600Y-57587940D01*
X115448532Y-57301042D01*
X115336590Y-57030789D01*
X115174075Y-56787568D01*
X114967232Y-56580725D01*
X114792840Y-56464200D01*
X114967232Y-56347675D01*
X115174075Y-56140832D01*
X115336590Y-55897611D01*
X115448532Y-55627358D01*
X115505600Y-55340460D01*
X115505600Y-55047940D01*
X115448532Y-54761042D01*
X115336590Y-54490789D01*
X115174075Y-54247568D01*
X114967232Y-54040725D01*
X114792840Y-53924200D01*
X114967232Y-53807675D01*
X115174075Y-53600832D01*
X115336590Y-53357611D01*
X115448532Y-53087358D01*
X115505600Y-52800460D01*
X115505600Y-52507940D01*
X115448532Y-52221042D01*
X115336590Y-51950789D01*
X115174075Y-51707568D01*
X114967232Y-51500725D01*
X114724011Y-51338210D01*
X114453758Y-51226268D01*
X114166860Y-51169200D01*
X113874340Y-51169200D01*
X113587442Y-51226268D01*
X113317189Y-51338210D01*
X113073968Y-51500725D01*
X112942113Y-51632580D01*
X112920102Y-51560020D01*
X112861137Y-51449706D01*
X112781785Y-51353015D01*
X112685094Y-51273663D01*
X112574780Y-51214698D01*
X112455082Y-51178388D01*
X112330600Y-51166128D01*
X110630600Y-51166128D01*
X110506118Y-51178388D01*
X110386420Y-51214698D01*
X110276106Y-51273663D01*
X110179415Y-51353015D01*
X110100063Y-51449706D01*
X110041098Y-51560020D01*
X110004788Y-51679718D01*
X109992528Y-51804200D01*
X107343480Y-51804200D01*
X107343480Y-49931161D01*
X109995600Y-47279042D01*
X109995600Y-47405500D01*
X110052668Y-47692398D01*
X110164610Y-47962651D01*
X110327125Y-48205872D01*
X110533968Y-48412715D01*
X110777189Y-48575230D01*
X111047442Y-48687172D01*
X111334340Y-48744240D01*
X111626860Y-48744240D01*
X111913758Y-48687172D01*
X112184011Y-48575230D01*
X112427232Y-48412715D01*
X112634075Y-48205872D01*
X112751700Y-48029834D01*
X112923012Y-48259509D01*
X113139245Y-48454418D01*
X113389348Y-48603397D01*
X113663709Y-48700721D01*
X113893600Y-48580054D01*
X113893600Y-47386240D01*
X113873600Y-47386240D01*
X113873600Y-47132240D01*
X113893600Y-47132240D01*
X113893600Y-47112240D01*
X114147600Y-47112240D01*
X114147600Y-47132240D01*
G37*
X114147600Y-47132240D02*
X114167600Y-47132240D01*
X114167600Y-47386240D01*
X114147600Y-47386240D01*
X114147600Y-48580054D01*
X114377491Y-48700721D01*
X114651852Y-48603397D01*
X114901955Y-48454418D01*
X115118188Y-48259509D01*
X115292241Y-48026160D01*
X115417425Y-47763339D01*
X115462076Y-47616130D01*
X115340756Y-47386242D01*
X115365313Y-47386242D01*
X123100895Y-55121825D01*
X123130176Y-55157504D01*
X123272548Y-55274346D01*
X123434980Y-55361167D01*
X123557763Y-55398413D01*
X123611227Y-55414631D01*
X123794519Y-55432684D01*
X123840451Y-55428160D01*
X130316031Y-55428160D01*
X133139280Y-58251410D01*
X133139280Y-58505455D01*
X133194427Y-58782694D01*
X133302600Y-59043847D01*
X133459643Y-59278879D01*
X133659521Y-59478757D01*
X133892039Y-59634120D01*
X133659521Y-59789483D01*
X133459643Y-59989361D01*
X133302600Y-60224393D01*
X133194427Y-60485546D01*
X133139280Y-60762785D01*
X133139280Y-61045455D01*
X133194427Y-61322694D01*
X133302600Y-61583847D01*
X133459643Y-61818879D01*
X133659521Y-62018757D01*
X133892039Y-62174120D01*
X133659521Y-62329483D01*
X133459643Y-62529361D01*
X133302600Y-62764393D01*
X133194427Y-63025546D01*
X133139280Y-63302785D01*
X133139280Y-63585455D01*
X133194427Y-63862694D01*
X133302600Y-64123847D01*
X133459643Y-64358879D01*
X133659521Y-64558757D01*
X133894553Y-64715800D01*
X133905145Y-64720187D01*
X133719149Y-64831735D01*
X133510761Y-65020706D01*
X133343243Y-65246700D01*
X133223034Y-65501033D01*
X133182376Y-65635081D01*
X133304365Y-65857120D01*
X134447280Y-65857120D01*
X134447280Y-65837120D01*
X134701280Y-65837120D01*
X134701280Y-65857120D01*
X134721280Y-65857120D01*
X134721280Y-66111120D01*
X134701280Y-66111120D01*
X134701280Y-68397120D01*
X135844195Y-68397120D01*
X135966184Y-68175081D01*
X135925526Y-68041033D01*
X135805317Y-67786700D01*
X135637799Y-67560706D01*
X135429411Y-67371735D01*
X135233298Y-67254120D01*
X135429411Y-67136505D01*
X135637799Y-66947534D01*
X135805317Y-66721540D01*
X135925526Y-66467207D01*
X135966184Y-66333159D01*
X135844196Y-66111122D01*
X135918993Y-66111122D01*
X136126010Y-66318139D01*
X136155296Y-66353824D01*
X136297668Y-66470666D01*
X136384737Y-66517205D01*
X136460099Y-66557487D01*
X136636348Y-66610952D01*
X136819640Y-66629004D01*
X136865575Y-66624480D01*
X141337678Y-66624480D01*
X141329968Y-66702760D01*
X141329968Y-68218543D01*
X139419391Y-70129120D01*
X135668676Y-70129120D01*
X135489039Y-69949483D01*
X135254007Y-69792440D01*
X135243415Y-69788053D01*
X135429411Y-69676505D01*
X135637799Y-69487534D01*
X135805317Y-69261540D01*
X135925526Y-69007207D01*
X135966184Y-68873159D01*
X135844195Y-68651120D01*
X134701280Y-68651120D01*
X134701280Y-68671120D01*
X134447280Y-68671120D01*
X134447280Y-68651120D01*
X133304365Y-68651120D01*
X133182376Y-68873159D01*
X133223034Y-69007207D01*
X133343243Y-69261540D01*
X133510761Y-69487534D01*
X133719149Y-69676505D01*
X133905145Y-69788053D01*
X133894553Y-69792440D01*
X133659521Y-69949483D01*
X133459643Y-70149361D01*
X133302600Y-70384393D01*
X133194427Y-70645546D01*
X133139280Y-70922785D01*
X133139280Y-71205455D01*
X133194427Y-71482694D01*
X133302600Y-71743847D01*
X133459643Y-71978879D01*
X133659521Y-72178757D01*
X133892039Y-72334120D01*
X133659521Y-72489483D01*
X133459643Y-72689361D01*
X133302600Y-72924393D01*
X133194427Y-73185546D01*
X133139280Y-73462785D01*
X133139280Y-73745455D01*
X133194427Y-74022694D01*
X133302600Y-74283847D01*
X133459643Y-74518879D01*
X133659521Y-74718757D01*
X133892039Y-74874120D01*
X133659521Y-75029483D01*
X133459643Y-75229361D01*
X133302600Y-75464393D01*
X133194427Y-75725546D01*
X133139280Y-76002785D01*
X133139280Y-76285455D01*
X133194427Y-76562694D01*
X133302600Y-76823847D01*
X133459643Y-77058879D01*
X133659521Y-77258757D01*
X133894553Y-77415800D01*
X134155706Y-77523973D01*
X134432945Y-77579120D01*
X134715615Y-77579120D01*
X134992854Y-77523973D01*
X135254007Y-77415800D01*
X135489039Y-77258757D01*
X135688917Y-77058879D01*
X135845960Y-76823847D01*
X135954133Y-76562694D01*
X136009280Y-76285455D01*
X136009280Y-76002785D01*
X135954133Y-75725546D01*
X135845960Y-75464393D01*
X135688917Y-75229361D01*
X135489039Y-75029483D01*
X135256521Y-74874120D01*
X135489039Y-74718757D01*
X135688917Y-74518879D01*
X135845960Y-74283847D01*
X135954133Y-74022694D01*
X136009280Y-73745455D01*
X136009280Y-73462785D01*
X135954133Y-73185546D01*
X135845960Y-72924393D01*
X135688917Y-72689361D01*
X135489039Y-72489483D01*
X135256521Y-72334120D01*
X135489039Y-72178757D01*
X135668676Y-71999120D01*
X139760748Y-71999120D01*
X139806680Y-72003644D01*
X139852612Y-71999120D01*
X139989972Y-71985591D01*
X140166220Y-71932127D01*
X140328652Y-71845306D01*
X140471024Y-71728464D01*
X140500310Y-71692779D01*
X141331650Y-70861439D01*
X141329968Y-70878520D01*
X141329968Y-73078520D01*
X141342228Y-73203002D01*
X141378538Y-73322700D01*
X141437503Y-73433014D01*
X141516855Y-73529705D01*
X141613546Y-73609057D01*
X141723860Y-73668022D01*
X141843558Y-73704332D01*
X141968040Y-73716592D01*
X144168040Y-73716592D01*
X144292522Y-73704332D01*
X144412220Y-73668022D01*
X144522534Y-73609057D01*
X144619225Y-73529705D01*
X144698577Y-73433014D01*
X144757542Y-73322700D01*
X144793852Y-73203002D01*
X144806112Y-73078520D01*
X144806112Y-70878520D01*
X144793852Y-70754038D01*
X144757542Y-70634340D01*
X144698577Y-70524026D01*
X144619225Y-70427335D01*
X144522534Y-70347983D01*
X144412220Y-70289018D01*
X144292522Y-70252708D01*
X144168040Y-70240448D01*
X141968040Y-70240448D01*
X141950959Y-70242130D01*
X142652257Y-69540832D01*
X144168040Y-69540832D01*
X144292522Y-69528572D01*
X144412220Y-69492262D01*
X144522534Y-69433297D01*
X144619225Y-69353945D01*
X144698577Y-69257254D01*
X144757542Y-69146940D01*
X144793852Y-69027242D01*
X144806112Y-68902760D01*
X144806112Y-66702760D01*
X144798402Y-66624480D01*
X147003831Y-66624480D01*
X147436560Y-67057209D01*
X147436561Y-75263419D01*
X147335652Y-75232809D01*
X147198292Y-75219280D01*
X147152360Y-75214756D01*
X147106428Y-75219280D01*
X144806112Y-75219280D01*
X144806112Y-75054280D01*
X144793852Y-74929798D01*
X144757542Y-74810100D01*
X144698577Y-74699786D01*
X144619225Y-74603095D01*
X144522534Y-74523743D01*
X144412220Y-74464778D01*
X144292522Y-74428468D01*
X144168040Y-74416208D01*
X141968040Y-74416208D01*
X141843558Y-74428468D01*
X141723860Y-74464778D01*
X141613546Y-74523743D01*
X141516855Y-74603095D01*
X141437503Y-74699786D01*
X141378538Y-74810100D01*
X141342228Y-74929798D01*
X141329968Y-75054280D01*
X141329968Y-77254280D01*
X141342228Y-77378762D01*
X141378538Y-77498460D01*
X141437503Y-77608774D01*
X141516855Y-77705465D01*
X141613546Y-77784817D01*
X141723860Y-77843782D01*
X141843558Y-77880092D01*
X141968040Y-77892352D01*
X144168040Y-77892352D01*
X144292522Y-77880092D01*
X144412220Y-77843782D01*
X144522534Y-77784817D01*
X144619225Y-77705465D01*
X144698577Y-77608774D01*
X144757542Y-77498460D01*
X144793852Y-77378762D01*
X144806112Y-77254280D01*
X144806112Y-77089280D01*
X146765071Y-77089280D01*
X147060641Y-77384851D01*
X147060640Y-79556670D01*
X144732872Y-81884439D01*
X127585609Y-81884439D01*
X125532160Y-79830991D01*
X125532160Y-76350206D01*
X125574427Y-76562694D01*
X125682600Y-76823847D01*
X125839643Y-77058879D01*
X126039521Y-77258757D01*
X126274553Y-77415800D01*
X126535706Y-77523973D01*
X126812945Y-77579120D01*
X127066991Y-77579120D01*
X129395014Y-79907144D01*
X129424296Y-79942824D01*
X129566668Y-80059666D01*
X129729100Y-80146487D01*
X129851883Y-80183733D01*
X129905347Y-80199951D01*
X129923750Y-80201763D01*
X130042708Y-80213480D01*
X130042714Y-80213480D01*
X130088639Y-80218003D01*
X130134564Y-80213480D01*
X138291631Y-80213480D01*
X138777770Y-80699619D01*
X138807056Y-80735304D01*
X138949428Y-80852146D01*
X139111860Y-80938967D01*
X139272934Y-80987828D01*
X139288108Y-80992431D01*
X139471400Y-81010484D01*
X139517332Y-81005960D01*
X141416328Y-81005960D01*
X141416328Y-81170960D01*
X141428588Y-81295442D01*
X141464898Y-81415140D01*
X141523863Y-81525454D01*
X141603215Y-81622145D01*
X141699906Y-81701497D01*
X141810220Y-81760462D01*
X141929918Y-81796772D01*
X142054400Y-81809032D01*
X144254400Y-81809032D01*
X144378882Y-81796772D01*
X144498580Y-81760462D01*
X144608894Y-81701497D01*
X144705585Y-81622145D01*
X144784937Y-81525454D01*
X144843902Y-81415140D01*
X144880212Y-81295442D01*
X144892472Y-81170960D01*
X144892472Y-78970960D01*
X144880212Y-78846478D01*
X144843902Y-78726780D01*
X144784937Y-78616466D01*
X144705585Y-78519775D01*
X144608894Y-78440423D01*
X144498580Y-78381458D01*
X144378882Y-78345148D01*
X144254400Y-78332888D01*
X142054400Y-78332888D01*
X141929918Y-78345148D01*
X141810220Y-78381458D01*
X141699906Y-78440423D01*
X141603215Y-78519775D01*
X141523863Y-78616466D01*
X141464898Y-78726780D01*
X141428588Y-78846478D01*
X141416328Y-78970960D01*
X141416328Y-79135960D01*
X139858689Y-79135960D01*
X139372550Y-78649821D01*
X139343264Y-78614136D01*
X139200892Y-78497294D01*
X139038460Y-78410473D01*
X138862212Y-78357009D01*
X138724852Y-78343480D01*
X138678920Y-78338956D01*
X138632988Y-78343480D01*
X130475930Y-78343480D01*
X128389280Y-76256831D01*
X128389280Y-76002785D01*
X128334133Y-75725546D01*
X128225960Y-75464393D01*
X128068917Y-75229361D01*
X127869039Y-75029483D01*
X127636521Y-74874120D01*
X127869039Y-74718757D01*
X128068917Y-74518879D01*
X128225960Y-74283847D01*
X128334133Y-74022694D01*
X128389280Y-73745455D01*
X128389280Y-73462785D01*
X128334133Y-73185546D01*
X128225960Y-72924393D01*
X128068917Y-72689361D01*
X127869039Y-72489483D01*
X127636521Y-72334120D01*
X127869039Y-72178757D01*
X128068917Y-71978879D01*
X128225960Y-71743847D01*
X128334133Y-71482694D01*
X128389280Y-71205455D01*
X128389280Y-70922785D01*
X128334133Y-70645546D01*
X128225960Y-70384393D01*
X128068917Y-70149361D01*
X127869039Y-69949483D01*
X127634007Y-69792440D01*
X127623415Y-69788053D01*
X127809411Y-69676505D01*
X128017799Y-69487534D01*
X128185317Y-69261540D01*
X128305526Y-69007207D01*
X128346184Y-68873159D01*
X128224195Y-68651120D01*
X127081280Y-68651120D01*
X127081280Y-68671120D01*
X126827280Y-68671120D01*
X126827280Y-68651120D01*
X125684365Y-68651120D01*
X125562376Y-68873159D01*
X125603034Y-69007207D01*
X125723243Y-69261540D01*
X125890761Y-69487534D01*
X126099149Y-69676505D01*
X126285145Y-69788053D01*
X126274553Y-69792440D01*
X126039521Y-69949483D01*
X125839643Y-70149361D01*
X125682600Y-70384393D01*
X125574427Y-70645546D01*
X125519280Y-70922785D01*
X125519280Y-71176830D01*
X123968501Y-72727610D01*
X123932816Y-72756896D01*
X123815974Y-72899269D01*
X123729153Y-73061701D01*
X123701349Y-73153359D01*
X123675689Y-73237949D01*
X123657636Y-73421240D01*
X123662160Y-73467172D01*
X123662161Y-80172338D01*
X123657636Y-80218280D01*
X123659169Y-80233839D01*
X123195360Y-79770031D01*
X123195360Y-68565969D01*
X124425816Y-67335514D01*
X124461496Y-67306232D01*
X124578338Y-67163860D01*
X124603036Y-67117654D01*
X125609567Y-66111122D01*
X125684364Y-66111122D01*
X125562376Y-66333159D01*
X125603034Y-66467207D01*
X125723243Y-66721540D01*
X125890761Y-66947534D01*
X126099149Y-67136505D01*
X126295262Y-67254120D01*
X126099149Y-67371735D01*
X125890761Y-67560706D01*
X125723243Y-67786700D01*
X125603034Y-68041033D01*
X125562376Y-68175081D01*
X125684365Y-68397120D01*
X126827280Y-68397120D01*
X126827280Y-66111120D01*
X127081280Y-66111120D01*
X127081280Y-68397120D01*
X128224195Y-68397120D01*
X128346184Y-68175081D01*
X128305526Y-68041033D01*
X128185317Y-67786700D01*
X128017799Y-67560706D01*
X127809411Y-67371735D01*
X127613298Y-67254120D01*
X127809411Y-67136505D01*
X128017799Y-66947534D01*
X128185317Y-66721540D01*
X128305526Y-66467207D01*
X128346184Y-66333159D01*
X133182376Y-66333159D01*
X133223034Y-66467207D01*
X133343243Y-66721540D01*
X133510761Y-66947534D01*
X133719149Y-67136505D01*
X133915262Y-67254120D01*
X133719149Y-67371735D01*
X133510761Y-67560706D01*
X133343243Y-67786700D01*
X133223034Y-68041033D01*
X133182376Y-68175081D01*
X133304365Y-68397120D01*
X134447280Y-68397120D01*
X134447280Y-66111120D01*
X133304365Y-66111120D01*
X133182376Y-66333159D01*
X128346184Y-66333159D01*
X128224195Y-66111120D01*
X127081280Y-66111120D01*
X126827280Y-66111120D01*
X126807280Y-66111120D01*
X126807280Y-65857120D01*
X126827280Y-65857120D01*
X126827280Y-65837120D01*
X127081280Y-65837120D01*
X127081280Y-65857120D01*
X128224195Y-65857120D01*
X128346184Y-65635081D01*
X128305526Y-65501033D01*
X128185317Y-65246700D01*
X128017799Y-65020706D01*
X127809411Y-64831735D01*
X127623415Y-64720187D01*
X127634007Y-64715800D01*
X127869039Y-64558757D01*
X128068917Y-64358879D01*
X128225960Y-64123847D01*
X128334133Y-63862694D01*
X128389280Y-63585455D01*
X128389280Y-63302785D01*
X128334133Y-63025546D01*
X128225960Y-62764393D01*
X128068917Y-62529361D01*
X127869039Y-62329483D01*
X127636521Y-62174120D01*
X127869039Y-62018757D01*
X128068917Y-61818879D01*
X128225960Y-61583847D01*
X128334133Y-61322694D01*
X128389280Y-61045455D01*
X128389280Y-60762785D01*
X128334133Y-60485546D01*
X128225960Y-60224393D01*
X128068917Y-59989361D01*
X127870319Y-59790763D01*
X127878762Y-59789932D01*
X127998460Y-59753622D01*
X128108774Y-59694657D01*
X128205465Y-59615305D01*
X128284817Y-59518614D01*
X128343782Y-59408300D01*
X128380092Y-59288602D01*
X128392352Y-59164120D01*
X128392352Y-57564120D01*
X128380092Y-57439638D01*
X128343782Y-57319940D01*
X128284817Y-57209626D01*
X128205465Y-57112935D01*
X128108774Y-57033583D01*
X127998460Y-56974618D01*
X127878762Y-56938308D01*
X127754280Y-56926048D01*
X126154280Y-56926048D01*
X126029798Y-56938308D01*
X125910100Y-56974618D01*
X125799786Y-57033583D01*
X125703095Y-57112935D01*
X125623743Y-57209626D01*
X125564778Y-57319940D01*
X125528468Y-57439638D01*
X125516208Y-57564120D01*
X125516208Y-59164120D01*
X125528468Y-59288602D01*
X125564778Y-59408300D01*
X125623743Y-59518614D01*
X125703095Y-59615305D01*
X125799786Y-59694657D01*
X125910100Y-59753622D01*
X126029798Y-59789932D01*
X126038241Y-59790763D01*
X125839643Y-59989361D01*
X125682600Y-60224393D01*
X125574427Y-60485546D01*
X125519280Y-60762785D01*
X125519280Y-61045455D01*
X125574427Y-61322694D01*
X125682600Y-61583847D01*
X125839643Y-61818879D01*
X126039521Y-62018757D01*
X126272039Y-62174120D01*
X126039521Y-62329483D01*
X125839643Y-62529361D01*
X125682600Y-62764393D01*
X125574427Y-63025546D01*
X125519280Y-63302785D01*
X125519280Y-63556830D01*
X123168493Y-65907618D01*
X123132808Y-65936904D01*
X123015966Y-66079277D01*
X122991270Y-66125480D01*
X121631701Y-67485050D01*
X121596016Y-67514336D01*
X121479174Y-67656709D01*
X121392353Y-67819141D01*
X121348440Y-67963905D01*
X121338889Y-67995389D01*
X121320836Y-68178680D01*
X121325360Y-68224612D01*
X121325360Y-69109068D01*
X121309126Y-69101111D01*
X121285062Y-69094726D01*
X121266064Y-69093088D01*
X114958202Y-69024334D01*
X115049131Y-68986670D01*
X115292352Y-68824155D01*
X115499195Y-68617312D01*
X115661710Y-68374091D01*
X115773652Y-68103838D01*
X115830720Y-67816940D01*
X115830720Y-67524420D01*
X115773652Y-67237522D01*
X115661710Y-66967269D01*
X115499195Y-66724048D01*
X115292352Y-66517205D01*
X115117960Y-66400680D01*
X115292352Y-66284155D01*
X115499195Y-66077312D01*
X115661710Y-65834091D01*
X115773652Y-65563838D01*
X115830720Y-65276940D01*
X115830720Y-64984420D01*
X115773652Y-64697522D01*
X115661710Y-64427269D01*
X115499195Y-64184048D01*
X115292352Y-63977205D01*
X115117960Y-63860680D01*
X115292352Y-63744155D01*
X115499195Y-63537312D01*
X115661710Y-63294091D01*
X115773652Y-63023838D01*
X115830720Y-62736940D01*
X115830720Y-62444420D01*
X115773652Y-62157522D01*
X115661710Y-61887269D01*
X115499195Y-61644048D01*
X115292352Y-61437205D01*
X115049131Y-61274690D01*
X114778878Y-61162748D01*
X114491980Y-61105680D01*
X114199460Y-61105680D01*
X113912562Y-61162748D01*
X113642309Y-61274690D01*
X113399088Y-61437205D01*
X113267233Y-61569060D01*
X113245222Y-61496500D01*
X113186257Y-61386186D01*
X113106905Y-61289495D01*
X113010214Y-61210143D01*
X112899900Y-61151178D01*
X112780202Y-61114868D01*
X112655720Y-61102608D01*
X110955720Y-61102608D01*
X110831238Y-61114868D01*
X110711540Y-61151178D01*
X110601226Y-61210143D01*
X110504535Y-61289495D01*
X110425183Y-61386186D01*
X110366218Y-61496500D01*
X110329908Y-61616198D01*
X110317648Y-61740680D01*
X110317648Y-63440680D01*
X110329908Y-63565162D01*
X110366218Y-63684860D01*
X110425183Y-63795174D01*
X110504535Y-63891865D01*
X110601226Y-63971217D01*
X110711540Y-64030182D01*
X110784100Y-64052193D01*
X110652245Y-64184048D01*
X110489730Y-64427269D01*
X110377788Y-64697522D01*
X110320720Y-64984420D01*
X110320720Y-65276940D01*
X110377788Y-65563838D01*
X110489730Y-65834091D01*
X110652245Y-66077312D01*
X110859088Y-66284155D01*
X111033480Y-66400680D01*
X110859088Y-66517205D01*
X110652245Y-66724048D01*
X110489730Y-66967269D01*
X110377788Y-67237522D01*
X110320720Y-67524420D01*
X110320720Y-67816940D01*
X110377788Y-68103838D01*
X110489730Y-68374091D01*
X110652245Y-68617312D01*
X110859088Y-68824155D01*
X111095669Y-68982233D01*
X107343480Y-68941335D01*
X107343480Y-51804200D01*
X109992528Y-51804200D01*
X109992528Y-53504200D01*
X110004788Y-53628682D01*
X110041098Y-53748380D01*
X110100063Y-53858694D01*
X110179415Y-53955385D01*
X110276106Y-54034737D01*
X110386420Y-54093702D01*
X110458980Y-54115713D01*
X110327125Y-54247568D01*
X110164610Y-54490789D01*
X110052668Y-54761042D01*
X109995600Y-55047940D01*
X109995600Y-55340460D01*
X110052668Y-55627358D01*
X110164610Y-55897611D01*
X110327125Y-56140832D01*
X110533968Y-56347675D01*
X110708360Y-56464200D01*
X110533968Y-56580725D01*
X110327125Y-56787568D01*
X110164610Y-57030789D01*
X110052668Y-57301042D01*
X109995600Y-57587940D01*
X109995600Y-57880460D01*
X110052668Y-58167358D01*
X110164610Y-58437611D01*
X110327125Y-58680832D01*
X110533968Y-58887675D01*
X110777189Y-59050190D01*
X111047442Y-59162132D01*
X111334340Y-59219200D01*
X111626860Y-59219200D01*
X111913758Y-59162132D01*
X112184011Y-59050190D01*
X112427232Y-58887675D01*
X112634075Y-58680832D01*
X112750600Y-58506440D01*
X112867125Y-58680832D01*
X113073968Y-58887675D01*
X113317189Y-59050190D01*
X113587442Y-59162132D01*
X113874340Y-59219200D01*
X114166860Y-59219200D01*
X114453758Y-59162132D01*
X114724011Y-59050190D01*
X114967232Y-58887675D01*
X115174075Y-58680832D01*
X115336590Y-58437611D01*
X115448532Y-58167358D01*
X115505600Y-57880460D01*
X115505600Y-57587940D01*
X115448532Y-57301042D01*
X115336590Y-57030789D01*
X115174075Y-56787568D01*
X114967232Y-56580725D01*
X114792840Y-56464200D01*
X114967232Y-56347675D01*
X115174075Y-56140832D01*
X115336590Y-55897611D01*
X115448532Y-55627358D01*
X115505600Y-55340460D01*
X115505600Y-55047940D01*
X115448532Y-54761042D01*
X115336590Y-54490789D01*
X115174075Y-54247568D01*
X114967232Y-54040725D01*
X114792840Y-53924200D01*
X114967232Y-53807675D01*
X115174075Y-53600832D01*
X115336590Y-53357611D01*
X115448532Y-53087358D01*
X115505600Y-52800460D01*
X115505600Y-52507940D01*
X115448532Y-52221042D01*
X115336590Y-51950789D01*
X115174075Y-51707568D01*
X114967232Y-51500725D01*
X114724011Y-51338210D01*
X114453758Y-51226268D01*
X114166860Y-51169200D01*
X113874340Y-51169200D01*
X113587442Y-51226268D01*
X113317189Y-51338210D01*
X113073968Y-51500725D01*
X112942113Y-51632580D01*
X112920102Y-51560020D01*
X112861137Y-51449706D01*
X112781785Y-51353015D01*
X112685094Y-51273663D01*
X112574780Y-51214698D01*
X112455082Y-51178388D01*
X112330600Y-51166128D01*
X110630600Y-51166128D01*
X110506118Y-51178388D01*
X110386420Y-51214698D01*
X110276106Y-51273663D01*
X110179415Y-51353015D01*
X110100063Y-51449706D01*
X110041098Y-51560020D01*
X110004788Y-51679718D01*
X109992528Y-51804200D01*
X107343480Y-51804200D01*
X107343480Y-49931161D01*
X109995600Y-47279042D01*
X109995600Y-47405500D01*
X110052668Y-47692398D01*
X110164610Y-47962651D01*
X110327125Y-48205872D01*
X110533968Y-48412715D01*
X110777189Y-48575230D01*
X111047442Y-48687172D01*
X111334340Y-48744240D01*
X111626860Y-48744240D01*
X111913758Y-48687172D01*
X112184011Y-48575230D01*
X112427232Y-48412715D01*
X112634075Y-48205872D01*
X112751700Y-48029834D01*
X112923012Y-48259509D01*
X113139245Y-48454418D01*
X113389348Y-48603397D01*
X113663709Y-48700721D01*
X113893600Y-48580054D01*
X113893600Y-47386240D01*
X113873600Y-47386240D01*
X113873600Y-47132240D01*
X113893600Y-47132240D01*
X113893600Y-47112240D01*
X114147600Y-47112240D01*
X114147600Y-47132240D01*
%TD*%
M02*
