%TF.GenerationSoftware,KiCad,Pcbnew,(5.1.6)-1*%
%TF.CreationDate,2021-05-14T12:26:57+02:00*%
%TF.ProjectId,nano1,6e616e6f-312e-46b6-9963-61645f706362,rev?*%
%TF.SameCoordinates,Original*%
%TF.FileFunction,Copper,L1,Top*%
%TF.FilePolarity,Positive*%
%FSLAX46Y46*%
G04 Gerber Fmt 4.6, Leading zero omitted, Abs format (unit mm)*
G04 Created by KiCad (PCBNEW (5.1.6)-1) date 2021-05-14 12:26:57*
%MOMM*%
%LPD*%
G01*
G04 APERTURE LIST*
%TA.AperFunction,ComponentPad*%
%ADD10O,1.700000X1.700000*%
%TD*%
%TA.AperFunction,ComponentPad*%
%ADD11R,1.700000X1.700000*%
%TD*%
%TA.AperFunction,SMDPad,CuDef*%
%ADD12R,0.250000X1.100000*%
%TD*%
%TA.AperFunction,ComponentPad*%
%ADD13C,2.600000*%
%TD*%
%TA.AperFunction,ComponentPad*%
%ADD14R,2.600000X2.600000*%
%TD*%
%TA.AperFunction,ComponentPad*%
%ADD15R,3.500000X3.500000*%
%TD*%
%TA.AperFunction,ComponentPad*%
%ADD16R,1.600000X1.600000*%
%TD*%
%TA.AperFunction,ComponentPad*%
%ADD17C,1.600000*%
%TD*%
%TA.AperFunction,ComponentPad*%
%ADD18R,2.200000X2.200000*%
%TD*%
%TA.AperFunction,ComponentPad*%
%ADD19O,2.200000X2.200000*%
%TD*%
%TA.AperFunction,ComponentPad*%
%ADD20O,1.600000X1.600000*%
%TD*%
%TA.AperFunction,ViaPad*%
%ADD21C,0.800000*%
%TD*%
%TA.AperFunction,Conductor*%
%ADD22C,0.250000*%
%TD*%
%TA.AperFunction,Conductor*%
%ADD23C,0.600000*%
%TD*%
%TA.AperFunction,Conductor*%
%ADD24C,0.254000*%
%TD*%
G04 APERTURE END LIST*
D10*
%TO.P,J12,2*%
%TO.N,GND*%
X133807200Y-90114120D03*
D11*
%TO.P,J12,1*%
%TO.N,Net-(J1-Pad9)*%
X136347200Y-90114120D03*
%TD*%
D10*
%TO.P,J11,2*%
%TO.N,Net-(J11-Pad2)*%
X124028200Y-47320200D03*
D11*
%TO.P,J11,1*%
%TO.N,Net-(J1-Pad39)*%
X124028200Y-44780200D03*
%TD*%
D10*
%TO.P,J10,4*%
%TO.N,/AIN3*%
X112100360Y-86476840D03*
%TO.P,J10,3*%
%TO.N,/AIN2*%
X112100360Y-89016840D03*
%TO.P,J10,2*%
%TO.N,/AIN1*%
X112100360Y-91556840D03*
D11*
%TO.P,J10,1*%
%TO.N,/AIN0*%
X112100360Y-94096840D03*
%TD*%
D10*
%TO.P,J9,3*%
%TO.N,/AIN0*%
X170703240Y-94066360D03*
%TO.P,J9,2*%
%TO.N,VCC*%
X170703240Y-91526360D03*
D11*
%TO.P,J9,1*%
%TO.N,GND*%
X170703240Y-88986360D03*
%TD*%
D12*
%TO.P,U2,10*%
%TO.N,/SCL*%
X126213360Y-87633920D03*
%TO.P,U2,9*%
%TO.N,/SDA*%
X126713360Y-87633920D03*
%TO.P,U2,8*%
%TO.N,VCC*%
X127213360Y-87633920D03*
%TO.P,U2,7*%
%TO.N,/AIN3*%
X127713360Y-87633920D03*
%TO.P,U2,6*%
%TO.N,/AIN2*%
X128213360Y-87633920D03*
%TO.P,U2,5*%
%TO.N,/AIN1*%
X128213360Y-91933920D03*
%TO.P,U2,4*%
%TO.N,/AIN0*%
X127713360Y-91933920D03*
%TO.P,U2,3*%
%TO.N,GND*%
X127213360Y-91933920D03*
%TO.P,U2,2*%
%TO.N,/ALERT*%
X126713360Y-91933920D03*
%TO.P,U2,1*%
%TO.N,/ADDR*%
X126213360Y-91933920D03*
%TD*%
%TO.P,C3,2*%
%TO.N,GND*%
%TA.AperFunction,SMDPad,CuDef*%
G36*
G01*
X143406150Y-91764600D02*
X143918650Y-91764600D01*
G75*
G02*
X144137400Y-91983350I0J-218750D01*
G01*
X144137400Y-92420850D01*
G75*
G02*
X143918650Y-92639600I-218750J0D01*
G01*
X143406150Y-92639600D01*
G75*
G02*
X143187400Y-92420850I0J218750D01*
G01*
X143187400Y-91983350D01*
G75*
G02*
X143406150Y-91764600I218750J0D01*
G01*
G37*
%TD.AperFunction*%
%TO.P,C3,1*%
%TO.N,VCC*%
%TA.AperFunction,SMDPad,CuDef*%
G36*
G01*
X143406150Y-90189600D02*
X143918650Y-90189600D01*
G75*
G02*
X144137400Y-90408350I0J-218750D01*
G01*
X144137400Y-90845850D01*
G75*
G02*
X143918650Y-91064600I-218750J0D01*
G01*
X143406150Y-91064600D01*
G75*
G02*
X143187400Y-90845850I0J218750D01*
G01*
X143187400Y-90408350D01*
G75*
G02*
X143406150Y-90189600I218750J0D01*
G01*
G37*
%TD.AperFunction*%
%TD*%
%TO.P,R3,2*%
%TO.N,/ADDR*%
%TA.AperFunction,SMDPad,CuDef*%
G36*
G01*
X155684510Y-91901760D02*
X156197010Y-91901760D01*
G75*
G02*
X156415760Y-92120510I0J-218750D01*
G01*
X156415760Y-92558010D01*
G75*
G02*
X156197010Y-92776760I-218750J0D01*
G01*
X155684510Y-92776760D01*
G75*
G02*
X155465760Y-92558010I0J218750D01*
G01*
X155465760Y-92120510D01*
G75*
G02*
X155684510Y-91901760I218750J0D01*
G01*
G37*
%TD.AperFunction*%
%TO.P,R3,1*%
%TO.N,GND*%
%TA.AperFunction,SMDPad,CuDef*%
G36*
G01*
X155684510Y-90326760D02*
X156197010Y-90326760D01*
G75*
G02*
X156415760Y-90545510I0J-218750D01*
G01*
X156415760Y-90983010D01*
G75*
G02*
X156197010Y-91201760I-218750J0D01*
G01*
X155684510Y-91201760D01*
G75*
G02*
X155465760Y-90983010I0J218750D01*
G01*
X155465760Y-90545510D01*
G75*
G02*
X155684510Y-90326760I218750J0D01*
G01*
G37*
%TD.AperFunction*%
%TD*%
%TO.P,R2,2*%
%TO.N,/SDA*%
%TA.AperFunction,SMDPad,CuDef*%
G36*
G01*
X147591490Y-91064600D02*
X147078990Y-91064600D01*
G75*
G02*
X146860240Y-90845850I0J218750D01*
G01*
X146860240Y-90408350D01*
G75*
G02*
X147078990Y-90189600I218750J0D01*
G01*
X147591490Y-90189600D01*
G75*
G02*
X147810240Y-90408350I0J-218750D01*
G01*
X147810240Y-90845850D01*
G75*
G02*
X147591490Y-91064600I-218750J0D01*
G01*
G37*
%TD.AperFunction*%
%TO.P,R2,1*%
%TO.N,VCC*%
%TA.AperFunction,SMDPad,CuDef*%
G36*
G01*
X147591490Y-92639600D02*
X147078990Y-92639600D01*
G75*
G02*
X146860240Y-92420850I0J218750D01*
G01*
X146860240Y-91983350D01*
G75*
G02*
X147078990Y-91764600I218750J0D01*
G01*
X147591490Y-91764600D01*
G75*
G02*
X147810240Y-91983350I0J-218750D01*
G01*
X147810240Y-92420850D01*
G75*
G02*
X147591490Y-92639600I-218750J0D01*
G01*
G37*
%TD.AperFunction*%
%TD*%
%TO.P,R1,2*%
%TO.N,/SCL*%
%TA.AperFunction,SMDPad,CuDef*%
G36*
G01*
X150370250Y-91105240D02*
X149857750Y-91105240D01*
G75*
G02*
X149639000Y-90886490I0J218750D01*
G01*
X149639000Y-90448990D01*
G75*
G02*
X149857750Y-90230240I218750J0D01*
G01*
X150370250Y-90230240D01*
G75*
G02*
X150589000Y-90448990I0J-218750D01*
G01*
X150589000Y-90886490D01*
G75*
G02*
X150370250Y-91105240I-218750J0D01*
G01*
G37*
%TD.AperFunction*%
%TO.P,R1,1*%
%TO.N,VCC*%
%TA.AperFunction,SMDPad,CuDef*%
G36*
G01*
X150370250Y-92680240D02*
X149857750Y-92680240D01*
G75*
G02*
X149639000Y-92461490I0J218750D01*
G01*
X149639000Y-92023990D01*
G75*
G02*
X149857750Y-91805240I218750J0D01*
G01*
X150370250Y-91805240D01*
G75*
G02*
X150589000Y-92023990I0J-218750D01*
G01*
X150589000Y-92461490D01*
G75*
G02*
X150370250Y-92680240I-218750J0D01*
G01*
G37*
%TD.AperFunction*%
%TD*%
%TO.P,R4,2*%
%TO.N,/ALERT*%
%TA.AperFunction,SMDPad,CuDef*%
G36*
G01*
X152738110Y-91825560D02*
X153250610Y-91825560D01*
G75*
G02*
X153469360Y-92044310I0J-218750D01*
G01*
X153469360Y-92481810D01*
G75*
G02*
X153250610Y-92700560I-218750J0D01*
G01*
X152738110Y-92700560D01*
G75*
G02*
X152519360Y-92481810I0J218750D01*
G01*
X152519360Y-92044310D01*
G75*
G02*
X152738110Y-91825560I218750J0D01*
G01*
G37*
%TD.AperFunction*%
%TO.P,R4,1*%
%TO.N,VCC*%
%TA.AperFunction,SMDPad,CuDef*%
G36*
G01*
X152738110Y-90250560D02*
X153250610Y-90250560D01*
G75*
G02*
X153469360Y-90469310I0J-218750D01*
G01*
X153469360Y-90906810D01*
G75*
G02*
X153250610Y-91125560I-218750J0D01*
G01*
X152738110Y-91125560D01*
G75*
G02*
X152519360Y-90906810I0J218750D01*
G01*
X152519360Y-90469310D01*
G75*
G02*
X152738110Y-90250560I218750J0D01*
G01*
G37*
%TD.AperFunction*%
%TD*%
D10*
%TO.P,J3,6*%
%TO.N,Net-(J3-Pad6)*%
X114345720Y-67670680D03*
%TO.P,J3,5*%
%TO.N,Net-(J1-Pad11)*%
X111805720Y-67670680D03*
%TO.P,J3,4*%
%TO.N,Net-(J3-Pad4)*%
X114345720Y-65130680D03*
%TO.P,J3,3*%
%TO.N,Net-(J1-Pad13)*%
X111805720Y-65130680D03*
%TO.P,J3,2*%
%TO.N,Net-(J3-Pad2)*%
X114345720Y-62590680D03*
D11*
%TO.P,J3,1*%
%TO.N,Net-(J1-Pad15)*%
X111805720Y-62590680D03*
%TD*%
D10*
%TO.P,J1,40*%
%TO.N,Net-(J1-Pad40)*%
X99161600Y-46893480D03*
%TO.P,J1,39*%
%TO.N,Net-(J1-Pad39)*%
X101701600Y-46893480D03*
%TO.P,J1,38*%
%TO.N,Net-(J1-Pad38)*%
X99161600Y-49433480D03*
%TO.P,J1,37*%
%TO.N,Net-(J1-Pad37)*%
X101701600Y-49433480D03*
%TO.P,J1,36*%
%TO.N,Net-(J1-Pad36)*%
X99161600Y-51973480D03*
%TO.P,J1,35*%
%TO.N,Net-(J1-Pad35)*%
X101701600Y-51973480D03*
%TO.P,J1,34*%
%TO.N,Net-(J1-Pad34)*%
X99161600Y-54513480D03*
%TO.P,J1,33*%
%TO.N,Net-(J1-Pad33)*%
X101701600Y-54513480D03*
%TO.P,J1,32*%
%TO.N,Net-(J1-Pad32)*%
X99161600Y-57053480D03*
%TO.P,J1,31*%
%TO.N,Net-(J1-Pad31)*%
X101701600Y-57053480D03*
%TO.P,J1,30*%
%TO.N,Net-(J1-Pad30)*%
X99161600Y-59593480D03*
%TO.P,J1,29*%
%TO.N,Net-(J1-Pad29)*%
X101701600Y-59593480D03*
%TO.P,J1,28*%
%TO.N,Net-(J1-Pad28)*%
X99161600Y-62133480D03*
%TO.P,J1,27*%
%TO.N,Net-(J1-Pad27)*%
X101701600Y-62133480D03*
%TO.P,J1,26*%
%TO.N,Net-(J1-Pad26)*%
X99161600Y-64673480D03*
%TO.P,J1,25*%
%TO.N,Net-(J1-Pad25)*%
X101701600Y-64673480D03*
%TO.P,J1,24*%
%TO.N,Net-(J1-Pad24)*%
X99161600Y-67213480D03*
%TO.P,J1,23*%
%TO.N,Net-(J1-Pad23)*%
X101701600Y-67213480D03*
%TO.P,J1,22*%
%TO.N,Net-(J1-Pad22)*%
X99161600Y-69753480D03*
%TO.P,J1,21*%
%TO.N,Net-(J1-Pad21)*%
X101701600Y-69753480D03*
%TO.P,J1,20*%
%TO.N,Net-(J1-Pad20)*%
X99161600Y-72293480D03*
%TO.P,J1,19*%
%TO.N,Net-(J1-Pad19)*%
X101701600Y-72293480D03*
%TO.P,J1,18*%
%TO.N,Net-(J1-Pad18)*%
X99161600Y-74833480D03*
%TO.P,J1,17*%
%TO.N,Net-(J1-Pad17)*%
X101701600Y-74833480D03*
%TO.P,J1,16*%
%TO.N,Net-(J1-Pad16)*%
X99161600Y-77373480D03*
%TO.P,J1,15*%
%TO.N,Net-(J1-Pad15)*%
X101701600Y-77373480D03*
%TO.P,J1,14*%
%TO.N,Net-(J1-Pad14)*%
X99161600Y-79913480D03*
%TO.P,J1,13*%
%TO.N,Net-(J1-Pad13)*%
X101701600Y-79913480D03*
%TO.P,J1,12*%
%TO.N,Net-(J1-Pad12)*%
X99161600Y-82453480D03*
%TO.P,J1,11*%
%TO.N,Net-(J1-Pad11)*%
X101701600Y-82453480D03*
%TO.P,J1,10*%
%TO.N,Net-(J1-Pad10)*%
X99161600Y-84993480D03*
%TO.P,J1,9*%
%TO.N,Net-(J1-Pad9)*%
X101701600Y-84993480D03*
%TO.P,J1,8*%
%TO.N,Net-(J1-Pad8)*%
X99161600Y-87533480D03*
%TO.P,J1,7*%
%TO.N,Net-(J1-Pad7)*%
X101701600Y-87533480D03*
%TO.P,J1,6*%
%TO.N,Net-(J1-Pad6)*%
X99161600Y-90073480D03*
%TO.P,J1,5*%
%TO.N,/SCL*%
X101701600Y-90073480D03*
%TO.P,J1,4*%
%TO.N,Net-(J1-Pad4)*%
X99161600Y-92613480D03*
%TO.P,J1,3*%
%TO.N,/SDA*%
X101701600Y-92613480D03*
%TO.P,J1,2*%
%TO.N,VCC*%
X99161600Y-95153480D03*
D11*
%TO.P,J1,1*%
%TO.N,Net-(J1-Pad1)*%
X101701600Y-95153480D03*
%TD*%
D13*
%TO.P,J7,2*%
%TO.N,Net-(D7-Pad2)*%
X168711880Y-71292720D03*
D14*
%TO.P,J7,1*%
%TO.N,Net-(D3-Pad2)*%
X168711880Y-66212720D03*
%TD*%
D13*
%TO.P,J6,2*%
%TO.N,Net-(D5-Pad2)*%
X168935400Y-57221120D03*
D14*
%TO.P,J6,1*%
%TO.N,Net-(D1-Pad2)*%
X168935400Y-52141120D03*
%TD*%
D10*
%TO.P,J8,4*%
%TO.N,/SCL*%
X112181640Y-74843640D03*
%TO.P,J8,3*%
%TO.N,/SDA*%
X112181640Y-77383640D03*
%TO.P,J8,2*%
%TO.N,VCC*%
X112181640Y-79923640D03*
D11*
%TO.P,J8,1*%
%TO.N,GND*%
X112181640Y-82463640D03*
%TD*%
%TO.P,J5,3*%
%TO.N,N/C*%
%TA.AperFunction,ComponentPad*%
G36*
G01*
X128907840Y-46481800D02*
X130657840Y-46481800D01*
G75*
G02*
X131532840Y-47356800I0J-875000D01*
G01*
X131532840Y-49106800D01*
G75*
G02*
X130657840Y-49981800I-875000J0D01*
G01*
X128907840Y-49981800D01*
G75*
G02*
X128032840Y-49106800I0J875000D01*
G01*
X128032840Y-47356800D01*
G75*
G02*
X128907840Y-46481800I875000J0D01*
G01*
G37*
%TD.AperFunction*%
%TO.P,J5,2*%
%TO.N,GND*%
%TA.AperFunction,ComponentPad*%
G36*
G01*
X133482840Y-43731800D02*
X135482840Y-43731800D01*
G75*
G02*
X136232840Y-44481800I0J-750000D01*
G01*
X136232840Y-45981800D01*
G75*
G02*
X135482840Y-46731800I-750000J0D01*
G01*
X133482840Y-46731800D01*
G75*
G02*
X132732840Y-45981800I0J750000D01*
G01*
X132732840Y-44481800D01*
G75*
G02*
X133482840Y-43731800I750000J0D01*
G01*
G37*
%TD.AperFunction*%
D15*
%TO.P,J5,1*%
%TO.N,Net-(C1-Pad1)*%
X134482840Y-51231800D03*
%TD*%
D16*
%TO.P,C2,1*%
%TO.N,Net-(C2-Pad1)*%
X158424880Y-45811440D03*
D17*
%TO.P,C2,2*%
%TO.N,GND*%
X160924880Y-45811440D03*
%TD*%
D18*
%TO.P,D8,1*%
%TO.N,Net-(D7-Pad2)*%
X143154400Y-84419440D03*
D19*
%TO.P,D8,2*%
%TO.N,GND*%
X153314400Y-84419440D03*
%TD*%
D18*
%TO.P,D7,1*%
%TO.N,Net-(C1-Pad1)*%
X143154400Y-80070960D03*
D19*
%TO.P,D7,2*%
%TO.N,Net-(D7-Pad2)*%
X153314400Y-80070960D03*
%TD*%
D18*
%TO.P,D6,1*%
%TO.N,Net-(D5-Pad2)*%
X143068040Y-76154280D03*
D19*
%TO.P,D6,2*%
%TO.N,GND*%
X153228040Y-76154280D03*
%TD*%
D18*
%TO.P,D5,1*%
%TO.N,Net-(C1-Pad1)*%
X143068040Y-71978520D03*
D19*
%TO.P,D5,2*%
%TO.N,Net-(D5-Pad2)*%
X153228040Y-71978520D03*
%TD*%
D18*
%TO.P,D4,1*%
%TO.N,Net-(D3-Pad2)*%
X143068040Y-67802760D03*
D19*
%TO.P,D4,2*%
%TO.N,GND*%
X153228040Y-67802760D03*
%TD*%
D18*
%TO.P,D3,1*%
%TO.N,Net-(C1-Pad1)*%
X142981680Y-63454280D03*
D19*
%TO.P,D3,2*%
%TO.N,Net-(D3-Pad2)*%
X153141680Y-63454280D03*
%TD*%
D18*
%TO.P,D2,1*%
%TO.N,Net-(D1-Pad2)*%
X143012160Y-58978800D03*
D19*
%TO.P,D2,2*%
%TO.N,GND*%
X153172160Y-58978800D03*
%TD*%
D18*
%TO.P,D1,1*%
%TO.N,Net-(C1-Pad1)*%
X142956280Y-54665880D03*
D19*
%TO.P,D1,2*%
%TO.N,Net-(D1-Pad2)*%
X153116280Y-54665880D03*
%TD*%
D16*
%TO.P,C1,1*%
%TO.N,Net-(C1-Pad1)*%
X149367240Y-45958760D03*
D17*
%TO.P,C1,2*%
%TO.N,GND*%
X151867240Y-45958760D03*
%TD*%
D20*
%TO.P,U1,16*%
%TO.N,Net-(C2-Pad1)*%
X134574280Y-58364120D03*
%TO.P,U1,8*%
%TO.N,Net-(C1-Pad1)*%
X126954280Y-76144120D03*
%TO.P,U1,15*%
%TO.N,Net-(J3-Pad4)*%
X134574280Y-60904120D03*
%TO.P,U1,7*%
%TO.N,Net-(J2-Pad4)*%
X126954280Y-73604120D03*
%TO.P,U1,14*%
%TO.N,Net-(D7-Pad2)*%
X134574280Y-63444120D03*
%TO.P,U1,6*%
%TO.N,Net-(D5-Pad2)*%
X126954280Y-71064120D03*
%TO.P,U1,13*%
%TO.N,GND*%
X134574280Y-65984120D03*
%TO.P,U1,5*%
X126954280Y-68524120D03*
%TO.P,U1,12*%
X134574280Y-68524120D03*
%TO.P,U1,4*%
X126954280Y-65984120D03*
%TO.P,U1,11*%
%TO.N,Net-(D3-Pad2)*%
X134574280Y-71064120D03*
%TO.P,U1,3*%
%TO.N,Net-(D1-Pad2)*%
X126954280Y-63444120D03*
%TO.P,U1,10*%
%TO.N,Net-(J3-Pad2)*%
X134574280Y-73604120D03*
%TO.P,U1,2*%
%TO.N,Net-(J2-Pad2)*%
X126954280Y-60904120D03*
%TO.P,U1,9*%
%TO.N,Net-(J3-Pad6)*%
X134574280Y-76144120D03*
D16*
%TO.P,U1,1*%
%TO.N,Net-(J2-Pad6)*%
X126954280Y-58364120D03*
%TD*%
D10*
%TO.P,J4,4*%
%TO.N,GND*%
X114020600Y-47259240D03*
%TO.P,J4,3*%
%TO.N,Net-(J11-Pad2)*%
X111480600Y-47259240D03*
%TO.P,J4,2*%
%TO.N,Net-(C2-Pad1)*%
X114020600Y-44719240D03*
D11*
%TO.P,J4,1*%
%TO.N,Net-(J1-Pad4)*%
X111480600Y-44719240D03*
%TD*%
D10*
%TO.P,J2,6*%
%TO.N,Net-(J2-Pad6)*%
X114020600Y-57734200D03*
%TO.P,J2,5*%
%TO.N,Net-(J1-Pad19)*%
X111480600Y-57734200D03*
%TO.P,J2,4*%
%TO.N,Net-(J2-Pad4)*%
X114020600Y-55194200D03*
%TO.P,J2,3*%
%TO.N,Net-(J1-Pad21)*%
X111480600Y-55194200D03*
%TO.P,J2,2*%
%TO.N,Net-(J2-Pad2)*%
X114020600Y-52654200D03*
D11*
%TO.P,J2,1*%
%TO.N,Net-(J1-Pad23)*%
X111480600Y-52654200D03*
%TD*%
D21*
%TO.N,GND*%
X131582160Y-90678000D03*
X163748720Y-88463120D03*
X157911800Y-92547440D03*
X107787440Y-91572080D03*
X175112680Y-88905080D03*
X166116000Y-88432640D03*
X129921000Y-90744040D03*
X106756200Y-92567760D03*
X108818680Y-92511880D03*
X107883960Y-93599000D03*
X130703320Y-89687400D03*
X130820160Y-91765120D03*
X139115800Y-91815920D03*
X164998400Y-89448640D03*
X164886640Y-87330280D03*
X173116240Y-88950800D03*
X174117000Y-87807800D03*
X174228760Y-90002360D03*
X114874040Y-85191600D03*
%TD*%
D22*
%TO.N,Net-(J1-Pad23)*%
X101701600Y-67213480D02*
X103626920Y-65288160D01*
X103626920Y-65288160D02*
X103637080Y-65288160D01*
X103637080Y-65288160D02*
X103957120Y-64968120D01*
X103957120Y-60177680D02*
X111480600Y-52654200D01*
X103957120Y-64968120D02*
X103957120Y-60177680D01*
%TO.N,Net-(J1-Pad21)*%
X101701600Y-69753480D02*
X104637840Y-66817240D01*
X104637840Y-62036960D02*
X111480600Y-55194200D01*
X104637840Y-66817240D02*
X104637840Y-62036960D01*
%TO.N,Net-(J1-Pad19)*%
X101701600Y-72293480D02*
X106019600Y-67975480D01*
X106019600Y-63195200D02*
X111480600Y-57734200D01*
X106019600Y-67975480D02*
X106019600Y-63195200D01*
%TO.N,Net-(J1-Pad15)*%
X102876601Y-76198479D02*
X102876601Y-76178159D01*
X101701600Y-77373480D02*
X102876601Y-76198479D01*
X102876601Y-76178159D02*
X107528360Y-71526400D01*
X107528360Y-66868040D02*
X111805720Y-62590680D01*
X107528360Y-71526400D02*
X107528360Y-66868040D01*
%TO.N,Net-(J1-Pad13)*%
X102876601Y-78738479D02*
X102876601Y-78707999D01*
X101701600Y-79913480D02*
X102876601Y-78738479D01*
X102876601Y-78707999D02*
X108290360Y-73294240D01*
X108290360Y-68646040D02*
X111805720Y-65130680D01*
X108290360Y-73294240D02*
X108290360Y-68646040D01*
%TO.N,Net-(J1-Pad11)*%
X101701600Y-82453480D02*
X108966000Y-75189080D01*
X108966000Y-70510400D02*
X111805720Y-67670680D01*
X108966000Y-75189080D02*
X108966000Y-70510400D01*
%TO.N,Net-(J2-Pad6)*%
X125352881Y-56762721D02*
X126954280Y-58364120D01*
X114992079Y-56762721D02*
X125352881Y-56762721D01*
X114020600Y-57734200D02*
X114992079Y-56762721D01*
%TO.N,Net-(J2-Pad4)*%
X129675050Y-70883350D02*
X126954280Y-73604120D01*
X122890771Y-51479199D02*
X129675050Y-58263478D01*
X113456599Y-51479199D02*
X122890771Y-51479199D01*
X112845599Y-52090199D02*
X113456599Y-51479199D01*
X129675050Y-58263478D02*
X129675050Y-70883350D01*
X112845599Y-54019199D02*
X112845599Y-52090199D01*
X114020600Y-55194200D02*
X112845599Y-54019199D01*
%TO.N,Net-(J2-Pad2)*%
X124887903Y-54112741D02*
X129225040Y-58449878D01*
X114020600Y-52654200D02*
X115479141Y-54112741D01*
X115479141Y-54112741D02*
X124887903Y-54112741D01*
X129225040Y-58449878D02*
X129225040Y-59994800D01*
X128315720Y-60904120D02*
X126954280Y-60904120D01*
X129225040Y-59994800D02*
X128315720Y-60904120D01*
%TO.N,Net-(J3-Pad6)*%
X120938004Y-66424881D02*
X123687840Y-69174717D01*
X114345720Y-67670680D02*
X115591519Y-66424881D01*
X115591519Y-66424881D02*
X120938004Y-66424881D01*
X131193110Y-79525290D02*
X134574280Y-76144120D01*
X125279440Y-79525290D02*
X131193110Y-79525290D01*
X123687840Y-77933690D02*
X125279440Y-79525290D01*
X123687840Y-69174717D02*
X123687840Y-77933690D01*
%TO.N,Net-(J3-Pad4)*%
X113170719Y-68234681D02*
X116086518Y-71150480D01*
X114345720Y-65130680D02*
X113170719Y-66305681D01*
X113170719Y-66305681D02*
X113170719Y-68234681D01*
X116086518Y-71150480D02*
X117652399Y-71150480D01*
X120417061Y-73915142D02*
X120417061Y-75926421D01*
X117652399Y-71150480D02*
X120417061Y-73915142D01*
X124465940Y-79975300D02*
X134273700Y-79975300D01*
X120417061Y-75926421D02*
X124465940Y-79975300D01*
X134273700Y-79975300D02*
X137383520Y-76865480D01*
X137383520Y-63713360D02*
X134574280Y-60904120D01*
X137383520Y-76865480D02*
X137383520Y-63713360D01*
%TO.N,Net-(J3-Pad2)*%
X120516596Y-63774901D02*
X124546360Y-67804665D01*
X114345720Y-62590680D02*
X115529941Y-63774901D01*
X115529941Y-63774901D02*
X120516596Y-63774901D01*
X124546360Y-67804665D02*
X124546360Y-77231240D01*
X124584241Y-77269121D02*
X124584241Y-78193681D01*
X124546360Y-77231240D02*
X124584241Y-77269121D01*
X124584241Y-78193681D02*
X125465840Y-79075280D01*
X133449279Y-74729121D02*
X134574280Y-73604120D01*
X133449279Y-75943241D02*
X133449279Y-74729121D01*
X130317240Y-79075280D02*
X133449279Y-75943241D01*
X125465840Y-79075280D02*
X130317240Y-79075280D01*
%TO.N,GND*%
X114424679Y-47663319D02*
X114020600Y-47259240D01*
X127213360Y-92693922D02*
X127328359Y-92808921D01*
X143055579Y-92808921D02*
X143662400Y-92202100D01*
X127328359Y-92808921D02*
X143055579Y-92808921D01*
X127213360Y-91933920D02*
X127213360Y-92693922D01*
%TO.N,Net-(C1-Pad1)*%
X149036520Y-45628040D02*
X149367240Y-45958760D01*
D23*
X142956280Y-54665880D02*
X141691360Y-54665880D01*
X141691360Y-54665880D02*
X139618720Y-56738520D01*
X139618720Y-60091320D02*
X142981680Y-63454280D01*
X139618720Y-56738520D02*
X139618720Y-60091320D01*
X142981680Y-63454280D02*
X140035280Y-66400680D01*
X140035280Y-68945760D02*
X143068040Y-71978520D01*
X140035280Y-66400680D02*
X140035280Y-68945760D01*
X143068040Y-71978520D02*
X139999720Y-75046840D01*
X139999720Y-76916280D02*
X143154400Y-80070960D01*
X139999720Y-75046840D02*
X139999720Y-76916280D01*
X139618720Y-56367680D02*
X134482840Y-51231800D01*
X139618720Y-56738520D02*
X139618720Y-56367680D01*
%TO.N,Net-(D1-Pad2)*%
X147325080Y-54665880D02*
X143012160Y-58978800D01*
X153116280Y-54665880D02*
X147325080Y-54665880D01*
X166410640Y-54665880D02*
X168935400Y-52141120D01*
X153116280Y-54665880D02*
X166410640Y-54665880D01*
%TO.N,Net-(D3-Pad2)*%
X147416520Y-63454280D02*
X143068040Y-67802760D01*
X153141680Y-63454280D02*
X147416520Y-63454280D01*
X172725080Y-62199520D02*
X168711880Y-66212720D01*
X158753624Y-63454280D02*
X167120384Y-55087520D01*
X172725080Y-55661560D02*
X172725080Y-62199520D01*
X153141680Y-63454280D02*
X158753624Y-63454280D01*
X167120384Y-55087520D02*
X172151040Y-55087520D01*
X172151040Y-55087520D02*
X172725080Y-55661560D01*
D22*
%TO.N,Net-(D5-Pad2)*%
X168065440Y-57141120D02*
X168935400Y-57141120D01*
D23*
X147243800Y-71978520D02*
X143068040Y-76154280D01*
X153228040Y-71978520D02*
X147243800Y-71978520D01*
X167985440Y-57221120D02*
X168935400Y-57221120D01*
X153228040Y-71978520D02*
X167985440Y-57221120D01*
%TO.N,Net-(D7-Pad2)*%
X147502880Y-80070960D02*
X143154400Y-84419440D01*
X153314400Y-80070960D02*
X147502880Y-80070960D01*
X159933640Y-80070960D02*
X168711880Y-71292720D01*
X153314400Y-80070960D02*
X159933640Y-80070960D01*
D22*
%TO.N,VCC*%
X99161600Y-95153480D02*
X99700080Y-95691960D01*
X150073360Y-92202100D02*
X150114000Y-92242740D01*
X147335240Y-92202100D02*
X150073360Y-92202100D01*
X151439680Y-92242740D02*
X152994360Y-90688060D01*
X150114000Y-92242740D02*
X151439680Y-92242740D01*
X170703240Y-91526360D02*
X159349440Y-91526360D01*
X159349440Y-91526360D02*
X156575760Y-88752680D01*
X154929740Y-88752680D02*
X152994360Y-90688060D01*
X156575760Y-88752680D02*
X154929740Y-88752680D01*
X119996271Y-83022621D02*
X115280621Y-83022621D01*
X127213360Y-87633920D02*
X127213360Y-88905080D01*
X127213360Y-88905080D02*
X127129968Y-88988472D01*
X127129968Y-88988472D02*
X123804532Y-88988472D01*
X115280621Y-83022621D02*
X112181640Y-79923640D01*
X123804532Y-88988472D02*
X119996271Y-85180211D01*
X119996271Y-85180211D02*
X119996271Y-83022621D01*
X100336601Y-96328481D02*
X99161600Y-95153480D01*
X103614241Y-96328481D02*
X100336601Y-96328481D01*
X170703240Y-91526360D02*
X173085760Y-93908880D01*
X173085760Y-93908880D02*
X173085760Y-95554800D01*
X104387922Y-95554800D02*
X103614241Y-96328481D01*
X173085760Y-95554800D02*
X104387922Y-95554800D01*
X104387922Y-95554800D02*
X104387922Y-91628958D01*
X104387922Y-91628958D02*
X109595920Y-86420960D01*
X109595920Y-82509360D02*
X112181640Y-79923640D01*
X109595920Y-86420960D02*
X109595920Y-82509360D01*
X127213360Y-87633920D02*
X127213360Y-86776560D01*
X127213360Y-86776560D02*
X127513080Y-86476840D01*
X127513080Y-86476840D02*
X136245600Y-86476840D01*
X140395860Y-90627100D02*
X143662400Y-90627100D01*
X136245600Y-86476840D02*
X140395860Y-90627100D01*
%TO.N,/SCL*%
X127121920Y-85455760D02*
X138304230Y-85455760D01*
X126213360Y-87633920D02*
X126213360Y-86697510D01*
X147777300Y-88331040D02*
X150114000Y-90667740D01*
X140705840Y-88331040D02*
X147777300Y-88331040D01*
X119862382Y-77960464D02*
X126213360Y-84311442D01*
X115298464Y-77960464D02*
X119862382Y-77960464D01*
X112181640Y-74843640D02*
X115298464Y-77960464D01*
X101701600Y-90073480D02*
X104312720Y-87462360D01*
X104312720Y-82712560D02*
X112181640Y-74843640D01*
X104312720Y-87462360D02*
X104312720Y-82712560D01*
X127066920Y-85422310D02*
X127121920Y-85422310D01*
X126986990Y-85502240D02*
X127066920Y-85422310D01*
X126213360Y-85502240D02*
X126213360Y-86697510D01*
X126213360Y-85502240D02*
X126986990Y-85502240D01*
X126213360Y-84311442D02*
X126213360Y-85502240D01*
X138304230Y-85929430D02*
X140705840Y-88331040D01*
X138304230Y-85455760D02*
X138304230Y-85929430D01*
%TO.N,/SDA*%
X127253320Y-85872320D02*
X136951720Y-85872320D01*
X145938340Y-89230200D02*
X147335240Y-90627100D01*
X139857480Y-89230200D02*
X145938340Y-89230200D01*
X126598361Y-88508921D02*
X124023201Y-88508921D01*
X126713360Y-87633920D02*
X126713360Y-88393922D01*
X126713360Y-88393922D02*
X126598361Y-88508921D01*
X124023201Y-88508921D02*
X120594120Y-85079840D01*
X115308464Y-80510464D02*
X112181640Y-77383640D01*
X119844473Y-80510464D02*
X115308464Y-80510464D01*
X120594120Y-81260111D02*
X119844473Y-80510464D01*
X120594120Y-85079840D02*
X120594120Y-81260111D01*
X101701600Y-92613480D02*
X106050080Y-88265000D01*
X106050080Y-83515200D02*
X112181640Y-77383640D01*
X106050080Y-88265000D02*
X106050080Y-83515200D01*
X127219870Y-85905770D02*
X127253320Y-85905770D01*
X126713360Y-86412280D02*
X127219870Y-85905770D01*
X126713360Y-87633920D02*
X126713360Y-86412280D01*
X136985170Y-85905770D02*
X136951720Y-85905770D01*
X139857480Y-89230200D02*
X139857480Y-88778080D01*
X139857480Y-88778080D02*
X136985170Y-85905770D01*
%TO.N,/ALERT*%
X126713360Y-91933920D02*
X126713360Y-93119320D01*
X126713360Y-93119320D02*
X127081280Y-93487240D01*
X151770180Y-93487240D02*
X152994360Y-92263060D01*
X127081280Y-93487240D02*
X151770180Y-93487240D01*
%TO.N,/ADDR*%
X126213360Y-91933920D02*
X126213360Y-93305120D01*
X126213360Y-93305120D02*
X127010160Y-94101920D01*
X154178100Y-94101920D02*
X155940760Y-92339260D01*
X127010160Y-94101920D02*
X154178100Y-94101920D01*
%TO.N,/AIN0*%
X112100360Y-94096840D02*
X122717560Y-94096840D01*
X127698359Y-91058919D02*
X127713360Y-91073920D01*
X125755481Y-91058919D02*
X127698359Y-91058919D01*
X127713360Y-91073920D02*
X127713360Y-91933920D01*
X122717560Y-94096840D02*
X125755481Y-91058919D01*
X170703240Y-94066360D02*
X164576760Y-94066360D01*
X123172650Y-94551930D02*
X122717560Y-94096840D01*
X164091190Y-94551930D02*
X123172650Y-94551930D01*
X164576760Y-94066360D02*
X164091190Y-94551930D01*
%TO.N,/AIN1*%
X128213360Y-90937510D02*
X128213360Y-91933920D01*
X113048290Y-90608910D02*
X127884760Y-90608910D01*
X127884760Y-90608910D02*
X128213360Y-90937510D01*
X112100360Y-91556840D02*
X113048290Y-90608910D01*
%TO.N,/AIN2*%
X128213360Y-88530332D02*
X128213360Y-87633920D01*
X112100360Y-89016840D02*
X122560080Y-89016840D01*
X122560080Y-89016840D02*
X123431730Y-89888490D01*
X127699481Y-89888489D02*
X128213360Y-89374610D01*
X123431730Y-89888490D02*
X127699481Y-89888489D01*
X128213360Y-89374610D02*
X128213360Y-88530332D01*
%TO.N,/AIN3*%
X122287170Y-88107520D02*
X113731040Y-88107520D01*
X113731040Y-88107520D02*
X112100360Y-86476840D01*
X123618131Y-89438481D02*
X122287170Y-88107520D01*
X127721360Y-87641920D02*
X127721360Y-89230200D01*
X127721360Y-89230200D02*
X127513080Y-89438480D01*
X127713360Y-87633920D02*
X127721360Y-87641920D01*
X127513080Y-89438480D02*
X123618131Y-89438481D01*
%TO.N,Net-(J11-Pad2)*%
X111114840Y-46893480D02*
X111480600Y-47259240D01*
D23*
X124028200Y-47320200D02*
X121208800Y-50139600D01*
X114360960Y-50139600D02*
X111480600Y-47259240D01*
X121208800Y-50139600D02*
X114360960Y-50139600D01*
%TD*%
D24*
%TO.N,GND*%
G36*
X141029769Y-86914673D02*
G01*
X141048606Y-86930951D01*
X141070257Y-86943242D01*
X141093890Y-86951073D01*
X141122573Y-86954182D01*
X176279031Y-86747617D01*
X176271814Y-96431774D01*
X174003400Y-96423992D01*
X174002449Y-96423898D01*
X173971122Y-96423881D01*
X173939526Y-96423773D01*
X173938567Y-96423864D01*
X104630394Y-96387129D01*
X104702724Y-96314800D01*
X173048427Y-96314800D01*
X173085760Y-96318477D01*
X173234746Y-96303803D01*
X173378007Y-96260346D01*
X173510036Y-96189774D01*
X173625761Y-96094801D01*
X173720734Y-95979076D01*
X173791306Y-95847047D01*
X173834763Y-95703786D01*
X173845760Y-95592133D01*
X173845760Y-95592132D01*
X173849437Y-95554800D01*
X173845760Y-95517467D01*
X173845760Y-93946202D01*
X173849436Y-93908879D01*
X173845760Y-93871556D01*
X173845760Y-93871547D01*
X173834763Y-93759894D01*
X173791306Y-93616633D01*
X173781008Y-93597367D01*
X173720734Y-93484603D01*
X173649559Y-93397877D01*
X173625761Y-93368879D01*
X173596764Y-93345082D01*
X172144449Y-91892768D01*
X172188240Y-91672620D01*
X172188240Y-91380100D01*
X172131172Y-91093202D01*
X172019230Y-90822949D01*
X171856715Y-90579728D01*
X171724860Y-90447873D01*
X171797420Y-90425862D01*
X171907734Y-90366897D01*
X172004425Y-90287545D01*
X172083777Y-90190854D01*
X172142742Y-90080540D01*
X172179052Y-89960842D01*
X172191312Y-89836360D01*
X172188240Y-89272110D01*
X172029490Y-89113360D01*
X170830240Y-89113360D01*
X170830240Y-89133360D01*
X170576240Y-89133360D01*
X170576240Y-89113360D01*
X169376990Y-89113360D01*
X169218240Y-89272110D01*
X169215168Y-89836360D01*
X169227428Y-89960842D01*
X169263738Y-90080540D01*
X169322703Y-90190854D01*
X169402055Y-90287545D01*
X169498746Y-90366897D01*
X169609060Y-90425862D01*
X169681620Y-90447873D01*
X169549765Y-90579728D01*
X169425062Y-90766360D01*
X159664242Y-90766360D01*
X157139564Y-88241683D01*
X157115761Y-88212679D01*
X157022766Y-88136360D01*
X169215168Y-88136360D01*
X169218240Y-88700610D01*
X169376990Y-88859360D01*
X170576240Y-88859360D01*
X170576240Y-87660110D01*
X170830240Y-87660110D01*
X170830240Y-88859360D01*
X172029490Y-88859360D01*
X172188240Y-88700610D01*
X172191312Y-88136360D01*
X172179052Y-88011878D01*
X172142742Y-87892180D01*
X172083777Y-87781866D01*
X172004425Y-87685175D01*
X171907734Y-87605823D01*
X171797420Y-87546858D01*
X171677722Y-87510548D01*
X171553240Y-87498288D01*
X170988990Y-87501360D01*
X170830240Y-87660110D01*
X170576240Y-87660110D01*
X170417490Y-87501360D01*
X169853240Y-87498288D01*
X169728758Y-87510548D01*
X169609060Y-87546858D01*
X169498746Y-87605823D01*
X169402055Y-87685175D01*
X169322703Y-87781866D01*
X169263738Y-87892180D01*
X169227428Y-88011878D01*
X169215168Y-88136360D01*
X157022766Y-88136360D01*
X157000036Y-88117706D01*
X156868007Y-88047134D01*
X156724746Y-88003677D01*
X156613093Y-87992680D01*
X156613082Y-87992680D01*
X156575760Y-87989004D01*
X156538438Y-87992680D01*
X154967065Y-87992680D01*
X154929740Y-87989004D01*
X154892415Y-87992680D01*
X154892407Y-87992680D01*
X154780754Y-88003677D01*
X154637493Y-88047134D01*
X154505464Y-88117706D01*
X154389739Y-88212679D01*
X154365941Y-88241677D01*
X152995131Y-89612488D01*
X152738110Y-89612488D01*
X152570952Y-89628952D01*
X152410218Y-89677710D01*
X152262085Y-89756889D01*
X152132245Y-89863445D01*
X152025689Y-89993285D01*
X151946510Y-90141418D01*
X151897752Y-90302152D01*
X151881288Y-90469310D01*
X151881288Y-90726330D01*
X151124879Y-91482740D01*
X151029143Y-91482740D01*
X151006574Y-91455240D01*
X151082671Y-91362515D01*
X151161850Y-91214382D01*
X151210608Y-91053648D01*
X151227072Y-90886490D01*
X151227072Y-90448990D01*
X151210608Y-90281832D01*
X151161850Y-90121098D01*
X151082671Y-89972965D01*
X150976115Y-89843125D01*
X150846275Y-89736569D01*
X150698142Y-89657390D01*
X150537408Y-89608632D01*
X150370250Y-89592168D01*
X150113230Y-89592168D01*
X148341104Y-87820043D01*
X148317301Y-87791039D01*
X148201576Y-87696066D01*
X148069547Y-87625494D01*
X147926286Y-87582037D01*
X147814633Y-87571040D01*
X147814622Y-87571040D01*
X147777300Y-87567364D01*
X147739978Y-87571040D01*
X141020643Y-87571040D01*
X139064230Y-85614629D01*
X139064230Y-85493093D01*
X139067907Y-85455760D01*
X139055442Y-85329197D01*
X139053233Y-85306774D01*
X139009776Y-85163513D01*
X138939204Y-85031484D01*
X138844231Y-84915759D01*
X138803472Y-84882309D01*
X138728506Y-84820786D01*
X138596477Y-84750214D01*
X138453216Y-84706757D01*
X138341563Y-84695760D01*
X138304230Y-84692083D01*
X138266897Y-84695760D01*
X127344925Y-84695760D01*
X127270906Y-84673307D01*
X127159253Y-84662310D01*
X127104242Y-84662310D01*
X127066919Y-84658634D01*
X127029597Y-84662310D01*
X127029587Y-84662310D01*
X126973360Y-84667848D01*
X126973360Y-84348764D01*
X126977036Y-84311441D01*
X126973360Y-84274118D01*
X126973360Y-84274109D01*
X126962363Y-84162456D01*
X126918906Y-84019195D01*
X126874210Y-83935576D01*
X138142085Y-83876167D01*
X141029769Y-86914673D01*
G37*
X141029769Y-86914673D02*
X141048606Y-86930951D01*
X141070257Y-86943242D01*
X141093890Y-86951073D01*
X141122573Y-86954182D01*
X176279031Y-86747617D01*
X176271814Y-96431774D01*
X174003400Y-96423992D01*
X174002449Y-96423898D01*
X173971122Y-96423881D01*
X173939526Y-96423773D01*
X173938567Y-96423864D01*
X104630394Y-96387129D01*
X104702724Y-96314800D01*
X173048427Y-96314800D01*
X173085760Y-96318477D01*
X173234746Y-96303803D01*
X173378007Y-96260346D01*
X173510036Y-96189774D01*
X173625761Y-96094801D01*
X173720734Y-95979076D01*
X173791306Y-95847047D01*
X173834763Y-95703786D01*
X173845760Y-95592133D01*
X173845760Y-95592132D01*
X173849437Y-95554800D01*
X173845760Y-95517467D01*
X173845760Y-93946202D01*
X173849436Y-93908879D01*
X173845760Y-93871556D01*
X173845760Y-93871547D01*
X173834763Y-93759894D01*
X173791306Y-93616633D01*
X173781008Y-93597367D01*
X173720734Y-93484603D01*
X173649559Y-93397877D01*
X173625761Y-93368879D01*
X173596764Y-93345082D01*
X172144449Y-91892768D01*
X172188240Y-91672620D01*
X172188240Y-91380100D01*
X172131172Y-91093202D01*
X172019230Y-90822949D01*
X171856715Y-90579728D01*
X171724860Y-90447873D01*
X171797420Y-90425862D01*
X171907734Y-90366897D01*
X172004425Y-90287545D01*
X172083777Y-90190854D01*
X172142742Y-90080540D01*
X172179052Y-89960842D01*
X172191312Y-89836360D01*
X172188240Y-89272110D01*
X172029490Y-89113360D01*
X170830240Y-89113360D01*
X170830240Y-89133360D01*
X170576240Y-89133360D01*
X170576240Y-89113360D01*
X169376990Y-89113360D01*
X169218240Y-89272110D01*
X169215168Y-89836360D01*
X169227428Y-89960842D01*
X169263738Y-90080540D01*
X169322703Y-90190854D01*
X169402055Y-90287545D01*
X169498746Y-90366897D01*
X169609060Y-90425862D01*
X169681620Y-90447873D01*
X169549765Y-90579728D01*
X169425062Y-90766360D01*
X159664242Y-90766360D01*
X157139564Y-88241683D01*
X157115761Y-88212679D01*
X157022766Y-88136360D01*
X169215168Y-88136360D01*
X169218240Y-88700610D01*
X169376990Y-88859360D01*
X170576240Y-88859360D01*
X170576240Y-87660110D01*
X170830240Y-87660110D01*
X170830240Y-88859360D01*
X172029490Y-88859360D01*
X172188240Y-88700610D01*
X172191312Y-88136360D01*
X172179052Y-88011878D01*
X172142742Y-87892180D01*
X172083777Y-87781866D01*
X172004425Y-87685175D01*
X171907734Y-87605823D01*
X171797420Y-87546858D01*
X171677722Y-87510548D01*
X171553240Y-87498288D01*
X170988990Y-87501360D01*
X170830240Y-87660110D01*
X170576240Y-87660110D01*
X170417490Y-87501360D01*
X169853240Y-87498288D01*
X169728758Y-87510548D01*
X169609060Y-87546858D01*
X169498746Y-87605823D01*
X169402055Y-87685175D01*
X169322703Y-87781866D01*
X169263738Y-87892180D01*
X169227428Y-88011878D01*
X169215168Y-88136360D01*
X157022766Y-88136360D01*
X157000036Y-88117706D01*
X156868007Y-88047134D01*
X156724746Y-88003677D01*
X156613093Y-87992680D01*
X156613082Y-87992680D01*
X156575760Y-87989004D01*
X156538438Y-87992680D01*
X154967065Y-87992680D01*
X154929740Y-87989004D01*
X154892415Y-87992680D01*
X154892407Y-87992680D01*
X154780754Y-88003677D01*
X154637493Y-88047134D01*
X154505464Y-88117706D01*
X154389739Y-88212679D01*
X154365941Y-88241677D01*
X152995131Y-89612488D01*
X152738110Y-89612488D01*
X152570952Y-89628952D01*
X152410218Y-89677710D01*
X152262085Y-89756889D01*
X152132245Y-89863445D01*
X152025689Y-89993285D01*
X151946510Y-90141418D01*
X151897752Y-90302152D01*
X151881288Y-90469310D01*
X151881288Y-90726330D01*
X151124879Y-91482740D01*
X151029143Y-91482740D01*
X151006574Y-91455240D01*
X151082671Y-91362515D01*
X151161850Y-91214382D01*
X151210608Y-91053648D01*
X151227072Y-90886490D01*
X151227072Y-90448990D01*
X151210608Y-90281832D01*
X151161850Y-90121098D01*
X151082671Y-89972965D01*
X150976115Y-89843125D01*
X150846275Y-89736569D01*
X150698142Y-89657390D01*
X150537408Y-89608632D01*
X150370250Y-89592168D01*
X150113230Y-89592168D01*
X148341104Y-87820043D01*
X148317301Y-87791039D01*
X148201576Y-87696066D01*
X148069547Y-87625494D01*
X147926286Y-87582037D01*
X147814633Y-87571040D01*
X147814622Y-87571040D01*
X147777300Y-87567364D01*
X147739978Y-87571040D01*
X141020643Y-87571040D01*
X139064230Y-85614629D01*
X139064230Y-85493093D01*
X139067907Y-85455760D01*
X139055442Y-85329197D01*
X139053233Y-85306774D01*
X139009776Y-85163513D01*
X138939204Y-85031484D01*
X138844231Y-84915759D01*
X138803472Y-84882309D01*
X138728506Y-84820786D01*
X138596477Y-84750214D01*
X138453216Y-84706757D01*
X138341563Y-84695760D01*
X138304230Y-84692083D01*
X138266897Y-84695760D01*
X127344925Y-84695760D01*
X127270906Y-84673307D01*
X127159253Y-84662310D01*
X127104242Y-84662310D01*
X127066919Y-84658634D01*
X127029597Y-84662310D01*
X127029587Y-84662310D01*
X126973360Y-84667848D01*
X126973360Y-84348764D01*
X126977036Y-84311441D01*
X126973360Y-84274118D01*
X126973360Y-84274109D01*
X126962363Y-84162456D01*
X126918906Y-84019195D01*
X126874210Y-83935576D01*
X138142085Y-83876167D01*
X141029769Y-86914673D01*
G36*
X112308640Y-82336640D02*
G01*
X112328640Y-82336640D01*
X112328640Y-82590640D01*
X112308640Y-82590640D01*
X112308640Y-83789890D01*
X112467390Y-83948640D01*
X113031640Y-83951712D01*
X113156122Y-83939452D01*
X113275820Y-83903142D01*
X113386134Y-83844177D01*
X113482825Y-83764825D01*
X113562177Y-83668134D01*
X113621142Y-83557820D01*
X113657452Y-83438122D01*
X113669712Y-83313640D01*
X113666640Y-82749390D01*
X113507892Y-82590642D01*
X113666640Y-82590642D01*
X113666640Y-82483442D01*
X114716822Y-83533624D01*
X114740620Y-83562622D01*
X114769618Y-83586420D01*
X114856344Y-83657595D01*
X114891653Y-83676468D01*
X114988374Y-83728167D01*
X115131635Y-83771624D01*
X115243288Y-83782621D01*
X115243298Y-83782621D01*
X115280621Y-83786297D01*
X115317944Y-83782621D01*
X117833049Y-83782621D01*
X117835758Y-83860003D01*
X117839063Y-83884679D01*
X117847119Y-83908236D01*
X117859616Y-83929769D01*
X117876074Y-83948449D01*
X117895860Y-83963560D01*
X117918214Y-83974521D01*
X117942276Y-83980910D01*
X117963350Y-83982558D01*
X119236272Y-83975847D01*
X119236271Y-85142888D01*
X119232595Y-85180211D01*
X119236271Y-85217533D01*
X119236271Y-85217543D01*
X119247268Y-85329196D01*
X119283320Y-85448044D01*
X119290725Y-85472457D01*
X119361297Y-85604487D01*
X119399654Y-85651225D01*
X119456270Y-85720212D01*
X119485274Y-85744015D01*
X121088779Y-87347520D01*
X114045842Y-87347520D01*
X113541570Y-86843248D01*
X113585360Y-86623100D01*
X113585360Y-86330580D01*
X113528292Y-86043682D01*
X113416350Y-85773429D01*
X113253835Y-85530208D01*
X113046992Y-85323365D01*
X112803771Y-85160850D01*
X112533518Y-85048908D01*
X112246620Y-84991840D01*
X111954100Y-84991840D01*
X111667202Y-85048908D01*
X111396949Y-85160850D01*
X111153728Y-85323365D01*
X110946885Y-85530208D01*
X110784370Y-85773429D01*
X110672428Y-86043682D01*
X110615360Y-86330580D01*
X110615360Y-86623100D01*
X110672428Y-86909998D01*
X110784370Y-87180251D01*
X110946885Y-87423472D01*
X111153728Y-87630315D01*
X111328120Y-87746840D01*
X111153728Y-87863365D01*
X110946885Y-88070208D01*
X110784370Y-88313429D01*
X110672428Y-88583682D01*
X110615360Y-88870580D01*
X110615360Y-89163100D01*
X110672428Y-89449998D01*
X110784370Y-89720251D01*
X110946885Y-89963472D01*
X111153728Y-90170315D01*
X111328120Y-90286840D01*
X111153728Y-90403365D01*
X110946885Y-90610208D01*
X110784370Y-90853429D01*
X110672428Y-91123682D01*
X110615360Y-91410580D01*
X110615360Y-91703100D01*
X110672428Y-91989998D01*
X110784370Y-92260251D01*
X110946885Y-92503472D01*
X111078740Y-92635327D01*
X111006180Y-92657338D01*
X110895866Y-92716303D01*
X110799175Y-92795655D01*
X110719823Y-92892346D01*
X110660858Y-93002660D01*
X110624548Y-93122358D01*
X110612288Y-93246840D01*
X110612288Y-94794800D01*
X105147922Y-94794800D01*
X105147922Y-91943759D01*
X110106929Y-86984754D01*
X110135921Y-86960961D01*
X110159715Y-86931968D01*
X110159719Y-86931964D01*
X110230893Y-86845237D01*
X110230894Y-86845236D01*
X110301466Y-86713207D01*
X110344923Y-86569946D01*
X110355920Y-86458293D01*
X110355920Y-86458284D01*
X110359596Y-86420961D01*
X110355920Y-86383638D01*
X110355920Y-82824161D01*
X110696640Y-82483442D01*
X110696640Y-82590642D01*
X110855388Y-82590642D01*
X110696640Y-82749390D01*
X110693568Y-83313640D01*
X110705828Y-83438122D01*
X110742138Y-83557820D01*
X110801103Y-83668134D01*
X110880455Y-83764825D01*
X110977146Y-83844177D01*
X111087460Y-83903142D01*
X111207158Y-83939452D01*
X111331640Y-83951712D01*
X111895890Y-83948640D01*
X112054640Y-83789890D01*
X112054640Y-82590640D01*
X112034640Y-82590640D01*
X112034640Y-82336640D01*
X112054640Y-82336640D01*
X112054640Y-82316640D01*
X112308640Y-82316640D01*
X112308640Y-82336640D01*
G37*
X112308640Y-82336640D02*
X112328640Y-82336640D01*
X112328640Y-82590640D01*
X112308640Y-82590640D01*
X112308640Y-83789890D01*
X112467390Y-83948640D01*
X113031640Y-83951712D01*
X113156122Y-83939452D01*
X113275820Y-83903142D01*
X113386134Y-83844177D01*
X113482825Y-83764825D01*
X113562177Y-83668134D01*
X113621142Y-83557820D01*
X113657452Y-83438122D01*
X113669712Y-83313640D01*
X113666640Y-82749390D01*
X113507892Y-82590642D01*
X113666640Y-82590642D01*
X113666640Y-82483442D01*
X114716822Y-83533624D01*
X114740620Y-83562622D01*
X114769618Y-83586420D01*
X114856344Y-83657595D01*
X114891653Y-83676468D01*
X114988374Y-83728167D01*
X115131635Y-83771624D01*
X115243288Y-83782621D01*
X115243298Y-83782621D01*
X115280621Y-83786297D01*
X115317944Y-83782621D01*
X117833049Y-83782621D01*
X117835758Y-83860003D01*
X117839063Y-83884679D01*
X117847119Y-83908236D01*
X117859616Y-83929769D01*
X117876074Y-83948449D01*
X117895860Y-83963560D01*
X117918214Y-83974521D01*
X117942276Y-83980910D01*
X117963350Y-83982558D01*
X119236272Y-83975847D01*
X119236271Y-85142888D01*
X119232595Y-85180211D01*
X119236271Y-85217533D01*
X119236271Y-85217543D01*
X119247268Y-85329196D01*
X119283320Y-85448044D01*
X119290725Y-85472457D01*
X119361297Y-85604487D01*
X119399654Y-85651225D01*
X119456270Y-85720212D01*
X119485274Y-85744015D01*
X121088779Y-87347520D01*
X114045842Y-87347520D01*
X113541570Y-86843248D01*
X113585360Y-86623100D01*
X113585360Y-86330580D01*
X113528292Y-86043682D01*
X113416350Y-85773429D01*
X113253835Y-85530208D01*
X113046992Y-85323365D01*
X112803771Y-85160850D01*
X112533518Y-85048908D01*
X112246620Y-84991840D01*
X111954100Y-84991840D01*
X111667202Y-85048908D01*
X111396949Y-85160850D01*
X111153728Y-85323365D01*
X110946885Y-85530208D01*
X110784370Y-85773429D01*
X110672428Y-86043682D01*
X110615360Y-86330580D01*
X110615360Y-86623100D01*
X110672428Y-86909998D01*
X110784370Y-87180251D01*
X110946885Y-87423472D01*
X111153728Y-87630315D01*
X111328120Y-87746840D01*
X111153728Y-87863365D01*
X110946885Y-88070208D01*
X110784370Y-88313429D01*
X110672428Y-88583682D01*
X110615360Y-88870580D01*
X110615360Y-89163100D01*
X110672428Y-89449998D01*
X110784370Y-89720251D01*
X110946885Y-89963472D01*
X111153728Y-90170315D01*
X111328120Y-90286840D01*
X111153728Y-90403365D01*
X110946885Y-90610208D01*
X110784370Y-90853429D01*
X110672428Y-91123682D01*
X110615360Y-91410580D01*
X110615360Y-91703100D01*
X110672428Y-91989998D01*
X110784370Y-92260251D01*
X110946885Y-92503472D01*
X111078740Y-92635327D01*
X111006180Y-92657338D01*
X110895866Y-92716303D01*
X110799175Y-92795655D01*
X110719823Y-92892346D01*
X110660858Y-93002660D01*
X110624548Y-93122358D01*
X110612288Y-93246840D01*
X110612288Y-94794800D01*
X105147922Y-94794800D01*
X105147922Y-91943759D01*
X110106929Y-86984754D01*
X110135921Y-86960961D01*
X110159715Y-86931968D01*
X110159719Y-86931964D01*
X110230893Y-86845237D01*
X110230894Y-86845236D01*
X110301466Y-86713207D01*
X110344923Y-86569946D01*
X110355920Y-86458293D01*
X110355920Y-86458284D01*
X110359596Y-86420961D01*
X110355920Y-86383638D01*
X110355920Y-82824161D01*
X110696640Y-82483442D01*
X110696640Y-82590642D01*
X110855388Y-82590642D01*
X110696640Y-82749390D01*
X110693568Y-83313640D01*
X110705828Y-83438122D01*
X110742138Y-83557820D01*
X110801103Y-83668134D01*
X110880455Y-83764825D01*
X110977146Y-83844177D01*
X111087460Y-83903142D01*
X111207158Y-83939452D01*
X111331640Y-83951712D01*
X111895890Y-83948640D01*
X112054640Y-83789890D01*
X112054640Y-82590640D01*
X112034640Y-82590640D01*
X112034640Y-82336640D01*
X112054640Y-82336640D01*
X112054640Y-82316640D01*
X112308640Y-82316640D01*
X112308640Y-82336640D01*
G36*
X156439284Y-89691005D02*
G01*
X156415760Y-89688688D01*
X156226510Y-89691760D01*
X156067760Y-89850510D01*
X156067760Y-90637260D01*
X156892010Y-90637260D01*
X157050760Y-90478510D01*
X157053832Y-90326760D01*
X157051515Y-90303237D01*
X158785640Y-92037362D01*
X158809439Y-92066361D01*
X158838437Y-92090159D01*
X158925163Y-92161334D01*
X159034301Y-92219670D01*
X159057193Y-92231906D01*
X159200454Y-92275363D01*
X159312107Y-92286360D01*
X159312117Y-92286360D01*
X159349440Y-92290036D01*
X159386763Y-92286360D01*
X169425062Y-92286360D01*
X169549765Y-92472992D01*
X169756608Y-92679835D01*
X169931000Y-92796360D01*
X169756608Y-92912885D01*
X169549765Y-93119728D01*
X169425062Y-93306360D01*
X164614085Y-93306360D01*
X164576760Y-93302684D01*
X164539435Y-93306360D01*
X164539427Y-93306360D01*
X164427774Y-93317357D01*
X164284513Y-93360814D01*
X164152484Y-93431386D01*
X164036759Y-93526359D01*
X164012956Y-93555363D01*
X163776389Y-93791930D01*
X155562891Y-93791930D01*
X155939990Y-93414832D01*
X156197010Y-93414832D01*
X156364168Y-93398368D01*
X156524902Y-93349610D01*
X156673035Y-93270431D01*
X156802875Y-93163875D01*
X156909431Y-93034035D01*
X156988610Y-92885902D01*
X157037368Y-92725168D01*
X157053832Y-92558010D01*
X157053832Y-92120510D01*
X157037368Y-91953352D01*
X156988610Y-91792618D01*
X156909431Y-91644485D01*
X156891660Y-91622830D01*
X156946297Y-91556254D01*
X157005262Y-91445940D01*
X157041572Y-91326242D01*
X157053832Y-91201760D01*
X157050760Y-91050010D01*
X156892010Y-90891260D01*
X156067760Y-90891260D01*
X156067760Y-90911260D01*
X155813760Y-90911260D01*
X155813760Y-90891260D01*
X154989510Y-90891260D01*
X154830760Y-91050010D01*
X154827688Y-91201760D01*
X154839948Y-91326242D01*
X154876258Y-91445940D01*
X154935223Y-91556254D01*
X154989860Y-91622830D01*
X154972089Y-91644485D01*
X154892910Y-91792618D01*
X154844152Y-91953352D01*
X154827688Y-92120510D01*
X154827688Y-92377530D01*
X153863299Y-93341920D01*
X152990302Y-93341920D01*
X152993590Y-93338632D01*
X153250610Y-93338632D01*
X153417768Y-93322168D01*
X153578502Y-93273410D01*
X153726635Y-93194231D01*
X153856475Y-93087675D01*
X153963031Y-92957835D01*
X154042210Y-92809702D01*
X154090968Y-92648968D01*
X154107432Y-92481810D01*
X154107432Y-92044310D01*
X154090968Y-91877152D01*
X154042210Y-91716418D01*
X153963031Y-91568285D01*
X153886934Y-91475560D01*
X153963031Y-91382835D01*
X154042210Y-91234702D01*
X154090968Y-91073968D01*
X154107432Y-90906810D01*
X154107432Y-90649789D01*
X154430461Y-90326760D01*
X154827688Y-90326760D01*
X154830760Y-90478510D01*
X154989510Y-90637260D01*
X155813760Y-90637260D01*
X155813760Y-89850510D01*
X155655010Y-89691760D01*
X155465760Y-89688688D01*
X155341278Y-89700948D01*
X155221580Y-89737258D01*
X155111266Y-89796223D01*
X155014575Y-89875575D01*
X154935223Y-89972266D01*
X154876258Y-90082580D01*
X154839948Y-90202278D01*
X154827688Y-90326760D01*
X154430461Y-90326760D01*
X155244542Y-89512680D01*
X156260959Y-89512680D01*
X156439284Y-89691005D01*
G37*
X156439284Y-89691005D02*
X156415760Y-89688688D01*
X156226510Y-89691760D01*
X156067760Y-89850510D01*
X156067760Y-90637260D01*
X156892010Y-90637260D01*
X157050760Y-90478510D01*
X157053832Y-90326760D01*
X157051515Y-90303237D01*
X158785640Y-92037362D01*
X158809439Y-92066361D01*
X158838437Y-92090159D01*
X158925163Y-92161334D01*
X159034301Y-92219670D01*
X159057193Y-92231906D01*
X159200454Y-92275363D01*
X159312107Y-92286360D01*
X159312117Y-92286360D01*
X159349440Y-92290036D01*
X159386763Y-92286360D01*
X169425062Y-92286360D01*
X169549765Y-92472992D01*
X169756608Y-92679835D01*
X169931000Y-92796360D01*
X169756608Y-92912885D01*
X169549765Y-93119728D01*
X169425062Y-93306360D01*
X164614085Y-93306360D01*
X164576760Y-93302684D01*
X164539435Y-93306360D01*
X164539427Y-93306360D01*
X164427774Y-93317357D01*
X164284513Y-93360814D01*
X164152484Y-93431386D01*
X164036759Y-93526359D01*
X164012956Y-93555363D01*
X163776389Y-93791930D01*
X155562891Y-93791930D01*
X155939990Y-93414832D01*
X156197010Y-93414832D01*
X156364168Y-93398368D01*
X156524902Y-93349610D01*
X156673035Y-93270431D01*
X156802875Y-93163875D01*
X156909431Y-93034035D01*
X156988610Y-92885902D01*
X157037368Y-92725168D01*
X157053832Y-92558010D01*
X157053832Y-92120510D01*
X157037368Y-91953352D01*
X156988610Y-91792618D01*
X156909431Y-91644485D01*
X156891660Y-91622830D01*
X156946297Y-91556254D01*
X157005262Y-91445940D01*
X157041572Y-91326242D01*
X157053832Y-91201760D01*
X157050760Y-91050010D01*
X156892010Y-90891260D01*
X156067760Y-90891260D01*
X156067760Y-90911260D01*
X155813760Y-90911260D01*
X155813760Y-90891260D01*
X154989510Y-90891260D01*
X154830760Y-91050010D01*
X154827688Y-91201760D01*
X154839948Y-91326242D01*
X154876258Y-91445940D01*
X154935223Y-91556254D01*
X154989860Y-91622830D01*
X154972089Y-91644485D01*
X154892910Y-91792618D01*
X154844152Y-91953352D01*
X154827688Y-92120510D01*
X154827688Y-92377530D01*
X153863299Y-93341920D01*
X152990302Y-93341920D01*
X152993590Y-93338632D01*
X153250610Y-93338632D01*
X153417768Y-93322168D01*
X153578502Y-93273410D01*
X153726635Y-93194231D01*
X153856475Y-93087675D01*
X153963031Y-92957835D01*
X154042210Y-92809702D01*
X154090968Y-92648968D01*
X154107432Y-92481810D01*
X154107432Y-92044310D01*
X154090968Y-91877152D01*
X154042210Y-91716418D01*
X153963031Y-91568285D01*
X153886934Y-91475560D01*
X153963031Y-91382835D01*
X154042210Y-91234702D01*
X154090968Y-91073968D01*
X154107432Y-90906810D01*
X154107432Y-90649789D01*
X154430461Y-90326760D01*
X154827688Y-90326760D01*
X154830760Y-90478510D01*
X154989510Y-90637260D01*
X155813760Y-90637260D01*
X155813760Y-89850510D01*
X155655010Y-89691760D01*
X155465760Y-89688688D01*
X155341278Y-89700948D01*
X155221580Y-89737258D01*
X155111266Y-89796223D01*
X155014575Y-89875575D01*
X154935223Y-89972266D01*
X154876258Y-90082580D01*
X154839948Y-90202278D01*
X154827688Y-90326760D01*
X154430461Y-90326760D01*
X155244542Y-89512680D01*
X156260959Y-89512680D01*
X156439284Y-89691005D01*
G36*
X137336876Y-88642917D02*
G01*
X137321682Y-88638308D01*
X137197200Y-88626048D01*
X135497200Y-88626048D01*
X135372718Y-88638308D01*
X135253020Y-88674618D01*
X135142706Y-88733583D01*
X135046015Y-88812935D01*
X134966663Y-88909626D01*
X134907698Y-89019940D01*
X134883234Y-89100586D01*
X134807469Y-89016532D01*
X134574120Y-88842479D01*
X134311299Y-88717295D01*
X134164090Y-88672644D01*
X133934200Y-88793965D01*
X133934200Y-89987120D01*
X133954200Y-89987120D01*
X133954200Y-90241120D01*
X133934200Y-90241120D01*
X133934200Y-91434275D01*
X134164090Y-91555596D01*
X134311299Y-91510945D01*
X134574120Y-91385761D01*
X134807469Y-91211708D01*
X134883234Y-91127654D01*
X134907698Y-91208300D01*
X134966663Y-91318614D01*
X135046015Y-91415305D01*
X135142706Y-91494657D01*
X135253020Y-91553622D01*
X135372718Y-91589932D01*
X135497200Y-91602192D01*
X137197200Y-91602192D01*
X137321682Y-91589932D01*
X137441380Y-91553622D01*
X137551694Y-91494657D01*
X137648385Y-91415305D01*
X137727737Y-91318614D01*
X137786702Y-91208300D01*
X137823012Y-91088602D01*
X137835272Y-90964120D01*
X137835272Y-89264120D01*
X137823012Y-89139638D01*
X137818403Y-89124445D01*
X139832061Y-91138103D01*
X139855859Y-91167101D01*
X139884857Y-91190899D01*
X139971583Y-91262074D01*
X140102197Y-91331889D01*
X140103613Y-91332646D01*
X140246874Y-91376103D01*
X140358527Y-91387100D01*
X140358537Y-91387100D01*
X140395860Y-91390776D01*
X140433182Y-91387100D01*
X142675743Y-91387100D01*
X142656863Y-91410106D01*
X142597898Y-91520420D01*
X142561588Y-91640118D01*
X142549328Y-91764600D01*
X142552400Y-91916350D01*
X142711150Y-92075100D01*
X143535400Y-92075100D01*
X143535400Y-92055100D01*
X143789400Y-92055100D01*
X143789400Y-92075100D01*
X144613650Y-92075100D01*
X144772400Y-91916350D01*
X144775472Y-91764600D01*
X144763212Y-91640118D01*
X144726902Y-91520420D01*
X144667937Y-91410106D01*
X144613300Y-91343530D01*
X144631071Y-91321875D01*
X144710250Y-91173742D01*
X144759008Y-91013008D01*
X144775472Y-90845850D01*
X144775472Y-90408350D01*
X144759008Y-90241192D01*
X144710250Y-90080458D01*
X144662006Y-89990200D01*
X145623539Y-89990200D01*
X146222168Y-90588830D01*
X146222168Y-90845850D01*
X146238632Y-91013008D01*
X146287390Y-91173742D01*
X146366569Y-91321875D01*
X146442666Y-91414600D01*
X146366569Y-91507325D01*
X146287390Y-91655458D01*
X146238632Y-91816192D01*
X146222168Y-91983350D01*
X146222168Y-92420850D01*
X146238632Y-92588008D01*
X146280867Y-92727240D01*
X144766840Y-92727240D01*
X144775472Y-92639600D01*
X144772400Y-92487850D01*
X144613650Y-92329100D01*
X143789400Y-92329100D01*
X143789400Y-92349100D01*
X143535400Y-92349100D01*
X143535400Y-92329100D01*
X142711150Y-92329100D01*
X142552400Y-92487850D01*
X142549328Y-92639600D01*
X142557960Y-92727240D01*
X128928123Y-92727240D01*
X128964172Y-92608402D01*
X128976432Y-92483920D01*
X128976432Y-91383920D01*
X128973360Y-91352728D01*
X128973360Y-90974843D01*
X128977037Y-90937510D01*
X128962363Y-90788524D01*
X128918906Y-90645263D01*
X128913229Y-90634643D01*
X128848334Y-90513234D01*
X128813683Y-90471011D01*
X132365719Y-90471011D01*
X132463043Y-90745372D01*
X132612022Y-90995475D01*
X132806931Y-91211708D01*
X133040280Y-91385761D01*
X133303101Y-91510945D01*
X133450310Y-91555596D01*
X133680200Y-91434275D01*
X133680200Y-90241120D01*
X132486386Y-90241120D01*
X132365719Y-90471011D01*
X128813683Y-90471011D01*
X128753361Y-90397509D01*
X128724358Y-90373707D01*
X128506711Y-90156060D01*
X128724363Y-89938408D01*
X128753361Y-89914611D01*
X128848334Y-89798886D01*
X128870600Y-89757229D01*
X132365719Y-89757229D01*
X132486386Y-89987120D01*
X133680200Y-89987120D01*
X133680200Y-88793965D01*
X133450310Y-88672644D01*
X133303101Y-88717295D01*
X133040280Y-88842479D01*
X132806931Y-89016532D01*
X132612022Y-89232765D01*
X132463043Y-89482868D01*
X132365719Y-89757229D01*
X128870600Y-89757229D01*
X128918906Y-89666857D01*
X128962363Y-89523596D01*
X128973360Y-89411943D01*
X128973360Y-89411935D01*
X128977036Y-89374610D01*
X128973360Y-89337285D01*
X128973360Y-88215112D01*
X128976432Y-88183920D01*
X128976432Y-87236840D01*
X135930799Y-87236840D01*
X137336876Y-88642917D01*
G37*
X137336876Y-88642917D02*
X137321682Y-88638308D01*
X137197200Y-88626048D01*
X135497200Y-88626048D01*
X135372718Y-88638308D01*
X135253020Y-88674618D01*
X135142706Y-88733583D01*
X135046015Y-88812935D01*
X134966663Y-88909626D01*
X134907698Y-89019940D01*
X134883234Y-89100586D01*
X134807469Y-89016532D01*
X134574120Y-88842479D01*
X134311299Y-88717295D01*
X134164090Y-88672644D01*
X133934200Y-88793965D01*
X133934200Y-89987120D01*
X133954200Y-89987120D01*
X133954200Y-90241120D01*
X133934200Y-90241120D01*
X133934200Y-91434275D01*
X134164090Y-91555596D01*
X134311299Y-91510945D01*
X134574120Y-91385761D01*
X134807469Y-91211708D01*
X134883234Y-91127654D01*
X134907698Y-91208300D01*
X134966663Y-91318614D01*
X135046015Y-91415305D01*
X135142706Y-91494657D01*
X135253020Y-91553622D01*
X135372718Y-91589932D01*
X135497200Y-91602192D01*
X137197200Y-91602192D01*
X137321682Y-91589932D01*
X137441380Y-91553622D01*
X137551694Y-91494657D01*
X137648385Y-91415305D01*
X137727737Y-91318614D01*
X137786702Y-91208300D01*
X137823012Y-91088602D01*
X137835272Y-90964120D01*
X137835272Y-89264120D01*
X137823012Y-89139638D01*
X137818403Y-89124445D01*
X139832061Y-91138103D01*
X139855859Y-91167101D01*
X139884857Y-91190899D01*
X139971583Y-91262074D01*
X140102197Y-91331889D01*
X140103613Y-91332646D01*
X140246874Y-91376103D01*
X140358527Y-91387100D01*
X140358537Y-91387100D01*
X140395860Y-91390776D01*
X140433182Y-91387100D01*
X142675743Y-91387100D01*
X142656863Y-91410106D01*
X142597898Y-91520420D01*
X142561588Y-91640118D01*
X142549328Y-91764600D01*
X142552400Y-91916350D01*
X142711150Y-92075100D01*
X143535400Y-92075100D01*
X143535400Y-92055100D01*
X143789400Y-92055100D01*
X143789400Y-92075100D01*
X144613650Y-92075100D01*
X144772400Y-91916350D01*
X144775472Y-91764600D01*
X144763212Y-91640118D01*
X144726902Y-91520420D01*
X144667937Y-91410106D01*
X144613300Y-91343530D01*
X144631071Y-91321875D01*
X144710250Y-91173742D01*
X144759008Y-91013008D01*
X144775472Y-90845850D01*
X144775472Y-90408350D01*
X144759008Y-90241192D01*
X144710250Y-90080458D01*
X144662006Y-89990200D01*
X145623539Y-89990200D01*
X146222168Y-90588830D01*
X146222168Y-90845850D01*
X146238632Y-91013008D01*
X146287390Y-91173742D01*
X146366569Y-91321875D01*
X146442666Y-91414600D01*
X146366569Y-91507325D01*
X146287390Y-91655458D01*
X146238632Y-91816192D01*
X146222168Y-91983350D01*
X146222168Y-92420850D01*
X146238632Y-92588008D01*
X146280867Y-92727240D01*
X144766840Y-92727240D01*
X144775472Y-92639600D01*
X144772400Y-92487850D01*
X144613650Y-92329100D01*
X143789400Y-92329100D01*
X143789400Y-92349100D01*
X143535400Y-92349100D01*
X143535400Y-92329100D01*
X142711150Y-92329100D01*
X142552400Y-92487850D01*
X142549328Y-92639600D01*
X142557960Y-92727240D01*
X128928123Y-92727240D01*
X128964172Y-92608402D01*
X128976432Y-92483920D01*
X128976432Y-91383920D01*
X128973360Y-91352728D01*
X128973360Y-90974843D01*
X128977037Y-90937510D01*
X128962363Y-90788524D01*
X128918906Y-90645263D01*
X128913229Y-90634643D01*
X128848334Y-90513234D01*
X128813683Y-90471011D01*
X132365719Y-90471011D01*
X132463043Y-90745372D01*
X132612022Y-90995475D01*
X132806931Y-91211708D01*
X133040280Y-91385761D01*
X133303101Y-91510945D01*
X133450310Y-91555596D01*
X133680200Y-91434275D01*
X133680200Y-90241120D01*
X132486386Y-90241120D01*
X132365719Y-90471011D01*
X128813683Y-90471011D01*
X128753361Y-90397509D01*
X128724358Y-90373707D01*
X128506711Y-90156060D01*
X128724363Y-89938408D01*
X128753361Y-89914611D01*
X128848334Y-89798886D01*
X128870600Y-89757229D01*
X132365719Y-89757229D01*
X132486386Y-89987120D01*
X133680200Y-89987120D01*
X133680200Y-88793965D01*
X133450310Y-88672644D01*
X133303101Y-88717295D01*
X133040280Y-88842479D01*
X132806931Y-89016532D01*
X132612022Y-89232765D01*
X132463043Y-89482868D01*
X132365719Y-89757229D01*
X128870600Y-89757229D01*
X128918906Y-89666857D01*
X128962363Y-89523596D01*
X128973360Y-89411943D01*
X128973360Y-89411935D01*
X128977036Y-89374610D01*
X128973360Y-89337285D01*
X128973360Y-88215112D01*
X128976432Y-88183920D01*
X128976432Y-87236840D01*
X135930799Y-87236840D01*
X137336876Y-88642917D01*
%TD*%
M02*
