M48
INCH,TZ
T1C0.0157
T2C0.0315
T3C0.0394
T4C0.0433
T5C0.0512
%
G90
G05
T1
X45916Y-34122
X51804Y-35700
X62170Y-36436
X64468Y-34828
T2
X59362Y-17856
X60346Y-17856
X49982Y-22978
X49982Y-23978
X49982Y-24978
X49982Y-25978
X49982Y-26978
X49982Y-27978
X49982Y-28978
X49982Y-29978
X52982Y-22978
X52982Y-23978
X52982Y-24978
X52982Y-25978
X52982Y-26978
X52982Y-27978
X52982Y-28978
X52982Y-29978
X55796Y-17914
X56780Y-17914
T3
X44166Y-29466
X44166Y-30466
X44166Y-31466
X44166Y-32466
X43890Y-20730
X43890Y-21730
X43890Y-22730
X44890Y-20730
X44890Y-21730
X44890Y-22730
X44134Y-34046
X44134Y-35046
X44134Y-36046
X44134Y-37046
X39040Y-18462
X39040Y-19462
X39040Y-20462
X39040Y-21462
X39040Y-22462
X39040Y-23462
X39040Y-24462
X39040Y-25462
X39040Y-26462
X39040Y-27462
X39040Y-28462
X39040Y-29462
X39040Y-30462
X39040Y-31462
X39040Y-32462
X39040Y-33462
X39040Y-34462
X39040Y-35462
X39040Y-36462
X39040Y-37462
X40040Y-18462
X40040Y-19462
X40040Y-20462
X40040Y-21462
X40040Y-22462
X40040Y-23462
X40040Y-24462
X40040Y-25462
X40040Y-26462
X40040Y-27462
X40040Y-28462
X40040Y-29462
X40040Y-30462
X40040Y-31462
X40040Y-32462
X40040Y-33462
X40040Y-34462
X40040Y-35462
X40040Y-36462
X40040Y-37462
X43890Y-17606
X43890Y-18606
X44890Y-17606
X44890Y-18606
X67206Y-35034
X67206Y-36034
X67206Y-37034
X44018Y-24642
X44018Y-25642
X44018Y-26642
X45018Y-24642
X45018Y-25642
X45018Y-26642
T4
X56282Y-21522
X60282Y-21522
X56326Y-29982
X60326Y-29982
X56292Y-24982
X60292Y-24982
X56326Y-26694
X60326Y-26694
X56360Y-31524
X60360Y-31524
X56360Y-33236
X60360Y-33236
X56326Y-28338
X60326Y-28338
X56304Y-23220
X60304Y-23220
T5
X66422Y-26068
X66422Y-28068
X66510Y-20528
X66510Y-22528
T3
G00X49356Y-18571
M15
G01X49356Y-19359
M16
G05
G00X51600Y-17784
M15
G01X50812Y-17784
M16
G05
G00X51600Y-20146
M15
G01X50812Y-20146
M16
G05
T0
M30
