%TF.GenerationSoftware,KiCad,Pcbnew,(5.1.6)-1*%
%TF.CreationDate,2021-05-14T12:26:57+02:00*%
%TF.ProjectId,nano1,6e616e6f-312e-46b6-9963-61645f706362,rev?*%
%TF.SameCoordinates,Original*%
%TF.FileFunction,Soldermask,Bot*%
%TF.FilePolarity,Negative*%
%FSLAX46Y46*%
G04 Gerber Fmt 4.6, Leading zero omitted, Abs format (unit mm)*
G04 Created by KiCad (PCBNEW (5.1.6)-1) date 2021-05-14 12:26:57*
%MOMM*%
%LPD*%
G01*
G04 APERTURE LIST*
%ADD10O,1.800000X1.800000*%
%ADD11R,1.800000X1.800000*%
%ADD12R,0.550000X0.800000*%
%ADD13C,2.700000*%
%ADD14R,2.700000X2.700000*%
%ADD15R,3.600000X3.600000*%
%ADD16R,1.700000X1.700000*%
%ADD17C,1.700000*%
%ADD18R,2.300000X2.300000*%
%ADD19O,2.300000X2.300000*%
%ADD20O,1.700000X1.700000*%
G04 APERTURE END LIST*
D10*
%TO.C,J12*%
X133807200Y-90114120D03*
D11*
X136347200Y-90114120D03*
%TD*%
D10*
%TO.C,J11*%
X124028200Y-47320200D03*
D11*
X124028200Y-44780200D03*
%TD*%
%TO.C,R6*%
G36*
G01*
X107385840Y-88496830D02*
X107385840Y-89059330D01*
G75*
G02*
X107142090Y-89303080I-243750J0D01*
G01*
X106654590Y-89303080D01*
G75*
G02*
X106410840Y-89059330I0J243750D01*
G01*
X106410840Y-88496830D01*
G75*
G02*
X106654590Y-88253080I243750J0D01*
G01*
X107142090Y-88253080D01*
G75*
G02*
X107385840Y-88496830I0J-243750D01*
G01*
G37*
G36*
G01*
X108960840Y-88496830D02*
X108960840Y-89059330D01*
G75*
G02*
X108717090Y-89303080I-243750J0D01*
G01*
X108229590Y-89303080D01*
G75*
G02*
X107985840Y-89059330I0J243750D01*
G01*
X107985840Y-88496830D01*
G75*
G02*
X108229590Y-88253080I243750J0D01*
G01*
X108717090Y-88253080D01*
G75*
G02*
X108960840Y-88496830I0J-243750D01*
G01*
G37*
%TD*%
%TO.C,R5*%
G36*
G01*
X105242080Y-47673950D02*
X105242080Y-48236450D01*
G75*
G02*
X104998330Y-48480200I-243750J0D01*
G01*
X104510830Y-48480200D01*
G75*
G02*
X104267080Y-48236450I0J243750D01*
G01*
X104267080Y-47673950D01*
G75*
G02*
X104510830Y-47430200I243750J0D01*
G01*
X104998330Y-47430200D01*
G75*
G02*
X105242080Y-47673950I0J-243750D01*
G01*
G37*
G36*
G01*
X106817080Y-47673950D02*
X106817080Y-48236450D01*
G75*
G02*
X106573330Y-48480200I-243750J0D01*
G01*
X106085830Y-48480200D01*
G75*
G02*
X105842080Y-48236450I0J243750D01*
G01*
X105842080Y-47673950D01*
G75*
G02*
X106085830Y-47430200I243750J0D01*
G01*
X106573330Y-47430200D01*
G75*
G02*
X106817080Y-47673950I0J-243750D01*
G01*
G37*
%TD*%
D12*
%TO.C,Q2*%
X107914440Y-83861400D03*
X107264440Y-85861400D03*
X108564440Y-85861400D03*
%TD*%
%TO.C,Q1*%
X105450640Y-43927520D03*
X104800640Y-45927520D03*
X106100640Y-45927520D03*
%TD*%
D10*
%TO.C,J10*%
X112100360Y-86476840D03*
X112100360Y-89016840D03*
X112100360Y-91556840D03*
D11*
X112100360Y-94096840D03*
%TD*%
D10*
%TO.C,J9*%
X170703240Y-94066360D03*
X170703240Y-91526360D03*
D11*
X170703240Y-88986360D03*
%TD*%
D10*
%TO.C,J3*%
X114345720Y-67670680D03*
X111805720Y-67670680D03*
X114345720Y-65130680D03*
X111805720Y-65130680D03*
X114345720Y-62590680D03*
D11*
X111805720Y-62590680D03*
%TD*%
D10*
%TO.C,J1*%
X99161600Y-46893480D03*
X101701600Y-46893480D03*
X99161600Y-49433480D03*
X101701600Y-49433480D03*
X99161600Y-51973480D03*
X101701600Y-51973480D03*
X99161600Y-54513480D03*
X101701600Y-54513480D03*
X99161600Y-57053480D03*
X101701600Y-57053480D03*
X99161600Y-59593480D03*
X101701600Y-59593480D03*
X99161600Y-62133480D03*
X101701600Y-62133480D03*
X99161600Y-64673480D03*
X101701600Y-64673480D03*
X99161600Y-67213480D03*
X101701600Y-67213480D03*
X99161600Y-69753480D03*
X101701600Y-69753480D03*
X99161600Y-72293480D03*
X101701600Y-72293480D03*
X99161600Y-74833480D03*
X101701600Y-74833480D03*
X99161600Y-77373480D03*
X101701600Y-77373480D03*
X99161600Y-79913480D03*
X101701600Y-79913480D03*
X99161600Y-82453480D03*
X101701600Y-82453480D03*
X99161600Y-84993480D03*
X101701600Y-84993480D03*
X99161600Y-87533480D03*
X101701600Y-87533480D03*
X99161600Y-90073480D03*
X101701600Y-90073480D03*
X99161600Y-92613480D03*
X101701600Y-92613480D03*
X99161600Y-95153480D03*
D11*
X101701600Y-95153480D03*
%TD*%
D13*
%TO.C,J7*%
X168711880Y-71292720D03*
D14*
X168711880Y-66212720D03*
%TD*%
D13*
%TO.C,J6*%
X168935400Y-57221120D03*
D14*
X168935400Y-52141120D03*
%TD*%
D10*
%TO.C,J8*%
X112181640Y-74843640D03*
X112181640Y-77383640D03*
X112181640Y-79923640D03*
D11*
X112181640Y-82463640D03*
%TD*%
%TO.C,J5*%
G36*
G01*
X128882840Y-46431800D02*
X130682840Y-46431800D01*
G75*
G02*
X131582840Y-47331800I0J-900000D01*
G01*
X131582840Y-49131800D01*
G75*
G02*
X130682840Y-50031800I-900000J0D01*
G01*
X128882840Y-50031800D01*
G75*
G02*
X127982840Y-49131800I0J900000D01*
G01*
X127982840Y-47331800D01*
G75*
G02*
X128882840Y-46431800I900000J0D01*
G01*
G37*
G36*
G01*
X133457840Y-43681800D02*
X135507840Y-43681800D01*
G75*
G02*
X136282840Y-44456800I0J-775000D01*
G01*
X136282840Y-46006800D01*
G75*
G02*
X135507840Y-46781800I-775000J0D01*
G01*
X133457840Y-46781800D01*
G75*
G02*
X132682840Y-46006800I0J775000D01*
G01*
X132682840Y-44456800D01*
G75*
G02*
X133457840Y-43681800I775000J0D01*
G01*
G37*
D15*
X134482840Y-51231800D03*
%TD*%
D16*
%TO.C,C2*%
X158424880Y-45811440D03*
D17*
X160924880Y-45811440D03*
%TD*%
D18*
%TO.C,D8*%
X143154400Y-84419440D03*
D19*
X153314400Y-84419440D03*
%TD*%
D18*
%TO.C,D7*%
X143154400Y-80070960D03*
D19*
X153314400Y-80070960D03*
%TD*%
D18*
%TO.C,D6*%
X143068040Y-76154280D03*
D19*
X153228040Y-76154280D03*
%TD*%
D18*
%TO.C,D5*%
X143068040Y-71978520D03*
D19*
X153228040Y-71978520D03*
%TD*%
D18*
%TO.C,D4*%
X143068040Y-67802760D03*
D19*
X153228040Y-67802760D03*
%TD*%
D18*
%TO.C,D3*%
X142981680Y-63454280D03*
D19*
X153141680Y-63454280D03*
%TD*%
D18*
%TO.C,D2*%
X143012160Y-58978800D03*
D19*
X153172160Y-58978800D03*
%TD*%
D18*
%TO.C,D1*%
X142956280Y-54665880D03*
D19*
X153116280Y-54665880D03*
%TD*%
D16*
%TO.C,C1*%
X149367240Y-45958760D03*
D17*
X151867240Y-45958760D03*
%TD*%
D20*
%TO.C,U1*%
X134574280Y-58364120D03*
X126954280Y-76144120D03*
X134574280Y-60904120D03*
X126954280Y-73604120D03*
X134574280Y-63444120D03*
X126954280Y-71064120D03*
X134574280Y-65984120D03*
X126954280Y-68524120D03*
X134574280Y-68524120D03*
X126954280Y-65984120D03*
X134574280Y-71064120D03*
X126954280Y-63444120D03*
X134574280Y-73604120D03*
X126954280Y-60904120D03*
X134574280Y-76144120D03*
D16*
X126954280Y-58364120D03*
%TD*%
D10*
%TO.C,J4*%
X114020600Y-47259240D03*
X111480600Y-47259240D03*
X114020600Y-44719240D03*
D11*
X111480600Y-44719240D03*
%TD*%
D10*
%TO.C,J2*%
X114020600Y-57734200D03*
X111480600Y-57734200D03*
X114020600Y-55194200D03*
X111480600Y-55194200D03*
X114020600Y-52654200D03*
D11*
X111480600Y-52654200D03*
%TD*%
M02*
