%TF.GenerationSoftware,KiCad,Pcbnew,(5.1.6)-1*%
%TF.CreationDate,2021-05-14T11:39:53+02:00*%
%TF.ProjectId,nano1,6e616e6f-312e-46b6-9963-61645f706362,rev?*%
%TF.SameCoordinates,Original*%
%TF.FileFunction,Legend,Bot*%
%TF.FilePolarity,Positive*%
%FSLAX46Y46*%
G04 Gerber Fmt 4.6, Leading zero omitted, Abs format (unit mm)*
G04 Created by KiCad (PCBNEW (5.1.6)-1) date 2021-05-14 11:39:53*
%MOMM*%
%LPD*%
G01*
G04 APERTURE LIST*
%ADD10C,0.120000*%
%ADD11C,0.150000*%
G04 APERTURE END LIST*
D10*
%TO.C,R6*%
X107848619Y-89288080D02*
X107523061Y-89288080D01*
X107848619Y-88268080D02*
X107523061Y-88268080D01*
%TO.C,R5*%
X105704859Y-48465200D02*
X105379301Y-48465200D01*
X105704859Y-47445200D02*
X105379301Y-47445200D01*
%TO.C,Q2*%
X106754440Y-85541400D02*
X106754440Y-84131400D01*
X109074440Y-84131400D02*
X109074440Y-86161400D01*
X109074440Y-84131400D02*
X108414440Y-84131400D01*
X107414440Y-84131400D02*
X106754440Y-84131400D01*
%TO.C,Q1*%
X104290640Y-45607520D02*
X104290640Y-44197520D01*
X106610640Y-44197520D02*
X106610640Y-46227520D01*
X106610640Y-44197520D02*
X105950640Y-44197520D01*
X104950640Y-44197520D02*
X104290640Y-44197520D01*
%TO.C,R6*%
D11*
X107852506Y-87800460D02*
X108185840Y-87324270D01*
X108423935Y-87800460D02*
X108423935Y-86800460D01*
X108042982Y-86800460D01*
X107947744Y-86848080D01*
X107900125Y-86895699D01*
X107852506Y-86990937D01*
X107852506Y-87133794D01*
X107900125Y-87229032D01*
X107947744Y-87276651D01*
X108042982Y-87324270D01*
X108423935Y-87324270D01*
X106995363Y-86800460D02*
X107185840Y-86800460D01*
X107281078Y-86848080D01*
X107328697Y-86895699D01*
X107423935Y-87038556D01*
X107471554Y-87229032D01*
X107471554Y-87609984D01*
X107423935Y-87705222D01*
X107376316Y-87752841D01*
X107281078Y-87800460D01*
X107090601Y-87800460D01*
X106995363Y-87752841D01*
X106947744Y-87705222D01*
X106900125Y-87609984D01*
X106900125Y-87371889D01*
X106947744Y-87276651D01*
X106995363Y-87229032D01*
X107090601Y-87181413D01*
X107281078Y-87181413D01*
X107376316Y-87229032D01*
X107423935Y-87276651D01*
X107471554Y-87371889D01*
%TO.C,R5*%
X105708746Y-46977580D02*
X106042080Y-46501390D01*
X106280175Y-46977580D02*
X106280175Y-45977580D01*
X105899222Y-45977580D01*
X105803984Y-46025200D01*
X105756365Y-46072819D01*
X105708746Y-46168057D01*
X105708746Y-46310914D01*
X105756365Y-46406152D01*
X105803984Y-46453771D01*
X105899222Y-46501390D01*
X106280175Y-46501390D01*
X104803984Y-45977580D02*
X105280175Y-45977580D01*
X105327794Y-46453771D01*
X105280175Y-46406152D01*
X105184937Y-46358533D01*
X104946841Y-46358533D01*
X104851603Y-46406152D01*
X104803984Y-46453771D01*
X104756365Y-46549009D01*
X104756365Y-46787104D01*
X104803984Y-46882342D01*
X104851603Y-46929961D01*
X104946841Y-46977580D01*
X105184937Y-46977580D01*
X105280175Y-46929961D01*
X105327794Y-46882342D01*
%TO.C,Q2*%
X110412059Y-84816161D02*
X110364440Y-84720923D01*
X110269201Y-84625685D01*
X110126344Y-84482828D01*
X110078725Y-84387590D01*
X110078725Y-84292352D01*
X110316820Y-84339971D02*
X110269201Y-84244733D01*
X110173963Y-84149495D01*
X109983487Y-84101876D01*
X109650154Y-84101876D01*
X109459678Y-84149495D01*
X109364440Y-84244733D01*
X109316820Y-84339971D01*
X109316820Y-84530447D01*
X109364440Y-84625685D01*
X109459678Y-84720923D01*
X109650154Y-84768542D01*
X109983487Y-84768542D01*
X110173963Y-84720923D01*
X110269201Y-84625685D01*
X110316820Y-84530447D01*
X110316820Y-84339971D01*
X109412059Y-85149495D02*
X109364440Y-85197114D01*
X109316820Y-85292352D01*
X109316820Y-85530447D01*
X109364440Y-85625685D01*
X109412059Y-85673304D01*
X109507297Y-85720923D01*
X109602535Y-85720923D01*
X109745392Y-85673304D01*
X110316820Y-85101876D01*
X110316820Y-85720923D01*
%TO.C,Q1*%
X107948259Y-44882281D02*
X107900640Y-44787043D01*
X107805401Y-44691805D01*
X107662544Y-44548948D01*
X107614925Y-44453710D01*
X107614925Y-44358472D01*
X107853020Y-44406091D02*
X107805401Y-44310853D01*
X107710163Y-44215615D01*
X107519687Y-44167996D01*
X107186354Y-44167996D01*
X106995878Y-44215615D01*
X106900640Y-44310853D01*
X106853020Y-44406091D01*
X106853020Y-44596567D01*
X106900640Y-44691805D01*
X106995878Y-44787043D01*
X107186354Y-44834662D01*
X107519687Y-44834662D01*
X107710163Y-44787043D01*
X107805401Y-44691805D01*
X107853020Y-44596567D01*
X107853020Y-44406091D01*
X107853020Y-45787043D02*
X107853020Y-45215615D01*
X107853020Y-45501329D02*
X106853020Y-45501329D01*
X106995878Y-45406091D01*
X107091116Y-45310853D01*
X107138735Y-45215615D01*
%TD*%
M02*
