%TF.GenerationSoftware,KiCad,Pcbnew,(5.1.6)-1*%
%TF.CreationDate,2021-05-14T11:39:53+02:00*%
%TF.ProjectId,nano1,6e616e6f-312e-46b6-9963-61645f706362,rev?*%
%TF.SameCoordinates,Original*%
%TF.FileFunction,Soldermask,Top*%
%TF.FilePolarity,Negative*%
%FSLAX46Y46*%
G04 Gerber Fmt 4.6, Leading zero omitted, Abs format (unit mm)*
G04 Created by KiCad (PCBNEW (5.1.6)-1) date 2021-05-14 11:39:53*
%MOMM*%
%LPD*%
G01*
G04 APERTURE LIST*
%ADD10O,1.800000X1.800000*%
%ADD11R,1.800000X1.800000*%
%ADD12R,0.350000X1.200000*%
%ADD13C,2.700000*%
%ADD14R,2.700000X2.700000*%
%ADD15R,3.600000X3.600000*%
%ADD16R,1.700000X1.700000*%
%ADD17C,1.700000*%
%ADD18R,2.300000X2.300000*%
%ADD19O,2.300000X2.300000*%
%ADD20O,1.700000X1.700000*%
G04 APERTURE END LIST*
D10*
%TO.C,J10*%
X112100360Y-86476840D03*
X112100360Y-89016840D03*
X112100360Y-91556840D03*
D11*
X112100360Y-94096840D03*
%TD*%
D10*
%TO.C,J9*%
X170703240Y-94066360D03*
X170703240Y-91526360D03*
D11*
X170703240Y-88986360D03*
%TD*%
D12*
%TO.C,U2*%
X126213360Y-87633920D03*
X126713360Y-87633920D03*
X127213360Y-87633920D03*
X127713360Y-87633920D03*
X128213360Y-87633920D03*
X128213360Y-91933920D03*
X127713360Y-91933920D03*
X127213360Y-91933920D03*
X126713360Y-91933920D03*
X126213360Y-91933920D03*
%TD*%
%TO.C,C3*%
G36*
G01*
X143381150Y-91714600D02*
X143943650Y-91714600D01*
G75*
G02*
X144187400Y-91958350I0J-243750D01*
G01*
X144187400Y-92445850D01*
G75*
G02*
X143943650Y-92689600I-243750J0D01*
G01*
X143381150Y-92689600D01*
G75*
G02*
X143137400Y-92445850I0J243750D01*
G01*
X143137400Y-91958350D01*
G75*
G02*
X143381150Y-91714600I243750J0D01*
G01*
G37*
G36*
G01*
X143381150Y-90139600D02*
X143943650Y-90139600D01*
G75*
G02*
X144187400Y-90383350I0J-243750D01*
G01*
X144187400Y-90870850D01*
G75*
G02*
X143943650Y-91114600I-243750J0D01*
G01*
X143381150Y-91114600D01*
G75*
G02*
X143137400Y-90870850I0J243750D01*
G01*
X143137400Y-90383350D01*
G75*
G02*
X143381150Y-90139600I243750J0D01*
G01*
G37*
%TD*%
%TO.C,R3*%
G36*
G01*
X155659510Y-91851760D02*
X156222010Y-91851760D01*
G75*
G02*
X156465760Y-92095510I0J-243750D01*
G01*
X156465760Y-92583010D01*
G75*
G02*
X156222010Y-92826760I-243750J0D01*
G01*
X155659510Y-92826760D01*
G75*
G02*
X155415760Y-92583010I0J243750D01*
G01*
X155415760Y-92095510D01*
G75*
G02*
X155659510Y-91851760I243750J0D01*
G01*
G37*
G36*
G01*
X155659510Y-90276760D02*
X156222010Y-90276760D01*
G75*
G02*
X156465760Y-90520510I0J-243750D01*
G01*
X156465760Y-91008010D01*
G75*
G02*
X156222010Y-91251760I-243750J0D01*
G01*
X155659510Y-91251760D01*
G75*
G02*
X155415760Y-91008010I0J243750D01*
G01*
X155415760Y-90520510D01*
G75*
G02*
X155659510Y-90276760I243750J0D01*
G01*
G37*
%TD*%
%TO.C,R2*%
G36*
G01*
X147616490Y-91114600D02*
X147053990Y-91114600D01*
G75*
G02*
X146810240Y-90870850I0J243750D01*
G01*
X146810240Y-90383350D01*
G75*
G02*
X147053990Y-90139600I243750J0D01*
G01*
X147616490Y-90139600D01*
G75*
G02*
X147860240Y-90383350I0J-243750D01*
G01*
X147860240Y-90870850D01*
G75*
G02*
X147616490Y-91114600I-243750J0D01*
G01*
G37*
G36*
G01*
X147616490Y-92689600D02*
X147053990Y-92689600D01*
G75*
G02*
X146810240Y-92445850I0J243750D01*
G01*
X146810240Y-91958350D01*
G75*
G02*
X147053990Y-91714600I243750J0D01*
G01*
X147616490Y-91714600D01*
G75*
G02*
X147860240Y-91958350I0J-243750D01*
G01*
X147860240Y-92445850D01*
G75*
G02*
X147616490Y-92689600I-243750J0D01*
G01*
G37*
%TD*%
%TO.C,R1*%
G36*
G01*
X150395250Y-91155240D02*
X149832750Y-91155240D01*
G75*
G02*
X149589000Y-90911490I0J243750D01*
G01*
X149589000Y-90423990D01*
G75*
G02*
X149832750Y-90180240I243750J0D01*
G01*
X150395250Y-90180240D01*
G75*
G02*
X150639000Y-90423990I0J-243750D01*
G01*
X150639000Y-90911490D01*
G75*
G02*
X150395250Y-91155240I-243750J0D01*
G01*
G37*
G36*
G01*
X150395250Y-92730240D02*
X149832750Y-92730240D01*
G75*
G02*
X149589000Y-92486490I0J243750D01*
G01*
X149589000Y-91998990D01*
G75*
G02*
X149832750Y-91755240I243750J0D01*
G01*
X150395250Y-91755240D01*
G75*
G02*
X150639000Y-91998990I0J-243750D01*
G01*
X150639000Y-92486490D01*
G75*
G02*
X150395250Y-92730240I-243750J0D01*
G01*
G37*
%TD*%
%TO.C,R4*%
G36*
G01*
X152713110Y-91775560D02*
X153275610Y-91775560D01*
G75*
G02*
X153519360Y-92019310I0J-243750D01*
G01*
X153519360Y-92506810D01*
G75*
G02*
X153275610Y-92750560I-243750J0D01*
G01*
X152713110Y-92750560D01*
G75*
G02*
X152469360Y-92506810I0J243750D01*
G01*
X152469360Y-92019310D01*
G75*
G02*
X152713110Y-91775560I243750J0D01*
G01*
G37*
G36*
G01*
X152713110Y-90200560D02*
X153275610Y-90200560D01*
G75*
G02*
X153519360Y-90444310I0J-243750D01*
G01*
X153519360Y-90931810D01*
G75*
G02*
X153275610Y-91175560I-243750J0D01*
G01*
X152713110Y-91175560D01*
G75*
G02*
X152469360Y-90931810I0J243750D01*
G01*
X152469360Y-90444310D01*
G75*
G02*
X152713110Y-90200560I243750J0D01*
G01*
G37*
%TD*%
D10*
%TO.C,J3*%
X114345720Y-67670680D03*
X111805720Y-67670680D03*
X114345720Y-65130680D03*
X111805720Y-65130680D03*
X114345720Y-62590680D03*
D11*
X111805720Y-62590680D03*
%TD*%
D10*
%TO.C,J1*%
X99161600Y-46893480D03*
X101701600Y-46893480D03*
X99161600Y-49433480D03*
X101701600Y-49433480D03*
X99161600Y-51973480D03*
X101701600Y-51973480D03*
X99161600Y-54513480D03*
X101701600Y-54513480D03*
X99161600Y-57053480D03*
X101701600Y-57053480D03*
X99161600Y-59593480D03*
X101701600Y-59593480D03*
X99161600Y-62133480D03*
X101701600Y-62133480D03*
X99161600Y-64673480D03*
X101701600Y-64673480D03*
X99161600Y-67213480D03*
X101701600Y-67213480D03*
X99161600Y-69753480D03*
X101701600Y-69753480D03*
X99161600Y-72293480D03*
X101701600Y-72293480D03*
X99161600Y-74833480D03*
X101701600Y-74833480D03*
X99161600Y-77373480D03*
X101701600Y-77373480D03*
X99161600Y-79913480D03*
X101701600Y-79913480D03*
X99161600Y-82453480D03*
X101701600Y-82453480D03*
X99161600Y-84993480D03*
X101701600Y-84993480D03*
X99161600Y-87533480D03*
X101701600Y-87533480D03*
X99161600Y-90073480D03*
X101701600Y-90073480D03*
X99161600Y-92613480D03*
X101701600Y-92613480D03*
X99161600Y-95153480D03*
D11*
X101701600Y-95153480D03*
%TD*%
D13*
%TO.C,J7*%
X168711880Y-71292720D03*
D14*
X168711880Y-66212720D03*
%TD*%
D13*
%TO.C,J6*%
X168935400Y-57221120D03*
D14*
X168935400Y-52141120D03*
%TD*%
D10*
%TO.C,J8*%
X112181640Y-74843640D03*
X112181640Y-77383640D03*
X112181640Y-79923640D03*
D11*
X112181640Y-82463640D03*
%TD*%
%TO.C,J5*%
G36*
G01*
X124463240Y-46370840D02*
X126263240Y-46370840D01*
G75*
G02*
X127163240Y-47270840I0J-900000D01*
G01*
X127163240Y-49070840D01*
G75*
G02*
X126263240Y-49970840I-900000J0D01*
G01*
X124463240Y-49970840D01*
G75*
G02*
X123563240Y-49070840I0J900000D01*
G01*
X123563240Y-47270840D01*
G75*
G02*
X124463240Y-46370840I900000J0D01*
G01*
G37*
G36*
G01*
X129038240Y-43620840D02*
X131088240Y-43620840D01*
G75*
G02*
X131863240Y-44395840I0J-775000D01*
G01*
X131863240Y-45945840D01*
G75*
G02*
X131088240Y-46720840I-775000J0D01*
G01*
X129038240Y-46720840D01*
G75*
G02*
X128263240Y-45945840I0J775000D01*
G01*
X128263240Y-44395840D01*
G75*
G02*
X129038240Y-43620840I775000J0D01*
G01*
G37*
D15*
X130063240Y-51170840D03*
%TD*%
D16*
%TO.C,C2*%
X150779480Y-45354240D03*
D17*
X153279480Y-45354240D03*
%TD*%
D18*
%TO.C,D8*%
X143154400Y-84419440D03*
D19*
X153314400Y-84419440D03*
%TD*%
D18*
%TO.C,D7*%
X143154400Y-80070960D03*
D19*
X153314400Y-80070960D03*
%TD*%
D18*
%TO.C,D6*%
X143068040Y-76154280D03*
D19*
X153228040Y-76154280D03*
%TD*%
D18*
%TO.C,D5*%
X143068040Y-71978520D03*
D19*
X153228040Y-71978520D03*
%TD*%
D18*
%TO.C,D4*%
X143068040Y-67802760D03*
D19*
X153228040Y-67802760D03*
%TD*%
D18*
%TO.C,D3*%
X142981680Y-63454280D03*
D19*
X153141680Y-63454280D03*
%TD*%
D18*
%TO.C,D2*%
X143012160Y-58978800D03*
D19*
X153172160Y-58978800D03*
%TD*%
D18*
%TO.C,D1*%
X142956280Y-54665880D03*
D19*
X153116280Y-54665880D03*
%TD*%
D16*
%TO.C,C1*%
X141721840Y-45501560D03*
D17*
X144221840Y-45501560D03*
%TD*%
D20*
%TO.C,U1*%
X134574280Y-58364120D03*
X126954280Y-76144120D03*
X134574280Y-60904120D03*
X126954280Y-73604120D03*
X134574280Y-63444120D03*
X126954280Y-71064120D03*
X134574280Y-65984120D03*
X126954280Y-68524120D03*
X134574280Y-68524120D03*
X126954280Y-65984120D03*
X134574280Y-71064120D03*
X126954280Y-63444120D03*
X134574280Y-73604120D03*
X126954280Y-60904120D03*
X134574280Y-76144120D03*
D16*
X126954280Y-58364120D03*
%TD*%
D10*
%TO.C,J4*%
X114020600Y-47259240D03*
X111480600Y-47259240D03*
X114020600Y-44719240D03*
D11*
X111480600Y-44719240D03*
%TD*%
D10*
%TO.C,J2*%
X114020600Y-57734200D03*
X111480600Y-57734200D03*
X114020600Y-55194200D03*
X111480600Y-55194200D03*
X114020600Y-52654200D03*
D11*
X111480600Y-52654200D03*
%TD*%
M02*
